<svg width="123" height="60" viewBox="0 0 123 60" fill="none" xmlns="http://www.w3.org/2000/svg">
<path d="M7.41481 9.75797C7.41481 10.2186 7.3298 10.6176 7.1631 10.9535C6.99473 11.2894 6.77802 11.5721 6.50963 11.8032C6.24291 12.0343 5.94119 12.2123 5.60445 12.3386C5.26938 12.465 4.92932 12.5431 4.58258 12.5747V13.4411H2.8639V12.5747H2.84723C2.32713 12.5232 1.88704 12.4101 1.52697 12.2372C1.16523 12.0643 0.871841 11.8414 0.643462 11.5687C0.415083 11.2961 0.251717 10.9751 0.15003 10.6077C0.0500102 10.2402 0 9.83612 0 9.39548V5.85373C0 5.40311 0.0816835 5.00404 0.246716 4.65818C0.410082 4.31232 0.628459 4.01801 0.898512 3.7769C1.17023 3.5358 1.47696 3.35289 1.82203 3.22652C2.16543 3.10014 2.51383 3.03696 2.8639 3.03696V2.48657H4.58258L4.59925 3.03696C4.94432 3.05857 5.28605 3.13174 5.62279 3.25645C5.95786 3.38282 6.25958 3.56406 6.5263 3.80018C6.79469 4.03796 7.00973 4.32728 7.1731 4.67315C7.3348 5.02067 7.41648 5.41808 7.41648 5.86869V9.75797H7.41481ZM2.8639 4.42373C2.48049 4.47694 2.17877 4.60663 1.95706 4.81781C1.73368 5.02732 1.62199 5.33161 1.62199 5.73068V9.91593C1.62199 10.1155 1.65866 10.2917 1.73368 10.443C1.80703 10.5944 1.90371 10.7241 2.0204 10.8288C2.13709 10.9336 2.26879 11.015 2.41882 11.0732C2.56718 11.1314 2.71554 11.1647 2.8639 11.1763V4.42373ZM5.8245 5.73068C5.8245 5.33161 5.70614 5.02233 5.46942 4.80118C5.23438 4.58169 4.93932 4.45532 4.58258 4.42373L4.59925 11.1747C4.73595 11.1531 4.87597 11.1115 5.02267 11.0483C5.16936 10.9868 5.30272 10.902 5.42275 10.7972C5.54277 10.6925 5.63946 10.5661 5.71281 10.4198C5.78615 10.2734 5.82283 10.1055 5.82283 9.91593V5.73068H5.8245Z" fill="#55565B"/>
<path d="M15.8815 10.6387C15.8815 11.5931 15.6648 12.3148 15.2314 12.802C14.798 13.2892 14.1162 13.5336 13.1843 13.5336C12.2541 13.5336 11.5757 13.3008 11.1523 12.8335C10.7288 12.368 10.5188 11.6929 10.5188 10.8116V5.30442C10.5188 4.87542 10.5688 4.48134 10.6688 4.12384C10.7689 3.768 10.9239 3.46038 11.1356 3.20431C11.3473 2.94658 11.6257 2.74704 11.9691 2.60737C12.3142 2.46603 12.7226 2.39453 13.1993 2.39453C13.7078 2.39453 14.1329 2.45938 14.4763 2.59074C14.8197 2.7221 15.0947 2.91332 15.3014 3.1644C15.5081 3.41549 15.6565 3.72144 15.7465 4.07728C15.8365 4.43312 15.8815 4.83884 15.8815 5.28945V10.6387ZM14.1629 5.16308C14.1629 4.85879 14.0962 4.58609 13.9645 4.34499C13.8311 4.10388 13.5794 3.9825 13.2093 3.9825C13.006 3.9825 12.8426 4.02739 12.7159 4.11718C12.5875 4.20698 12.4909 4.31672 12.4208 4.44808C12.3508 4.57944 12.3025 4.72577 12.2775 4.88872C12.2508 5.05168 12.2375 5.20133 12.2375 5.33768V10.8465C12.2375 11.1292 12.3092 11.3836 12.4525 11.6097C12.5959 11.8342 12.8426 11.9473 13.1927 11.9473C13.5427 11.9473 13.7911 11.8292 13.9411 11.5931C14.0895 11.357 14.1629 11.071 14.1629 10.7351V5.16308Z" fill="#55565B"/>
<path d="M22.8198 13.4404V8.65651H20.8444V13.4404H19.1257V2.48755H20.8444V7.06688H22.8198V2.48755H24.5385V13.4404H22.8198Z" fill="#55565B"/>
<path d="M28.5973 13.4409V15.5194H27.1504V12.0259L27.8022 11.8845C28.0989 11.5703 28.3006 11.2044 28.4073 10.7904C28.514 10.3764 28.5773 9.82765 28.5973 9.14591L28.7891 2.48975H33.7534V11.9012H34.4535V15.5211H33.0066V13.4426H28.5973V13.4409ZM30.1427 9.13427C30.121 9.7628 30.0793 10.3049 30.0143 10.7605C29.9509 11.2161 29.8293 11.5952 29.6492 11.8995H32.0364V4.07771H30.2693L30.1427 9.13427Z" fill="#55565B"/>
<path d="M44.7672 2.39307C45.224 2.39307 45.6157 2.45459 45.9458 2.58096C46.2742 2.70567 46.5476 2.88026 46.7659 3.10308C46.9826 3.32589 47.1427 3.59194 47.2444 3.89956C47.3444 4.20717 47.3944 4.54472 47.3944 4.9122L45.7224 5.33787C45.7224 4.94047 45.6457 4.61456 45.494 4.36348C45.3406 4.11073 45.0973 3.98602 44.7605 3.98602C44.5605 3.98602 44.3971 4.02759 44.2721 4.11239C44.1454 4.1972 44.0487 4.30362 43.9804 4.43498C43.912 4.56634 43.8637 4.70934 43.837 4.86065C43.812 5.01363 43.7987 5.15663 43.7987 5.29464V10.8617C43.7987 10.9664 43.8087 11.0812 43.8303 11.2075C43.8503 11.3339 43.8954 11.452 43.9654 11.5617C44.0337 11.6715 44.1287 11.7646 44.2488 11.8377C44.3688 11.9126 44.5238 11.9491 44.7155 11.9491C45.3473 11.9491 45.6674 11.4985 45.6774 10.5956C45.9641 10.6472 46.2508 10.6921 46.5376 10.7286C46.8243 10.7652 47.111 10.8051 47.3977 10.8467C47.3761 11.6748 47.146 12.3316 46.7043 12.8138C46.2642 13.2977 45.614 13.5388 44.7555 13.5388C43.8437 13.5388 43.1702 13.311 42.7351 12.8537C42.3 12.3964 42.0817 11.728 42.0817 10.8467V5.38277C42.0817 4.97372 42.1267 4.58795 42.2167 4.22713C42.3067 3.86464 42.4584 3.54704 42.6718 3.27435C42.8835 3.00165 43.1602 2.78715 43.5069 2.62918C43.847 2.47122 44.2671 2.39307 44.7672 2.39307Z" fill="#55565B"/>
<path d="M55.5745 10.6387C55.5745 11.5931 55.3561 12.3148 54.9227 12.802C54.4893 13.2892 53.8058 13.5336 52.8756 13.5336C51.9438 13.5336 51.267 13.3008 50.8435 12.8335C50.4218 12.368 50.2101 11.6929 50.2101 10.8116V5.30442C50.2101 4.87542 50.2601 4.48134 50.3601 4.12384C50.4618 3.768 50.6168 3.46038 50.8285 3.20431C51.0419 2.94658 51.3186 2.74704 51.662 2.60737C52.0054 2.46603 52.4155 2.39453 52.8906 2.39453C53.3991 2.39453 53.8241 2.45938 54.1692 2.59074C54.5126 2.7221 54.7877 2.91332 54.9927 3.1644C55.1994 3.41549 55.3478 3.72144 55.4378 4.07728C55.5278 4.43312 55.5728 4.83884 55.5728 5.28945V10.6387H55.5745ZM53.8558 5.16308C53.8558 4.85879 53.7891 4.58609 53.6558 4.34499C53.5241 4.10388 53.2724 3.9825 52.9006 3.9825C52.6989 3.9825 52.5356 4.02739 52.4072 4.11718C52.2788 4.20698 52.1805 4.31672 52.1121 4.44808C52.0421 4.57944 51.9938 4.72577 51.9671 4.88872C51.9404 5.05168 51.9288 5.20133 51.9288 5.33768V10.8465C51.9288 11.1292 52.0004 11.3836 52.1438 11.6097C52.2872 11.8342 52.5339 11.9473 52.884 11.9473C53.234 11.9473 53.4824 11.8292 53.6308 11.5931C53.7791 11.357 53.8541 11.071 53.8541 10.7351V5.16308H53.8558Z" fill="#55565B"/>
<path d="M59.569 13.4409V15.5194H58.1204V12.0259L58.7738 11.8845C59.0706 11.5703 59.2723 11.2044 59.3789 10.7904C59.484 10.3764 59.549 9.82765 59.569 9.14591L59.759 2.48975H64.725V11.9012H65.4252V15.5211H63.9765V13.4426H59.569V13.4409ZM61.1126 9.13427C61.091 9.7628 61.0476 10.3049 60.9843 10.7605C60.9209 11.2161 60.7992 11.5952 60.6192 11.8995H63.0063V4.07771H61.2393L61.1126 9.13427Z" fill="#55565B"/>
<path d="M68.2094 13.4404V2.48755H73.127V4.07718H69.928V7.06688H72.7119V8.68811H69.928V11.8507H73.127V13.4404H68.2094Z" fill="#55565B"/>
<path d="M79.8427 6.57825L77.5189 13.4389H75.8635V2.48778H77.5355V9.42828H77.5989L79.906 2.48778H81.578V13.4406H79.891V6.57825H79.8427ZM77.7739 0.000244141C77.7839 0.11664 77.8189 0.233035 77.8773 0.354419C77.9356 0.475803 78.0106 0.58721 78.1006 0.691966C78.1907 0.796722 78.294 0.884851 78.4107 0.953025C78.5274 1.0212 78.6608 1.05446 78.8075 1.05446C78.9675 1.05446 79.1075 1.0212 79.2292 0.953025C79.3526 0.884851 79.4542 0.798385 79.5409 0.691966C79.6259 0.58721 79.691 0.475803 79.7393 0.354419C79.786 0.233035 79.811 0.11664 79.811 0.000244141H81.0679C81.0462 0.221396 80.9879 0.459175 80.8912 0.716908C80.7962 0.972978 80.6545 1.2091 80.4694 1.42526C80.2827 1.63976 80.056 1.81768 79.7843 1.96068C79.5143 2.10202 79.1875 2.17352 78.8058 2.17352C78.3924 2.17352 78.0423 2.10368 77.7556 1.96068C77.4689 1.81934 77.2355 1.63976 77.0538 1.42526C76.8737 1.2091 76.7404 0.972978 76.657 0.716908C76.5703 0.459175 76.5237 0.221396 76.5137 0.000244141H77.7739Z" fill="#55565B"/>
<path d="M87.4371 2.39307C87.8938 2.39307 88.2872 2.45459 88.614 2.58096C88.9424 2.70567 89.2158 2.88026 89.4341 3.10308C89.6509 3.32589 89.8109 3.59194 89.9109 3.89956C90.0126 4.20717 90.0626 4.54472 90.0626 4.9122L88.3923 5.33787C88.3923 4.94047 88.3156 4.61456 88.1639 4.36348C88.0105 4.11073 87.7655 3.98602 87.4304 3.98602C87.2304 3.98602 87.067 4.02759 86.942 4.11239C86.8153 4.1972 86.7169 4.30362 86.6503 4.43498C86.5819 4.56634 86.5336 4.70934 86.5086 4.86065C86.4819 5.01363 86.4686 5.15663 86.4686 5.29464V10.8617C86.4686 10.9664 86.4786 11.0812 86.5002 11.2075C86.5202 11.3339 86.5652 11.452 86.6336 11.5617C86.7019 11.6715 86.797 11.7646 86.917 11.8377C87.0387 11.9126 87.1937 11.9491 87.3821 11.9491C88.0139 11.9491 88.3339 11.4985 88.3456 10.5956C88.6323 10.6472 88.9174 10.6921 89.2058 10.7286C89.4925 10.7652 89.7792 10.8051 90.0643 10.8467C90.0426 11.6748 89.8126 12.3316 89.3725 12.8138C88.9324 13.2977 88.2822 13.5388 87.4237 13.5388C86.5119 13.5388 85.8368 13.311 85.4033 12.8537C84.9683 12.3964 84.7499 11.728 84.7499 10.8467V5.38277C84.7499 4.97372 84.7949 4.58795 84.8849 4.22713C84.9749 3.86464 85.1249 3.54704 85.3383 3.27435C85.55 3.00165 85.8284 2.78715 86.1735 2.62918C86.5169 2.47122 86.9386 2.39307 87.4371 2.39307Z" fill="#55565B"/>
<path d="M95.695 4.07718V13.4404H93.9764V4.07718H92.1943V2.48755H97.4771V4.07718H95.695Z" fill="#55565B"/>
<path d="M104.082 7.71205C104.57 7.86835 104.905 8.16765 105.085 8.60829C105.267 9.04893 105.355 9.5511 105.355 10.1181C105.355 11.2621 105.109 12.1002 104.617 12.6372C104.122 13.1727 103.367 13.4387 102.348 13.4387H100.056V2.48755H102.475C103.452 2.48755 104.16 2.74196 104.602 3.25077C105.042 3.75959 105.262 4.4962 105.262 5.46062C105.262 5.96445 105.174 6.40509 105 6.78421C104.824 7.16166 104.518 7.44434 104.083 7.63389V7.71205H104.082ZM103.622 5.49388C103.622 4.99005 103.52 4.62756 103.32 4.40807C103.118 4.18859 102.783 4.07718 102.316 4.07718H101.776V6.91058H102.333C102.778 6.91058 103.103 6.7892 103.312 6.54809C103.517 6.30532 103.622 5.95447 103.622 5.49388ZM103.715 9.97843C103.715 9.46463 103.622 9.08219 103.43 8.82944C103.238 8.57836 102.903 8.45199 102.426 8.45199H101.775V11.8507H102.458C102.733 11.8507 102.953 11.8009 103.118 11.7011C103.283 11.6013 103.41 11.4683 103.5 11.3004C103.59 11.1324 103.648 10.9329 103.677 10.7034C103.703 10.4723 103.715 10.2295 103.715 9.97843Z" fill="#55565B"/>
<path d="M112.488 6.57802L110.166 13.4387H108.51V2.48755H110.182V9.42805H110.246L112.553 2.48755H114.225V13.4404H112.538V6.57802H112.488Z" fill="#55565B"/>
<path d="M117.071 13.4409L117.691 9.96068C117.764 9.5932 117.883 9.25898 118.041 8.96134C118.199 8.66203 118.423 8.42758 118.709 8.25964C118.199 8.05013 117.851 7.73253 117.659 7.30852C117.469 6.88451 117.372 6.37237 117.372 5.77542C117.372 4.69627 117.636 3.87818 118.161 3.3228C118.684 2.76743 119.404 2.48975 120.316 2.48975H122.847V13.4426H121.13V8.76845H120.685C120.388 8.76845 120.113 8.88319 119.865 9.11598C119.615 9.34711 119.438 9.75615 119.331 10.3431L118.806 13.4426H117.071V13.4409ZM120.46 4.07771C119.941 4.07771 119.578 4.23235 119.369 4.54163C119.163 4.85091 119.061 5.2583 119.061 5.76046C119.061 6.29588 119.191 6.66502 119.451 6.86954C119.71 7.07407 120.043 7.17716 120.445 7.17716H121.128V4.07771H120.46Z" fill="#55565B"/>
<path d="M5.17992 22.5573L2.29935 31.0658H0.245605V17.4841H2.31769V26.0891H2.3977L5.25827 17.4841H7.33035V31.0658H5.23993V22.5573H5.17992Z" fill="#55565B"/>
<path d="M17.7511 31.0658V25.1346H15.304V31.0658H13.1719V17.4841H15.304V23.1626H17.7511V17.4841H19.8832V31.0658H17.7511Z" fill="#55565B"/>
<path d="M30.3618 31.0658V25.1346H27.913V31.0658H25.7826V17.4841H27.913V23.1626H30.3618V17.4841H32.4923V31.0658H30.3618Z" fill="#55565B"/>
<path d="M44.9261 27.5926C44.9261 28.7765 44.6577 29.6711 44.1176 30.2764C43.5808 30.8816 42.7357 31.1826 41.5788 31.1826C40.4252 31.1826 39.5867 30.8933 39.0616 30.3146C38.5365 29.736 38.2748 28.8996 38.2748 27.8071V20.978C38.2748 20.4443 38.3365 19.9571 38.4631 19.5148C38.5865 19.0725 38.7799 18.6917 39.0433 18.3724C39.305 18.0532 39.6501 17.8071 40.0768 17.6308C40.5019 17.4546 41.0103 17.3665 41.6004 17.3665C42.2306 17.3665 42.759 17.4463 43.1858 17.6109C43.6108 17.7738 43.9526 18.01 44.2093 18.3226C44.4643 18.6352 44.6477 19.0126 44.7594 19.4549C44.8711 19.8972 44.9278 20.3977 44.9278 20.9564V27.5926H44.9261ZM42.794 20.8018C42.794 20.4243 42.7107 20.0868 42.5473 19.7875C42.3823 19.4882 42.0705 19.3385 41.6104 19.3385C41.3587 19.3385 41.157 19.3934 40.9987 19.5048C40.8403 19.6146 40.7186 19.7509 40.6336 19.9139C40.5469 20.0768 40.4886 20.2581 40.4569 20.4609C40.4235 20.6621 40.4085 20.8483 40.4085 21.018V27.847C40.4085 28.1979 40.4969 28.5138 40.6736 28.7932C40.852 29.0725 41.1587 29.2122 41.5921 29.2122C42.0272 29.2122 42.3356 29.0659 42.519 28.7732C42.7023 28.4806 42.7957 28.1264 42.7957 27.709V20.8018H42.794Z" fill="#55565B"/>
<path d="M55.7405 23.9624C56.3456 24.1586 56.7607 24.5294 56.984 25.0748C57.2074 25.6218 57.3191 26.2454 57.3191 26.9471C57.3191 28.3655 57.0124 29.4064 56.4023 30.0698C55.7905 30.7333 54.8536 31.0658 53.59 31.0658H50.7478V17.4841H53.7501C54.9586 17.4841 55.8372 17.8001 56.3839 18.4303C56.929 19.0621 57.2041 19.975 57.2041 21.1722C57.2041 21.7974 57.0941 22.3428 56.8774 22.8117C56.6607 23.2806 56.2822 23.6315 55.7438 23.8659V23.9624H55.7405ZM55.1687 21.2105C55.1687 20.5852 55.0437 20.1363 54.7953 19.8636C54.5452 19.5909 54.1301 19.4545 53.5517 19.4545H52.8799V22.9664H53.57C54.1235 22.9664 54.5269 22.8167 54.7853 22.5174C55.0403 22.2181 55.1687 21.7841 55.1687 21.2105ZM55.287 26.7725C55.287 26.1356 55.1687 25.6601 54.932 25.3475C54.6953 25.0349 54.2802 24.8786 53.6884 24.8786H52.8782V29.0938H53.7267C54.0685 29.0938 54.3419 29.0322 54.5452 28.9075C54.7503 28.7845 54.907 28.6182 55.0203 28.4103C55.132 28.2025 55.2037 27.9547 55.237 27.6687C55.2704 27.3844 55.287 27.0851 55.287 26.7725Z" fill="#55565B"/>
<path d="M68.0343 31.0658L67.5009 28.2374H64.9754C64.882 28.7047 64.7937 29.1769 64.7087 29.6508C64.6236 30.1263 64.542 30.5986 64.4619 31.0658H62.2915C62.7516 28.7895 63.2117 26.5264 63.6718 24.275C64.1319 22.0236 64.5936 19.7605 65.0537 17.4841H67.4225L70.2047 31.0658H68.0343ZM66.1789 20.6251C66.0473 21.5613 65.9089 22.4958 65.7655 23.4253C65.6188 24.3548 65.4621 25.3026 65.2904 26.2653H67.1641L66.2756 20.6251H66.1789Z" fill="#55565B"/>
<path d="M81.9283 17.4848V29.0944H82.8168V33.6405H81.0398V31.0649H75.277V17.4832H77.4091V29.0928H79.7962V17.4832H81.9283V17.4848Z" fill="#55565B"/>
<path d="M92.8225 22.5573L89.942 31.0658H87.8899V17.4841H89.962V26.0891H90.0403L92.9026 17.4841H94.9746V31.0658H92.8826V22.5573H92.8225Z" fill="#55565B"/>
<path d="M100.302 31.0658L101.072 26.7492C101.163 26.2936 101.308 25.8796 101.505 25.5088C101.703 25.138 101.98 24.847 102.334 24.6391C101.703 24.3797 101.268 23.9857 101.032 23.4602C100.795 22.9331 100.677 22.2996 100.677 21.558C100.677 20.2194 101.002 19.2051 101.652 18.5167C102.304 17.8283 103.195 17.4841 104.327 17.4841H107.465V31.0658H105.334V25.2693H104.782C104.412 25.2693 104.074 25.4123 103.766 25.7C103.455 25.986 103.235 26.4931 103.104 27.2231L102.452 31.0675H100.302V31.0658ZM104.506 19.4545C103.861 19.4545 103.409 19.6458 103.154 20.0299C102.897 20.414 102.769 20.9161 102.769 21.5413C102.769 22.2048 102.93 22.6637 103.252 22.9165C103.574 23.1692 103.986 23.2973 104.486 23.2973H105.334V19.4545H104.506Z" fill="#55565B"/>
<path d="M117.325 28.0996L116.341 25.5821L115.496 23.201H115.396V31.0643H113.266V17.4826H115.338L116.827 21.3453L117.905 24.2918H118.003L119.109 21.2671L120.589 17.481H122.639V31.0627H120.509V23.2375H120.431L119.567 25.6569L118.604 28.0962H117.325V28.0996Z" fill="#55565B"/>
<path d="M12.4977 35.1899H0.298584C16.5202 52.3134 39.7365 58.8182 59.2487 59.6663C60.1589 59.7045 61.0574 59.7294 61.9509 59.7444C62.2193 59.7477 62.486 59.7511 62.7527 59.7527C63.5662 59.761 64.378 59.7644 65.1749 59.7544C77.8357 59.5715 91.8985 56.8245 104.129 50.323C111.146 46.5917 117.562 41.6283 122.76 35.1916C122.76 35.1916 122.76 35.1916 122.758 35.1933C93.1671 64.0693 33.9953 59.0693 12.4977 35.1899Z" fill="#EF2B2D"/>
<path d="M122.758 35.1916C122.743 35.1999 122.729 35.2098 122.716 35.2198C122.253 35.5424 121.821 35.8334 121.414 36.1028C121.179 36.2574 120.957 36.4037 120.739 36.5417C120.557 36.6598 120.37 36.7695 120.189 36.8859C119.575 37.2784 118.959 37.6691 118.337 38.0432C118.098 38.1862 117.858 38.3226 117.618 38.4639C116.983 38.8381 116.346 39.2072 115.705 39.5614C115.469 39.6911 115.233 39.8125 114.998 39.9405C114.344 40.293 113.691 40.6422 113.031 40.9748C112.799 41.0911 112.564 41.2009 112.332 41.3173C111.664 41.6482 110.995 41.9741 110.32 42.285C110.09 42.3915 109.858 42.4896 109.627 42.5943C108.945 42.9019 108.263 43.2046 107.576 43.4939C107.345 43.5903 107.111 43.6801 106.879 43.7749C106.189 44.0576 105.499 44.3369 104.804 44.5996C104.567 44.6894 104.329 44.7726 104.092 44.859C103.399 45.1151 102.704 45.3695 102.005 45.6073C101.762 45.6921 101.515 45.7669 101.272 45.8467C100.578 46.0762 99.883 46.3057 99.1862 46.5185C98.9312 46.5967 98.6745 46.6648 98.4194 46.7413C97.7309 46.9442 97.0408 47.147 96.3507 47.3333C96.079 47.4064 95.8072 47.4696 95.5355 47.5411C94.857 47.7174 94.1802 47.8936 93.5001 48.0533C93.2084 48.1214 92.915 48.1813 92.6233 48.2478C91.9615 48.3975 91.2997 48.5471 90.6379 48.6818C90.3228 48.745 90.0077 48.7982 89.691 48.8597C89.0509 48.9828 88.4108 49.1075 87.7706 49.2172C87.4172 49.2771 87.0638 49.3253 86.7104 49.3818C86.107 49.4783 85.5035 49.578 84.9001 49.6612C84.4933 49.7194 84.0882 49.7609 83.6815 49.8125C83.1314 49.8823 82.5813 49.9572 82.0311 50.017C81.5244 50.0719 81.0193 50.1118 80.5142 50.1584C80.0658 50.1999 79.6157 50.2482 79.1672 50.2831C78.2121 50.3579 77.2602 50.4178 76.31 50.4643C76.3083 50.4643 76.3067 50.4643 76.3067 50.4643C75.7499 50.4909 75.1948 50.5125 74.6413 50.5292C74.6313 50.5292 74.623 50.5308 74.613 50.5308C74.0662 50.5475 73.5228 50.5591 72.9777 50.5657C72.9593 50.5657 72.941 50.5657 72.9227 50.5674C72.3892 50.5741 71.8558 50.5757 71.324 50.5741C71.2923 50.5741 71.2623 50.5724 71.2323 50.5724C70.7122 50.5691 70.1921 50.5624 69.6737 50.5508C69.6353 50.5508 69.597 50.5491 69.5587 50.5475C69.0486 50.5358 68.5401 50.5208 68.0317 50.5009C67.985 50.4992 67.9383 50.4976 67.89 50.4942C67.3916 50.4743 66.8948 50.4493 66.3997 50.4211C66.343 50.4178 66.288 50.4144 66.2313 50.4094C65.7462 50.3812 65.2628 50.3496 64.781 50.313C64.711 50.308 64.641 50.3014 64.5693 50.2964C64.1009 50.2598 63.6341 50.2215 63.1691 50.1783C63.0907 50.1717 63.0124 50.1617 62.934 50.155C62.4789 50.1118 62.0238 50.0652 61.5721 50.0154C61.4821 50.0054 61.392 49.9937 61.302 49.9838C60.8619 49.9339 60.4218 49.8823 59.9834 49.8241C59.8867 49.8125 59.79 49.7992 59.6934 49.7859C59.2649 49.7294 58.8382 49.6712 58.4131 49.608C58.3048 49.5913 58.1981 49.5747 58.0897 49.5581C57.678 49.4949 57.2662 49.4317 56.8561 49.3635C56.7378 49.3436 56.6211 49.322 56.5027 49.302C56.1043 49.2338 55.7076 49.1657 55.3125 49.0908C55.1858 49.0676 55.0624 49.0426 54.9357 49.0193C54.5507 48.9462 54.1673 48.8714 53.7855 48.7932C53.6488 48.7649 53.5138 48.735 53.3771 48.7067C53.0087 48.6303 52.642 48.5521 52.2769 48.469C52.1302 48.4357 51.9852 48.4008 51.8385 48.3675C51.4851 48.2861 51.1333 48.2046 50.7832 48.1198C50.6299 48.0815 50.4782 48.0433 50.3248 48.0034C49.9848 47.9186 49.6464 47.8338 49.3096 47.744C49.1446 47.7008 48.9829 47.6542 48.8195 47.6093C48.4978 47.5228 48.1744 47.4347 47.856 47.3433C47.6843 47.295 47.5159 47.2435 47.3442 47.1919C47.0358 47.1021 46.7241 47.0107 46.419 46.9159C46.2457 46.8627 46.074 46.8062 45.9006 46.7513C45.6006 46.6565 45.3022 46.5617 45.0054 46.4636C44.8254 46.4038 44.647 46.3422 44.4687 46.2807C44.1836 46.1826 43.8969 46.0878 43.6152 45.9864C43.4284 45.9216 43.2451 45.8517 43.0584 45.7836C42.7867 45.6838 42.5149 45.5873 42.2465 45.4842C42.0532 45.4111 41.8648 45.3363 41.6731 45.2614C41.4147 45.16 41.1563 45.0619 40.9013 44.9588C40.7046 44.879 40.5129 44.7975 40.3178 44.716C40.0711 44.6146 39.8244 44.5132 39.581 44.4084C39.381 44.322 39.1843 44.2322 38.9859 44.1457C38.7525 44.0426 38.5158 43.9412 38.2858 43.8348C38.084 43.7416 37.8857 43.6469 37.6856 43.5537C37.4623 43.4473 37.2372 43.3459 37.0172 43.2378C36.8121 43.138 36.6104 43.035 36.407 42.9335C36.197 42.8288 35.9836 42.7257 35.7769 42.6176C35.5719 42.5112 35.3702 42.4031 35.1668 42.295C34.9651 42.1886 34.7617 42.0822 34.5617 41.9741C34.3566 41.8627 34.1583 41.748 33.9566 41.6332C33.7649 41.5251 33.5698 41.4171 33.3781 41.3073C33.1731 41.1876 32.973 41.0662 32.7713 40.9448C32.5896 40.8367 32.4046 40.7287 32.2245 40.6173C32.0228 40.4942 31.8278 40.3662 31.6294 40.2415C31.4527 40.1301 31.276 40.0203 31.1027 39.9072C30.8976 39.7742 30.6992 39.6379 30.4975 39.5015C30.3358 39.3918 30.1725 39.2854 30.0124 39.1756C29.8057 39.0326 29.6057 38.8863 29.4023 38.7416C29.254 38.6352 29.1006 38.5288 28.9539 38.4207C28.7539 38.2727 28.5571 38.1214 28.3604 37.9717C28.2171 37.862 28.0704 37.7539 27.9287 37.6442C27.727 37.4862 27.5303 37.3249 27.3319 37.1636C27.2019 37.0572 27.0669 36.9525 26.9385 36.846C26.7284 36.6714 26.5267 36.4952 26.3217 36.3173C26.21 36.2208 26.095 36.126 25.9833 36.0279C25.6716 35.7519 25.3648 35.4709 25.0648 35.1882H12.5006C33.9949 59.0693 93.1667 64.0693 122.758 35.1916Z" fill="#00A0DC"/>
<path d="M75.1563 46.3827C74.9262 46.3844 74.6945 46.3844 74.4661 46.3844C74.3628 46.3844 74.2628 46.3827 74.1594 46.3827C73.8243 46.3811 73.4909 46.3794 73.1592 46.3728C72.9775 46.3711 72.7958 46.3661 72.6141 46.3628C72.2857 46.3561 71.9606 46.3478 71.6356 46.3378C71.4522 46.3329 71.2705 46.3262 71.0888 46.3179C70.7687 46.3063 70.4503 46.2929 70.1336 46.2763C69.9502 46.2663 69.7669 46.2564 69.5835 46.2464C69.2718 46.2298 68.9617 46.2115 68.6533 46.1899C68.4683 46.1782 68.2849 46.1649 68.0999 46.1516C67.7981 46.1283 67.4964 46.1067 67.1963 46.0801C67.008 46.0635 66.8213 46.0469 66.6346 46.0302C66.3412 46.002 66.0495 45.9754 65.7594 45.9454C65.571 45.9255 65.3843 45.9055 65.1976 45.8856C64.9142 45.854 64.6308 45.8224 64.3491 45.7875C64.1574 45.7642 63.9674 45.7392 63.7773 45.7143C63.5039 45.6794 63.2322 45.6428 62.9622 45.6062C62.7688 45.5779 62.5771 45.5497 62.3837 45.5214C62.1203 45.4832 61.8569 45.4416 61.5952 45.4017C61.4019 45.3701 61.2085 45.3368 61.0151 45.3036C60.7601 45.2604 60.5067 45.2188 60.255 45.1722C60.0583 45.1373 59.8649 45.0991 59.6698 45.0625C59.4265 45.0159 59.1814 44.9694 58.9397 44.9211C58.7413 44.8812 58.5463 44.8397 58.3496 44.7998C58.1162 44.7499 57.8812 44.7017 57.6494 44.6501C57.4494 44.6052 57.251 44.5587 57.0527 44.5121C56.8309 44.4606 56.6076 44.409 56.3875 44.3558C56.1842 44.3059 55.9841 44.256 55.7824 44.2045C55.5707 44.1496 55.359 44.0964 55.1506 44.0415C54.9456 43.9867 54.7455 43.9301 54.5422 43.8736C54.3404 43.8187 54.1387 43.7622 53.9387 43.7056C53.7337 43.6458 53.5336 43.5843 53.3319 43.5244C53.1385 43.4662 52.9452 43.408 52.7535 43.3481C52.5501 43.285 52.3501 43.2184 52.1483 43.1519C51.965 43.0921 51.7783 43.0322 51.5966 42.9707C51.3932 42.9025 51.1932 42.831 50.9931 42.7595C50.8181 42.698 50.6414 42.6365 50.468 42.5733C50.2663 42.5001 50.0679 42.4236 49.8679 42.3471C49.7012 42.284 49.5328 42.2224 49.3678 42.1576C49.1677 42.0778 48.971 41.998 48.7727 41.9181C48.6126 41.8533 48.4526 41.7901 48.2959 41.7236C48.0992 41.6405 47.9042 41.5557 47.7108 41.4708C47.5591 41.4043 47.4057 41.3395 47.2557 41.2713C47.059 41.1832 46.8656 41.0917 46.6723 41.0003C46.5306 40.9338 46.3855 40.8673 46.2455 40.8007C46.0505 40.7076 45.8588 40.6095 45.6671 40.5147C45.5337 40.4466 45.397 40.3817 45.2653 40.3135C45.0719 40.2138 44.8836 40.1107 44.6935 40.0093C44.5685 39.9411 44.4401 39.8746 44.3168 39.8064C44.1284 39.7016 43.9434 39.5952 43.7583 39.4888C43.6383 39.4206 43.5166 39.3524 43.3983 39.2826C43.2132 39.1729 43.0332 39.0615 42.8515 38.9501C42.7398 38.8819 42.6248 38.8137 42.5148 38.7439C42.3347 38.6291 42.158 38.5127 41.9813 38.398C41.8746 38.3282 41.7663 38.26 41.6629 38.1885C41.4846 38.0688 41.3129 37.9457 41.1395 37.8227C41.0428 37.7545 40.9428 37.688 40.8478 37.6182C40.6744 37.4934 40.506 37.3654 40.336 37.2374C40.246 37.1692 40.1526 37.1027 40.0626 37.0329C39.8892 36.8982 39.7209 36.7602 39.5525 36.6238C39.4741 36.5606 39.3925 36.4974 39.3141 36.4342C39.1291 36.2796 38.949 36.1233 38.7707 35.967C38.714 35.9171 38.6557 35.8706 38.6006 35.8207C38.3689 35.6128 38.1422 35.4033 37.9222 35.1921H27.2584H25.0563C25.3563 35.4748 25.6614 35.7558 25.9748 36.0319C26.0848 36.13 26.1998 36.2247 26.3132 36.3212C26.5182 36.4991 26.7199 36.677 26.93 36.8499C27.0583 36.9564 27.1934 37.0611 27.3234 37.1675C27.5218 37.3272 27.7168 37.4901 27.9202 37.6481C28.0619 37.7595 28.2086 37.8659 28.3519 37.9757C28.5486 38.1253 28.7437 38.2766 28.9454 38.4246C29.0921 38.5327 29.2454 38.6374 29.3938 38.7455C29.5972 38.8902 29.7972 39.0365 30.0039 39.1795C30.164 39.2893 30.3273 39.3957 30.489 39.5054C30.6907 39.6401 30.8891 39.7781 31.0941 39.9111C31.2675 40.0242 31.4459 40.134 31.6209 40.2454C31.8193 40.3717 32.016 40.4981 32.216 40.6212C32.3961 40.7326 32.5811 40.839 32.7628 40.9487C32.9645 41.0701 33.1646 41.1915 33.3696 41.3112C33.5596 41.421 33.7547 41.5274 33.948 41.6371C34.1498 41.7519 34.3498 41.8666 34.5532 41.978C34.7532 42.0861 34.9566 42.1925 35.1583 42.2989C35.3617 42.407 35.5634 42.5151 35.7684 42.6215C35.9768 42.7296 36.1885 42.8327 36.3985 42.9374C36.6019 43.0389 36.8036 43.142 37.0087 43.2417C37.2287 43.3498 37.4537 43.4529 37.6771 43.5577C37.8772 43.6508 38.0755 43.7472 38.2772 43.8387C38.509 43.9451 38.744 44.0465 38.9774 44.1496C39.1758 44.2361 39.3725 44.3259 39.5725 44.4123C39.8159 44.5154 40.0626 44.6169 40.3093 44.7199C40.5044 44.8014 40.6977 44.8829 40.8928 44.9627C41.1478 45.0658 41.4079 45.1656 41.6646 45.2653C41.8546 45.3385 42.0447 45.415 42.238 45.4882C42.5064 45.5896 42.7781 45.6877 43.0499 45.7875C43.2349 45.854 43.4199 45.9238 43.6066 45.9903C43.8884 46.0901 44.1751 46.1865 44.4601 46.2846C44.6385 46.3445 44.8169 46.4077 44.9969 46.4675C45.2936 46.5656 45.5937 46.6604 45.8921 46.7552C46.0655 46.8101 46.2355 46.8666 46.4105 46.9198C46.7173 47.0146 47.0273 47.1061 47.3357 47.1958C47.5058 47.2457 47.6758 47.2989 47.8475 47.3472C48.1676 47.4403 48.4893 47.5267 48.811 47.6132C48.9744 47.6581 49.1361 47.7047 49.3011 47.7479C49.6378 47.8377 49.9762 47.9225 50.3163 48.0073C50.4697 48.0455 50.6214 48.0854 50.7747 48.1237C51.1248 48.2085 51.4782 48.2916 51.83 48.3714C51.9766 48.4047 52.1217 48.4396 52.2684 48.4729C52.6334 48.5543 53.0018 48.6325 53.3686 48.7107C53.5053 48.7389 53.6403 48.7688 53.777 48.7971C54.1587 48.8753 54.5422 48.9501 54.9272 49.0233C55.0523 49.0465 55.1773 49.0731 55.304 49.0948C55.6991 49.1679 56.0958 49.2378 56.4942 49.3059C56.6126 49.3259 56.7293 49.3475 56.8476 49.3675C57.2577 49.4356 57.6678 49.4988 58.0812 49.562C58.1896 49.5786 58.2962 49.5953 58.4046 49.6119C58.8297 49.6751 59.2581 49.7333 59.6848 49.7898C59.7815 49.8031 59.8782 49.8164 59.9749 49.828C60.4133 49.8862 60.8517 49.9361 61.2935 49.9877C61.3835 49.9977 61.4735 50.0093 61.5636 50.0193C62.0153 50.0692 62.4704 50.1157 62.9255 50.1589C63.0038 50.1656 63.0822 50.1756 63.1605 50.1822C63.6256 50.2255 64.0924 50.2637 64.5608 50.3003C64.6308 50.3053 64.7008 50.3119 64.7725 50.3169C65.2543 50.3535 65.7377 50.3851 66.2228 50.4134C66.2795 50.4167 66.3345 50.4217 66.3912 50.425C66.8863 50.4533 67.3847 50.4765 67.8815 50.4982C67.9282 50.4998 67.9748 50.5015 68.0232 50.5048C68.5316 50.5248 69.04 50.5414 69.5501 50.5514C69.5885 50.553 69.6268 50.5547 69.6652 50.5547C70.1836 50.5663 70.7037 50.573 71.2238 50.5763C71.2538 50.5763 71.2838 50.578 71.3155 50.578C71.8473 50.5796 72.3807 50.578 72.9142 50.5713C72.9325 50.5697 72.9508 50.5697 72.9692 50.5697C73.5126 50.563 74.0577 50.5514 74.6045 50.5347C74.6145 50.5347 74.6228 50.5331 74.6328 50.5331C75.1879 50.5164 75.7431 50.4948 76.2982 50.4682C76.2998 50.4682 76.2998 50.4682 76.3015 50.4682C77.2517 50.4217 78.2035 50.3618 79.1587 50.287C79.6072 50.2521 80.0572 50.2038 80.5057 50.1623C81.0108 50.1157 81.5159 50.0758 82.0226 50.0209C82.5727 49.9611 83.1229 49.8862 83.673 49.8164C84.0797 49.7649 84.4848 49.7216 84.8915 49.6651C85.495 49.582 86.0984 49.4822 86.7019 49.3857C87.0553 49.3292 87.4087 49.281 87.7621 49.2211C88.4022 49.113 89.0424 48.9867 89.6825 48.8636C89.9976 48.8038 90.3126 48.7489 90.6294 48.6857C91.2911 48.551 91.953 48.4014 92.6148 48.2517C92.9065 48.1869 93.1999 48.127 93.4916 48.0572C94.1717 47.8975 94.8485 47.7213 95.527 47.545C95.7987 47.4735 96.0704 47.4103 96.3422 47.3372C97.034 47.151 97.7224 46.9481 98.4109 46.7452C98.666 46.6687 98.9227 46.6006 99.1777 46.5224C99.8745 46.3096 100.57 46.0818 101.263 45.8506C101.508 45.7692 101.753 45.6943 101.997 45.6112C102.695 45.3734 103.389 45.119 104.084 44.8629C104.32 44.7765 104.559 44.6933 104.796 44.6036C105.491 44.3392 106.181 44.0615 106.871 43.7788C107.103 43.684 107.336 43.5942 107.568 43.4978C108.255 43.2101 108.938 42.9058 109.618 42.5982C109.85 42.4951 110.082 42.3954 110.312 42.2889C110.987 41.978 111.655 41.6521 112.324 41.3212C112.557 41.2065 112.79 41.0967 113.022 40.9787C113.682 40.6444 114.336 40.2969 114.989 39.9444C115.224 39.8164 115.461 39.695 115.696 39.5653C116.338 39.2111 116.975 38.8403 117.61 38.4678C117.848 38.3265 118.09 38.1902 118.328 38.0472C118.952 37.673 119.567 37.2839 120.18 36.8898C120.589 36.6288 121.002 36.376 121.407 36.1067C121.844 35.8173 122.276 35.523 122.709 35.2237C122.714 35.2204 122.721 35.2154 122.726 35.2121C122.734 35.2071 122.742 35.2021 122.751 35.1955C120.369 36.2696 118.003 37.2607 115.658 38.1685C101.015 43.8353 87.1837 46.293 75.1563 46.3827Z" fill="white"/>
<path d="M122.957 35.0516C122.941 35.0283 122.917 35.0067 122.891 34.9884C122.864 34.9718 122.836 34.9635 122.817 34.9585C122.782 34.9502 122.707 34.9502 122.657 34.9735C120.308 36.0327 117.926 37.0303 115.578 37.9399C101.963 43.2093 87.9853 46.0444 75.1528 46.1408C74.9244 46.1441 74.691 46.1441 74.4643 46.1441C58.7062 46.1441 45.4519 42.0886 38.1004 35.0184C38.0554 34.9751 37.992 34.9502 37.9303 34.9502H0.29784C0.201154 34.9502 0.11447 35.0051 0.0744618 35.0915C0.0344538 35.178 0.0511242 35.2794 0.117804 35.3509C7.66764 43.319 17.1995 49.5113 28.4501 53.7514C37.8887 57.3114 48.5341 59.4382 59.2379 59.9021C60.7216 59.9669 62.2302 60.0002 63.7222 60.0002C64.2056 60.0002 64.6957 59.9969 65.1758 59.9902C71.8655 59.8938 78.4918 59.1023 84.868 57.6373C91.8861 56.0261 98.4041 53.635 104.244 50.5289C111.723 46.5515 118.016 41.4417 122.944 35.3409C122.946 35.3393 122.947 35.3376 122.947 35.336C122.949 35.3343 122.951 35.3326 122.951 35.331C122.969 35.3044 122.982 35.2794 122.991 35.2428H122.992C123.002 35.2096 123.002 35.173 122.994 35.1348C122.987 35.1048 122.974 35.0766 122.957 35.0516ZM61.0933 45.3892C61.255 45.4175 61.4184 45.4441 61.5817 45.4707C61.8435 45.5123 62.1068 45.5522 62.3702 45.5921L62.3919 45.5954C62.5769 45.6237 62.762 45.6503 62.9487 45.6769C63.2187 45.7151 63.4921 45.75 63.7638 45.785C63.9539 45.8099 64.1456 45.8348 64.3373 45.8581C64.619 45.893 64.9024 45.9246 65.1991 45.9562C65.3825 45.9762 65.5642 45.9961 65.7492 46.0161C66.0393 46.046 66.331 46.0743 66.6244 46.1009L66.7561 46.1125C66.8995 46.1258 67.0428 46.1391 67.1862 46.1508C67.4846 46.1757 67.788 46.199 68.0897 46.2223C68.2747 46.2356 68.4581 46.2489 68.6431 46.2622C68.9515 46.2838 69.2633 46.3021 69.575 46.3187C69.7584 46.3287 69.9417 46.3387 70.1251 46.3486C70.4418 46.3636 70.7619 46.3769 71.082 46.3902L71.217 46.3952C71.3537 46.4002 71.4921 46.4052 71.6287 46.4102C71.9538 46.4201 72.2805 46.4285 72.6123 46.4351C72.7923 46.4384 72.9723 46.4418 73.154 46.4451C73.4874 46.4501 73.8208 46.4534 74.1559 46.4534L74.4043 46.4551C74.6527 46.4567 74.9011 46.4567 75.1528 46.4551C88.022 46.3586 102.041 43.5152 115.691 38.2309C117.951 37.3563 120.238 36.4002 122.499 35.3858C117.63 41.3436 111.438 46.3453 104.09 50.2529C93.0447 56.1242 79.2236 59.4714 65.1708 59.6759C64.4906 59.6842 63.8055 59.6909 63.107 59.6793L62.7503 59.6743C62.4836 59.6726 62.2169 59.6709 61.9485 59.666C60.9233 59.6477 60.0664 59.6227 59.2496 59.5878C45.3602 58.9842 19.2816 55.0168 0.471208 35.2611H37.897C38.1054 35.4623 38.3271 35.6669 38.5555 35.8714C38.5838 35.8963 38.6138 35.9229 38.6438 35.9479C38.6722 35.9712 38.6988 35.9944 38.7255 36.0177C38.9055 36.1757 39.0839 36.332 39.2706 36.4866C39.3173 36.5249 39.3656 36.5631 39.4123 36.6013L39.5823 36.7377C39.7274 36.8558 39.8707 36.9721 40.0208 37.0869C40.0758 37.1301 40.1325 37.1717 40.1891 37.2133L40.3792 37.3563C40.5209 37.4627 40.6609 37.5691 40.8059 37.6738C40.8659 37.7171 40.9293 37.7603 40.991 37.8035L41.1677 37.9266C41.3177 38.033 41.4694 38.1394 41.6228 38.2442C41.6878 38.2891 41.7561 38.3323 41.8228 38.3755L41.9962 38.4886C42.1545 38.5934 42.3129 38.6981 42.4763 38.7996C42.5496 38.8461 42.6263 38.8927 42.7013 38.9376L42.883 39.049C43.0414 39.1471 43.1997 39.2435 43.3614 39.34C43.4381 39.3849 43.5165 39.4298 43.5948 39.4747L43.8332 39.611C43.9816 39.6958 44.1299 39.7806 44.28 39.8654C44.3633 39.912 44.45 39.9569 44.535 40.0034L44.7934 40.1414C44.9384 40.2196 45.0818 40.2977 45.2301 40.3726C45.3135 40.4158 45.3985 40.4574 45.4835 40.5006L45.7569 40.6369C45.9069 40.7118 46.057 40.7883 46.2103 40.8614C46.3037 40.9063 46.4004 40.9512 46.4954 40.9961L46.7354 41.1075C46.8971 41.184 47.0588 41.2588 47.2222 41.3337C47.3139 41.3736 47.4056 41.4135 47.4973 41.455L47.8323 41.6014C47.9757 41.6646 48.1191 41.7261 48.2641 41.7876C48.3674 41.8308 48.4741 41.8741 48.5791 41.9173L48.8842 42.0403C49.0342 42.1019 49.1843 42.1617 49.3376 42.2216C49.4493 42.2648 49.561 42.3081 49.6744 42.3496L49.9227 42.4444C50.0944 42.5092 50.2645 42.5741 50.4378 42.6373C50.5629 42.6822 50.6896 42.7271 50.8163 42.772L51.0163 42.8418C51.1997 42.9067 51.383 42.9715 51.5681 43.0347C51.6964 43.0779 51.8265 43.1212 51.9582 43.1627L52.2215 43.2492C52.3882 43.3041 52.5566 43.3589 52.7266 43.4121C52.865 43.4554 53.0034 43.4969 53.1434 43.5402L53.4618 43.6366C53.6118 43.6815 53.7618 43.7281 53.9135 43.7713C54.0719 43.8162 54.2319 43.8611 54.392 43.906L54.5353 43.9459C54.732 44.0008 54.9271 44.0556 55.1271 44.1089C55.3138 44.1587 55.5022 44.2053 55.6906 44.2535L55.8839 44.3034C56.044 44.345 56.204 44.3849 56.3674 44.4248C56.5841 44.478 56.8008 44.5279 57.0325 44.5811L57.1492 44.6077C57.3092 44.6459 57.4693 44.6825 57.631 44.7191C57.8577 44.769 58.0877 44.8172 58.3311 44.8688L58.4111 44.8854C58.5811 44.9203 58.7495 44.9569 58.9212 44.9918C59.1629 45.04 59.4063 45.0866 59.6514 45.1331L59.7747 45.1564C59.9281 45.1863 60.0814 45.2146 60.2365 45.2429C60.4749 45.2861 60.7149 45.326 60.9549 45.3676L61.0933 45.3892Z" fill="#CACAC7"/>
</svg>
