<svg width="101" height="60" viewBox="0 0 101 60" fill="none" xmlns="http://www.w3.org/2000/svg">
<path d="M52.4086 48.4469C50.4566 48.3168 48.2059 47.9746 46.4306 47.4605C46.0981 47.3641 44.7213 46.8581 44.371 46.6974C38.1907 43.8345 33.8852 37.5851 33.8852 30.3348C33.8852 20.3903 41.9757 12.2901 51.9266 12.2901C61.7892 12.2901 69.8251 20.2521 69.9632 30.0842H76.481C76.3428 16.6599 65.3846 5.78041 51.9266 5.78041C38.3883 5.78041 27.369 16.7933 27.369 30.3348C27.369 39.6704 32.6192 47.7898 40.3065 51.9379C41.6945 52.6721 43.6867 53.4288 44.363 53.636C46.5543 54.2883 49.2437 54.7221 51.6374 54.9036C52.4503 54.9647 55.2891 54.9968 56.1165 55H101V48.508H56.192C55.5959 48.508 52.9917 48.4855 52.4086 48.4469ZM56.192 38.2534C55.718 38.2534 53.2391 38.2374 52.7813 38.1988C52.0053 38.1329 50.8807 38.0173 50.1578 37.8518C49.3417 37.6333 48.5754 37.3441 48.23 37.1545C45.8089 35.8452 44.159 33.2844 44.159 30.3348C44.159 26.0437 47.6339 22.5639 51.9266 22.5639C56.1293 22.5639 59.5464 25.9072 59.683 30.0842H65.9453C65.8135 22.4531 59.593 16.3033 51.9266 16.3033C44.175 16.3033 37.8919 22.5848 37.8919 30.3348C37.8919 35.8002 41.0246 40.5203 45.5872 42.8321C46.2893 43.2433 47.6098 43.6739 47.9858 43.7719C49.2742 44.1109 51.0045 44.3422 52.4086 44.445C52.9275 44.4884 55.469 44.5077 56.0056 44.5109V44.5205H100.998V38.2534H56.192ZM23.3527 54.9759H16.7916V12.3046H7.20373V5.74186H23.3527V54.9759ZM0 15.5835V21.894H7.20373V54.9759H13.5078V15.5835H0Z" fill="#D91920"/>
<path d="M89.4067 6.20031C87.0435 6.20031 85.0835 8.08478 85.0835 10.4496C85.0835 12.8144 87.0435 14.7744 89.4067 14.7744C91.8422 14.7744 93.7267 12.8144 93.7267 10.4496C93.7267 8.08478 91.8422 6.20031 89.4067 6.20031ZM89.4067 14.0772C87.4547 14.0772 85.7727 12.5429 85.7727 10.4496C85.7727 8.46232 87.4547 6.88951 89.4067 6.88951C91.357 6.88951 93.0311 8.46232 93.0311 10.4496C93.0311 12.5429 91.357 14.0772 89.4067 14.0772Z" fill="#D91920"/>
<path d="M91.052 11.6141C91.052 11.137 90.9813 10.6936 90.4351 10.5185C91.1194 10.2807 91.1869 9.83248 91.1869 9.56098C91.1869 8.46371 90.1909 8.32394 89.7812 8.32394H87.8967V12.5732H88.6823V10.8301H89.3008C90.1909 10.8301 90.2648 11.2398 90.2648 11.6141C90.2648 12.3387 90.2648 12.4752 90.4351 12.5732H91.2223C91.052 12.4013 91.1194 12.268 91.052 11.6141ZM89.6093 10.21H88.6823V8.87177H89.476C90.0254 8.87177 90.3981 9.04528 90.3981 9.56098C90.3981 9.83248 90.2648 10.21 89.6093 10.21Z" fill="#D91920"/>
</svg>
