<svg width="122" height="60" viewBox="0 0 122 60" fill="none" xmlns="http://www.w3.org/2000/svg">
<path d="M116.596 19.1855V34.417H105.645C103.817 34.417 102.897 33.5002 102.897 31.6688V19.1855C102.897 17.3689 102.001 16.5517 100.191 16.5517C98.3919 16.5517 97.5006 17.404 97.5006 19.1855V31.5543C97.5006 37.0361 100.237 39.7832 105.599 39.7832C110.329 39.7832 115.684 38.2782 116.695 37.9189C116.937 39.1621 117.783 39.8002 119.248 39.8002C119.265 39.8002 119.28 39.782 119.296 39.782V39.8002C121.111 39.8002 122 38.9162 122 37.0837V19.1855C122 17.1252 120.748 16.5517 119.314 16.5517C117.498 16.5347 116.596 17.4176 116.596 19.1855ZM90.2122 16.5506C88.3845 16.5506 87.4797 17.4176 87.4604 19.1844V34.4159H76.5143C74.6832 34.4159 73.7614 33.4991 73.7614 31.6676V19.1855C73.7614 17.3689 72.8532 16.5517 71.0605 16.5517C69.261 16.5517 68.3561 17.404 68.3561 19.1855V31.5543C68.3561 37.0361 71.091 39.7832 76.4646 39.7832C81.1797 39.7832 86.5387 38.2782 87.5429 37.9189C87.7914 39.1791 88.6951 39.8172 90.1659 39.8002C91.962 39.8002 92.8714 38.9162 92.8714 37.1505V19.2003C92.8714 17.2533 91.779 16.5506 90.2122 16.5506ZM58.4606 30.7519C58.4606 32.5845 56.617 34.4318 54.7859 34.4318H44.5131V21.9508H54.7859C56.617 21.9508 58.4606 23.7504 58.4606 25.4674V30.7519ZM54.7859 16.5665C49.3603 16.5665 44.4148 18.4319 44.4148 18.4319C44.4148 18.4319 43.4117 16.5665 41.7782 16.5665C40.1267 16.5665 39.1055 17.3519 39.1055 19.1844V44.3322C39.1055 46.1149 40.0137 46.9989 41.8087 46.9989C43.6048 46.9989 44.5131 46.082 44.5131 44.2654V37.9178C46.8695 38.9162 51.6026 39.799 54.8164 39.799C60.0466 39.799 63.8512 36.1328 63.8512 30.6533V25.549C63.8523 20.1658 60.207 16.5665 54.7859 16.5665ZM28.8846 31.6846C28.8846 33.5183 27.9798 34.4329 26.1487 34.4329H19.8532V21.9508H26.1487C27.9798 21.9508 28.8846 22.8177 28.8846 24.5528V31.6846ZM8.13107 34.4329C6.31576 34.4329 5.39398 33.5183 5.39398 31.6846V24.5528C5.39398 22.8177 6.31576 21.9508 8.13107 21.9508H14.4446V34.4329H8.13107ZM17.1478 13C15.3336 13 14.4434 13.901 14.4434 15.7335V18.433C13.2246 17.4505 9.58039 16.5517 8.12994 16.5676C2.70772 16.6322 0 19.2501 0 24.6163V31.5713C0 37.0508 2.70772 39.9146 8.09832 39.8002C10.4886 39.7514 13.4866 38.4096 14.4434 37.9189V44.3334C14.4434 46.116 15.3336 47 17.1478 47C18.9439 47 19.8532 46.116 19.8532 44.3334V37.9189C20.958 38.4584 23.8736 39.8002 26.1792 39.8002C31.5878 39.8002 34.2922 37.0519 34.2922 31.5713V24.6163C34.2922 19.2501 31.5731 16.6175 26.1475 16.5676C24.1865 16.5517 21.7634 17.1898 19.8521 18.433V15.6508C19.8532 13.884 18.9439 13 17.1478 13Z" fill="#00AFF0"/>
</svg>
