<svg width="149" height="60" viewBox="0 0 149 60" fill="none" xmlns="http://www.w3.org/2000/svg">
<path d="M10.6641 1.31828C8.27165 1.82039 6.94253 4.86261 8.12397 7.07781C9.21681 9.14534 12.2 9.76559 14.0017 8.34786C17.4869 5.63054 15.0059 0.402657 10.6641 1.31828Z" fill="#231F20"/>
<path d="M45.3675 1.31783C42.8569 1.7018 40.6712 2.79464 38.84 4.65541C36.7725 6.78201 35.975 8.84953 35.975 12.0394C35.975 14.0183 36.1227 14.6091 36.8906 16.1745C38.5151 19.5121 40.8189 21.3433 47.8485 24.9467C54.4055 28.3138 56.6798 30.913 55.7937 34.1324C55.3507 35.8751 54.5532 36.8793 52.9287 37.8244C51.7177 38.5628 51.2452 38.6514 49.0299 38.6514C46.7852 38.6514 46.2831 38.5333 44.57 37.7063C41.1438 35.9932 38.3379 32.4193 37.0974 28.0775C36.802 27.0142 36.4476 26.394 36.1817 26.394C35.7978 26.394 35.7387 27.4277 35.7387 33.4826C35.7387 40.1578 35.7682 40.5713 36.2704 40.5713C36.5953 40.5713 36.9792 40.2464 37.1564 39.8329C37.3337 39.4194 37.9539 38.8582 38.5446 38.5924C39.5489 38.1198 39.6375 38.1198 42.8864 39.2422C46.6671 40.5122 49.2958 40.8371 52.0426 40.2759C54.9667 39.7147 57.3 38.4447 59.1608 36.4362C61.2283 34.221 62.0554 32.124 62.0849 29.1408C62.0849 23.6176 59.6334 20.8412 50.2114 15.9677C43.2999 12.3348 41.8231 11.0057 41.8231 8.25881C41.7936 5.45288 43.8907 3.44443 47.2282 3.14907C51.954 2.70603 56.9752 6.54572 58.3929 11.685C58.7178 12.8369 59.0131 13.3981 59.338 13.3981C59.7515 13.3981 59.8106 12.7188 59.722 7.57948C59.6925 4.36005 59.5743 1.55412 59.5153 1.34737C59.279 0.72711 58.8655 0.963399 58.6882 1.84948C58.452 2.94232 57.7431 3.65118 56.857 3.65118C56.473 3.65118 55.1144 3.20814 53.8148 2.64696C52.5152 2.08577 50.8021 1.55412 50.0046 1.43598C49.2367 1.34737 48.262 1.19969 47.8485 1.14062C47.435 1.11108 46.3422 1.17015 45.3675 1.31783Z" fill="#A61D49"/>
<path d="M62.3221 2.32167C62.3221 2.64657 62.647 2.76471 63.4445 2.76471C65.0099 2.79425 66.9888 3.73941 67.3433 4.68456C67.5205 5.15714 67.6386 11.2416 67.6386 20.4273C67.6386 34.1025 67.5796 35.4907 67.107 36.4063C66.4277 37.7945 65.3053 38.5329 63.6808 38.7101C62.7947 38.8283 62.3221 39.0055 62.3221 39.2713C62.3221 39.5962 63.5036 39.6848 68.6724 39.6848C73.8412 39.6848 75.0227 39.5962 75.0227 39.2713C75.0227 39.035 74.5796 38.8283 73.8708 38.7101C72.2167 38.5034 71.1534 37.9126 70.3855 36.7607L69.7062 35.7565V20.6636C69.7357 5.92508 69.7357 5.60018 70.2673 6.60441C70.5627 7.16559 73.9003 14.845 77.6809 23.6763C81.4615 32.478 84.7105 39.6553 84.8582 39.5962C85.0354 39.5371 88.1958 32.2713 91.9173 23.4104C95.6093 14.5791 98.8878 6.87023 99.1536 6.30904C99.6558 5.30482 99.6853 5.7774 99.7739 20.3682C99.833 31.8873 99.7444 35.7565 99.4785 36.6131C99.006 38.0013 97.6473 38.7987 95.7865 38.7987C94.8414 38.7987 94.5165 38.9169 94.5165 39.2418C94.5165 39.6257 95.7865 39.6848 104.263 39.6848C112.74 39.6848 114.01 39.6257 114.01 39.2418C114.01 38.9169 113.685 38.7987 112.829 38.7987C112.179 38.7987 111.175 38.6215 110.614 38.3852C108.664 37.5582 108.694 37.8536 108.694 20.9885C108.694 10.8871 108.812 5.51157 109.019 4.89131C109.403 3.79848 111.293 2.76471 112.917 2.76471C113.685 2.76471 114.01 2.64657 114.01 2.32167C114.01 1.9377 112.977 1.87863 106.42 1.87863H98.7992L93.719 14.2247C90.9426 20.9885 88.5502 26.5117 88.4025 26.5117C88.2844 26.4822 85.8033 20.9589 82.9383 14.2542L77.74 2.02631L70.0311 1.9377C63.2968 1.87863 62.3221 1.9377 62.3221 2.32167Z" fill="#A61D49"/>
<path d="M116.67 2.32167C116.67 2.64657 116.995 2.76471 117.704 2.76471C119.033 2.76471 120.48 3.35544 121.248 4.24152C121.809 4.89131 121.839 5.30482 121.839 20.7522C121.839 35.5498 121.809 36.6426 121.307 37.381C120.687 38.2966 119.417 38.7987 117.822 38.7987C116.995 38.7987 116.67 38.9169 116.67 39.2418C116.67 39.6257 117.94 39.6848 126.417 39.6848C134.894 39.6848 136.164 39.6257 136.164 39.2418C136.164 38.9169 135.809 38.7987 134.775 38.7987C133.092 38.7987 131.556 37.9717 131.142 36.8494C130.965 36.4358 130.847 32.862 130.847 28.8746V21.6678H132.265C135.484 21.6678 138.349 23.499 139.353 26.1868C139.678 27.0138 140.033 28.343 140.121 29.1109C140.269 30.0561 140.476 30.5286 140.771 30.5286C141.126 30.5286 141.185 29.1109 141.185 21.0771C141.185 13.3091 141.126 11.6255 140.771 11.6255C140.535 11.6255 140.21 12.3639 139.915 13.5454C138.97 17.4146 136.548 19.4526 132.767 19.6594L130.995 19.748L130.906 11.8028L130.847 3.85755L135.484 4.00523C139.353 4.15291 140.446 4.27105 141.864 4.83224C144.759 5.92508 146.472 7.87446 146.944 10.5918C147.062 11.2416 147.299 12.0095 147.446 12.2753C148.096 13.5749 148.273 12.5707 148.273 7.34281V1.87863H132.472C118.619 1.87863 116.67 1.9377 116.67 2.32167Z" fill="#A61D49"/>
<path d="M27.1736 9.73608C24.663 12.2762 21.7094 14.3142 19.1693 15.3479C18.0469 15.791 17.722 16.0863 17.4857 16.8543L17.1904 17.829H19.0807C20.1144 17.829 20.971 17.888 20.971 17.9176C20.971 17.9767 19.9077 21.6687 18.6081 26.1286C17.1018 31.2384 16.1566 34.9894 16.0385 36.3186C15.8908 38.327 15.8908 38.4452 16.7769 39.4198C17.6334 40.365 17.7811 40.4241 19.7009 40.4241C21.2073 40.4241 22.0638 40.2469 23.0976 39.7447C25.5491 38.5338 28.8571 34.7531 28.1187 34.0147C27.8529 33.7489 27.3508 34.1329 26.1103 35.5211C24.7516 36.9979 24.279 37.3228 23.6588 37.2637C23.1862 37.2046 22.8613 36.9684 22.8022 36.6435C22.7431 36.3186 23.8655 31.9768 25.2832 26.9556L27.8824 17.829H29.7432H31.5744L31.9584 16.4112L32.3719 15.023L30.6588 14.9344C29.566 14.8754 28.9457 14.7277 28.9457 14.4914C28.9457 14.2846 29.4183 12.6011 29.9795 10.7403C30.5407 8.87954 31.0132 7.31412 31.0132 7.25505C31.0132 7.22552 30.7179 7.19598 30.3339 7.19598C29.8909 7.19598 28.8571 8.02299 27.1736 9.73608Z" fill="#231F20"/>
<path d="M6.58655 14.8158C2.92407 15.4065 2.06753 15.6428 2.06753 16.0268C2.06753 16.3517 2.36289 16.5289 3.01268 16.5584C4.2532 16.647 4.84392 17.2673 4.78485 18.5078C4.75531 19.0394 3.69201 23.204 2.36289 27.7526C1.0633 32.2716 0 36.4067 0 36.9678C0 40.0987 3.1899 41.4869 6.64562 39.8624C9.06758 38.74 13.2912 33.7484 12.3461 33.1577C12.0803 32.9805 11.7849 33.1577 11.3714 33.7189C9.15619 36.7611 7.35448 37.8244 7.14773 36.1999C7.05912 35.7273 12.0507 17.5922 13.1436 14.3432C13.3208 13.8411 11.8735 13.9297 6.58655 14.8158Z" fill="#231F20"/>
<path d="M0 46.774C0 46.9807 24.8989 47.0693 74.1356 47.0693C123.372 47.0693 148.271 46.9807 148.271 46.774C148.271 46.5672 123.372 46.4786 74.1356 46.4786C24.8989 46.4786 0 46.5672 0 46.774Z" fill="#A61D49"/>
<path d="M149 57.2821H146.706V57.0494C146.773 57.0434 146.856 57.0334 146.953 57.0195C147.053 57.0056 147.121 56.9907 147.156 56.9748C147.23 56.9449 147.283 56.9042 147.314 56.8525C147.346 56.8008 147.362 56.7351 147.362 56.6556V53.4933L145.906 57.2134H145.53C145.513 57.1478 145.468 57.0175 145.396 56.8226C145.327 56.6277 145.27 56.4716 145.226 56.3543L144.155 53.4456V56.0201C144.155 56.2668 144.171 56.4547 144.203 56.584C144.237 56.7113 144.29 56.8047 144.364 56.8644C144.414 56.9062 144.502 56.9459 144.63 56.9837C144.759 57.0215 144.849 57.0434 144.901 57.0494V57.2821H143.081V57.0494C143.131 57.0434 143.212 57.0305 143.323 57.0106C143.436 56.9887 143.529 56.9519 143.6 56.9002C143.68 56.8445 143.734 56.751 143.761 56.6198C143.789 56.4865 143.803 56.2976 143.803 56.053V53.9557C143.803 53.8284 143.787 53.723 143.755 53.6395C143.724 53.554 143.676 53.4864 143.612 53.4366C143.533 53.375 143.451 53.3352 143.368 53.3173C143.284 53.2994 143.2 53.2875 143.114 53.2815V53.0488H145.062L146.106 55.8441L146.986 53.5739C147.016 53.4903 147.045 53.3909 147.073 53.2756C147.101 53.1602 147.116 53.0846 147.118 53.0488H148.994V53.2815C148.93 53.2855 148.864 53.2935 148.794 53.3054C148.725 53.3173 148.658 53.3332 148.594 53.3531C148.517 53.379 148.465 53.4197 148.439 53.4754C148.415 53.5311 148.403 53.5928 148.403 53.6604V56.6586C148.403 56.7302 148.415 56.7908 148.439 56.8405C148.465 56.8883 148.517 56.93 148.594 56.9658C148.634 56.9837 148.699 57.0006 148.788 57.0165C148.88 57.0325 148.95 57.0434 149 57.0494V57.2821Z" fill="#A61D49"/>
<path d="M140.624 57.3955C140.365 57.3955 140.123 57.3637 139.899 57.3C139.676 57.2364 139.487 57.1608 139.332 57.0733L139.126 57.2821H138.872L138.834 55.7517H139.09C139.148 55.8969 139.221 56.0501 139.311 56.2111C139.4 56.3722 139.504 56.5164 139.621 56.6437C139.743 56.777 139.878 56.8854 140.027 56.9689C140.178 57.0524 140.354 57.0942 140.555 57.0942C140.825 57.0942 141.032 57.0286 141.175 56.8973C141.321 56.764 141.393 56.597 141.393 56.3961C141.393 56.231 141.332 56.0928 141.208 55.9814C141.087 55.8681 140.898 55.7706 140.641 55.6891C140.474 55.6354 140.32 55.5857 140.179 55.5399C140.04 55.4942 139.909 55.4474 139.785 55.3997C139.501 55.2863 139.289 55.1243 139.15 54.9134C139.013 54.7026 138.944 54.4669 138.944 54.2064C138.944 54.0413 138.98 53.8832 139.051 53.7321C139.123 53.5789 139.227 53.4417 139.365 53.3204C139.496 53.207 139.664 53.1145 139.869 53.0429C140.074 52.9713 140.296 52.9355 140.537 52.9355C140.772 52.9355 140.991 52.9684 141.196 53.034C141.401 53.0976 141.562 53.1623 141.68 53.2279L141.862 53.0489H142.121L142.145 54.4928H141.888C141.829 54.3377 141.758 54.1796 141.677 54.0185C141.597 53.8554 141.513 53.7201 141.423 53.6127C141.326 53.4974 141.213 53.4059 141.086 53.3383C140.959 53.2687 140.81 53.2339 140.638 53.2339C140.424 53.2339 140.248 53.2945 140.11 53.4158C139.975 53.5372 139.908 53.6873 139.908 53.8663C139.908 54.0354 139.966 54.1736 140.084 54.281C140.203 54.3884 140.388 54.4829 140.638 54.5644C140.786 54.6141 140.936 54.6638 141.089 54.7136C141.242 54.7633 141.378 54.811 141.498 54.8568C141.786 54.9681 142.005 55.1223 142.154 55.3192C142.305 55.5141 142.381 55.7567 142.381 56.0471C142.381 56.23 142.338 56.407 142.252 56.5781C142.167 56.7491 142.052 56.8913 141.906 57.0047C141.747 57.13 141.563 57.2264 141.354 57.2941C141.146 57.3617 140.902 57.3955 140.624 57.3955Z" fill="#A61D49"/>
<path d="M138.234 54.26H138.004C137.943 54.079 137.843 53.8851 137.706 53.6783C137.571 53.4715 137.445 53.3601 137.33 53.3442C137.266 53.3362 137.188 53.3293 137.094 53.3233C137.001 53.3173 136.92 53.3143 136.853 53.3143H136.713V56.6347C136.713 56.7063 136.726 56.7699 136.751 56.8256C136.777 56.8793 136.828 56.9221 136.904 56.9539C136.949 56.9718 137.02 56.9907 137.115 57.0106C137.213 57.0285 137.295 57.0414 137.363 57.0494V57.2821H135.003V57.0494C135.061 57.0434 135.141 57.0354 135.245 57.0255C135.35 57.0136 135.422 56.9996 135.46 56.9837C135.537 56.9519 135.589 56.9091 135.615 56.8554C135.641 56.8017 135.654 56.7381 135.654 56.6645V53.3143H135.513C135.446 53.3143 135.365 53.3173 135.272 53.3233C135.178 53.3293 135.1 53.3362 135.036 53.3442C134.921 53.3601 134.794 53.4715 134.657 53.6783C134.522 53.8851 134.423 54.079 134.362 54.26H134.132V53.0488H138.234V54.26Z" fill="#A61D49"/>
<path d="M133.536 57.2821H131.188V57.0494C131.242 57.0454 131.32 57.0394 131.424 57.0315C131.529 57.0235 131.602 57.0116 131.641 56.9957C131.715 56.9658 131.765 56.927 131.79 56.8793C131.818 56.8296 131.832 56.7669 131.832 56.6914V53.6902C131.832 53.6226 131.819 53.5629 131.793 53.5112C131.768 53.4595 131.717 53.4178 131.641 53.3859C131.594 53.366 131.523 53.3462 131.43 53.3263C131.336 53.3044 131.255 53.2895 131.188 53.2815V53.0488H133.536V53.2815C133.476 53.2875 133.401 53.2964 133.312 53.3084C133.222 53.3183 133.147 53.3332 133.085 53.3531C133.008 53.379 132.956 53.4197 132.93 53.4754C132.904 53.5291 132.891 53.5908 132.891 53.6604V56.6586C132.891 56.7302 132.904 56.7918 132.93 56.8435C132.958 56.8932 133.01 56.934 133.085 56.9658C133.127 56.9837 133.196 57.0016 133.291 57.0195C133.389 57.0354 133.47 57.0454 133.536 57.0494V57.2821Z" fill="#A61D49"/>
<path d="M128.03 55.34C128.157 55.4275 128.26 55.5378 128.34 55.6711C128.42 55.8024 128.459 55.9575 128.459 56.1365C128.459 56.3513 128.414 56.5333 128.322 56.6824C128.233 56.8296 128.103 56.9459 127.934 57.0315C127.755 57.1229 127.548 57.1876 127.314 57.2254C127.081 57.2632 126.807 57.2821 126.49 57.2821H124.292V57.0494C124.353 57.0434 124.431 57.0344 124.524 57.0225C124.618 57.0106 124.683 56.9967 124.721 56.9807C124.795 56.9509 124.845 56.9121 124.87 56.8644C124.898 56.8147 124.912 56.751 124.912 56.6735V53.6902C124.912 53.6186 124.901 53.559 124.879 53.5112C124.858 53.4635 124.805 53.4217 124.721 53.3859C124.66 53.3601 124.588 53.3392 124.506 53.3233C124.425 53.3054 124.353 53.2915 124.292 53.2815V53.0488H126.592C127.171 53.0488 127.588 53.1284 127.845 53.2875C128.101 53.4466 128.23 53.6813 128.23 53.9915C128.23 54.1347 128.201 54.261 128.143 54.3704C128.085 54.4778 128.003 54.5713 127.895 54.6508C127.798 54.7244 127.682 54.7881 127.546 54.8418C127.411 54.8955 127.266 54.9402 127.111 54.976V55.0327C127.266 55.0486 127.427 55.0834 127.594 55.1371C127.761 55.1888 127.906 55.2564 128.03 55.34ZM127.069 54.0661C127.069 53.8314 127.002 53.6485 126.869 53.5172C126.738 53.3859 126.54 53.3203 126.276 53.3203C126.238 53.3203 126.188 53.3223 126.126 53.3263C126.067 53.3283 126.015 53.3302 125.971 53.3322V54.9014H126.126C126.449 54.9014 126.686 54.8268 126.839 54.6777C126.993 54.5265 127.069 54.3227 127.069 54.0661ZM127.278 56.0977C127.278 55.8034 127.19 55.5776 127.015 55.4205C126.84 55.2634 126.589 55.1848 126.261 55.1848C126.223 55.1848 126.172 55.1868 126.108 55.1908C126.047 55.1928 126.001 55.1948 125.971 55.1968V56.7451C125.989 56.8187 126.045 56.8813 126.138 56.933C126.232 56.9827 126.345 57.0076 126.478 57.0076C126.715 57.0076 126.907 56.928 127.054 56.7689C127.203 56.6098 127.278 56.3861 127.278 56.0977Z" fill="#A61D49"/>
<path d="M122.824 53.5203C123.033 53.7112 123.198 53.9419 123.319 54.2124C123.443 54.4829 123.504 54.7912 123.504 55.1372C123.504 55.4455 123.453 55.7389 123.349 56.0173C123.246 56.2957 123.097 56.5354 122.902 56.7363C122.697 56.9451 122.456 57.1082 122.18 57.2255C121.903 57.3409 121.574 57.3985 121.192 57.3985C120.884 57.3985 120.593 57.3478 120.318 57.2464C120.044 57.145 119.802 56.9978 119.593 56.8049C119.387 56.6159 119.222 56.3862 119.101 56.1157C118.98 55.8453 118.919 55.5439 118.919 55.2118C118.919 54.8658 118.978 54.5525 119.095 54.2721C119.214 53.9897 119.378 53.748 119.584 53.5472C119.789 53.3503 120.032 53.1991 120.312 53.0937C120.595 52.9863 120.895 52.9326 121.213 52.9326C121.529 52.9326 121.826 52.9843 122.102 53.0877C122.381 53.1912 122.621 53.3354 122.824 53.5203ZM122.058 56.5483C122.147 56.3673 122.212 56.1625 122.251 55.9338C122.291 55.705 122.311 55.4465 122.311 55.1581C122.311 54.9135 122.293 54.6758 122.257 54.4451C122.224 54.2124 122.165 54.0056 122.081 53.8246C121.996 53.6436 121.882 53.4984 121.741 53.3891C121.6 53.2797 121.424 53.225 121.213 53.225C120.853 53.225 120.58 53.396 120.393 53.7381C120.206 54.0782 120.112 54.5595 120.112 55.182C120.112 55.4465 120.132 55.6961 120.172 55.9308C120.214 56.1655 120.278 56.3703 120.366 56.5453C120.455 56.7223 120.569 56.8606 120.706 56.96C120.843 57.0574 121.012 57.1062 121.213 57.1062C121.41 57.1062 121.579 57.0565 121.72 56.957C121.862 56.8576 121.974 56.7213 122.058 56.5483Z" fill="#A61D49"/>
<path d="M114.808 53.3859C114.753 53.3601 114.669 53.3382 114.558 53.3203C114.446 53.3004 114.375 53.2875 114.343 53.2815V53.0488H118.135V53.2815C118.071 53.2855 117.999 53.2944 117.92 53.3084C117.84 53.3203 117.769 53.3362 117.705 53.3561C117.629 53.382 117.579 53.4227 117.553 53.4784C117.527 53.5341 117.514 53.5948 117.514 53.6604V56.6586C117.514 56.7302 117.527 56.7908 117.553 56.8405C117.579 56.8903 117.629 56.932 117.705 56.9658C117.753 56.9857 117.821 57.0036 117.911 57.0195C118.002 57.0354 118.077 57.0454 118.135 57.0494V57.2821H115.831V57.0494C115.885 57.0454 115.96 57.0394 116.055 57.0315C116.153 57.0235 116.221 57.0116 116.261 56.9957C116.335 56.9658 116.385 56.927 116.413 56.8793C116.441 56.8296 116.455 56.7669 116.455 56.6914V53.3382H115.444C115.418 54.0522 115.346 54.6657 115.229 55.1789C115.112 55.692 114.971 56.1076 114.808 56.4259C114.633 56.7679 114.451 57.0116 114.262 57.1568C114.073 57.3019 113.893 57.3745 113.722 57.3745C113.589 57.3745 113.481 57.3556 113.397 57.3178C113.314 57.2821 113.249 57.2363 113.203 57.1806C113.156 57.1249 113.124 57.0623 113.108 56.9927C113.092 56.9211 113.084 56.8564 113.084 56.7988C113.084 56.6078 113.143 56.4627 113.26 56.3632C113.377 56.2618 113.514 56.2111 113.669 56.2111C113.776 56.2111 113.88 56.2469 113.982 56.3185C114.085 56.3901 114.187 56.4835 114.286 56.5989C114.36 56.4815 114.439 56.3254 114.525 56.1305C114.612 55.9336 114.689 55.7218 114.755 55.4951C114.83 55.2405 114.89 54.9879 114.934 54.7373C114.977 54.4848 114.999 54.2053 114.999 53.8991C114.999 53.7678 114.987 53.6594 114.963 53.5739C114.941 53.4884 114.89 53.4257 114.808 53.3859Z" fill="#A61D49"/>
<path d="M113.037 57.2821H110.731V57.0495C110.838 57.0415 110.965 57.0226 111.11 56.9928C111.255 56.9609 111.328 56.9222 111.328 56.8764C111.328 56.8605 111.326 56.8426 111.322 56.8227C111.32 56.8028 111.312 56.776 111.298 56.7422L110.937 55.8651H109.475C109.441 55.9466 109.403 56.0421 109.362 56.1515C109.322 56.2609 109.287 56.3583 109.257 56.4439C109.219 56.5552 109.197 56.6358 109.189 56.6855C109.183 56.7352 109.18 56.77 109.18 56.7899C109.18 56.8536 109.227 56.9082 109.323 56.954C109.42 56.9977 109.581 57.0296 109.806 57.0495V57.2821H108.07V57.0495C108.136 57.0455 108.209 57.0355 108.291 57.0196C108.374 57.0017 108.44 56.9779 108.488 56.948C108.569 56.9003 108.638 56.8416 108.693 56.772C108.751 56.7024 108.799 56.6199 108.837 56.5244C109.067 55.9655 109.298 55.4057 109.529 54.8448C109.761 54.284 110.018 53.6655 110.298 52.9893H110.895C111.285 53.9479 111.59 54.7056 111.811 55.2625C112.032 55.8194 112.22 56.2808 112.375 56.6467C112.401 56.7064 112.433 56.7611 112.473 56.8108C112.513 56.8585 112.57 56.9043 112.643 56.948C112.699 56.9798 112.764 57.0037 112.837 57.0196C112.911 57.0355 112.977 57.0455 113.037 57.0495V57.2821ZM110.814 55.5698L110.2 54.0364L109.594 55.5698H110.814Z" fill="#A61D49"/>
<path d="M107.664 57.2821H105.376V57.0494C105.426 57.0454 105.498 57.0394 105.594 57.0315C105.689 57.0235 105.755 57.0116 105.791 56.9957C105.864 56.9658 105.915 56.927 105.943 56.8793C105.971 56.8296 105.985 56.7669 105.985 56.6914V55.2326H104.177V56.6586C104.177 56.7262 104.191 56.7868 104.219 56.8405C104.248 56.8942 104.298 56.936 104.368 56.9658C104.405 56.9817 104.47 56.9986 104.562 57.0165C104.653 57.0344 104.728 57.0454 104.785 57.0494V57.2821H102.497V57.0494C102.547 57.0474 102.62 57.0414 102.715 57.0315C102.812 57.0195 102.883 57.0056 102.927 56.9897C102.998 56.9638 103.048 56.9251 103.076 56.8733C103.104 56.8196 103.118 56.757 103.118 56.6854V53.6902C103.118 53.6206 103.105 53.5619 103.079 53.5142C103.055 53.4665 103.004 53.4247 102.927 53.3889C102.869 53.3631 102.794 53.3402 102.7 53.3203C102.607 53.2984 102.539 53.2855 102.497 53.2815V53.0488H104.785V53.2815C104.724 53.2855 104.65 53.2954 104.565 53.3114C104.479 53.3273 104.413 53.3422 104.368 53.3561C104.29 53.382 104.238 53.4237 104.213 53.4814C104.189 53.5371 104.177 53.5968 104.177 53.6604V54.9253H105.985V53.6902C105.985 53.6206 105.972 53.5619 105.946 53.5142C105.92 53.4665 105.868 53.4247 105.791 53.3889C105.739 53.3651 105.669 53.3432 105.582 53.3233C105.496 53.3014 105.428 53.2875 105.376 53.2815V53.0488H107.664V53.2815C107.601 53.2855 107.529 53.2944 107.449 53.3084C107.37 53.3203 107.298 53.3362 107.235 53.3561C107.159 53.382 107.108 53.4227 107.082 53.4784C107.057 53.5341 107.044 53.5948 107.044 53.6604V56.6586C107.044 56.7302 107.057 56.7908 107.082 56.8405C107.108 56.8903 107.159 56.932 107.235 56.9658C107.282 56.9857 107.351 57.0036 107.44 57.0195C107.532 57.0354 107.606 57.0454 107.664 57.0494V57.2821Z" fill="#A61D49"/>
<path d="M101.03 53.5203C101.239 53.7112 101.404 53.9419 101.525 54.2124C101.648 54.4829 101.71 54.7912 101.71 55.1372C101.71 55.4455 101.658 55.7389 101.555 56.0173C101.451 56.2957 101.302 56.5354 101.107 56.7363C100.902 56.9451 100.662 57.1082 100.385 57.2255C100.109 57.3409 99.7797 57.3985 99.3979 57.3985C99.0896 57.3985 98.7982 57.3478 98.5238 57.2464C98.2493 57.145 98.0077 56.9978 97.7988 56.8049C97.592 56.6159 97.4279 56.3862 97.3066 56.1157C97.1853 55.8453 97.1246 55.5439 97.1246 55.2118C97.1246 54.8658 97.1833 54.5525 97.3006 54.2721C97.42 53.9897 97.5831 53.748 97.7899 53.5472C97.9947 53.3503 98.2374 53.1991 98.5178 53.0937C98.8002 52.9863 99.1005 52.9326 99.4187 52.9326C99.735 52.9326 100.031 52.9843 100.308 53.0877C100.586 53.1912 100.827 53.3354 101.03 53.5203ZM100.263 56.5483C100.353 56.3673 100.417 56.1625 100.457 55.9338C100.497 55.705 100.517 55.4465 100.517 55.1581C100.517 54.9135 100.499 54.6758 100.463 54.4451C100.429 54.2124 100.37 54.0056 100.287 53.8246C100.201 53.6436 100.088 53.4984 99.9468 53.3891C99.8056 53.2797 99.6296 53.225 99.4187 53.225C99.0588 53.225 98.7853 53.396 98.5984 53.7381C98.4114 54.0782 98.3179 54.5595 98.3179 55.182C98.3179 55.4465 98.3378 55.6961 98.3776 55.9308C98.4194 56.1655 98.484 56.3703 98.5715 56.5453C98.661 56.7223 98.7744 56.8606 98.9116 56.96C99.0488 57.0574 99.2179 57.1062 99.4187 57.1062C99.6156 57.1062 99.7847 57.0565 99.9259 56.957C100.067 56.8576 100.179 56.7213 100.263 56.5483Z" fill="#A61D49"/>
<path d="M96.3379 57.2821H94.0676V57.0494C94.1173 57.0454 94.1899 57.0394 94.2854 57.0315C94.3809 57.0215 94.4465 57.0086 94.4823 56.9927C94.5559 56.9628 94.6066 56.9241 94.6344 56.8763C94.6623 56.8266 94.6762 56.764 94.6762 56.6884V54.2153L92.7729 56.578C92.7729 56.7152 92.7858 56.8057 92.8117 56.8495C92.8395 56.8932 92.8902 56.932 92.9638 56.9658C93.0056 56.9837 93.0712 57.0016 93.1607 57.0195C93.2502 57.0354 93.3238 57.0454 93.3815 57.0494V57.2821H91.1202V57.0494C91.1699 57.0474 91.2425 57.0414 91.338 57.0315C91.4354 57.0195 91.506 57.0056 91.5498 56.9897C91.6214 56.9638 91.6711 56.9251 91.6989 56.8733C91.7268 56.8196 91.7407 56.757 91.7407 56.6854V53.6902C91.7407 53.6206 91.7278 53.5619 91.7019 53.5142C91.678 53.4665 91.6273 53.4247 91.5498 53.3889C91.4921 53.3631 91.4165 53.3402 91.323 53.3203C91.2296 53.2984 91.1619 53.2855 91.1202 53.2815V53.0488H93.3904V53.2815C93.3288 53.2855 93.2552 53.2954 93.1697 53.3114C93.0841 53.3273 93.0185 53.3422 92.9728 53.3561C92.8952 53.382 92.8435 53.4237 92.8176 53.4814C92.7938 53.5371 92.7818 53.5968 92.7818 53.6604V56.0828L94.6852 53.7201C94.6852 53.6166 94.6702 53.544 94.6404 53.5023C94.6106 53.4585 94.5609 53.4207 94.4912 53.3889C94.4336 53.3611 94.363 53.3382 94.2794 53.3203C94.1979 53.3024 94.1303 53.2895 94.0766 53.2815V53.0488H96.3379V53.2815C96.2742 53.2855 96.2026 53.2944 96.1231 53.3084C96.0435 53.3203 95.9719 53.3362 95.9083 53.3561C95.8327 53.382 95.782 53.4227 95.7561 53.4784C95.7303 53.5341 95.7174 53.5948 95.7174 53.6604V56.6586C95.7174 56.7302 95.7303 56.7908 95.7561 56.8405C95.782 56.8903 95.8327 56.932 95.9083 56.9658C95.956 56.9857 96.0246 57.0036 96.1141 57.0195C96.2056 57.0354 96.2802 57.0454 96.3379 57.0494V57.2821Z" fill="#A61D49"/>
<path d="M88.5996 57.3955C88.2894 57.3955 87.999 57.3458 87.7285 57.2463C87.458 57.1449 87.2223 56.9987 87.0215 56.8078C86.8246 56.6208 86.6695 56.3901 86.5561 56.1157C86.4427 55.8392 86.386 55.5359 86.386 55.2058C86.386 54.8776 86.4427 54.5743 86.5561 54.2959C86.6714 54.0155 86.8325 53.7728 87.0394 53.568C87.2422 53.3671 87.4859 53.212 87.7703 53.1026C88.0547 52.9912 88.359 52.9355 88.6831 52.9355C88.9178 52.9355 89.1316 52.9644 89.3245 53.0221C89.5175 53.0777 89.6805 53.1414 89.8138 53.213L89.9988 53.0489H90.2583L90.2851 54.5942H90.0226C89.8735 54.1229 89.6945 53.7768 89.4856 53.5561C89.2768 53.3353 89.0222 53.2249 88.7219 53.2249C88.348 53.2249 88.0636 53.39 87.8687 53.7201C87.6738 54.0483 87.5764 54.5097 87.5764 55.1044C87.5764 55.4405 87.6092 55.7279 87.6748 55.9665C87.7424 56.2032 87.8299 56.3941 87.9373 56.5393C88.0527 56.6905 88.1889 56.8018 88.346 56.8734C88.5032 56.943 88.6772 56.9778 88.8681 56.9778C89.1465 56.9778 89.3942 56.9023 89.6109 56.7511C89.8297 56.6 90.0286 56.3712 90.2076 56.065L90.4641 56.2201C90.3786 56.3951 90.2812 56.5522 90.1718 56.6915C90.0624 56.8287 89.9361 56.947 89.7929 57.0465C89.6358 57.1558 89.4618 57.2414 89.2708 57.303C89.0819 57.3647 88.8582 57.3955 88.5996 57.3955Z" fill="#A61D49"/>
<path d="M83.8595 57.3955C83.5492 57.3955 83.2589 57.3458 82.9884 57.2463C82.7179 57.1449 82.4822 56.9987 82.2814 56.8078C82.0845 56.6208 81.9293 56.3901 81.816 56.1157C81.7026 55.8392 81.6459 55.5359 81.6459 55.2058C81.6459 54.8776 81.7026 54.5743 81.816 54.2959C81.9313 54.0155 82.0924 53.7728 82.2993 53.568C82.5021 53.3671 82.7458 53.212 83.0302 53.1026C83.3146 52.9912 83.6189 52.9355 83.943 52.9355C84.1777 52.9355 84.3915 52.9644 84.5844 53.0221C84.7773 53.0777 84.9404 53.1414 85.0737 53.213L85.2586 53.0489H85.5182L85.545 54.5942H85.2825C85.1333 54.1229 84.9544 53.7768 84.7455 53.5561C84.5367 53.3353 84.2821 53.2249 83.9818 53.2249C83.6079 53.2249 83.3235 53.39 83.1286 53.7201C82.9337 54.0483 82.8362 54.5097 82.8362 55.1044C82.8362 55.4405 82.8691 55.7279 82.9347 55.9665C83.0023 56.2032 83.0898 56.3941 83.1972 56.5393C83.3126 56.6905 83.4488 56.8018 83.6059 56.8734C83.763 56.943 83.9371 56.9778 84.128 56.9778C84.4064 56.9778 84.654 56.9023 84.8708 56.7511C85.0896 56.6 85.2885 56.3712 85.4675 56.065L85.724 56.2201C85.6385 56.3951 85.5411 56.5522 85.4317 56.6915C85.3223 56.8287 85.196 56.947 85.0528 57.0465C84.8957 57.1558 84.7217 57.2414 84.5307 57.303C84.3418 57.3647 84.118 57.3955 83.8595 57.3955Z" fill="#A61D49"/>
<path d="M80.617 54.1288H80.3903C80.3326 53.9677 80.2332 53.8046 80.0919 53.6395C79.9507 53.4744 79.8105 53.377 79.6713 53.3472C79.6116 53.3332 79.5281 53.3253 79.4207 53.3233C79.3153 53.3193 79.2278 53.3173 79.1582 53.3173H78.5436V54.9521H78.9792C79.0886 54.9521 79.188 54.9392 79.2775 54.9134C79.367 54.8875 79.4486 54.8378 79.5221 54.7642C79.5679 54.7185 79.6136 54.6379 79.6594 54.5226C79.7071 54.4072 79.7379 54.3068 79.7519 54.2212H79.9786V55.9873H79.7519C79.7399 55.9038 79.7091 55.7994 79.6594 55.6741C79.6116 55.5468 79.5659 55.4593 79.5221 55.4116C79.4565 55.34 79.3789 55.2912 79.2895 55.2654C79.2 55.2375 79.0965 55.2236 78.9792 55.2236H78.5436V56.4438C78.5436 56.571 78.5526 56.6725 78.5705 56.7481C78.5904 56.8216 78.6262 56.8783 78.6779 56.9181C78.7276 56.9559 78.7952 56.9807 78.8807 56.9927C78.9683 57.0046 79.0866 57.0106 79.2358 57.0106C79.3054 57.0106 79.3889 57.0096 79.4863 57.0076C79.5838 57.0056 79.6693 56.9996 79.7429 56.9897C79.8264 56.9797 79.904 56.9648 79.9756 56.9449C80.0492 56.9251 80.1039 56.8962 80.1397 56.8584C80.2351 56.761 80.3425 56.6128 80.4619 56.4139C80.5812 56.2131 80.6598 56.0629 80.6975 55.9635H80.9153L80.8348 57.2821H76.8641V57.0494C76.9198 57.0454 76.9953 57.0374 77.0908 57.0255C77.1863 57.0136 77.2539 56.9996 77.2937 56.9837C77.3692 56.9519 77.42 56.9121 77.4458 56.8644C77.4717 56.8147 77.4846 56.752 77.4846 56.6765V53.6902C77.4846 53.6186 77.4737 53.56 77.4518 53.5142C77.4299 53.4665 77.3772 53.4237 77.2937 53.3859C77.242 53.3621 77.1694 53.3402 77.0759 53.3203C76.9824 53.3004 76.9118 53.2875 76.8641 53.2815V53.0488H80.617V54.1288Z" fill="#A61D49"/>
<path d="M72.1839 55.9128C72.2635 56.0719 72.3689 56.1942 72.5001 56.2797C72.6334 56.3653 72.7935 56.408 72.9804 56.408V53.8842H72.888C72.7189 53.8842 72.5797 53.925 72.4703 54.0065C72.3609 54.0881 72.2734 54.1885 72.2078 54.3078C72.1461 54.4172 72.0994 54.5485 72.0676 54.7016C72.0358 54.8547 72.0198 55.0039 72.0198 55.1491C72.0198 55.2525 72.0278 55.3669 72.0437 55.4922C72.0596 55.6175 72.1064 55.7577 72.1839 55.9128ZM74.8211 55.9128C74.8887 55.7796 74.9335 55.6423 74.9554 55.5011C74.9772 55.3599 74.9882 55.2426 74.9882 55.1491C74.9882 55.0218 74.9723 54.8786 74.9404 54.7195C74.9106 54.5604 74.8639 54.4232 74.8002 54.3078C74.7306 54.1805 74.6421 54.0781 74.5347 54.0005C74.4293 53.923 74.2911 53.8842 74.12 53.8842H74.0276V56.408C74.2125 56.408 74.3726 56.3643 74.5079 56.2768C74.6451 56.1893 74.7495 56.0679 74.8211 55.9128ZM75.5192 56.2618C75.3223 56.4031 75.0966 56.5085 74.842 56.5781C74.5894 56.6477 74.3169 56.6825 74.0246 56.6825V56.769C74.0246 56.8386 74.0355 56.8963 74.0574 56.942C74.0813 56.9878 74.129 57.0246 74.2006 57.0524C74.2364 57.0663 74.298 57.0793 74.3856 57.0912C74.4751 57.1011 74.5576 57.1071 74.6332 57.1091V57.3418H72.4136V57.1091C72.4614 57.1051 72.53 57.0991 72.6195 57.0912C72.711 57.0812 72.7746 57.0683 72.8104 57.0524C72.8701 57.0266 72.9138 56.9908 72.9417 56.945C72.9695 56.8993 72.9834 56.8406 72.9834 56.769V56.6825C72.6791 56.6825 72.3987 56.6467 72.1422 56.5751C71.8856 56.5035 71.6638 56.3991 71.4769 56.2618C71.288 56.1246 71.1408 55.9566 71.0354 55.7577C70.932 55.5588 70.8802 55.3321 70.8802 55.0775C70.8802 54.8826 70.917 54.6996 70.9906 54.5286C71.0662 54.3575 71.1905 54.2014 71.3635 54.0602C71.5266 53.927 71.7414 53.8196 72.0079 53.738C72.2744 53.6565 72.5877 53.6157 72.9476 53.6157H72.9834C72.9834 53.5242 72.9715 53.4566 72.9476 53.4128C72.9258 53.3691 72.88 53.3323 72.8104 53.3025C72.7527 53.2766 72.6851 53.2557 72.6075 53.2398C72.532 53.2239 72.4653 53.214 72.4077 53.21V52.9773H74.6003V53.21C74.5427 53.212 74.476 53.2179 74.4005 53.2279C74.3249 53.2358 74.2583 53.2498 74.2006 53.2697C74.131 53.2935 74.0842 53.3293 74.0604 53.377C74.0365 53.4228 74.0246 53.5023 74.0246 53.6157H74.0574C74.4233 53.6157 74.7366 53.6565 74.9971 53.738C75.2596 53.8176 75.4754 53.925 75.6445 54.0602C75.8096 54.1955 75.9309 54.3506 76.0084 54.5256C76.088 54.7006 76.1278 54.8846 76.1278 55.0775C76.1278 55.3281 76.0731 55.5548 75.9637 55.7577C75.8543 55.9605 75.7061 56.1286 75.5192 56.2618Z" fill="#A61D49"/>
<path d="M69.4573 53.5203C69.6661 53.7112 69.8312 53.9419 69.9525 54.2124C70.0758 54.4829 70.1374 54.7912 70.1374 55.1372C70.1374 55.4455 70.0857 55.7389 69.9823 56.0173C69.8789 56.2957 69.7297 56.5354 69.5348 56.7363C69.33 56.9451 69.0893 57.1082 68.8129 57.2255C68.5364 57.3409 68.2073 57.3985 67.8254 57.3985C67.5171 57.3985 67.2258 57.3478 66.9513 57.2464C66.6769 57.145 66.4352 56.9978 66.2264 56.8049C66.0196 56.6159 65.8555 56.3862 65.7342 56.1157C65.6128 55.8453 65.5522 55.5439 65.5522 55.2118C65.5522 54.8658 65.6109 54.5525 65.7282 54.2721C65.8475 53.9897 66.0106 53.748 66.2174 53.5472C66.4223 53.3503 66.6649 53.1991 66.9454 53.0937C67.2278 52.9863 67.5281 52.9326 67.8463 52.9326C68.1625 52.9326 68.4589 52.9843 68.7353 53.0877C69.0137 53.1912 69.2544 53.3354 69.4573 53.5203ZM68.6906 56.5483C68.7801 56.3673 68.8447 56.1625 68.8845 55.9338C68.9242 55.705 68.9441 55.4465 68.9441 55.1581C68.9441 54.9135 68.9262 54.6758 68.8904 54.4451C68.8566 54.2124 68.798 54.0056 68.7144 53.8246C68.6289 53.6436 68.5155 53.4984 68.3743 53.3891C68.2331 53.2797 68.0571 53.225 67.8463 53.225C67.4863 53.225 67.2129 53.396 67.0259 53.7381C66.839 54.0782 66.7455 54.5595 66.7455 55.182C66.7455 55.4465 66.7654 55.6961 66.8051 55.9308C66.8469 56.1655 66.9115 56.3703 66.9991 56.5453C67.0886 56.7223 67.2019 56.8606 67.3391 56.96C67.4764 57.0574 67.6454 57.1062 67.8463 57.1062C68.0432 57.1062 68.2122 57.0565 68.3535 56.957C68.4947 56.8576 68.607 56.7213 68.6906 56.5483Z" fill="#A61D49"/>
<path d="M64.8639 54.1079C64.8639 54.3465 64.8141 54.5524 64.7147 54.7254C64.6172 54.8965 64.482 55.0357 64.309 55.1431C64.13 55.2544 63.9251 55.335 63.6944 55.3847C63.4657 55.4344 63.2082 55.4593 62.9218 55.4593H62.5757V56.6496C62.5757 56.7212 62.5886 56.7838 62.6145 56.8375C62.6423 56.8893 62.6941 56.931 62.7696 56.9628C62.8094 56.9788 62.874 56.9957 62.9635 57.0136C63.053 57.0315 63.1286 57.0434 63.1903 57.0494V57.2821H60.8961V57.0494C60.9538 57.0434 61.0304 57.0354 61.1259 57.0255C61.2213 57.0136 61.2879 56.9996 61.3257 56.9837C61.4033 56.9519 61.454 56.9131 61.4779 56.8674C61.5037 56.8216 61.5167 56.758 61.5167 56.6765V53.6902C61.5167 53.6206 61.5047 53.561 61.4809 53.5112C61.457 53.4595 61.4053 53.4168 61.3257 53.383C61.27 53.3591 61.1955 53.3382 61.102 53.3203C61.0105 53.3004 60.9419 53.2875 60.8961 53.2815V53.0488H63.232C63.779 53.0488 64.1877 53.1363 64.4581 53.3114C64.7286 53.4844 64.8639 53.7499 64.8639 54.1079ZM63.7004 54.26C63.7004 53.9418 63.6358 53.7061 63.5065 53.553C63.3792 53.3979 63.1515 53.3203 62.8233 53.3203H62.5757V55.1789H62.701C63.0272 55.1789 63.2748 55.1043 63.4438 54.9551C63.6149 54.804 63.7004 54.5723 63.7004 54.26Z" fill="#A61D49"/>
<path d="M60.1178 57.2821H57.8475V57.0494C57.8973 57.0454 57.9669 57.0394 58.0564 57.0315C58.1459 57.0235 58.2085 57.0116 58.2443 56.9957C58.3179 56.9658 58.3686 56.927 58.3965 56.8793C58.4243 56.8296 58.4382 56.7669 58.4382 56.6914V53.3651H56.7079V56.6586C56.7079 56.7262 56.7219 56.7868 56.7497 56.8405C56.7795 56.8942 56.8293 56.936 56.8989 56.9658C56.9367 56.9817 56.9983 56.9986 57.0838 57.0165C57.1694 57.0344 57.241 57.0454 57.2986 57.0494V57.2821H55.0284V57.0494C55.0781 57.0474 55.1507 57.0414 55.2462 57.0315C55.3436 57.0195 55.4142 57.0056 55.458 56.9897C55.5296 56.9638 55.5793 56.9251 55.6071 56.8733C55.635 56.8196 55.6489 56.757 55.6489 56.6854V53.6902C55.6489 53.6206 55.636 53.5619 55.6101 53.5142C55.5862 53.4665 55.5355 53.4247 55.458 53.3889C55.4003 53.3631 55.3247 53.3402 55.2312 53.3203C55.1378 53.2984 55.0701 53.2855 55.0284 53.2815V53.0488H60.1178V53.2815C60.0542 53.2855 59.9826 53.2944 59.903 53.3084C59.8234 53.3203 59.7519 53.3362 59.6882 53.3561C59.6126 53.382 59.5619 53.4227 59.5361 53.4784C59.5102 53.5341 59.4973 53.5948 59.4973 53.6604V56.6586C59.4973 56.7302 59.5102 56.7908 59.5361 56.8405C59.5619 56.8903 59.6126 56.932 59.6882 56.9658C59.7359 56.9857 59.8046 57.0036 59.8941 57.0195C59.9855 57.0354 60.0601 57.0454 60.1178 57.0494V57.2821Z" fill="#A61D49"/>
<path d="M51.6429 53.5203C51.8517 53.7112 52.0168 53.9419 52.1381 54.2124C52.2614 54.4829 52.3231 54.7912 52.3231 55.1372C52.3231 55.4455 52.2714 55.7389 52.168 56.0173C52.0646 56.2957 51.9154 56.5354 51.7205 56.7363C51.5156 56.9451 51.275 57.1082 50.9985 57.2255C50.7221 57.3409 50.3929 57.3985 50.0111 57.3985C49.7028 57.3985 49.4115 57.3478 49.137 57.2464C48.8625 57.145 48.6209 56.9978 48.4121 56.8049C48.2052 56.6159 48.0412 56.3862 47.9198 56.1157C47.7985 55.8453 47.7379 55.5439 47.7379 55.2118C47.7379 54.8658 47.7965 54.5525 47.9139 54.2721C48.0332 53.9897 48.1963 53.748 48.4031 53.5472C48.608 53.3503 48.8506 53.1991 49.131 53.0937C49.4134 52.9863 49.7138 52.9326 50.032 52.9326C50.3482 52.9326 50.6445 52.9843 50.921 53.0877C51.1994 53.1912 51.4401 53.3354 51.6429 53.5203ZM50.8762 56.5483C50.9657 56.3673 51.0304 56.1625 51.0701 55.9338C51.1099 55.705 51.1298 55.4465 51.1298 55.1581C51.1298 54.9135 51.1119 54.6758 51.0761 54.4451C51.0423 54.2124 50.9836 54.0056 50.9001 53.8246C50.8146 53.6436 50.7012 53.4984 50.56 53.3891C50.4188 53.2797 50.2428 53.225 50.032 53.225C49.672 53.225 49.3985 53.396 49.2116 53.7381C49.0246 54.0782 48.9312 54.5595 48.9312 55.182C48.9312 55.4465 48.951 55.6961 48.9908 55.9308C49.0326 56.1655 49.0972 56.3703 49.1847 56.5453C49.2742 56.7223 49.3876 56.8606 49.5248 56.96C49.662 57.0574 49.8311 57.1062 50.032 57.1062C50.2289 57.1062 50.3979 57.0565 50.5391 56.957C50.6803 56.8576 50.7927 56.7213 50.8762 56.5483Z" fill="#A61D49"/>
<path d="M46.4732 55.34C46.6005 55.4275 46.7039 55.5378 46.7835 55.6711C46.863 55.8024 46.9028 55.9575 46.9028 56.1365C46.9028 56.3513 46.8571 56.5333 46.7656 56.6824C46.6761 56.8296 46.5468 56.9459 46.3778 57.0315C46.1988 57.1229 45.9919 57.1876 45.7573 57.2254C45.5246 57.2632 45.2501 57.2821 44.9339 57.2821H42.7352V57.0494C42.7969 57.0434 42.8744 57.0344 42.9679 57.0225C43.0614 57.0106 43.127 56.9967 43.1648 56.9807C43.2384 56.9509 43.2881 56.9121 43.314 56.8644C43.3418 56.8147 43.3557 56.751 43.3557 56.6735V53.6902C43.3557 53.6186 43.3448 53.559 43.3229 53.5112C43.3011 53.4635 43.2483 53.4217 43.1648 53.3859C43.1032 53.3601 43.0316 53.3392 42.95 53.3233C42.8685 53.3054 42.7969 53.2915 42.7352 53.2815V53.0488H45.0353C45.6141 53.0488 46.0317 53.1284 46.2883 53.2875C46.5448 53.4466 46.6731 53.6813 46.6731 53.9915C46.6731 54.1347 46.6443 54.261 46.5866 54.3704C46.5289 54.4778 46.4464 54.5713 46.339 54.6508C46.2415 54.7244 46.1252 54.7881 45.9899 54.8418C45.8547 54.8955 45.7095 54.9402 45.5544 54.976V55.0327C45.7095 55.0486 45.8706 55.0834 46.0377 55.1371C46.2047 55.1888 46.3499 55.2564 46.4732 55.34ZM45.5126 54.0661C45.5126 53.8314 45.446 53.6485 45.3128 53.5172C45.1815 53.3859 44.9836 53.3203 44.7191 53.3203C44.6813 53.3203 44.6316 53.3223 44.5699 53.3263C44.5103 53.3283 44.4585 53.3302 44.4148 53.3322V54.9014H44.5699C44.8921 54.9014 45.1298 54.8268 45.2829 54.6777C45.4361 54.5265 45.5126 54.3227 45.5126 54.0661ZM45.7215 56.0977C45.7215 55.8034 45.6339 55.5776 45.4589 55.4205C45.2839 55.2634 45.0323 55.1848 44.7042 55.1848C44.6664 55.1848 44.6157 55.1868 44.552 55.1908C44.4904 55.1928 44.4446 55.1948 44.4148 55.1968V56.7451C44.4327 56.8187 44.4884 56.8813 44.5819 56.933C44.6753 56.9827 44.7887 57.0076 44.9219 57.0076C45.1586 57.0076 45.3505 56.928 45.4977 56.7689C45.6469 56.6098 45.7215 56.3861 45.7215 56.0977Z" fill="#A61D49"/>
<path d="M42.1209 54.26H41.8912C41.8296 54.079 41.7301 53.8851 41.5929 53.6783C41.4577 53.4715 41.3324 53.3601 41.217 53.3442C41.1534 53.3362 41.0748 53.3293 40.9813 53.3233C40.8879 53.3173 40.8073 53.3143 40.7397 53.3143H40.5995V56.6347C40.5995 56.7063 40.6124 56.7699 40.6383 56.8256C40.6641 56.8793 40.7148 56.9221 40.7904 56.9539C40.8362 56.9718 40.9068 56.9907 41.0022 57.0106C41.0997 57.0285 41.1822 57.0414 41.2498 57.0494V57.2821H38.8901V57.0494C38.9478 57.0434 39.0283 57.0354 39.1317 57.0255C39.2371 57.0136 39.3087 56.9996 39.3465 56.9837C39.4241 56.9519 39.4758 56.9091 39.5017 56.8554C39.5275 56.8017 39.5404 56.7381 39.5404 56.6645V53.3143H39.4002C39.3326 53.3143 39.2521 53.3173 39.1586 53.3233C39.0651 53.3293 38.9865 53.3362 38.9229 53.3442C38.8076 53.3601 38.6813 53.4715 38.544 53.6783C38.4088 53.8851 38.3103 54.079 38.2487 54.26H38.019V53.0488H42.1209V54.26Z" fill="#A61D49"/>
<path d="M35.666 57.3955C35.3558 57.3955 35.0654 57.3458 34.7949 57.2463C34.5244 57.1449 34.2888 56.9987 34.0879 56.8078C33.891 56.6208 33.7359 56.3901 33.6225 56.1157C33.5091 55.8392 33.4525 55.5359 33.4525 55.2058C33.4525 54.8776 33.5091 54.5743 33.6225 54.2959C33.7379 54.0155 33.8989 53.7728 34.1058 53.568C34.3086 53.3671 34.5523 53.212 34.8367 53.1026C35.1211 52.9912 35.4254 52.9355 35.7496 52.9355C35.9842 52.9355 36.198 52.9644 36.3909 53.0221C36.5839 53.0777 36.7469 53.1414 36.8802 53.213L37.0652 53.0489H37.3247L37.3516 54.5942H37.089C36.9399 54.1229 36.7609 53.7768 36.552 53.5561C36.3432 53.3353 36.0886 53.2249 35.7883 53.2249C35.4144 53.2249 35.13 53.39 34.9351 53.7201C34.7402 54.0483 34.6428 54.5097 34.6428 55.1044C34.6428 55.4405 34.6756 55.7279 34.7412 55.9665C34.8088 56.2032 34.8963 56.3941 35.0037 56.5393C35.1191 56.6905 35.2553 56.8018 35.4124 56.8734C35.5696 56.943 35.7436 56.9778 35.9345 56.9778C36.2129 56.9778 36.4606 56.9023 36.6773 56.7511C36.8961 56.6 37.095 56.3712 37.274 56.065L37.5305 56.2201C37.445 56.3951 37.3476 56.5522 37.2382 56.6915C37.1288 56.8287 37.0025 56.947 36.8593 57.0465C36.7022 57.1558 36.5282 57.2414 36.3372 57.303C36.1483 57.3647 35.9246 57.3955 35.666 57.3955Z" fill="#A61D49"/>
<path d="M32.4235 54.1288H32.1968C32.1391 53.9677 32.0397 53.8046 31.8985 53.6395C31.7573 53.4744 31.617 53.377 31.4778 53.3472C31.4182 53.3332 31.3346 53.3253 31.2272 53.3233C31.1218 53.3193 31.0343 53.3173 30.9647 53.3173H30.3502V54.9521H30.7857C30.8951 54.9521 30.9945 54.9392 31.084 54.9134C31.1735 54.8875 31.2551 54.8378 31.3287 54.7642C31.3744 54.7185 31.4201 54.6379 31.4659 54.5226C31.5136 54.4072 31.5445 54.3068 31.5584 54.2212H31.7851V55.9873H31.5584C31.5464 55.9038 31.5156 55.7994 31.4659 55.6741C31.4182 55.5468 31.3724 55.4593 31.3287 55.4116C31.263 55.34 31.1855 55.2912 31.096 55.2654C31.0065 55.2375 30.9031 55.2236 30.7857 55.2236H30.3502V56.4438C30.3502 56.571 30.3591 56.6725 30.377 56.7481C30.3969 56.8216 30.4327 56.8783 30.4844 56.9181C30.5341 56.9559 30.6017 56.9807 30.6873 56.9927C30.7748 57.0046 30.8931 57.0106 31.0423 57.0106C31.1119 57.0106 31.1954 57.0096 31.2929 57.0076C31.3903 57.0056 31.4758 56.9996 31.5494 56.9897C31.633 56.9797 31.7105 56.9648 31.7821 56.9449C31.8557 56.9251 31.9104 56.8962 31.9462 56.8584C32.0417 56.761 32.1491 56.6128 32.2684 56.4139C32.3877 56.2131 32.4663 56.0629 32.5041 55.9635H32.7218L32.6413 57.2821H28.6706V57.0494C28.7263 57.0454 28.8019 57.0374 28.8973 57.0255C28.9928 57.0136 29.0604 56.9996 29.1002 56.9837C29.1758 56.9519 29.2265 56.9121 29.2523 56.8644C29.2782 56.8147 29.2911 56.752 29.2911 56.6765V53.6902C29.2911 53.6186 29.2802 53.56 29.2583 53.5142C29.2364 53.4665 29.1837 53.4237 29.1002 53.3859C29.0485 53.3621 28.9759 53.3402 28.8824 53.3203C28.7889 53.3004 28.7183 53.2875 28.6706 53.2815V53.0488H32.4235V54.1288Z" fill="#A61D49"/>
<path d="M26.3529 57.2821H20.4282V57.0494C20.4779 57.0474 20.5505 57.0414 20.6459 57.0315C20.7434 57.0195 20.814 57.0056 20.8577 56.9897C20.9293 56.9638 20.9791 56.9251 21.0069 56.8733C21.0348 56.8196 21.0487 56.757 21.0487 56.6854V53.6902C21.0487 53.6206 21.0357 53.5619 21.0099 53.5142C20.986 53.4665 20.9353 53.4247 20.8577 53.3889C20.8001 53.3631 20.7245 53.3402 20.631 53.3203C20.5375 53.2984 20.4699 53.2855 20.4282 53.2815V53.0488H22.6537V53.2815C22.594 53.2855 22.5274 53.2954 22.4538 53.3114C22.3802 53.3273 22.3215 53.3422 22.2778 53.3561C22.2062 53.38 22.1574 53.4188 22.1316 53.4724C22.1077 53.5261 22.0958 53.5888 22.0958 53.6604V56.6586C22.0958 56.7401 22.1216 56.8157 22.1734 56.8853C22.2251 56.9549 22.3195 56.9897 22.4568 56.9897C22.5403 56.9897 22.6069 56.9917 22.6566 56.9957C22.7084 56.9976 22.7889 56.9986 22.8983 56.9986C22.9938 56.9986 23.0743 56.9976 23.1399 56.9957C23.2056 56.9937 23.2881 56.9917 23.3875 56.9897C23.483 56.9877 23.5476 56.9658 23.5814 56.9241C23.6172 56.8803 23.6351 56.8127 23.6351 56.7212V53.6902C23.6351 53.6206 23.6232 53.5619 23.5993 53.5142C23.5775 53.4665 23.5278 53.4247 23.4502 53.3889C23.3985 53.3651 23.3358 53.3432 23.2622 53.3233C23.1906 53.3014 23.129 53.2875 23.0773 53.2815V53.0488H25.2521V53.2815C25.1884 53.2855 25.1198 53.2954 25.0462 53.3114C24.9726 53.3253 24.912 53.3402 24.8642 53.3561C24.7887 53.382 24.7389 53.4227 24.7151 53.4784C24.6932 53.5341 24.6823 53.5948 24.6823 53.6604V56.6586C24.6823 56.7401 24.7081 56.8157 24.7598 56.8853C24.8115 56.9549 24.906 56.9897 25.0432 56.9897C25.1268 56.9897 25.1934 56.9917 25.2431 56.9957C25.2948 56.9976 25.3754 56.9986 25.4848 56.9986C25.5802 56.9986 25.6608 56.9976 25.7264 56.9957C25.792 56.9937 25.8746 56.9917 25.974 56.9897C26.0695 56.9877 26.1341 56.9658 26.1679 56.9241C26.2037 56.8803 26.2216 56.8127 26.2216 56.7212V53.6902C26.2216 53.6206 26.2097 53.5619 26.1858 53.5142C26.1639 53.4665 26.1142 53.4247 26.0367 53.3889C25.985 53.3651 25.9223 53.3432 25.8487 53.3233C25.7771 53.3014 25.7155 53.2875 25.6638 53.2815V53.0488H27.8893V53.2815C27.8256 53.2855 27.754 53.2944 27.6745 53.3084C27.5949 53.3203 27.5233 53.3362 27.4597 53.3561C27.3841 53.382 27.3334 53.4227 27.3075 53.4784C27.2817 53.5341 27.2687 53.5948 27.2687 53.6604V56.6914C27.2687 56.7968 27.3016 56.8753 27.3672 56.927C27.4348 56.9768 27.5313 57.0016 27.6566 57.0016H27.937V58.3381H27.7132C27.6496 58.1154 27.5293 57.8966 27.3523 57.6818C27.1753 57.469 27.0132 57.3467 26.866 57.3149C26.8063 57.3009 26.7228 57.292 26.6154 57.288C26.51 57.284 26.4225 57.2821 26.3529 57.2821Z" fill="#A61D49"/>
<path d="M18.4655 56.0559C18.4655 55.7497 18.378 55.516 18.2029 55.3549C18.0299 55.1918 17.7803 55.1102 17.4542 55.1102C17.4164 55.1102 17.3666 55.1122 17.305 55.1162C17.2453 55.1182 17.2006 55.1202 17.1707 55.1222V56.7451C17.1886 56.8226 17.2433 56.8863 17.3348 56.936C17.4283 56.9837 17.5407 57.0076 17.6719 57.0076C17.9086 57.0076 18.0995 56.9241 18.2447 56.757C18.3919 56.5879 18.4655 56.3543 18.4655 56.0559ZM19.6439 56.0142C19.6439 56.225 19.5971 56.4119 19.5036 56.575C19.4122 56.7381 19.2869 56.8733 19.1278 56.9807C18.9726 57.0822 18.8016 57.1577 18.6146 57.2075C18.4297 57.2572 18.2368 57.2821 18.0359 57.2821H15.4912V57.0494C15.5489 57.0434 15.6254 57.0354 15.7209 57.0255C15.8164 57.0136 15.883 56.9996 15.9208 56.9837C15.9924 56.9559 16.0421 56.9171 16.0699 56.8674C16.0978 56.8177 16.1117 56.754 16.1117 56.6765V53.6902C16.1117 53.6226 16.0988 53.5639 16.0729 53.5142C16.049 53.4625 15.9983 53.4197 15.9208 53.3859C15.8651 53.3621 15.7915 53.3402 15.7 53.3203C15.6085 53.3004 15.5389 53.2875 15.4912 53.2815V53.0488H19.271V54.26H19.0412C18.9517 54.0293 18.8404 53.8245 18.7071 53.6455C18.5759 53.4665 18.4585 53.369 18.3551 53.3531C18.2915 53.3412 18.2179 53.3322 18.1343 53.3263C18.0508 53.3203 17.9653 53.3173 17.8778 53.3173H17.1707V54.8268C17.2622 54.8249 17.3637 54.8219 17.475 54.8179C17.5864 54.8119 17.6938 54.8089 17.7972 54.8089C18.0617 54.8089 18.3024 54.8298 18.5192 54.8716C18.736 54.9134 18.9299 54.983 19.1009 55.0804C19.268 55.1739 19.4002 55.2982 19.4977 55.4533C19.5951 55.6065 19.6439 55.7934 19.6439 56.0142Z" fill="#A61D49"/>
<path d="M14.0237 53.5203C14.2325 53.7112 14.3976 53.9419 14.5189 54.2124C14.6422 54.4829 14.7039 54.7912 14.7039 55.1372C14.7039 55.4455 14.6522 55.7389 14.5487 56.0173C14.4453 56.2957 14.2962 56.5354 14.1013 56.7363C13.8964 56.9451 13.6558 57.1082 13.3793 57.2255C13.1029 57.3409 12.7737 57.3985 12.3919 57.3985C12.0836 57.3985 11.7922 57.3478 11.5178 57.2464C11.2433 57.145 11.0017 56.9978 10.7928 56.8049C10.586 56.6159 10.4219 56.3862 10.3006 56.1157C10.1793 55.8453 10.1186 55.5439 10.1186 55.2118C10.1186 54.8658 10.1773 54.5525 10.2946 54.2721C10.414 53.9897 10.577 53.748 10.7839 53.5472C10.9887 53.3503 11.2314 53.1991 11.5118 53.0937C11.7942 52.9863 12.0945 52.9326 12.4127 52.9326C12.729 52.9326 13.0253 52.9843 13.3017 53.0877C13.5802 53.1912 13.8208 53.3354 14.0237 53.5203ZM13.257 56.5483C13.3465 56.3673 13.4111 56.1625 13.4509 55.9338C13.4907 55.705 13.5106 55.4465 13.5106 55.1581C13.5106 54.9135 13.4927 54.6758 13.4569 54.4451C13.4231 54.2124 13.3644 54.0056 13.2809 53.8246C13.1953 53.6436 13.082 53.4984 12.9408 53.3891C12.7996 53.2797 12.6236 53.225 12.4127 53.225C12.0528 53.225 11.7793 53.396 11.5923 53.7381C11.4054 54.0782 11.3119 54.5595 11.3119 55.182C11.3119 55.4465 11.3318 55.6961 11.3716 55.9308C11.4133 56.1655 11.478 56.3703 11.5655 56.5453C11.655 56.7223 11.7684 56.8606 11.9056 56.96C12.0428 57.0574 12.2119 57.1062 12.4127 57.1062C12.6096 57.1062 12.7787 57.0565 12.9199 56.957C13.0611 56.8576 13.1735 56.7213 13.257 56.5483Z" fill="#A61D49"/>
<path d="M8.64518 53.5203C8.85401 53.7112 9.01908 53.9419 9.1404 54.2124C9.2637 54.4829 9.32536 54.7912 9.32536 55.1372C9.32536 55.4455 9.27365 55.7389 9.17023 56.0173C9.06681 56.2957 8.91765 56.5354 8.72274 56.7363C8.51789 56.9451 8.27725 57.1082 8.0008 57.2255C7.72435 57.3409 7.3952 57.3985 7.01334 57.3985C6.70508 57.3985 6.41371 57.3478 6.13925 57.2464C5.8648 57.145 5.62315 56.9978 5.41433 56.8049C5.20749 56.6159 5.04341 56.3862 4.92209 56.1157C4.80077 55.8453 4.74011 55.5439 4.74011 55.2118C4.74011 54.8658 4.79878 54.5525 4.91612 54.2721C5.03545 53.9897 5.19854 53.748 5.40538 53.5472C5.61023 53.3503 5.85286 53.1991 6.13329 53.0937C6.4157 52.9863 6.71601 52.9326 7.03423 52.9326C7.35045 52.9326 7.64679 52.9843 7.92323 53.0877C8.20167 53.1912 8.44232 53.3354 8.64518 53.5203ZM7.87848 56.5483C7.96798 56.3673 8.03262 56.1625 8.0724 55.9338C8.11217 55.705 8.13206 55.4465 8.13206 55.1581C8.13206 54.9135 8.11416 54.6758 8.07836 54.4451C8.04455 54.2124 7.98588 54.0056 7.90235 53.8246C7.81683 53.6436 7.70347 53.4984 7.56226 53.3891C7.42105 53.2797 7.24504 53.225 7.03423 53.225C6.67425 53.225 6.40078 53.396 6.21383 53.7381C6.02688 54.0782 5.93341 54.5595 5.93341 55.182C5.93341 55.4465 5.9533 55.6961 5.99307 55.9308C6.03484 56.1655 6.09948 56.3703 6.18699 56.5453C6.27648 56.7223 6.38985 56.8606 6.52708 56.96C6.6643 57.0574 6.83335 57.1062 7.03423 57.1062C7.23112 57.1062 7.40017 57.0565 7.54138 56.957C7.68259 56.8576 7.79495 56.7213 7.87848 56.5483Z" fill="#A61D49"/>
<path d="M2.21357 57.3955C1.90331 57.3955 1.61294 57.3458 1.34246 57.2463C1.07198 57.1449 0.836303 56.9987 0.635431 56.8078C0.438537 56.6208 0.283408 56.3901 0.170045 56.1157C0.0566816 55.8392 0 55.5359 0 55.2058C0 54.8776 0.0566816 54.5743 0.170045 54.2959C0.285397 54.0155 0.446492 53.7728 0.65333 53.568C0.856191 53.3671 1.09982 53.212 1.38423 53.1026C1.66863 52.9912 1.97292 52.9355 2.2971 52.9355C2.53178 52.9355 2.74558 52.9644 2.93849 53.0221C3.13141 53.0777 3.2945 53.1414 3.42775 53.213L3.61271 53.0489H3.87225L3.8991 54.5942H3.63657C3.48741 54.1229 3.30842 53.7768 3.09959 53.5561C2.89076 53.3353 2.63619 53.2249 2.33588 53.2249C1.96198 53.2249 1.67758 53.39 1.48267 53.7201C1.28777 54.0483 1.19031 54.5097 1.19031 55.1044C1.19031 55.4405 1.22313 55.7279 1.28876 55.9665C1.35638 56.2032 1.44389 56.3941 1.55129 56.5393C1.66664 56.6905 1.80287 56.8018 1.95999 56.8734C2.11711 56.943 2.29113 56.9778 2.48206 56.9778C2.76049 56.9778 3.0081 56.9023 3.22489 56.7511C3.44366 56.6 3.64254 56.3712 3.82153 56.065L4.07809 56.2201C3.99257 56.3951 3.89512 56.5522 3.78574 56.6915C3.67635 56.8287 3.55006 56.947 3.40686 57.0465C3.24975 57.1558 3.07572 57.2414 2.8848 57.303C2.69586 57.3647 2.47211 57.3955 2.21357 57.3955Z" fill="#A61D49"/>
</svg>
