<svg width="183" height="60" viewBox="0 0 183 60" fill="none" xmlns="http://www.w3.org/2000/svg">
<path d="M147.316 52.6182L149.812 48.151H151.492V55.0071H149.812V50.5335L147.316 55.0071H145.637V48.151H147.316V52.6182ZM149.502 45.458H150.719C150.719 45.8129 150.632 46.1276 150.459 46.4021C150.286 46.6767 150.038 46.8922 149.717 47.0485C149.401 47.2005 149.025 47.2766 148.59 47.2766C147.935 47.2766 147.415 47.1076 147.031 46.7697C146.646 46.4317 146.454 45.9945 146.454 45.458H147.671C147.671 45.6819 147.74 45.8826 147.88 46.06C148.019 46.2374 148.256 46.3261 148.59 46.3261C148.923 46.3261 149.158 46.2374 149.293 46.06C149.432 45.8826 149.502 45.6819 149.502 45.458Z" fill="#001DA3"/>
<path d="M139.927 52.6186L142.424 48.1514H144.103V55.0074H142.424V50.5339L139.927 55.0074H138.248V48.1514H139.927V52.6186Z" fill="#001DA3"/>
<path d="M135.543 50.9648V52.2764H132.026V50.9648H135.543ZM132.552 48.1514V55.0074H130.873V48.1514H132.552ZM136.715 48.1514V55.0074H135.03V48.1514H136.715Z" fill="#001DA3"/>
<path d="M127.666 53.5503V50.3884C127.666 50.1561 127.626 49.9554 127.546 49.7864C127.466 49.6175 127.343 49.4865 127.178 49.3936C127.014 49.3006 126.804 49.2542 126.551 49.2542C126.327 49.2542 126.131 49.2922 125.962 49.3682C125.797 49.4443 125.67 49.552 125.581 49.6914C125.493 49.8266 125.448 49.9829 125.448 50.1603H123.769C123.769 49.8773 123.837 49.609 123.972 49.3556C124.107 49.0979 124.299 48.8698 124.549 48.6712C124.802 48.4685 125.104 48.31 125.455 48.196C125.81 48.0819 126.207 48.0249 126.646 48.0249C127.166 48.0249 127.628 48.1136 128.034 48.291C128.443 48.4642 128.765 48.7261 128.997 49.0768C129.233 49.4274 129.352 49.8688 129.352 50.4011V53.3919C129.352 53.7341 129.373 54.0277 129.415 54.2727C129.462 54.5135 129.529 54.7226 129.618 54.9V55.0077H127.913C127.833 54.8345 127.772 54.6148 127.73 54.3487C127.687 54.0784 127.666 53.8122 127.666 53.5503ZM127.901 50.832L127.913 51.8268H126.855C126.593 51.8268 126.363 51.8542 126.164 51.9092C125.966 51.9599 125.803 52.0359 125.677 52.1373C125.55 52.2344 125.455 52.3527 125.391 52.4921C125.328 52.6273 125.296 52.7815 125.296 52.9547C125.296 53.1237 125.334 53.2757 125.41 53.4109C125.491 53.5461 125.605 53.6538 125.753 53.7341C125.905 53.8101 126.082 53.8481 126.285 53.8481C126.581 53.8481 126.838 53.789 127.058 53.6707C127.278 53.5482 127.449 53.4004 127.571 53.2272C127.694 53.054 127.759 52.8892 127.768 52.7329L128.249 53.4553C128.19 53.6285 128.101 53.8122 127.983 54.0065C127.865 54.2009 127.713 54.3825 127.527 54.5515C127.341 54.7205 127.117 54.8599 126.855 54.9697C126.593 55.0795 126.289 55.1344 125.943 55.1344C125.499 55.1344 125.102 55.0457 124.751 54.8683C124.401 54.6909 124.124 54.448 123.921 54.1396C123.719 53.8312 123.617 53.4806 123.617 53.0878C123.617 52.7245 123.685 52.4034 123.82 52.1246C123.955 51.8458 124.156 51.6114 124.422 51.4213C124.688 51.2269 125.018 51.0812 125.41 50.984C125.807 50.8827 126.262 50.832 126.773 50.832H127.901Z" fill="#001DA3"/>
<path d="M121.101 48.1514V49.4757H117.749V48.1514H121.101ZM118.193 48.1514V55.0074H116.514V48.1514H118.193ZM122.368 48.1514V55.0074H120.683V48.1514H122.368Z" fill="#001DA3"/>
<path d="M110.805 53.0305L112.731 48.1514H114.132L111.375 55.0074H110.241L107.491 48.1514H108.898L110.805 53.0305ZM108.486 48.1514V55.0074H106.807V48.1514H108.486ZM113.156 55.0074V48.1514H114.835V55.0074H113.156Z" fill="#001DA3"/>
<path d="M99.0448 51.6494V51.5163C99.0448 51.0136 99.1166 50.551 99.2602 50.1286C99.4039 49.702 99.613 49.3323 99.8876 49.0197C100.162 48.7071 100.498 48.4642 100.895 48.291C101.292 48.1136 101.744 48.0249 102.251 48.0249C102.766 48.0249 103.223 48.1136 103.62 48.291C104.021 48.4642 104.359 48.7071 104.634 49.0197C104.908 49.3323 105.117 49.702 105.261 50.1286C105.405 50.551 105.476 51.0136 105.476 51.5163V51.6494C105.476 52.1478 105.405 52.6104 105.261 53.0371C105.117 53.4595 104.908 53.8291 104.634 54.1459C104.359 54.4585 104.023 54.7014 103.626 54.8746C103.229 55.0478 102.775 55.1344 102.264 55.1344C101.757 55.1344 101.303 55.0478 100.901 54.8746C100.5 54.7014 100.162 54.4585 99.8876 54.1459C99.613 53.8291 99.4039 53.4595 99.2602 53.0371C99.1166 52.6104 99.0448 52.1478 99.0448 51.6494ZM100.718 51.5163V51.6494C100.718 51.9493 100.747 52.2302 100.806 52.4921C100.865 52.754 100.956 52.9843 101.079 53.1828C101.201 53.3813 101.36 53.5376 101.554 53.6517C101.753 53.7615 101.989 53.8164 102.264 53.8164C102.534 53.8164 102.766 53.7615 102.961 53.6517C103.155 53.5376 103.313 53.3813 103.436 53.1828C103.563 52.9843 103.656 52.754 103.715 52.4921C103.774 52.2302 103.803 51.9493 103.803 51.6494V51.5163C103.803 51.2206 103.774 50.9439 103.715 50.6862C103.656 50.4243 103.563 50.1941 103.436 49.9955C103.313 49.7928 103.153 49.6344 102.954 49.5203C102.76 49.402 102.526 49.3429 102.251 49.3429C101.981 49.3429 101.748 49.402 101.554 49.5203C101.36 49.6344 101.201 49.7928 101.079 49.9955C100.956 50.1941 100.865 50.4243 100.806 50.6862C100.747 50.9439 100.718 51.2206 100.718 51.5163Z" fill="#001DA3"/>
<path d="M94.1474 48.1514V55.0074H92.4746V48.1514H94.1474ZM98.6147 48.1514L95.5922 52.3588H93.8116L93.6025 50.8254H94.8381L96.5046 48.1514H98.6147ZM96.606 55.0074L94.7304 52.0673L96.1244 51.1929L98.8301 55.0074H96.606Z" fill="#001DA3"/>
<path d="M90.927 50.3945V51.7189H87.4609V50.3945H90.927Z" fill="#001DA3"/>
<path d="M85.293 45.7815V55.0074H83.5568V45.7815H85.293ZM88.1571 45.7815V47.1565H80.7244V45.7815H88.1571Z" fill="#001DA3"/>
<path d="M74.104 52.2194L78.0009 45.7815H79.7498V55.0074H78.0009V48.5695L74.104 55.0074H72.3615V45.7815H74.104V52.2194Z" fill="#001DA3"/>
<path d="M178.073 30.5942L179.296 32.774L180.538 30.5942H182.356L180.341 33.9526L182.439 37.4503H180.62L179.308 35.1628L177.99 37.4503H176.172L178.263 33.9526L176.261 30.5942H178.073Z" fill="#001DA3"/>
<path d="M167.358 32.7043H169.361C169.969 32.7043 170.487 32.8057 170.913 33.0084C171.344 33.207 171.671 33.4858 171.895 33.8449C172.123 34.1997 172.238 34.6116 172.238 35.0805C172.238 35.4184 172.172 35.7331 172.041 36.0246C171.914 36.3119 171.729 36.5632 171.484 36.7786C171.238 36.9899 170.936 37.1546 170.577 37.2729C170.223 37.3912 169.817 37.4503 169.361 37.4503H166.281V30.5942H167.96V36.1387H169.361C169.652 36.1387 169.885 36.0901 170.058 35.9929C170.235 35.8915 170.362 35.7627 170.438 35.6064C170.518 35.4459 170.558 35.2748 170.558 35.0931C170.558 34.9073 170.518 34.7341 170.438 34.5735C170.362 34.4088 170.235 34.2757 170.058 34.1744C169.885 34.073 169.652 34.0223 169.361 34.0223H167.358V32.7043ZM175.051 30.5942V37.4503H173.372V30.5942H175.051Z" fill="#001DA3"/>
<path d="M163.475 33.4076V34.7193H159.958V33.4076H163.475ZM160.484 30.5942V37.4503H158.805V30.5942H160.484ZM164.647 30.5942V37.4503H162.961V30.5942H164.647Z" fill="#001DA3"/>
<path d="M156.098 33.4076V34.7193H152.581V33.4076H156.098ZM153.107 30.5942V37.4503H151.428V30.5942H153.107ZM157.27 30.5942V37.4503H155.584V30.5942H157.27Z" fill="#001DA3"/>
<path d="M148.221 35.9932V32.8313C148.221 32.5989 148.181 32.3983 148.1 32.2293C148.02 32.0603 147.898 31.9294 147.733 31.8365C147.568 31.7435 147.359 31.6971 147.106 31.6971C146.882 31.6971 146.685 31.7351 146.516 31.8111C146.352 31.8871 146.225 31.9949 146.136 32.1343C146.047 32.2694 146.003 32.4257 146.003 32.6032H144.324C144.324 32.3201 144.392 32.0519 144.527 31.7984C144.662 31.5408 144.854 31.3126 145.103 31.1141C145.357 30.9113 145.659 30.7529 146.009 30.6389C146.364 30.5248 146.761 30.4678 147.201 30.4678C147.72 30.4678 148.183 30.5565 148.588 30.7339C148.998 30.9071 149.319 31.169 149.552 31.5196C149.788 31.8702 149.906 32.3117 149.906 32.844V35.8348C149.906 36.1769 149.928 36.4705 149.97 36.7155C150.016 36.9563 150.084 37.1654 150.173 37.3429V37.4506H148.468C148.388 37.2774 148.326 37.0577 148.284 36.7916C148.242 36.5212 148.221 36.2551 148.221 35.9932ZM148.455 33.2748L148.468 34.2697H147.41C147.148 34.2697 146.918 34.2971 146.719 34.352C146.521 34.4027 146.358 34.4788 146.231 34.5801C146.105 34.6773 146.009 34.7956 145.946 34.935C145.883 35.0702 145.851 35.2244 145.851 35.3976C145.851 35.5665 145.889 35.7186 145.965 35.8538C146.045 35.989 146.159 36.0967 146.307 36.1769C146.459 36.253 146.637 36.291 146.84 36.291C147.135 36.291 147.393 36.2319 147.613 36.1136C147.832 35.9911 148.003 35.8432 148.126 35.67C148.248 35.4968 148.314 35.3321 148.322 35.1758L148.804 35.8981C148.745 36.0713 148.656 36.2551 148.538 36.4494C148.419 36.6437 148.267 36.8254 148.081 36.9943C147.896 37.1633 147.672 37.3027 147.41 37.4126C147.148 37.5224 146.844 37.5773 146.497 37.5773C146.054 37.5773 145.657 37.4886 145.306 37.3112C144.955 37.1338 144.679 36.8909 144.476 36.5825C144.273 36.2741 144.172 35.9235 144.172 35.5306C144.172 35.1673 144.239 34.8463 144.375 34.5675C144.51 34.2887 144.71 34.0542 144.977 33.8641C145.243 33.6698 145.572 33.5241 145.965 33.4269C146.362 33.3255 146.816 33.2748 147.327 33.2748H148.455Z" fill="#001DA3"/>
<path d="M140.466 34.5482H138.293L138.28 33.414H140.067C140.333 33.414 140.55 33.3865 140.719 33.3316C140.888 33.2767 141.013 33.1943 141.093 33.0845C141.178 32.9746 141.22 32.8416 141.22 32.6853C141.22 32.5501 141.195 32.4339 141.144 32.3368C141.093 32.2354 141.017 32.153 140.916 32.0896C140.819 32.0263 140.694 31.9798 140.542 31.9502C140.394 31.9165 140.221 31.8996 140.022 31.8996H138.888V37.4503H137.209V30.5942H140.022C140.466 30.5942 140.865 30.6344 141.22 30.7146C141.575 30.7907 141.877 30.9068 142.126 31.0631C142.375 31.2194 142.565 31.418 142.696 31.6588C142.832 31.8953 142.899 32.1741 142.899 32.4952C142.899 32.7064 142.853 32.9049 142.76 33.0908C142.667 33.2767 142.53 33.4414 142.348 33.5851C142.166 33.7287 141.942 33.847 141.676 33.9399C141.41 34.0286 141.106 34.0835 140.764 34.1046L140.466 34.5482ZM140.466 37.4503H137.843L138.464 36.145H140.466C140.711 36.145 140.914 36.1154 141.074 36.0563C141.235 35.9929 141.353 35.9021 141.429 35.7838C141.509 35.6655 141.549 35.5219 141.549 35.3529C141.549 35.1882 141.511 35.0467 141.435 34.9284C141.364 34.8059 141.247 34.713 141.087 34.6496C140.931 34.582 140.724 34.5482 140.466 34.5482H138.736L138.749 33.414H140.757L141.201 33.8639C141.657 33.8934 142.035 33.9864 142.335 34.1427C142.635 34.2947 142.859 34.4891 143.007 34.7256C143.155 34.958 143.229 35.2135 143.229 35.4923C143.229 35.8176 143.167 36.1028 143.045 36.3478C142.922 36.5928 142.743 36.7977 142.506 36.9624C142.27 37.1229 141.98 37.2454 141.638 37.3299C141.296 37.4102 140.905 37.4503 140.466 37.4503Z" fill="#001DA3"/>
<path d="M129.447 34.0922V33.9592C129.447 33.4565 129.519 32.9939 129.663 32.5715C129.806 32.1448 130.015 31.7752 130.29 31.4626C130.565 31.15 130.9 30.9071 131.298 30.7339C131.695 30.5565 132.147 30.4678 132.654 30.4678C133.169 30.4678 133.625 30.5565 134.022 30.7339C134.424 30.9071 134.761 31.15 135.036 31.4626C135.311 31.7752 135.52 32.1448 135.663 32.5715C135.807 32.9939 135.879 33.4565 135.879 33.9592V34.0922C135.879 34.5907 135.807 35.0533 135.663 35.4799C135.52 35.9024 135.311 36.272 135.036 36.5888C134.761 36.9014 134.426 37.1443 134.029 37.3175C133.631 37.4907 133.177 37.5773 132.666 37.5773C132.159 37.5773 131.705 37.4907 131.304 37.3175C130.903 37.1443 130.565 36.9014 130.29 36.5888C130.015 36.272 129.806 35.9024 129.663 35.4799C129.519 35.0533 129.447 34.5907 129.447 34.0922ZM131.12 33.9592V34.0922C131.12 34.3922 131.15 34.6731 131.209 34.935C131.268 35.1969 131.359 35.4271 131.481 35.6257C131.604 35.8242 131.762 35.9805 131.957 36.0946C132.155 36.2044 132.392 36.2593 132.666 36.2593C132.937 36.2593 133.169 36.2044 133.363 36.0946C133.558 35.9805 133.716 35.8242 133.838 35.6257C133.965 35.4271 134.058 35.1969 134.117 34.935C134.176 34.6731 134.206 34.3922 134.206 34.0922V33.9592C134.206 33.6635 134.176 33.3868 134.117 33.1291C134.058 32.8672 133.965 32.637 133.838 32.4384C133.716 32.2357 133.555 32.0772 133.357 31.9632C133.163 31.8449 132.928 31.7858 132.654 31.7858C132.383 31.7858 132.151 31.8449 131.957 31.9632C131.762 32.0772 131.604 32.2357 131.481 32.4384C131.359 32.637 131.268 32.8672 131.209 33.1291C131.15 33.3868 131.12 33.6635 131.12 33.9592Z" fill="#001DA3"/>
<path d="M126.76 30.5942V37.4503H125.081V30.5942H126.76ZM128.991 30.5942V31.8996H122.889V30.5942H128.991Z" fill="#001DA3"/>
<path d="M117.738 35.0615L120.234 30.5942H121.914V37.4503H120.234V32.9768L117.738 37.4503H116.059V30.5942H117.738V35.0615Z" fill="#001DA3"/>
<path d="M109.232 30.5942H110.905L110.842 32.9514C110.821 33.6653 110.736 34.2821 110.588 34.8017C110.445 35.317 110.252 35.75 110.012 36.1006C109.775 36.4513 109.505 36.7343 109.201 36.9497C108.901 37.1652 108.586 37.332 108.256 37.4503H107.857L107.851 36.145L108.047 36.1323C108.246 35.9211 108.413 35.7141 108.548 35.5113C108.687 35.3044 108.799 35.0826 108.884 34.846C108.968 34.6095 109.032 34.3391 109.074 34.0349C109.12 33.7266 109.15 33.3654 109.163 32.9514L109.232 30.5942ZM109.682 30.5942H114.124V37.4503H112.451V31.9693H109.682V30.5942ZM107.477 36.1323H115.081V39.5033H113.408V37.4503H109.182V39.5033H107.471L107.477 36.1323Z" fill="#001DA3"/>
<path d="M104.094 37.5773C103.575 37.5773 103.108 37.4928 102.694 37.3238C102.28 37.1549 101.927 36.9204 101.636 36.6205C101.348 36.3163 101.127 35.9636 100.97 35.5623C100.818 35.1568 100.742 34.7217 100.742 34.257V34.0035C100.742 33.4755 100.818 32.996 100.97 32.5651C101.122 32.13 101.338 31.7562 101.617 31.4436C101.895 31.131 102.229 30.8902 102.618 30.7212C103.006 30.5523 103.435 30.4678 103.904 30.4678C104.39 30.4678 104.819 30.5501 105.19 30.7149C105.562 30.8754 105.873 31.1035 106.122 31.3992C106.371 31.6949 106.559 32.0498 106.686 32.4638C106.813 32.8735 106.876 33.3276 106.876 33.8261V34.5295H101.503V33.3762H105.228V33.2495C105.22 32.9834 105.169 32.7405 105.076 32.5208C104.983 32.2969 104.84 32.1195 104.645 31.9885C104.451 31.8534 104.2 31.7858 103.891 31.7858C103.642 31.7858 103.425 31.8407 103.239 31.9505C103.057 32.0561 102.905 32.2082 102.783 32.4067C102.664 32.6011 102.576 32.8334 102.516 33.1037C102.457 33.3741 102.428 33.674 102.428 34.0035V34.257C102.428 34.5442 102.466 34.8104 102.542 35.0554C102.622 35.3004 102.738 35.5137 102.89 35.6954C103.047 35.8728 103.232 36.0122 103.448 36.1136C103.668 36.2107 103.917 36.2593 104.196 36.2593C104.546 36.2593 104.863 36.1917 105.146 36.0565C105.433 35.9171 105.683 35.7123 105.894 35.4419L106.736 36.3163C106.593 36.5276 106.399 36.7303 106.154 36.9246C105.913 37.119 105.621 37.2774 105.279 37.3999C104.937 37.5182 104.542 37.5773 104.094 37.5773Z" fill="#001DA3"/>
<path d="M95.3882 31.9125V40.0866H93.709V30.5945H95.2614L95.3882 31.9125ZM99.792 33.9528V34.0859C99.792 34.5844 99.7329 35.0469 99.6146 35.4736C99.5005 35.896 99.3316 36.2657 99.1077 36.5825C98.8838 36.8951 98.605 37.1401 98.2713 37.3175C97.9418 37.4907 97.5616 37.5773 97.1307 37.5773C96.7083 37.5773 96.3407 37.497 96.0281 37.3365C95.7155 37.1718 95.4515 36.9394 95.2361 36.6395C95.0206 36.3396 94.8474 35.9911 94.7165 35.594C94.5898 35.1927 94.4947 34.7555 94.4313 34.2823V33.8578C94.4947 33.3551 94.5898 32.8989 94.7165 32.4891C94.8474 32.0751 95.0206 31.7182 95.2361 31.4182C95.4515 31.1141 95.7134 30.8796 96.0218 30.7149C96.3344 30.5501 96.6998 30.4678 97.118 30.4678C97.5531 30.4678 97.9354 30.5501 98.2649 30.7149C98.5986 30.8796 98.8796 31.1162 99.1077 31.4246C99.3358 31.733 99.5069 32.1005 99.6209 32.5271C99.735 32.9538 99.792 33.429 99.792 33.9528ZM98.1128 34.0859V33.9528C98.1128 33.6487 98.0854 33.3678 98.0305 33.1101C97.9755 32.8482 97.8911 32.6201 97.777 32.4257C97.6629 32.2272 97.5151 32.073 97.3335 31.9632C97.1518 31.8534 96.9321 31.7984 96.6745 31.7984C96.4168 31.7984 96.195 31.8407 96.0091 31.9252C95.8233 32.0097 95.6712 32.13 95.5529 32.2863C95.4346 32.4426 95.3417 32.6285 95.2741 32.844C95.2107 33.0552 95.1685 33.2896 95.1474 33.5473V34.5992C95.1854 34.9118 95.2593 35.1927 95.3691 35.4419C95.479 35.6911 95.6395 35.8897 95.8507 36.0375C96.0662 36.1854 96.345 36.2593 96.6871 36.2593C96.9448 36.2593 97.1645 36.2023 97.3461 36.0882C97.5278 35.9742 97.6756 35.8179 97.7897 35.6193C97.9037 35.4166 97.9861 35.1842 98.0368 34.9223C98.0875 34.6604 98.1128 34.3816 98.1128 34.0859Z" fill="#001DA3"/>
<path d="M88.2667 30.5942V37.4503H86.5939V30.5942H88.2667ZM92.7339 30.5942L89.7114 34.8017H87.9309L87.7218 33.2682H88.9574L90.6239 30.5942H92.7339ZM90.7253 37.4503L88.8497 34.5102L90.2437 33.6357L92.9494 37.4503H90.7253Z" fill="#001DA3"/>
<path d="M81.0303 30.5942V37.4503H79.3574V30.5942H81.0303ZM85.4975 30.5942L82.475 34.8017H80.6944L80.4853 33.2682H81.7209L83.3874 30.5942H85.4975ZM83.4888 37.4503L81.6132 34.5102L83.0072 33.6357L85.7129 37.4503H83.4888Z" fill="#001DA3"/>
<path d="M76.049 35.9929V32.831C76.049 32.5987 76.0089 32.398 75.9286 32.2291C75.8484 32.0601 75.7259 31.9291 75.5611 31.8362C75.3964 31.7433 75.1873 31.6968 74.9338 31.6968C74.7099 31.6968 74.5135 31.7348 74.3445 31.8109C74.1797 31.8869 74.053 31.9946 73.9643 32.134C73.8756 32.2692 73.8312 32.4255 73.8312 32.6029H72.1521C72.1521 32.3199 72.2197 32.0516 72.3548 31.7982C72.49 31.5405 72.6822 31.3124 72.9315 31.1139C73.1849 30.9111 73.487 30.7527 73.8376 30.6386C74.1924 30.5246 74.5895 30.4675 75.0288 30.4675C75.5484 30.4675 76.011 30.5562 76.4165 30.7337C76.8263 30.9069 77.1473 31.1688 77.3797 31.5194C77.6162 31.87 77.7345 32.3114 77.7345 32.8437V35.8345C77.7345 36.1767 77.7556 36.4703 77.7979 36.7153C77.8443 36.9561 77.9119 37.1652 78.0006 37.3426V37.4503H76.2961C76.2159 37.2771 76.1546 37.0575 76.1124 36.7913C76.0701 36.521 76.049 36.2548 76.049 35.9929ZM76.2835 33.2746L76.2961 34.2694H75.2379C74.976 34.2694 74.7458 34.2969 74.5473 34.3518C74.3487 34.4025 74.1861 34.4785 74.0594 34.5799C73.9326 34.6771 73.8376 34.7953 73.7742 34.9347C73.7109 35.0699 73.6792 35.2241 73.6792 35.3973C73.6792 35.5663 73.7172 35.7184 73.7932 35.8535C73.8735 35.9887 73.9875 36.0964 74.1354 36.1767C74.2875 36.2527 74.4649 36.2908 74.6677 36.2908C74.9634 36.2908 75.221 36.2316 75.4407 36.1133C75.6604 35.9908 75.8315 35.843 75.954 35.6698C76.0765 35.4966 76.1419 35.3318 76.1504 35.1755L76.632 35.8979C76.5728 36.0711 76.4841 36.2548 76.3658 36.4492C76.2476 36.6435 76.0955 36.8251 75.9096 36.9941C75.7237 37.1631 75.4999 37.3025 75.2379 37.4123C74.976 37.5221 74.6719 37.5771 74.3255 37.5771C73.8819 37.5771 73.4848 37.4884 73.1342 37.3109C72.7836 37.1335 72.5069 36.8906 72.3042 36.5822C72.1014 36.2739 72 35.9232 72 35.5304C72 35.1671 72.0676 34.846 72.2028 34.5672C72.3379 34.2884 72.5386 34.054 72.8047 33.8639C73.0709 33.6696 73.4004 33.5238 73.7932 33.4267C74.1903 33.3253 74.6444 33.2746 75.1556 33.2746H76.2835Z" fill="#001DA3"/>
<path d="M109.455 14.3549V22.5289H107.775V13.0369H109.328L109.455 14.3549ZM113.858 16.3952V16.5283C113.858 17.0268 113.799 17.4893 113.681 17.916C113.567 18.3384 113.398 18.708 113.174 19.0249C112.95 19.3375 112.671 19.5825 112.338 19.7599C112.008 19.9331 111.628 20.0197 111.197 20.0197C110.775 20.0197 110.407 19.9394 110.095 19.7789C109.782 19.6142 109.518 19.3818 109.302 19.0819C109.087 18.782 108.914 18.4335 108.783 18.0364C108.656 17.6351 108.561 17.1978 108.498 16.7247V16.3002C108.561 15.7975 108.656 15.3413 108.783 14.9315C108.914 14.5175 109.087 14.1606 109.302 13.8606C109.518 13.5565 109.78 13.322 110.088 13.1573C110.401 12.9925 110.766 12.9102 111.184 12.9102C111.62 12.9102 112.002 12.9925 112.331 13.1573C112.665 13.322 112.946 13.5586 113.174 13.867C113.402 14.1753 113.573 14.5429 113.687 14.9695C113.801 15.3962 113.858 15.8714 113.858 16.3952ZM112.179 16.5283V16.3952C112.179 16.0911 112.152 15.8102 112.097 15.5525C112.042 15.2906 111.957 15.0624 111.843 14.8681C111.729 14.6696 111.582 14.5154 111.4 14.4056C111.218 14.2957 110.999 14.2408 110.741 14.2408C110.483 14.2408 110.261 14.2831 110.076 14.3675C109.89 14.452 109.738 14.5724 109.619 14.7287C109.501 14.885 109.408 15.0709 109.341 15.2863C109.277 15.4976 109.235 15.732 109.214 15.9897V17.0415C109.252 17.3541 109.326 17.6351 109.436 17.8843C109.545 18.1335 109.706 18.3321 109.917 18.4799C110.133 18.6278 110.411 18.7017 110.754 18.7017C111.011 18.7017 111.231 18.6447 111.413 18.5306C111.594 18.4166 111.742 18.2603 111.856 18.0617C111.97 17.8589 112.053 17.6266 112.103 17.3647C112.154 17.1028 112.179 16.824 112.179 16.5283Z" fill="#001DA3"/>
<path d="M104.569 13.0369V19.8929H102.89V13.0369H104.569ZM106.8 13.0369V14.3422H100.698V13.0369H106.8Z" fill="#001DA3"/>
<path d="M97.2889 18.7019C97.5255 18.7019 97.7367 18.6555 97.9226 18.5625C98.1085 18.4696 98.2563 18.3387 98.3661 18.1697C98.4802 18.0007 98.5415 17.8043 98.5499 17.5804H100.128C100.119 18.0451 99.9883 18.4612 99.7348 18.8287C99.4814 19.1962 99.1434 19.4877 98.721 19.7031C98.3028 19.9143 97.8339 20.0199 97.3143 20.0199C96.7863 20.0199 96.3258 19.9312 95.9329 19.7538C95.5401 19.5764 95.2127 19.3293 94.9508 19.0124C94.6931 18.6956 94.4988 18.3281 94.3678 17.9099C94.2411 17.4917 94.1777 17.0439 94.1777 16.5666V16.3638C94.1777 15.8864 94.2411 15.4387 94.3678 15.0204C94.4988 14.6022 94.6931 14.2347 94.9508 13.9179C95.2127 13.6011 95.5401 13.354 95.9329 13.1765C96.3258 12.9991 96.7841 12.9104 97.308 12.9104C97.8613 12.9104 98.3471 13.0181 98.7653 13.2336C99.1878 13.449 99.5173 13.7532 99.7538 14.146C99.9946 14.5389 100.119 15.0014 100.128 15.5337H98.5499C98.5415 15.2887 98.4865 15.069 98.3852 14.8747C98.2838 14.6804 98.1401 14.5241 97.9543 14.4058C97.7684 14.2875 97.5424 14.2284 97.2763 14.2284C96.9932 14.2284 96.7567 14.2875 96.5666 14.4058C96.3807 14.5241 96.235 14.6867 96.1294 14.8937C96.028 15.0965 95.9562 15.3246 95.9139 15.5781C95.8759 15.8273 95.8569 16.0892 95.8569 16.3638V16.5666C95.8569 16.8454 95.8759 17.1115 95.9139 17.3649C95.9562 17.6184 96.028 17.8465 96.1294 18.0493C96.235 18.2478 96.3807 18.4062 96.5666 18.5245C96.7567 18.6428 96.9975 18.7019 97.2889 18.7019Z" fill="#001DA3"/>
<path d="M90.5727 20.0197C90.0531 20.0197 89.5863 19.9352 89.1723 19.7662C88.7584 19.5973 88.4056 19.3628 88.1141 19.0629C87.8269 18.7587 87.6051 18.406 87.4488 18.0047C87.2967 17.5992 87.2207 17.164 87.2207 16.6994V16.4459C87.2207 15.9179 87.2967 15.4384 87.4488 15.0075C87.6009 14.5724 87.8163 14.1986 88.0951 13.886C88.3739 13.5734 88.7077 13.3326 89.0963 13.1636C89.4849 12.9946 89.9137 12.9102 90.3826 12.9102C90.8684 12.9102 91.2972 12.9925 91.6689 13.1573C92.0407 13.3178 92.3511 13.5459 92.6004 13.8416C92.8496 14.1373 93.0376 14.4922 93.1643 14.9061C93.2911 15.3159 93.3544 15.77 93.3544 16.2685V16.9718H87.9811V15.8186H91.7069V15.6919C91.6985 15.4257 91.6478 15.1828 91.5549 14.9632C91.4619 14.7393 91.3183 14.5619 91.124 14.4309C90.9297 14.2957 90.6783 14.2281 90.3699 14.2281C90.1207 14.2281 89.9031 14.2831 89.7173 14.3929C89.5356 14.4985 89.3836 14.6506 89.2611 14.8491C89.1428 15.0434 89.0541 15.2758 88.9949 15.5461C88.9358 15.8165 88.9062 16.1164 88.9062 16.4459V16.6994C88.9062 16.9866 88.9442 17.2528 89.0203 17.4978C89.1005 17.7428 89.2167 17.9561 89.3688 18.1378C89.5251 18.3152 89.7109 18.4546 89.9264 18.556C90.146 18.6531 90.3953 18.7017 90.6741 18.7017C91.0247 18.7017 91.3415 18.6341 91.6246 18.4989C91.9118 18.3595 92.161 18.1547 92.3723 17.8843L93.215 18.7587C93.0714 18.9699 92.8771 19.1727 92.6321 19.367C92.3913 19.5613 92.0998 19.7198 91.7576 19.8423C91.4155 19.9605 91.0205 20.0197 90.5727 20.0197Z" fill="#001DA3"/>
<path d="M83.5903 20.0197C83.0707 20.0197 82.6039 19.9352 82.1899 19.7662C81.7759 19.5973 81.4232 19.3628 81.1317 19.0629C80.8445 18.7587 80.6227 18.406 80.4664 18.0047C80.3143 17.5992 80.2383 17.164 80.2383 16.6994V16.4459C80.2383 15.9179 80.3143 15.4384 80.4664 15.0075C80.6185 14.5724 80.8339 14.1986 81.1127 13.886C81.3915 13.5734 81.7252 13.3326 82.1139 13.1636C82.5025 12.9946 82.9313 12.9102 83.4002 12.9102C83.886 12.9102 84.3148 12.9925 84.6865 13.1573C85.0582 13.3178 85.3687 13.5459 85.618 13.8416C85.8672 14.1373 86.0552 14.4922 86.1819 14.9061C86.3086 15.3159 86.372 15.77 86.372 16.2685V16.9718H80.9987V15.8186H84.7245V15.6919C84.7161 15.4257 84.6654 15.1828 84.5724 14.9632C84.4795 14.7393 84.3359 14.5619 84.1416 14.4309C83.9472 14.2957 83.6959 14.2281 83.3875 14.2281C83.1383 14.2281 82.9207 14.2831 82.7349 14.3929C82.5532 14.4985 82.4011 14.6506 82.2786 14.8491C82.1603 15.0434 82.0716 15.2758 82.0125 15.5461C81.9534 15.8165 81.9238 16.1164 81.9238 16.4459V16.6994C81.9238 16.9866 81.9618 17.2528 82.0378 17.4978C82.1181 17.7428 82.2343 17.9561 82.3863 18.1378C82.5426 18.3152 82.7285 18.4546 82.944 18.556C83.1636 18.6531 83.4129 18.7017 83.6917 18.7017C84.0423 18.7017 84.3591 18.6341 84.6421 18.4989C84.9294 18.3595 85.1786 18.1547 85.3898 17.8843L86.2326 18.7587C86.089 18.9699 85.8946 19.1727 85.6496 19.367C85.4089 19.5613 85.1174 19.7198 84.7752 19.8423C84.433 19.9605 84.0381 20.0197 83.5903 20.0197Z" fill="#001DA3"/>
<path d="M75.9488 16.5282H73.5726V15.1596H75.9488C76.3375 15.1596 76.6522 15.0962 76.893 14.9695C77.138 14.8385 77.3175 14.6611 77.4316 14.4372C77.5456 14.2091 77.6026 13.9493 77.6026 13.6578C77.6026 13.3748 77.5456 13.1108 77.4316 12.8658C77.3175 12.6207 77.138 12.4222 76.893 12.2701C76.6522 12.118 76.3375 12.042 75.9488 12.042H74.1429V19.8929H72.4004V10.667H75.9488C76.667 10.667 77.2795 10.7958 77.7864 11.0535C78.2975 11.307 78.6862 11.6597 78.9523 12.1117C79.2227 12.5595 79.3578 13.0706 79.3578 13.6451C79.3578 14.2408 79.2227 14.754 78.9523 15.1849C78.6862 15.6158 78.2975 15.9474 77.7864 16.1797C77.2795 16.4121 76.667 16.5282 75.9488 16.5282Z" fill="#001DA3"/>
<path fill-rule="evenodd" clip-rule="evenodd" d="M39.0302 21.2288C38.1391 20.4475 36.8575 20.4654 36.1221 20.6924C36.6039 20.1008 37.7257 19.6158 38.0564 19.557C38.3082 19.6514 39.0301 20.3933 39.0301 21.2287L39.0302 21.2288ZM41.8754 17.9937C41.2894 14.8588 34.0039 16.9359 30.3349 15.6044C30.2646 16.5182 31.4644 17.9825 32.6121 18.5245C30.6503 20.227 28.889 23.6573 28.5337 27.8481C28.1794 23.6573 26.418 20.227 24.4563 18.5245C25.6039 17.9825 26.8047 16.5182 26.7335 15.6044C23.0645 16.9359 15.779 14.8588 15.1919 17.9937C15.0684 18.6571 15.3876 19.6682 15.7325 19.9589C15.7941 19.7486 16.1163 19.0608 17.1318 18.9066C22.2647 18.1311 26.5501 26.0419 22.6819 29.2404C22.6229 29.289 22.656 29.3788 22.7359 29.3788H34.3333C34.4122 29.3788 34.4455 29.289 34.3876 29.2404C30.5182 26.0419 34.8036 18.1311 39.9364 18.9066C40.953 19.0608 41.2739 19.7486 41.3358 19.9588C41.6806 19.6682 41.9998 18.6572 41.8754 17.9936V17.9937ZM43.1238 10.7986C43.0316 10.5025 46.0412 10.4951 46.0412 12.3787C46.0412 13.6412 44.241 14.2392 44.241 15.5493C44.241 16.1595 44.8974 16.6071 45.0989 16.6071C44.6352 14.5037 46.5525 15.6044 47.0701 15.9978C46.0413 13.1692 48.3575 13.187 48.1294 11.8901C47.9708 10.9836 45.9577 11.2575 45.2291 10.7986C43.9362 9.98478 42.4067 6.81798 41.3987 9.98478C43.2778 11.7294 42.1844 14.2971 39.7989 14.2971C39.7989 14.2971 39.7855 14.6737 39.8074 14.7036C42.6527 14.5643 43.6445 12.4732 43.1239 10.7986H43.1238ZM9.92892 15.9978C10.4468 15.6044 12.3638 14.5037 11.9013 16.6071C12.1016 16.6071 12.758 16.1595 12.758 15.5493C12.758 14.2392 10.9578 13.6412 10.9578 12.3787C10.9578 10.495 13.9674 10.5025 13.8752 10.7986C13.3555 12.4731 14.3475 14.5644 17.1926 14.7036C17.2135 14.6737 17.2002 14.2971 17.2002 14.2971C14.8157 14.2971 13.7222 11.7293 15.6005 9.98478C14.5924 6.81798 13.063 9.98478 11.7701 10.7986C11.0415 11.2576 9.02838 10.9836 8.86972 11.8901C8.64257 13.187 10.9577 13.1693 9.92883 15.9978H9.92892ZM18.0077 21.2287C18.8997 20.4474 20.1813 20.4653 20.9158 20.6923C20.436 20.1007 19.3122 19.6157 18.9825 19.5569C18.7307 19.6513 18.0078 20.3932 18.0078 21.2286L18.0077 21.2287ZM29.8874 3.69224L28.4995 2L27.1116 3.69224L28.4996 5.47324L29.8876 3.69224H29.8874ZM37.8104 8.80924L36.8234 7.60655L35.8373 8.80924L36.8234 9.98469L37.8104 8.80915V8.80924ZM45.8161 43.5716L44.5649 42.2475L43.3138 43.5716L44.5649 44.733L45.8161 43.5714V43.5716ZM21.1627 8.80906L20.1755 7.60638L19.1894 8.80906L20.1755 9.98461L21.1626 8.80906H21.1627ZM18.3354 14.7034H22.0167C25.1117 14.7034 26.5045 12.8037 26.9253 11.1563H30.0746C30.4955 12.8038 31.8871 14.7035 34.9833 14.7035H38.6645C38.6645 14.7035 39.3085 13.8298 39.4699 13.3972C40.0514 11.8404 39.3085 11.1143 38.2245 11.1143L36.8233 12.3843L35.422 11.1143C34.3381 11.1143 33.5952 11.8404 34.1767 13.3972C34.2508 13.5963 34.4285 13.8886 34.5965 14.1456C33.2902 13.9661 31.623 13.072 31.2572 11.1563C31.2572 11.1563 32.2224 9.62299 32.4647 9.00254C33.335 6.77128 32.2234 5.85913 30.598 5.85913L28.4994 8.32611L26.401 5.85913C24.7755 5.85913 23.664 6.77119 24.5352 9.00254C24.7766 9.62308 25.7427 11.1564 25.7427 11.1564C25.376 13.0721 23.7087 13.9662 22.4025 14.1457C22.5716 13.8887 22.7483 13.5963 22.8224 13.3973C23.4028 11.8405 22.6619 11.1144 21.5769 11.1144L20.1757 12.3844L18.7745 11.1144C17.6897 11.1144 16.9486 11.8405 17.5291 13.3973C17.6906 13.8299 18.3357 14.7036 18.3357 14.7036L18.3354 14.7034ZM56.3952 26.1146C55.6845 26.4744 51.516 28.4273 46.176 27.705C46.2313 27.4503 46.2782 27.1938 46.3167 26.936C49.8706 26.5108 52.7595 25.9081 54.6006 24.884C56.6992 23.7159 57.6169 20.9277 56.5576 18.8532C56.5302 18.8009 56.4542 18.7916 56.4162 18.8354C55.8358 19.5036 52.1858 23.474 46.4355 24.7083C46.4208 24.4104 46.3935 24.1134 46.3538 23.8178C49.1467 22.2339 51.8733 20.4089 53.172 18.7401C55.1347 16.2171 54.9541 12.999 53.0865 11.3581C53.0671 11.3415 53.0415 11.334 53.0162 11.3376C52.9909 11.3412 52.9684 11.3555 52.9544 11.3768C52.3636 12.3514 46.8327 21.291 40.7603 25.1501C40.6862 25.1976 40.6115 25.244 40.5362 25.2894C40.3622 25.3951 40.3433 25.6211 40.4915 25.7557C41.1915 26.3902 41.6267 27.2732 41.6267 28.2535C41.6267 29.9578 40.3129 31.3753 38.5762 31.6827C37.6936 31.8537 36.4196 31.8041 35.196 31.3997C35.141 31.3818 35.084 31.4182 35.084 31.4734V36.8717C35.084 36.9584 35.2161 36.98 35.2474 36.8967C35.9911 34.9261 38.2179 34.5074 39.1918 34.5074C39.5423 36.6136 40.1683 38.3583 40.9815 39.2973C42.3056 40.8232 44.468 40.8018 45.4057 39.7468C45.4211 39.7293 45.4278 39.7057 45.4237 39.6828C45.4196 39.6598 45.4052 39.6399 45.3847 39.6289C44.8338 39.3123 41.6816 37.3771 41.0507 34.2057C41.2998 34.1197 41.5429 34.0224 41.7757 33.9074C42.7931 35.5914 44.2741 37.0911 45.4664 37.6639C47.4691 38.6246 49.3025 38.1573 50.1157 36.751C50.1452 36.7015 50.1091 36.6398 50.0492 36.6342C48.8104 36.5351 45.0085 35.4456 43.3897 32.7909C43.575 32.6207 43.7565 32.4432 43.9256 32.2545C45.6193 33.544 48.0144 34.684 49.7292 34.9166C51.7354 35.1895 54.0088 34.5494 54.064 32.2162C54.0649 32.1694 54.0231 32.1311 53.9738 32.134C53.2603 32.1769 48.5378 32.3825 45.1729 30.451C45.2898 30.2288 45.3988 30.0025 45.4997 29.7726C45.4997 29.7726 50.5842 30.9744 52.9933 30.5762C55.3873 30.181 56.7896 28.3962 56.5188 26.1761C56.5112 26.1208 56.4466 26.0882 56.3953 26.1144L56.3952 26.1146ZM11.4992 29.7729C11.6004 30.0028 11.7097 30.2291 11.8269 30.4513C8.46302 32.3818 3.74245 32.1781 3.0262 32.1343C2.97584 32.1314 2.93405 32.1715 2.93495 32.2173C2.9912 34.5497 5.26353 35.1897 7.2698 34.9169C8.98374 34.6842 11.3796 33.5442 13.0734 32.2547C13.2435 32.4435 13.424 32.621 13.6091 32.7911C11.9895 35.4456 8.18855 36.5352 6.9497 36.6343C6.88988 36.6399 6.8547 36.7016 6.88328 36.7511C7.6965 38.1574 9.52999 38.6246 11.5336 37.664C12.7249 37.0912 14.2059 35.5915 15.2234 33.9077C15.457 34.0225 15.7002 34.1198 15.9482 34.2057C15.3173 37.3772 12.1653 39.3124 11.6142 39.629C11.5939 39.6402 11.5797 39.66 11.5756 39.6829C11.5716 39.7058 11.5781 39.7293 11.5933 39.7468C12.531 40.8019 14.6942 40.8233 16.0183 39.2974C16.8317 38.3583 17.4567 36.6137 17.8073 34.5075C18.7819 34.5075 21.0077 34.9263 21.7516 36.8968C21.7839 36.98 21.9159 36.9584 21.9159 36.8717V31.4734C21.9159 31.4183 21.858 31.3819 21.8029 31.3997C20.5793 31.8041 19.3054 31.8538 18.4238 31.6827C16.6863 31.3754 15.3724 29.9579 15.3724 28.2535C15.3724 27.2731 15.8084 26.3892 16.5076 25.7547C16.6567 25.621 16.6368 25.3949 16.4639 25.2893C16.3879 25.2439 16.3126 25.1974 16.2378 25.1501C10.1692 21.2929 4.64112 12.3598 4.04549 11.3785C4.01781 11.3327 3.95138 11.3235 3.91049 11.3589C2.04566 13.0007 1.86423 16.2179 3.82692 18.7399C5.12559 20.4087 7.85194 22.2337 10.6441 23.8176C10.6047 24.1132 10.5778 24.4102 10.5634 24.708C4.81781 23.4746 1.17074 19.5106 0.584575 18.838C0.545646 18.7922 0.467609 18.8015 0.441091 18.8539C-0.616058 20.9292 0.301537 23.7157 2.39825 24.8837C4.23933 25.9078 7.12828 26.5105 10.6822 26.9357C10.7206 27.1935 10.7675 27.45 10.8228 27.7047C5.48853 28.4262 1.32181 26.4779 0.605557 26.1152C0.552342 26.0882 0.487699 26.1219 0.481092 26.1779C0.211447 28.3981 1.61253 30.181 4.00656 30.5762C6.41479 30.9744 11.4992 29.7726 11.4992 29.7726V29.7729ZM44.5649 46.4383L42.7123 44.9806C41.9732 45.4208 41.4298 46.1199 41.2189 46.9393C40.1046 47.0954 37.0664 46.4207 37.3618 45.9732C40.6916 41.2898 38.1446 38.5015 35.0838 38.6566V41.8019C35.0838 42.812 34.2022 43.6305 33.1163 43.6305H31.0027C29.4865 43.6305 28.4994 45.1547 28.4994 45.1547C28.4994 45.1547 27.5125 43.6305 25.9963 43.6305H23.8825C22.7959 43.6305 21.9161 42.812 21.9161 41.8019V38.6567C18.8552 38.5017 16.3063 41.29 19.6371 45.9733C19.9297 46.4162 16.807 47.1255 15.3422 46.946C14.9565 46.546 14.3997 46.2938 13.7764 46.2938C13.5115 46.2938 13.2487 46.341 13.0003 46.4331C13.0003 46.4331 7.24435 40.9835 7.1389 40.9302L7.1864 40.8199C7.51408 40.2069 7.01256 39.5388 6.69533 39.5856C7.06381 39.1436 7.08104 37.2084 5.03657 36.7608C5.09639 37.1495 5.12675 37.9429 5.12675 37.9429C5.12675 37.9429 3.54888 37.0897 2.75655 37.8259C2.0603 38.6502 3.02646 40.1452 3.02646 40.1452C3.02646 40.1452 2.21896 40.1649 1.82092 40.1312C2.40619 42.1103 4.36888 41.9702 4.79353 41.5796C4.76585 41.8945 5.47568 42.343 6.07693 41.9832L6.34104 41.8553C6.38765 41.9178 11.9936 47.2142 11.9936 47.2142C11.7361 47.5964 11.6136 48.0655 11.698 48.5654C11.8311 49.3466 12.482 49.9941 13.3132 50.1623C13.9002 50.2801 14.4522 50.166 14.8948 49.9072L16.3788 51.2846C16.5109 51.4042 16.6895 51.4789 16.8889 51.465C17.2518 51.4406 17.5235 51.1462 17.496 50.809C17.4846 50.6567 17.4067 50.5259 17.2993 50.4268C17.2756 50.4006 15.7879 49.0195 15.7879 49.0195C17.0151 48.1588 19.3018 47.5525 21.1999 47.5525C21.5334 47.5525 21.6901 47.2704 21.5752 46.9936C20.7153 44.9257 22.5641 43.4279 24.4764 44.6473C25.3106 45.179 26.158 46.2265 26.7964 47.9739C23.6586 48.7337 19.719 50.8266 18.9219 53.1114C18.615 53.9935 19.6287 55.1961 20.8599 55.4382C20.8817 55.443 20.9045 55.4389 20.9232 55.4268C20.942 55.4146 20.9551 55.3955 20.9596 55.3736C21.6028 51.9629 25.2707 49.4212 27.1793 48.9895C27.2753 49.2465 27.2439 49.1633 27.3398 49.4193C25.2612 50.4024 23.2453 52.4759 22.6696 54.9408C22.4055 56.0696 23.6643 57.0872 24.7036 57.3658C24.7558 57.3797 24.8071 57.3433 24.81 57.2929C25.0076 54.1756 26.3841 51.5284 27.6172 50.3239C27.6509 50.5593 27.6763 50.7959 27.6932 51.0331C27.6932 51.0331 26.4307 54.5512 26.4307 57.1181C26.4307 58.3122 28.2053 59.1458 28.4675 59.2626C28.7952 59.1458 30.5689 58.3122 30.5689 57.1181C30.5689 54.5511 29.3064 51.0331 29.3064 51.0331C29.3236 50.7958 29.3493 50.5593 29.3833 50.3239C30.6155 51.5284 31.9929 54.1746 32.1896 57.2918C32.1925 57.3423 32.2447 57.3797 32.2958 57.3657C33.3362 57.0873 34.5941 56.0697 34.3309 54.941C33.7541 52.4759 31.7392 50.4025 29.6606 49.4195C29.7556 49.1634 29.7242 49.2466 29.8202 48.9896C31.7298 49.4213 35.3968 51.9628 36.0399 55.3736C36.0445 55.3954 36.0577 55.4144 36.0764 55.4266C36.0951 55.4387 36.1179 55.4428 36.1397 55.4381C37.3699 55.1961 38.3854 53.9935 38.0767 53.1115C37.2816 50.8267 33.3409 48.7338 30.2032 47.974C30.8424 46.2266 31.6898 45.1791 32.5239 44.6474C34.4353 43.428 36.284 44.926 35.4243 46.9939C35.3093 47.2704 35.4651 47.5525 35.7995 47.5525C37.9464 47.5525 40.5912 48.3282 41.638 49.3682C42.3069 50.3717 43.5428 51.0137 44.9374 50.8762C46.522 50.7212 47.8141 49.5307 47.9926 48.059C48.1484 46.7695 47.4816 45.6117 46.4185 44.981L44.5649 46.4388L44.5649 46.4383ZM30.9105 37.0445C31.5708 36.7999 32.6053 36.9979 32.5701 37.9509C32.5617 38.1667 32.8648 38.1668 32.8866 37.9462C33.0842 36.5194 32.1199 36.1082 31.111 36.2755C30.9857 35.7849 30.8831 35.356 30.7662 34.9308C30.6732 34.5871 30.6389 33.9413 31.037 33.9413C31.2517 33.9413 31.1653 34.5422 31.1454 34.8009C31.1273 35.028 31.209 35.1654 31.3933 35.1719C31.5083 35.1766 31.6518 35.0299 31.7373 34.9326C32.315 34.2795 32.4489 33.2685 31.7724 32.7808C31.2064 32.3714 29.7889 32.6761 29.3992 33.2591C29.3405 33.0395 29.0592 32.677 28.9242 32.5189C28.7932 32.3649 28.759 32.2593 28.9405 32.1239C29.026 32.0584 29.2844 31.8015 29.2844 31.5361C29.2844 31.3791 29.1628 31.0894 28.7762 31.0894C28.4712 31.0894 28.1321 31.3006 28.1321 31.7715C28.1321 31.8763 28.1577 31.9885 28.2251 32.109C28.0322 32.0772 27.5089 32.0903 27.24 32.1566L30.9574 42.3578C32.0214 41.8326 32.8013 41.001 32.8013 40.1086C32.8013 39.3479 31.6811 39.6002 31.1368 40.1936C30.962 39.2293 30.8062 38.3388 30.6362 37.451C30.5898 37.2062 30.7141 37.1184 30.9107 37.0446L30.9105 37.0445ZM25.6542 30.115L26.4351 32.2847C25.7663 32.4436 24.691 32.9313 24.691 33.5769C24.691 34.4367 26.2119 34.9964 27.0916 34.929C27.0479 35.1253 27.0983 35.3 27.2351 35.4598C26.9159 35.4598 26.3137 35.6083 26.116 35.8214C25.6496 35.3869 24.9199 35.229 24.5731 35.4934C24.2245 35.7598 24.2142 36.2111 24.5779 36.7213C24.8315 37.0745 24.9266 37.4231 24.6416 37.8323C25.7018 37.8323 25.3112 36.4541 25.7264 36.4541C25.6723 36.7213 25.7055 37.0306 25.8263 37.3735C25.9061 37.6015 25.9061 37.7632 25.7693 37.9827C25.4273 38.5294 24.8954 39.7852 24.9675 40.9206C24.6198 40.9186 24.4431 40.8335 24.5657 40.359C24.6112 40.1822 24.502 40.0561 24.3577 40.2739C24.198 40.5141 24.1211 40.9243 24.1211 41.0998C24.1211 42.111 25.3255 42.3146 25.7854 42.1007C27.1155 43.3878 29.728 43.0445 30.6029 42.6128L26.003 29.9914C25.9089 29.7532 25.5718 29.8671 25.6544 30.1148L25.6542 30.115ZM25.4946 40.5113C25.3996 39.9917 26.1225 39.0629 27.0422 38.1668C26.8464 38.7508 26.968 39.7572 27.3518 40.1039C26.6848 40.1039 25.8926 40.2291 25.4946 40.5113H25.4946Z" fill="#001DA3"/>
</svg>
