<svg width="70" height="25" viewBox="0 0 70 25" fill="none" xmlns="http://www.w3.org/2000/svg">
<path fill-rule="evenodd" clip-rule="evenodd" d="M1.73454 8.46729C0.77658 8.46729 0 9.24386 0 10.2018V22.9187C0 23.8767 0.77658 24.6533 1.73454 24.6533H3.96181C4.91977 24.6533 5.69635 23.8767 5.69635 22.9187V10.2018C5.69635 9.24387 4.91977 8.46729 3.96181 8.46729H1.73454ZM25.6351 8.46729C24.6771 8.46729 23.9005 9.24386 23.9005 10.2018V22.9187C23.9005 23.8767 24.6771 24.6533 25.6351 24.6533H27.8623C28.8203 24.6533 29.5969 23.8767 29.5969 22.9187V10.2018C29.5969 9.24387 28.8203 8.46729 27.8623 8.46729H25.6351ZM31.3333 10.2018C31.3333 9.24386 32.1099 8.46729 33.0678 8.46729H35.2951C36.2531 8.46729 37.0297 9.24387 37.0297 10.2018V19.817H41.965C42.9229 19.817 43.6995 20.5936 43.6995 21.5516V22.9524C43.6995 23.9104 42.9229 24.687 41.965 24.687H34.0245C33.9075 24.687 33.7931 24.6754 33.6826 24.6533H33.0678C32.1099 24.6533 31.3333 23.8767 31.3333 22.9187V10.2018ZM20.9124 8.46729C21.8704 8.46729 22.6469 9.24387 22.6469 10.2018V11.6027C22.6469 12.5606 21.8703 13.3372 20.9124 13.3372H17.6093V22.9187C17.6093 23.8767 16.8327 24.6533 15.8747 24.6533H13.6475C12.6895 24.6533 11.9129 23.8767 11.9129 22.9187V13.3372H8.65861C7.70065 13.3372 6.92407 12.5606 6.92407 11.6027V10.2018C6.92407 9.24386 7.70065 8.46729 8.65861 8.46729H13.6475H15.8747H20.9124Z" fill="#FFFCFC"/>
<path fill-rule="evenodd" clip-rule="evenodd" d="M61.0047 0.00370689L61.0085 0H41.1045V12.8766H65.4117V4.41068L61.0047 0.00370689ZM51.4531 9.36473L52.5442 3.06413H51.3875L50.2964 9.36473H51.4531ZM46.6172 7.23693L47.7408 7.23991C48.1456 7.23991 48.5257 7.17155 48.8812 7.03482C49.2394 6.89535 49.5361 6.68342 49.7713 6.39901C50.0065 6.11461 50.1418 5.75501 50.1774 5.3202C50.2102 4.92094 50.1446 4.58048 49.9805 4.29882C49.8192 4.01441 49.5895 3.79564 49.2914 3.6425C48.9933 3.48663 48.6542 3.40459 48.2741 3.39639L46.0795 3.39228L45.0459 9.36473H46.2477L46.6172 7.23693ZM46.7838 6.27717L47.1173 4.35624L48.2372 4.36034C48.4231 4.36855 48.5749 4.4164 48.6925 4.50391C48.8101 4.59142 48.8921 4.70628 48.9386 4.84848C48.9851 4.99068 48.9947 5.15065 48.9673 5.32841C48.9372 5.53897 48.8675 5.71399 48.7581 5.85346C48.6487 5.99292 48.5093 6.09957 48.3397 6.17341C48.1702 6.24451 47.9842 6.28006 47.7819 6.28006L46.7838 6.27717ZM54.6567 9.28679C54.8038 9.20959 54.9348 9.11325 55.0497 8.99775L55.0095 9.36473H56.0924L56.8636 4.92641H55.7068L55.165 8.05382C55.0854 8.18643 54.983 8.29524 54.8577 8.38026C54.7046 8.48144 54.5118 8.52793 54.2794 8.51972C54.17 8.51699 54.0825 8.49648 54.0168 8.45819C53.9512 8.41718 53.9006 8.36385 53.8651 8.29822C53.8295 8.23259 53.8076 8.15875 53.7994 8.07671C53.7912 7.99194 53.7912 7.90306 53.7994 7.81009L54.2835 4.92641H53.1308L52.6509 7.79368C52.629 8.01792 52.6345 8.22849 52.6673 8.42538C52.7028 8.62227 52.7698 8.79729 52.8683 8.95043C52.9667 9.10083 53.0994 9.22116 53.2662 9.3114C53.433 9.39891 53.6381 9.4454 53.8815 9.45087C54.1795 9.45634 54.438 9.40164 54.6567 9.28679ZM59.4355 7.81009C59.523 7.88119 59.5558 7.98237 59.534 8.11363C59.5121 8.23669 59.4601 8.3365 59.3781 8.41307C59.296 8.48691 59.199 8.54023 59.0868 8.57305C58.9775 8.60586 58.8667 8.62091 58.7546 8.61817C58.6124 8.61817 58.4893 8.59356 58.3854 8.54434C58.2842 8.49238 58.2063 8.41718 58.1516 8.31873C58.0969 8.22028 58.0682 8.09996 58.0655 7.95776L56.9825 7.95365C56.9853 8.27361 57.0673 8.54434 57.2287 8.76584C57.39 8.98461 57.6006 9.15142 57.8604 9.26628C58.1229 9.38113 58.4032 9.4413 58.7013 9.44676C58.9146 9.4495 59.132 9.42489 59.3535 9.37293C59.5777 9.32371 59.7855 9.2444 59.977 9.13502C60.1711 9.0229 60.3297 8.87933 60.4528 8.70431C60.5758 8.52656 60.6415 8.31326 60.6497 8.06441C60.6606 7.7718 60.5936 7.53799 60.4487 7.36297C60.3038 7.18522 60.1164 7.04712 59.8867 6.94868C59.657 6.85023 59.4218 6.76956 59.1812 6.70666C59.1156 6.69299 59.0417 6.67521 58.9597 6.65334C58.8776 6.62872 58.7997 6.59864 58.7259 6.56309C58.652 6.52481 58.5932 6.47558 58.5495 6.41542C58.5057 6.35526 58.4921 6.27869 58.5085 6.18571C58.5276 6.07359 58.5741 5.97925 58.6479 5.90268C58.7218 5.82611 58.8093 5.76868 58.9105 5.7304C59.0144 5.68938 59.1183 5.66887 59.2222 5.66887C59.3535 5.66887 59.4615 5.69348 59.5463 5.7427C59.631 5.79193 59.6939 5.86166 59.7349 5.9519C59.776 6.04214 59.7951 6.14743 59.7924 6.26775L60.9368 6.27185C60.9368 5.95737 60.8575 5.69485 60.6989 5.48428C60.543 5.27371 60.3379 5.1151 60.0836 5.00845C59.832 4.9018 59.5586 4.84711 59.2632 4.84438C59.0527 4.83891 58.8407 4.86488 58.6274 4.92231C58.4141 4.97974 58.2172 5.06725 58.0367 5.18484C57.8563 5.29969 57.7086 5.44599 57.5937 5.62375C57.4816 5.79876 57.4214 6.00523 57.4132 6.24314C57.405 6.44277 57.4406 6.61642 57.5199 6.76409C57.5992 6.90902 57.7059 7.03208 57.8398 7.13326C57.9738 7.23445 58.1229 7.31922 58.287 7.38759C58.4538 7.45322 58.6192 7.50791 58.7833 7.55166C58.8763 7.57354 58.9857 7.60362 59.1115 7.64191C59.24 7.68019 59.348 7.73625 59.4355 7.81009Z" fill="#FFFCFC"/>
<path d="M43.3125 15.0539V13.8906H66.4406V5.40576L67.6039 6.63744V15.0539H43.3125Z" fill="#FFFCFC"/>
<path d="M45.7083 17.4474V16.2842H68.8364V7.79932L69.9996 9.03099V17.4474H45.7083Z" fill="#FFFCFC"/>
</svg>
