<svg width="144" height="24" viewBox="0 0 144 24" fill="none" xmlns="http://www.w3.org/2000/svg">
<path d="M7.8816 23.1157C4.47542 22.4673 1.59658 19.9515 0.48136 16.6664C0.0231678 15.3177 -0.0200578 14.8077 0.00587759 11.2459L0.031813 8.71285C0.031813 6.78812 1.81548 5.01587 3.76064 5.01587H6.87289C7.47805 5.01587 8.16966 5.53458 8.16966 6.09651L8.20147 10.0788C8.2447 13.8394 8.25334 14.1334 8.40896 14.3841C8.62509 14.7472 9.02276 14.9633 9.46367 14.9633C9.74895 14.9633 9.93915 14.8941 10.3022 14.6434C11.0457 14.1334 11.746 14.1334 12.3684 14.6607C12.7056 14.946 12.8699 15.335 12.8699 15.8451C12.8699 16.3552 12.7142 16.6491 12.2128 17.09C9.8527 19.1648 6.04019 17.9286 5.2189 14.8423C5.11516 14.4792 5.08922 13.6838 5.08922 11.2286V7.99844H4.40902C3.89031 7.99844 3.14406 8.4307 3.14406 9.07909L3.11813 11.462C3.09219 14.4532 3.14406 14.9806 3.58497 16.0612C4.20742 17.5914 5.46961 18.9141 6.93928 19.5625C7.77786 19.9342 8.44354 20.0639 9.45502 20.0639C10.8382 20.0726 11.6941 19.8132 13.086 18.9573C13.5615 18.6634 13.6479 18.6461 14.1407 18.6721C14.7372 18.7066 15.0311 18.8709 15.351 19.3464C15.5844 19.6922 15.6709 20.1072 15.5931 20.5221C15.4461 21.3088 13.622 22.4673 11.7892 22.9428C10.7086 23.2194 8.85851 23.2972 7.8816 23.1157Z" fill="white"/>
<path d="M35.9956 23.1398C35.7103 23.1053 35.0965 22.9496 34.6383 22.794C31.82 21.8863 29.6414 19.5521 28.8115 16.5609C28.5348 15.5667 28.4311 13.6302 28.5953 12.515C29.114 8.96181 31.7162 6.03111 35.1656 5.09743C35.9091 4.89859 36.1512 4.87266 37.5085 4.8813C38.7793 4.8813 39.1338 4.90724 39.713 5.06285C41.1481 5.45188 43.1278 6.65356 43.5428 7.40568C43.8454 7.94168 43.8886 8.58142 43.6552 9.10878C43.4045 9.66207 43.1797 9.90413 42.6523 10.1462C41.8743 10.5179 41.1481 10.3796 40.2922 9.71394C39.5401 9.13471 38.9782 8.89265 38.1569 8.78026C35.3558 8.41717 32.9698 10.3537 32.5808 13.3103C32.3646 14.9356 32.8574 16.535 33.938 17.7107C34.9495 18.8 35.9783 19.2582 37.4134 19.2582C38.4422 19.2582 39.3412 18.9729 40.2576 18.3591C41.0962 17.8058 41.4334 17.6761 41.9694 17.7193C43.197 17.8231 43.9923 19.0248 43.6465 20.2783C43.3526 21.3935 41.1222 22.7162 38.9004 23.1053C38.1223 23.2436 36.8342 23.2609 35.9956 23.1398Z" fill="white"/>
<path d="M51.7278 23.148C48.0882 22.5775 45.3131 20.079 44.4313 16.5691C43.8866 14.3992 44.0941 11.7797 44.9673 9.90369C46.5147 6.55802 49.8085 4.65609 53.7594 4.84628C56.5085 4.9846 58.8081 6.09118 60.3815 8.06227C61.9982 10.0766 62.6898 12.8085 62.2835 15.5403C61.6956 19.422 59.1194 22.2057 55.3674 23.027C54.6412 23.1913 52.4626 23.2604 51.7278 23.148ZM54.7276 19.1194C55.5576 18.8687 56.3183 18.4105 56.9062 17.7881C59.4565 15.0735 58.471 10.2322 55.1167 9.05647C53.1369 8.35621 51.0448 8.80576 49.6529 10.2149C47.1891 12.6961 47.872 17.2693 50.9238 18.7736C52.039 19.3269 53.5432 19.4652 54.7276 19.1194Z" fill="white"/>
<path d="M120.417 23.185C118.187 22.7701 116.683 22.0266 115.308 20.652C114.184 19.5195 113.354 18.0585 112.922 16.4505C112.715 15.6638 112.689 15.4476 112.689 14.0298C112.689 12.6207 112.715 12.3959 112.922 11.6092C113.415 9.75048 114.573 7.935 116.008 6.7852C116.907 6.05901 118.343 5.33281 119.423 5.06481C120.521 4.78817 122.803 4.78817 123.832 5.07346C125.077 5.41062 126.599 6.24055 127.377 7.01862C127.757 7.40765 127.939 7.86584 127.939 8.46235C127.93 9.77642 126.417 10.7447 125.215 10.1914C125.025 10.1049 124.567 9.81964 124.187 9.543C123.322 8.92919 122.812 8.77358 121.628 8.76493C120.901 8.76493 120.599 8.79952 120.141 8.95513C118.559 9.49977 117.262 10.9349 116.83 12.6466C116.665 13.3123 116.665 14.7474 116.83 15.413C117.288 17.2112 118.801 18.7933 120.417 19.165C120.633 19.2169 121.135 19.2601 121.541 19.2601C122.682 19.2601 123.4 19.0181 124.593 18.24C125.362 17.7386 125.847 17.6176 126.469 17.7818C128.068 18.2054 128.362 20.3494 126.962 21.3955C125.328 22.6145 123.832 23.1418 121.801 23.1937C121.161 23.211 120.538 23.211 120.417 23.185Z" fill="white"/>
<path d="M65.646 22.9823C65.2484 22.8872 64.8939 22.6711 64.5913 22.3512C64.0294 21.7633 64.0467 22.0659 64.0467 14.0259C64.0467 5.98594 64.0294 6.28852 64.5913 5.70065C65.0322 5.24245 65.4818 5.04361 66.0783 5.04361C66.718 5.05226 67.1589 5.25974 67.6344 5.7871C67.8246 5.99458 69.5191 8.21638 71.3951 10.7235L74.8099 15.2795L74.8531 10.8964C74.8877 7.78412 74.9223 6.43548 75.0001 6.27987C75.2767 5.65742 75.9424 5.156 76.6427 5.03497C77.4899 4.89665 78.5532 5.52774 78.8385 6.34039C78.9423 6.61703 78.9596 8.00025 78.9596 14.0259C78.9596 20.0516 78.9423 21.4348 78.8385 21.7114C78.778 21.9016 78.5532 22.2129 78.3458 22.4203C77.5158 23.2503 76.1672 23.2243 75.4064 22.3512C75.2681 22.1956 73.5996 19.9911 71.6976 17.4667L68.2396 12.8675L68.1964 17.1641L68.1531 21.4607L67.9456 21.8757C67.6949 22.3858 67.2454 22.7662 66.6921 22.9304C66.2339 23.0687 66.0524 23.0774 65.646 22.9823Z" fill="white"/>
<path d="M83.1619 22.9578C82.7901 22.854 82.3492 22.5601 82.1158 22.2575C81.6663 21.6956 81.6836 21.9722 81.6836 14.0101C81.6836 7.01614 81.6922 6.57524 81.8478 6.24672C82.1936 5.48595 82.8852 5.0364 83.7152 5.04505C84.3636 5.05369 84.8217 5.27847 85.2799 5.80582C85.4701 6.0133 87.1386 8.21781 88.9887 10.6903C90.8474 13.1628 92.3862 15.1858 92.4295 15.1858C92.4641 15.1944 92.49 13.3012 92.49 10.9843C92.49 8.27833 92.5246 6.6444 92.5851 6.43692C92.6975 6.03924 93.1816 5.46866 93.6052 5.25253C94.6253 4.74247 95.8962 5.15744 96.3717 6.16027C96.5532 6.5493 96.5532 6.58388 96.5532 14.0274C96.5532 21.4708 96.5532 21.5054 96.3717 21.8944C96.0172 22.6466 95.0749 23.148 94.2795 23.0183C93.3804 22.8713 93.4237 22.9146 89.5074 17.7015C87.5104 15.0388 85.8505 12.8603 85.8159 12.8603C85.7727 12.8603 85.7468 14.7968 85.7468 17.1655V21.4708L85.522 21.9204C85.2627 22.4477 84.8823 22.7676 84.3117 22.9405C83.8535 23.0788 83.5855 23.0788 83.1619 22.9578Z" fill="white"/>
<path d="M100.418 22.9241C100.141 22.8376 99.8643 22.6647 99.6222 22.414C98.9393 21.7397 98.9652 22.0855 98.9911 13.8034L99.0171 6.50695L99.2073 6.14385C99.458 5.67701 99.9507 5.27934 100.478 5.12372C101.101 4.93353 110.325 4.93353 110.939 5.11508C112.028 5.4436 112.59 6.4983 112.279 7.63082C112.149 8.08901 111.492 8.74604 111.034 8.87572C110.809 8.93623 109.409 8.97081 106.91 8.97081H103.124V10.4837V11.9966H105.829C108.838 11.9966 108.924 12.0139 109.495 12.6104C110.55 13.7256 109.979 15.5584 108.475 15.8783C108.224 15.9302 107.005 15.9734 105.587 15.9734H103.124V17.5295V19.0856H106.91C109.409 19.0856 110.809 19.1202 111.034 19.1807C111.492 19.3104 112.149 19.9674 112.279 20.4256C112.503 21.2383 112.244 22.1374 111.656 22.5869C111.034 23.0537 110.947 23.0624 105.682 23.0537C101.654 23.0537 100.763 23.0278 100.418 22.9241Z" fill="white"/>
<path d="M135.926 22.9405C135.39 22.7676 134.975 22.4131 134.724 21.9117L134.508 21.4708V15.2204V8.96993H132.546C130.307 8.96993 130.134 8.9267 129.563 8.29561C128.707 7.34464 128.984 5.84039 130.125 5.22658L130.488 5.03639L136.315 5.01045C142.885 4.98452 142.756 4.97587 143.395 5.59832C143.819 6.00465 144.07 6.71355 143.983 7.25819C143.862 8.00167 143.283 8.70193 142.635 8.88348C142.47 8.93535 141.485 8.96993 140.456 8.96993H138.571V15.2204C138.571 21.0904 138.554 21.4794 138.407 21.808C137.983 22.733 136.86 23.2517 135.926 22.9405Z" fill="white"/>
<path d="M16.1104 17.7739C15.9289 17.6615 15.6523 17.4108 15.5139 17.2033C15.0039 16.4772 15.2113 15.4311 15.9721 14.8951C16.292 14.6703 16.413 14.6357 16.9317 14.6357C17.4504 14.6357 17.5715 14.6703 17.8913 14.8951C18.3755 15.2409 18.6175 15.7164 18.6175 16.3215C18.6089 16.8921 18.4187 17.2639 17.9432 17.6529C17.6579 17.8777 17.5282 17.9209 17.0355 17.9468C16.56 17.9641 16.3957 17.9382 16.1104 17.7739Z" fill="white"/>
<path d="M11.532 12.9851C10.6848 12.5183 10.3131 11.5759 10.6589 10.7633C10.8058 10.4261 11.2727 9.96795 11.6012 9.84691C12.3706 9.55298 13.287 9.87285 13.702 10.5818C13.9008 10.9189 13.9267 11.0399 13.8922 11.5241C13.8576 12.1379 13.7279 12.3799 13.1833 12.8122C12.9239 13.0283 12.7769 13.0802 12.3274 13.0975C11.9556 13.1148 11.7136 13.0802 11.532 12.9851Z" fill="white"/>
<path d="M16.6326 12.9648C15.526 12.4374 15.3099 11.011 16.209 10.1637C16.5375 9.86117 16.8487 9.74878 17.3934 9.74878C19.036 9.75742 19.6584 11.8928 18.2925 12.8351C17.8516 13.1463 17.134 13.1982 16.6326 12.9648Z" fill="white"/>
<path d="M23.0011 12.937C21.7562 12.3232 21.7562 10.5423 23.0011 9.91116C23.5371 9.63452 24.3324 9.70368 24.7733 10.0668C25.2747 10.4645 25.4476 10.8275 25.4476 11.45C25.4476 11.8995 25.4131 12.0379 25.1883 12.3491C24.6782 13.0666 23.7705 13.3174 23.0011 12.937Z" fill="white"/>
<path d="M11.7197 8.19237C11.0453 7.98489 10.5439 7.28463 10.5353 6.54115C10.5353 5.4778 11.5986 4.63922 12.6101 4.89857C13.4833 5.13199 13.9501 5.78038 13.8896 6.68812C13.8637 7.13766 13.8118 7.29328 13.5957 7.56128C13.1288 8.14915 12.4026 8.39121 11.7197 8.19237Z" fill="white"/>
<path d="M16.8196 8.19192C16.4219 8.07089 16.007 7.70779 15.8081 7.28418C15.1857 5.98741 16.4047 4.53502 17.8052 4.90676C18.5659 5.11425 19.1797 6.06521 19.0328 6.82599C18.8426 7.85476 17.8138 8.48585 16.8196 8.19192Z" fill="white"/>
<path d="M16.8136 3.30795C15.7848 2.94486 15.3353 1.66538 15.9231 0.766282C16.9778 -0.824424 19.459 0.273509 18.9922 2.12357C18.8625 2.65957 18.3178 3.20421 17.7818 3.33389C17.2804 3.46357 17.2372 3.46357 16.8136 3.30795Z" fill="white"/>
</svg>
