<svg width="135" height="18" viewBox="0 0 135 18" fill="none" xmlns="http://www.w3.org/2000/svg">
<path fill-rule="evenodd" clip-rule="evenodd" d="M2.08476 0C0.933382 0 0 0.91117 0 2.03518V15.9648C0 17.0888 0.933382 18 2.08476 18C3.23614 18 4.16953 17.0888 4.16953 15.9648V2.03518C4.16953 0.91117 3.23614 0 2.08476 0ZM24.3222 0C23.1709 0 22.2375 0.91117 22.2375 2.03518V15.9648C22.2375 17.0888 23.1709 18 24.3222 18C25.4736 18 26.407 17.0888 26.407 15.9648V2.03518C26.407 0.91117 25.4736 0 24.3222 0ZM42.5292 2.03518C42.5292 0.91117 43.4626 0 44.6139 0C45.7653 0 46.6987 0.91117 46.6987 2.03518V15.9648C46.6987 17.0888 45.7653 18 44.6139 18C43.4626 18 42.5292 17.0888 42.5292 15.9648V2.03518ZM18.7629 4.07035H15.2883V15.9648C15.2883 17.0888 14.3549 18 13.2035 18C12.0521 18 11.1187 17.0888 11.1187 15.9648V4.07035H7.64413C6.49275 4.07035 5.55937 3.15918 5.55937 2.03518C5.55937 0.91117 6.49275 0 7.64413 0H18.7629C19.9143 0 20.8476 0.91117 20.8476 2.03518C20.8476 3.15918 19.9143 4.07035 18.7629 4.07035ZM31.2714 0C30.1201 0 29.1867 0.91117 29.1867 2.03518V15.9648C29.1867 17.0888 30.1201 18 31.2714 18H39.0546C40.2059 18 41.1393 17.0888 41.1393 15.9648C41.1393 14.8408 40.2059 13.9296 39.0546 13.9296H33.3562V2.03518C33.3562 0.91117 32.4228 0 31.2714 0ZM49.4784 2.03518C49.4784 0.91117 50.4118 0 51.5631 0C52.7145 0 53.6479 0.91117 53.6479 2.03518V11.6071C53.6479 12.4854 53.9257 13.0401 54.278 13.3281C54.6876 13.6631 55.5094 14.2915 57.0299 14.2915C58.5503 14.2915 59.3721 13.6631 59.7817 13.3281C60.134 13.0401 60.4118 12.4854 60.4118 11.6071V2.03518C60.4118 0.91117 61.3452 0 62.4966 0C63.6479 0 64.5813 0.91117 64.5813 2.03518V11.6071C64.5813 13.4491 63.9325 15.1612 62.4549 16.3693C61.0346 17.5306 59.123 18 57.0299 18C54.9367 18 53.0251 17.5306 51.6048 16.3693C50.1272 15.1612 49.4784 13.4491 49.4784 11.6071V2.03518ZM69.4226 18C68.284 18 67.361 17.0989 67.361 15.9874V3.26946C67.361 1.4638 68.8605 0 70.7101 0C72.0973 0 73.3408 0.834762 73.8374 2.09917L77.3802 11.1211C77.441 11.2759 77.6654 11.2759 77.7262 11.1211L81.269 2.09917C81.7655 0.834762 83.0091 0 84.3962 0C86.2459 0 87.7454 1.4638 87.7454 3.26946V15.9874C87.7454 17.0989 86.8224 18 85.6838 18C84.5452 18 83.6222 17.0989 83.6222 15.9874V6.37527C83.6222 6.27524 83.4804 6.24922 83.4432 6.34243L79.3847 16.506C79.0904 17.2428 78.3633 17.728 77.5532 17.728C76.7431 17.728 76.0159 17.2428 75.7217 16.506L71.6632 6.34243C71.626 6.24922 71.4842 6.27524 71.4842 6.37527V15.9874C71.4842 17.0989 70.5612 18 69.4226 18ZM128.097 3.34673C129.044 3.34673 129.811 2.59754 129.811 1.67337C129.811 0.74919 129.044 0 128.097 0C127.15 0 126.383 0.74919 126.383 1.67337C126.383 2.59754 127.15 3.34673 128.097 3.34673ZM135 1.67337C135 2.59754 134.233 3.34673 133.286 3.34673C132.339 3.34673 131.572 2.59754 131.572 1.67337C131.572 0.74919 132.339 0 133.286 0C134.233 0 135 0.74919 135 1.67337ZM122.908 3.34673C123.855 3.34673 124.623 2.59754 124.623 1.67337C124.623 0.74919 123.855 0 122.908 0C122.862 0 122.815 0.00181081 122.769 0.00541035V0H92.8415C91.5621 0 90.5251 1.01242 90.5251 2.26131V15.7387C90.5251 16.9876 91.5621 18 92.8415 18H120.453C121.732 18 122.769 16.9876 122.769 15.7387V15.4667C122.754 15.4671 122.739 15.4673 122.723 15.4673C121.776 15.4673 121.009 14.7181 121.009 13.794C121.009 13.2661 121.259 12.7953 121.651 12.4886C121.964 12.8186 122.411 13.0251 122.908 13.0251C123.855 13.0251 124.623 12.2759 124.623 11.3518C124.623 10.4276 123.855 9.67839 122.908 9.67839C122.411 9.67839 121.964 9.88496 121.651 10.2149C121.259 9.90825 121.009 9.43744 121.009 8.90955C121.009 8.38165 121.259 7.91084 121.651 7.60415C121.964 7.93414 122.411 8.1407 122.908 8.1407C123.855 8.1407 124.623 7.39151 124.623 6.46734C124.623 5.54316 123.855 4.79397 122.908 4.79397C122.386 4.79397 121.918 5.02238 121.603 5.38251C121.239 5.07566 121.009 4.62188 121.009 4.11558C121.009 3.58768 121.259 3.11687 121.651 2.81018C121.964 3.14017 122.411 3.34673 122.908 3.34673ZM129.811 6.46734C129.811 7.39151 129.044 8.1407 128.097 8.1407C127.15 8.1407 126.383 7.39151 126.383 6.46734C126.383 5.54316 127.15 4.79397 128.097 4.79397C129.044 4.79397 129.811 5.54316 129.811 6.46734ZM110.539 7.60687C110.539 6.61392 110.881 5.69105 111.661 5.03982C112.41 4.41383 113.419 4.1608 114.523 4.1608C115.627 4.1608 116.636 4.41383 117.385 5.03982C118.165 5.69105 118.507 6.61392 118.507 7.60687V10.3931C118.507 11.3861 118.165 12.3089 117.385 12.9602C116.636 13.5862 115.627 13.8392 114.523 13.8392C113.419 13.8392 112.41 13.5862 111.661 12.9602C110.881 12.3089 110.539 11.3861 110.539 10.3931V7.60687ZM116.307 7.60687V10.3931C116.307 10.8666 116.161 11.1656 115.975 11.3209C115.759 11.5014 115.325 11.8401 114.523 11.8401C113.721 11.8401 113.287 11.5014 113.071 11.3209C112.885 11.1656 112.739 10.8666 112.739 10.3931V7.60687C112.739 7.13343 112.885 6.83442 113.071 6.67914C113.287 6.49861 113.721 6.15987 114.523 6.15987C115.325 6.15987 115.759 6.49861 115.975 6.67914C116.161 6.83442 116.307 7.13343 116.307 7.60687ZM94.7872 5.17486C94.7872 4.56486 95.2832 4.07035 95.895 4.07035H98.3321C100.014 4.07035 101.446 5.36009 101.458 7.21209L101.458 7.22437L101.458 7.23664C101.446 9.08864 100.014 10.3784 98.3321 10.3784H97.0028V12.7347C97.0028 13.3447 96.5068 13.8392 95.895 13.8392C95.2832 13.8392 94.7872 13.3447 94.7872 12.7347V5.17486ZM97.0028 8.21844H98.3321C98.8554 8.21844 99.2866 7.85524 99.2921 7.22437C99.2866 6.5935 98.8554 6.2303 98.3321 6.2303H97.0028V8.21844ZM102.57 5.174C102.57 4.56446 103.072 4.07035 103.69 4.07035C103.707 4.07035 103.723 4.0707 103.74 4.07141V4.07035H106.153C107.853 4.07035 109.301 5.35908 109.313 7.20959L109.313 7.22187L109.313 7.23413C109.305 8.41367 108.714 9.36497 107.846 9.89975L109.184 12.1835C109.493 12.7114 109.31 13.3864 108.774 13.6912C108.239 13.9959 107.554 13.8151 107.245 13.2872L105.538 10.3734H104.81V12.7278C104.81 13.3373 104.308 13.8315 103.69 13.8315C103.072 13.8315 102.57 13.3373 102.57 12.7278V5.174ZM106.153 6.2286C106.682 6.2286 107.118 6.59149 107.124 7.22187C107.118 7.85223 106.682 8.21515 106.153 8.21515H104.81V6.2286H106.153Z" fill="#FBFFF9"/>
</svg>
