<svg width="178" height="25" viewBox="0 0 178 25" fill="none" xmlns="http://www.w3.org/2000/svg">
<path d="M7.6436 11.0377H7.62327C6.68588 10.8699 5.77671 10.5713 4.92238 10.1506C4.66454 10.006 4.4511 9.79375 4.30513 9.5367C4.15916 9.27964 4.0862 8.98759 4.09413 8.69209C4.09116 8.45906 4.13726 8.22801 4.22944 8.01397C4.32162 7.79992 4.45782 7.60767 4.62918 7.44972C5.1509 7.01158 5.82208 6.79258 6.50182 6.83871C7.4028 6.84694 8.29597 7.00683 9.14385 7.31168C9.78729 7.54265 10.4888 7.55591 11.1405 7.34943C11.7922 7.14296 12.358 6.72818 12.7511 6.16884L12.8891 5.95482C11.0447 4.71831 8.8593 4.09074 6.63986 4.16029C5.05439 4.08353 3.49215 4.56477 2.2247 5.52037C1.68095 5.93933 1.24396 6.48092 0.949382 7.10094C0.654808 7.72096 0.510999 8.40184 0.529691 9.08802C0.504936 9.7581 0.657788 10.4228 0.97275 11.0148C1.28771 11.6067 1.75359 12.1049 2.32315 12.4588C3.66111 13.1868 5.1057 13.6989 6.60348 13.9762C7.51308 14.1437 8.39527 14.4357 9.22518 14.844C9.48505 14.9878 9.70108 15.1994 9.85031 15.4562C9.99954 15.7131 10.0764 16.0055 10.0727 16.3025C10.0757 16.7149 9.92854 17.1143 9.65856 17.4261C9.36464 17.7141 9.01101 17.9341 8.62269 18.0704C8.23438 18.2066 7.82086 18.2559 7.41139 18.2148C6.19891 18.2147 4.99855 17.9735 3.88012 17.5053C3.24679 17.2317 2.5438 17.1629 1.86943 17.3084C1.21801 17.4418 0.632983 17.7969 0.214016 18.3132L0 18.5893C0.992963 19.3419 2.10627 19.9208 3.29264 20.3014C4.56853 20.6999 5.89818 20.8995 7.23483 20.8932C8.90167 20.9857 10.5501 20.5058 11.9068 19.5331C12.4647 19.1033 12.9113 18.546 13.2093 17.9079C13.5072 17.2698 13.6477 16.5696 13.6189 15.8659C13.639 15.2331 13.4996 14.6055 13.2137 14.0406C12.9278 13.4757 12.5046 12.9918 11.9828 12.6332C10.6527 11.8268 9.17928 11.285 7.6436 11.0377Z" fill="white"/>
<path d="M20.7632 4.45891H20.3694V20.6043H23.9007V7.6103C23.9073 7.19706 23.8304 6.78674 23.6747 6.40392C23.5189 6.0211 23.2875 5.67365 22.9943 5.38239C22.7053 5.08407 22.3582 4.8482 21.9745 4.68936C21.5907 4.53052 21.1784 4.45209 20.7632 4.45891Z" fill="white"/>
<path d="M39.9904 11.8314L35.4564 4.4585H31.3762V20.6039H34.7866V9.40656L39.9519 17.292L45.1364 9.3477V20.6039H48.6056V4.4585H44.5447L39.9904 11.8314Z" fill="white"/>
<path d="M69.4635 9.97776C69.5007 9.21099 69.3619 8.44587 69.0577 7.74103C68.7535 7.0362 68.292 6.41035 67.7086 5.91145C66.3239 4.86564 64.6114 4.34844 62.8793 4.45292H56.0586V20.5983H56.4139C57.2498 20.5961 58.0509 20.263 58.642 19.6719C59.2331 19.0808 59.5662 18.2797 59.5685 17.4437V15.5903H62.6235C64.4163 15.691 66.1877 15.161 67.6305 14.0922C68.2333 13.5936 68.7125 12.9622 69.0305 12.2475C69.3486 11.5327 69.4968 10.754 69.4635 9.97241M65.0473 7.98098C65.3527 8.25009 65.593 8.58508 65.75 8.96065C65.907 9.33622 65.9767 9.74255 65.9536 10.149C65.9734 10.5455 65.8998 10.9412 65.7389 11.3041C65.578 11.6671 65.3341 11.9872 65.0269 12.2388C64.2958 12.7502 63.4137 13.0001 62.523 12.9483H59.5674V7.19233H62.5048C63.4204 7.14187 64.3235 7.42426 65.0473 7.98741V7.98098Z" fill="white"/>
<path d="M79.2001 4.4585H75.6913V20.6039H87.6377C87.6158 20.2094 87.5156 19.8233 87.3429 19.468C87.1702 19.1127 86.9284 18.7953 86.6318 18.5344C86.0611 17.9828 85.296 17.6783 84.5023 17.6869H79.2001V4.4585Z" fill="white"/>
<path d="M106.48 7.25783V4.4585H93.7643V20.6039H106.598V17.8046H97.2142V13.8816H102.458C103.182 13.8813 103.879 13.6068 104.409 13.1133C104.986 12.6265 105.381 11.9602 105.533 11.2214H97.2142V7.26211L106.48 7.25783Z" fill="white"/>
<path d="M146.186 4.4585H142.677V20.6039H146.127V9.74149L154.581 20.6039H157.818V4.4585H154.368V14.9656L146.186 4.4585Z" fill="white"/>
<path d="M177.861 4.4585H165.147V20.6039H177.999V17.8046H168.616V13.8816H173.84C174.564 13.8813 175.262 13.6068 175.792 13.1133C176.368 12.6265 176.764 11.9602 176.915 11.2214H168.616V7.26211H177.861V4.4585Z" fill="white"/>
<path d="M137.125 12.2148C137.081 11.21 136.915 10.2143 136.63 9.24965C136.036 7.32749 135.015 5.56462 133.644 4.09296L132.72 3.19086L130.593 1.68632L130.098 1.40704L128.25 0.611989L126.915 0.290978L126.166 0.114372H125.887L125.758 0.0715927L124.581 0.00739036C123.861 -0.0203148 123.141 0.0299303 122.432 0.157218L121.897 0.285622C119.666 0.628531 117.59 1.64002 115.945 3.18661L116.354 2.92869C115.315 3.78717 114.417 4.802 113.69 5.93673C113.171 6.77829 112.741 7.67119 112.406 8.60123C112.09 9.54562 111.859 10.5165 111.718 11.5022C111.603 12.4944 111.603 13.4966 111.718 14.4888C111.774 15.0016 111.86 15.5107 111.975 16.0137C112.176 16.4417 112.461 17.0292 112.832 17.7761C113.175 18.5066 113.491 19.1297 113.777 19.6455C113.989 20.0828 114.324 20.4487 114.741 20.6985C115.113 20.8847 115.887 21.3648 117.062 22.1388L117.169 22.2244C118.396 23.102 119.806 23.6897 121.294 23.943V23.8788L120.584 23.6851L121.294 23.7289V23.5781C120.812 23.4755 120.338 23.3392 119.876 23.1704L120.304 23.256L119.831 23.1051L120.217 23.2121L119.228 22.6963C119.472 22.7681 119.71 22.8615 119.937 22.9756C120.346 23.2174 120.816 23.3366 121.29 23.3191V23.1693C120.732 23.0117 120.18 22.8397 119.636 22.6535C119.117 22.4523 118.626 22.1851 118.174 21.8585L119.292 22.3935L117.309 21.1298L117.825 21.6241C117.742 21.5549 117.656 21.4903 117.567 21.4305C116.762 20.8699 116.064 20.1714 115.504 19.3673L117.309 21.1298L118.297 21.7097C117.144 20.9431 116.146 19.9662 115.354 18.8301C114.963 18.2789 114.618 17.6967 114.322 17.0891L114.429 17.4326C114.243 17.0602 114.078 16.6878 113.935 16.3154L115.354 18.8301C115.196 18.3571 115.059 17.9344 114.944 17.5621C115.304 18.2809 115.751 18.9524 116.276 19.561L116.062 19.2603C116.463 19.6327 116.871 20.0193 117.287 20.4203C117.829 20.953 118.453 21.3955 119.135 21.7311L117.567 20.614L119.242 21.6027C118.095 20.7837 117.062 19.8153 116.17 18.7231L116.965 19.7547L115.59 18.1431L115.72 18.4642C115.577 18.2501 115.434 18.0426 115.292 17.8414C115.096 17.5625 114.923 17.268 114.776 16.9607C114.518 16.0012 114.468 15.5072 114.626 15.4786C114.648 15.4698 114.668 15.4553 114.683 15.4365C114.698 15.4178 114.708 15.3953 114.712 15.3716C114.769 15.5578 114.833 15.7511 114.905 15.9516L114.691 15.1351C114.992 16.1511 115.418 17.1256 115.959 18.0361C116.47 18.9618 117.188 19.7573 118.056 20.361C118.924 20.9646 119.92 21.3603 120.965 21.5171L120.537 21.3887L120.409 21.3459L120.387 21.3245C120.429 21.3103 120.472 21.3032 120.516 21.3031L120.15 21.0891L120.666 21.2175L120 20.8098L121.117 21.0238L120.344 20.7659L121.2 20.9799L121.178 20.9371L121.05 20.8729L121.178 20.8943C121.149 20.8495 121.134 20.7969 121.135 20.7434L120.685 20.5497L120.986 20.614C120.7 20.4997 120.42 20.3708 120.148 20.2277C118.99 19.5837 117.986 18.6966 117.204 17.6274L117.72 18.3764L117.01 17.5203L117.59 18.3582C117.504 18.2576 117.418 18.1506 117.332 18.0372C117.593 18.413 117.879 18.7705 118.188 19.1073V19.1287C117.705 18.6694 117.274 18.1576 116.904 17.6027C116.632 17.2161 116.367 16.8295 116.109 16.4428L116.668 17.6199L116.604 17.362L117.592 18.8012L116.95 18.3732C116.793 18.1299 116.642 17.8938 116.499 17.6648C115.499 16.1349 114.948 14.3555 114.909 12.5284C114.94 13.268 115.048 14.0023 115.23 14.7199L115.036 13.6242L115.337 14.8013L115.123 12.6526L115.208 13.0185V12.8248L115.529 14.5873L115.465 13.8789L115.723 14.8419C115.741 14.8937 115.762 14.9441 115.787 14.9928C115.418 13.783 115.309 12.509 115.466 11.254H115.53C115.537 10.9643 115.58 10.6765 115.66 10.3978C115.672 10.3442 115.694 10.2932 115.724 10.247C115.188 12.5595 115.581 14.9901 116.82 17.0153C116.194 15.893 115.794 14.6593 115.643 13.3834C115.464 12.1732 115.567 10.9381 115.943 9.77405C116.176 9.35597 116.45 8.96169 116.76 8.59692C117.164 7.8565 117.671 7.17645 118.264 6.5766C119.057 5.77222 120.005 5.13672 121.05 4.7084C122.095 4.28008 123.216 4.06783 124.346 4.0844C124.748 4.08539 125.151 4.11401 125.549 4.17003C127.389 4.39493 129.096 5.24443 130.384 6.5766C131.199 7.3632 131.845 8.30855 132.281 9.35428C132.717 10.4 132.934 11.5239 132.919 12.6568C132.937 13.7839 132.721 14.9024 132.284 15.9417C131.848 16.981 131.201 17.9186 130.384 18.6953C129.263 19.8814 127.807 20.6984 126.211 21.0377L125.588 21.2517L126.362 21.1233C126.236 21.1646 126.114 21.2147 125.996 21.2731H126.081C126.015 21.2859 125.95 21.3075 125.889 21.3373C125.683 21.4259 125.482 21.5263 125.287 21.638H125.373L125.609 21.6594L125.33 21.7022H125.458C125.393 21.7192 125.328 21.7406 125.265 21.7664V21.745H125.136L125.008 21.7878C124.996 21.787 124.985 21.7884 124.974 21.7921C124.963 21.7958 124.952 21.8016 124.944 21.8092L125.586 21.745C125.428 21.7735 125.27 21.7949 125.113 21.8092L125.629 21.8521L125.285 22.0243L125.157 22.1752L125.799 22.1324C125.07 22.2861 124.372 22.5621 123.736 22.9488L123.607 22.9275L124.784 23.2485L124.656 23.2699L124.914 23.2913L125.494 23.4411L125.021 23.5695L125.708 23.5053L125.836 23.5492C125.551 23.6491 125.279 23.735 125.02 23.8071C124.778 23.8022 124.538 23.7585 124.31 23.6776C124.003 23.6337 123.69 23.6786 123.408 23.8071L123.387 23.8499L124.16 23.9355L123.518 23.9783L124.464 24.0425L124.078 24.0853C124.108 24.0816 124.139 24.0892 124.164 24.1067H124.142L123.455 24.2565H123.606L123.585 24.2779C123.577 24.2785 123.569 24.2806 123.561 24.2843C123.554 24.288 123.547 24.2931 123.542 24.2993C123.534 24.2988 123.526 24.2966 123.518 24.2929C123.511 24.2892 123.505 24.2841 123.499 24.2779C123.485 24.3068 123.47 24.3207 123.456 24.3207L124.312 24.3635L123.517 24.5572L126.31 24.493L126.074 24.5786C126.856 24.4548 127.626 24.2607 128.373 23.9986C127.772 24.2419 127.155 24.4429 126.525 24.6C126.712 24.6001 126.899 24.5858 127.084 24.5572C128.579 24.4516 130.031 24.008 131.33 23.2599C132.629 22.5118 133.741 21.4787 134.583 20.2384C134.638 20.1705 134.688 20.099 134.733 20.0243C135.237 19.3719 135.668 18.6656 136.017 17.9184C136.859 16.1365 137.236 14.1702 137.113 12.2031L137.125 12.2148ZM117.185 18.9831L116.777 18.5316L116.949 18.9179C116.706 18.6026 116.477 18.2872 116.261 17.9719C116.133 17.8024 116.019 17.6236 115.918 17.4369C115.831 17.2507 115.752 17.0645 115.681 16.8783L117.185 18.9831ZM114.606 12.1293C114.611 12.1231 114.618 12.1179 114.625 12.1143C114.632 12.1106 114.64 12.1084 114.649 12.1079H114.67C114.641 12.6092 114.648 13.112 114.691 13.6124C114.621 13.1214 114.592 12.6252 114.606 12.1293Z" fill="white"/>
</svg>
