<svg width="136" height="19" viewBox="0 0 136 19" fill="none" xmlns="http://www.w3.org/2000/svg">
<path d="M130.801 18.1168L130.75 8.70315L126.183 16.366H123.95L119.408 8.95688V18.1168H114.765V0.355225H118.901L125.142 10.6062L131.232 0.355225H135.368L135.419 18.1168H130.801Z" fill="white"/>
<path d="M103.013 18.472C100.374 18.472 98.3191 17.7531 96.8475 16.3152C95.3927 14.8774 94.6653 12.8391 94.6653 10.2002V0.355225H99.6893V10.048C99.6893 12.8898 100.814 14.3107 103.064 14.3107C105.297 14.3107 106.413 12.8898 106.413 10.048V0.355225H111.361V10.2002C111.361 12.8391 110.625 14.8774 109.154 16.3152C107.699 17.7531 105.652 18.472 103.013 18.472Z" fill="white"/>
<path d="M86.2194 0.355225H91.2433V18.1168H86.2194V0.355225Z" fill="white"/>
<path d="M70.7325 0.355225H75.7565V14.1331H84.2312V18.1168H70.7325V0.355225Z" fill="white"/>
<path d="M62.1342 0.355225H67.1582V18.1168H62.1342V0.355225Z" fill="white"/>
<path d="M49.8086 4.33888H44.3533V0.355225H60.2625V4.33888H54.8326V18.1168H49.8086V4.33888Z" fill="white"/>
<path d="M37.4296 0.355225H42.4536V18.1168H37.4296V0.355225Z" fill="white"/>
<path d="M32.045 9.8431C31.233 9.8431 30.548 9.57245 29.9897 9.03114C29.4315 8.48984 29.1524 7.80475 29.1524 6.97588C29.1524 6.13009 29.4231 5.445 29.9644 4.92062C30.5226 4.39623 31.2161 4.13403 32.045 4.13403C32.8908 4.13403 33.5843 4.39623 34.1256 4.92062C34.6669 5.445 34.9376 6.13009 34.9376 6.97588C34.9376 7.80475 34.6585 8.48984 34.1003 9.03114C33.559 9.57245 32.8739 9.8431 32.045 9.8431ZM32.045 18.3433C31.233 18.3433 30.548 18.0726 29.9897 17.5313C29.4315 16.99 29.1524 16.3049 29.1524 15.476C29.1524 14.6303 29.4231 13.9452 29.9644 13.4208C30.5226 12.8964 31.2161 12.6342 32.045 12.6342C32.8908 12.6342 33.5843 12.8964 34.1256 13.4208C34.6669 13.9452 34.9376 14.6303 34.9376 15.476C34.9376 16.3049 34.6585 16.99 34.1003 17.5313C33.559 18.0726 32.8739 18.3433 32.045 18.3433Z" fill="white"/>
<path d="M20.6866 18.472C18.8258 18.472 17.1512 18.0829 15.6626 17.3048C14.1909 16.5098 13.0322 15.4102 12.1864 14.0062C11.3406 12.6022 10.9177 11.0122 10.9177 9.236C10.9177 7.45985 11.3406 5.86976 12.1864 4.46576C13.0322 3.06175 14.1909 1.97069 15.6626 1.19256C17.1512 0.397521 18.8258 0 20.6866 0C22.3105 0 23.7737 0.287569 25.0762 0.862705C26.3787 1.43784 27.4613 2.26671 28.324 3.34932L25.127 6.24191C23.9767 4.85482 22.5811 4.16128 20.9403 4.16128C19.9761 4.16128 19.1134 4.37272 18.3522 4.79561C17.6079 5.21851 17.0243 5.81902 16.6014 6.59714C16.1954 7.35835 15.9925 8.23797 15.9925 9.236C15.9925 10.234 16.1954 11.1221 16.6014 11.9002C17.0243 12.6614 17.6079 13.2535 18.3522 13.6764C19.1134 14.0993 19.9761 14.3107 20.9403 14.3107C22.5811 14.3107 23.9767 13.6172 25.127 12.2301L28.324 15.1227C27.4613 16.2053 26.3787 17.0342 25.0762 17.6093C23.7737 18.1844 22.3105 18.472 20.6866 18.472Z" fill="white"/>
<path d="M8.32255 0.355225V18.1168H3.29857V4.23739H0V0.355225H8.32255Z" fill="white"/>
</svg>
