<svg width="174" height="50" viewBox="0 0 174 50" fill="none" xmlns="http://www.w3.org/2000/svg">
<path fill-rule="evenodd" clip-rule="evenodd" d="M21.778 44.3391C32.8804 44.3391 41.8785 35.4569 41.8785 24.5C41.8785 13.5422 32.8804 4.66087 21.778 4.66087C10.6792 4.66087 1.6838 13.5422 1.6838 24.5C1.6838 35.456 10.6792 44.3391 21.778 44.3391ZM21.778 3C33.812 3 43.5614 12.6266 43.5614 24.5C43.5614 36.3734 33.8102 46 21.778 46C9.7521 46 0 36.3734 0 24.5C0 12.6266 9.7512 3 21.778 3ZM21.778 39.7292C21.062 39.7292 20.6307 39.2571 20.6044 38.6112C20.4476 38.9023 20.2455 39.0994 19.941 39.1594C19.6384 39.2153 19.3257 39.1797 19.0438 39.0573C18.7655 38.9472 18.5389 38.7382 18.4086 38.4714C18.2726 38.1991 18.3179 37.9187 18.4149 37.5917C18.0778 38.0665 17.5087 38.1901 17.0075 37.9608C16.3206 37.6455 16.0704 37.073 16.3523 36.42C17.2005 34.442 18.0442 32.4998 18.8961 30.5245C18.9732 30.3453 19.0384 30.1599 19.1236 29.9816C19.1997 29.823 19.2477 29.7066 19.3193 29.6107C19.3735 29.5388 19.4416 29.4782 19.5196 29.4325C18.2019 29.5749 17.5685 30.0846 17.2196 30.3104C17.1271 30.3713 17.1326 30.3802 16.7764 30.271C16.6185 30.2257 16.4488 30.2437 16.3043 30.3211C16.1428 30.4056 15.9883 30.5023 15.8421 30.6105C15.3699 30.9724 14.8878 31.3218 14.441 31.7124C14.2326 31.8951 13.9335 32.206 13.9743 32.4872C14.0069 32.7479 14.6549 33.3517 14.8488 33.5318C15.3083 33.9582 14.6132 34.7609 13.687 34.6847C13.9335 34.4303 13.9915 34.2144 13.9598 34.0227C13.8683 34.0218 13.6916 34.0388 13.5248 33.8919C13.3254 33.7154 13.4142 33.1941 13.2294 33.0167C12.9031 32.7049 11.8365 32.6763 11.1994 32.6494C10.9311 32.6386 10.6511 32.5679 10.671 32.1585C10.2659 32.1854 10.1817 32.481 10.1817 32.7479C9.83276 32.5544 9.53461 31.6264 10.8215 31.4158C10.604 31.2214 10.2433 31.1507 10.0213 31.3979C9.81192 31.0575 10.3412 30.3883 11.2936 30.7655C11.2909 30.7628 11.7223 30.2091 13.0101 31.6255C13.1723 31.5054 13.3336 31.3872 13.4813 31.2528C13.9797 30.8076 15.2358 29.6018 15.2358 29.6018C15.2358 28.9236 15.3391 27.6103 16.2517 26.8229C16.6405 26.487 17.0129 26.3087 17.8358 26.1627C17.8358 26.1627 17.438 25.5508 17.3754 25.3098C16.6577 26.014 15.2159 26.2245 15.2159 25.0366C14.0405 26.1895 12.9484 25.5678 12.9484 24.844C12.9077 25.2108 12.8235 25.5716 12.6974 25.919C12.5497 26.3078 12.0114 27.7976 10.6221 27.7976C10.5904 28.3154 10.5877 30.0183 8.92742 30.4C8.85583 30.4161 8.7643 30.4403 8.71899 30.494C8.04836 31.3128 5.26075 32.1728 4.92001 31.9408C5.13569 31.7885 5.47735 31.5869 5.53172 30.6257C5.56616 29.9915 5.63685 26.7002 5.63685 22.0642C5.63685 20.4231 5.81719 15.1072 11.174 14.3663C11.9869 14.2544 12.7862 14.3126 13.4786 14.8169C14.4211 15.5085 14.8851 16.6713 14.3305 17.9891C14.3123 18.0366 14.2987 18.0831 14.2734 18.1253C14.0849 18.4388 14.1619 18.7093 14.4075 18.9494C14.8543 19.3857 15.3754 19.6804 16.0025 19.7521C16.3976 19.7969 16.7257 19.6258 16.9876 19.3588C17.5884 18.7514 17.9962 18.0375 18.1439 17.199C18.4231 15.6062 17.9899 14.8071 17.9654 14.7569C17.5295 13.8987 16.6042 13.2698 15.5312 13.1803C15.04 12.279 13.6299 12.6356 13.6299 12.6356C13.2765 12.7108 13.1523 12.8094 13.0644 12.9805C13.0644 12.9805 12.4455 12.056 13.0282 11.6851C13.6127 11.3133 14.9168 11.1601 14.9168 11.1601C14.9168 10.5581 15.9318 10.0896 17.7651 10.4112C19.9827 10.8 20.4594 9.94898 20.4594 9.94898C20.5527 10.9899 19.7407 11.5274 19.4806 11.6726C20.3225 12.5684 21.4979 14.3583 21.778 16.898C22.0589 14.3583 23.2343 12.5684 24.0753 11.6726C23.8152 11.5274 23.0041 10.9899 23.0966 9.94898C23.0966 9.94898 23.5732 10.8 25.7908 10.4112C27.6251 10.0896 28.6401 10.5581 28.6401 11.1601C28.6401 11.1601 29.9442 11.3124 30.5278 11.6851C31.1114 12.056 30.4915 12.9805 30.4915 12.9805C30.4036 12.8094 30.2795 12.7117 29.926 12.6356C29.926 12.6356 28.5159 12.279 28.0247 13.1803C26.9517 13.2698 26.0274 13.8987 25.5915 14.7569C25.567 14.8071 25.1592 15.599 25.412 17.199C25.5452 18.0393 25.9676 18.7514 26.5693 19.3588C26.8312 19.6258 27.1584 19.796 27.5544 19.7521C28.1806 19.6804 28.7026 19.3848 29.1494 18.9494C29.3941 18.7093 29.4711 18.4388 29.2835 18.1253C29.2572 18.0831 29.2436 18.0366 29.2264 17.9891C28.6709 16.6722 29.1358 15.5076 30.0783 14.8178C30.7697 14.3135 31.57 14.2535 32.382 14.3663C37.7397 15.1072 37.9191 20.4231 37.9191 22.0642C37.9191 26.7002 37.9907 29.9915 38.0242 30.6257C38.0786 31.5869 38.4203 31.7885 38.6369 31.9408C38.2952 32.1737 35.5076 31.3128 34.837 30.494C34.7917 30.4403 34.701 30.4161 34.6294 30.4C32.9692 30.0183 32.9665 28.3154 32.9348 27.7976C31.5455 27.7976 31.0063 26.3078 30.8586 25.919C30.7325 25.5716 30.6482 25.2108 30.6075 24.844C30.6075 25.5678 29.5164 26.1895 28.341 25.0366C28.341 26.2245 26.8983 26.014 26.1814 25.3098C26.118 25.5508 25.7192 26.1627 25.7192 26.1627C26.5439 26.3087 26.9155 26.487 27.3052 26.8229C28.2169 27.6112 28.3202 28.9236 28.3202 29.6018C28.3202 29.6018 29.5771 30.8076 30.0756 31.2528C30.2224 31.3872 30.3837 31.5054 30.5468 31.6255C31.8337 30.2091 32.265 30.7628 32.2623 30.7655C33.2148 30.3883 33.744 31.0584 33.5356 31.397C33.3136 31.1507 32.952 31.2214 32.7345 31.4149C34.0214 31.6264 33.7232 32.5544 33.3752 32.7479C33.3752 32.481 33.29 32.1854 32.8858 32.1585C32.9058 32.5679 32.6248 32.6386 32.3566 32.6494C31.7195 32.6763 30.6528 32.7049 30.3266 33.0167C30.1417 33.1941 30.2314 33.7154 30.0312 33.8919C29.8653 34.0388 29.6886 34.0218 29.5962 34.0227C29.5653 34.2144 29.6233 34.4303 29.8698 34.6856C28.9428 34.7609 28.2477 33.9582 28.708 33.5318C28.9002 33.3526 29.549 32.7479 29.5817 32.4872C29.6233 32.206 29.3234 31.8951 29.1149 31.7124C28.6682 31.3218 28.1869 30.9724 27.7139 30.6105C27.5677 30.5023 27.4131 30.4056 27.2517 30.3211C27.1074 30.2439 26.9381 30.2259 26.7805 30.271C26.4243 30.3802 26.4297 30.3713 26.3364 30.3113C25.9875 30.0846 25.3549 29.5749 24.0363 29.4334C24.1261 29.4871 24.1868 29.5444 24.2366 29.6107C24.3091 29.7066 24.3572 29.823 24.4324 29.9816C24.5176 30.1608 24.5837 30.3453 24.6607 30.5245C25.5126 32.4998 26.3554 34.442 27.2037 36.4191C27.4864 37.073 27.2354 37.6464 26.5494 37.9599C26.0473 38.1901 25.4782 38.0674 25.142 37.5926C25.2389 37.9187 25.2842 38.1991 25.1474 38.4714C25.0175 38.7382 24.7911 38.9473 24.513 39.0573C24.2311 39.1797 23.9185 39.2153 23.6158 39.1594C23.3104 39.0994 23.1083 38.9023 22.9516 38.6112C22.9253 39.2571 22.4939 39.7301 21.778 39.7301V39.7292ZM56.556 30.1007C57.1644 30.1258 57.7732 30.1401 58.3821 30.1437C60.9214 30.1437 62.3986 28.9738 62.3986 26.7889C62.3986 24.4328 60.6405 23.6687 56.556 23.6687V30.1007ZM58.6005 16.0908C59.8004 16.0908 62.2491 15.9851 63.6474 15.9C63.6115 16.1533 63.5903 16.4084 63.584 16.6641C63.584 16.8129 63.6293 17.1533 63.6474 17.3862C62.3986 17.216 60.336 17.0906 59.6944 17.0906C59.2449 17.0906 57.5013 17.1309 56.556 17.216V22.5453H57.6508C59.8892 22.5453 64.5999 22.969 64.5999 26.8095C64.5999 29.9287 61.9536 31.3513 58.4728 31.3316C58.0831 31.3316 56.624 31.2689 55.6933 31.2689C55.2882 31.2689 54.7934 31.2886 54.4481 31.3316C54.5795 28.9962 54.6203 25.7685 54.6203 23.0944C54.6203 20.6972 54.6022 17.0682 54.4481 15.9009C55.8256 15.9645 58.1003 16.0908 58.6005 16.0908ZM72.8241 25.8554L71.4022 26.0659C69.8543 26.3006 68.1324 26.8301 68.1324 28.4461C68.1324 29.6752 68.823 30.3346 70.2177 30.3346C71.0804 30.3346 71.9396 30.0362 72.8241 29.1252V25.8554ZM67.0377 21.8439C67.8778 20.8262 69.4229 20.3819 70.717 20.3819C72.9736 20.3819 74.5414 21.4828 74.5414 24.1354V29.3993C74.5414 30.4824 74.777 30.7359 75.2274 30.7359C75.3815 30.7359 75.6171 30.6929 75.7449 30.6499L75.8727 31.1605C75.3715 31.4108 74.8208 31.5491 74.2595 31.5654C73.5509 31.5654 73.1014 31.2465 72.9283 30.6302L72.8014 30.1661C71.6387 31.0781 70.3708 31.5654 69.3178 31.5654C67.3603 31.5654 66.0888 30.5451 66.0888 28.7624C66.0888 26.8525 67.5325 25.9602 69.509 25.601L71.6985 25.1979C72.4344 25.0697 72.8241 24.8574 72.8241 24.328C72.8241 22.0132 71.8335 21.4201 70.1996 21.4201C68.9308 21.4201 67.982 21.7803 67.2969 23.1616H67.0377V21.8439ZM78.8207 20.6551C79.0563 20.6551 79.5067 20.613 79.8284 20.5924C79.6562 22.2031 79.6345 24.8771 79.6345 24.9846C80.538 25.0276 81.8457 25.0697 82.5399 25.0697C83.2486 25.0697 84.6034 25.0276 85.2478 24.9846C85.2478 24.8565 85.2251 22.1843 85.0575 20.5924C85.4172 20.613 85.893 20.6551 86.1477 20.6551C86.3878 20.6551 86.8382 20.613 87.1609 20.5924C86.9887 22.1843 86.9651 24.8565 86.9651 25.9602C86.9651 26.8525 86.9878 29.7173 87.1609 31.3316C86.8324 31.2896 86.5015 31.2686 86.1703 31.2689C85.8069 31.2689 85.3756 31.2895 85.0566 31.3316C85.2251 29.7173 85.2478 26.8525 85.2478 26.1752C84.3035 26.108 83.013 26.0247 82.5182 26.0247C81.9327 26.0247 80.4972 26.0659 79.6345 26.1304C79.6345 26.8525 79.6571 29.7173 79.8284 31.3316C79.5003 31.2897 79.1697 31.2688 78.8388 31.2689C78.4754 31.2689 78.044 31.2895 77.7214 31.3316C77.89 29.7173 77.9126 26.8525 77.9126 25.9602C77.9126 24.8771 77.89 22.1843 77.7214 20.5924C78.0848 20.613 78.5615 20.6551 78.8207 20.6551ZM91.1801 20.6551C91.413 20.6551 91.867 20.613 92.1851 20.5924C92.0165 22.1843 91.9984 24.8771 91.9984 25.2624H92.3428C93.0524 25.2624 96.6855 21.1845 97.0308 20.5924C97.3298 20.613 97.8219 20.6551 98.0811 20.6551C98.2986 20.6551 98.8152 20.613 99.1342 20.5924L93.9967 25.1342C94.6455 25.8975 98.0575 29.6967 99.6063 31.3316C99.1788 31.296 98.7502 31.2751 98.3213 31.2689C97.9307 31.2689 97.3489 31.2895 96.8985 31.3316C96.1046 30.1007 93.674 27.278 92.3428 25.833H91.9984C91.9984 26.6186 92.0165 29.7173 92.1851 31.3316C91.8582 31.2894 91.5288 31.2685 91.1991 31.2689C90.8393 31.2689 90.4079 31.2895 90.0817 31.3316C90.2584 29.7173 90.2811 26.8525 90.2811 25.9602C90.2811 24.8771 90.2584 22.1843 90.0817 20.5924C90.4496 20.613 90.9218 20.6551 91.1801 20.6551ZM109.944 23.2019C112.955 23.2019 114.722 22.0141 114.722 19.7628C114.722 17.6621 113.041 17.0906 110.956 17.0906C110.593 17.0906 109.344 17.1103 109.04 17.1533V23.115C109.303 23.1616 109.73 23.2019 109.944 23.2019ZM109.107 15.9654C109.858 15.9654 110.829 15.9 111.384 15.9C115.362 15.9 116.912 17.0906 116.912 19.7628C116.912 23.2243 113.964 24.3271 110.465 24.3271C109.989 24.314 109.514 24.2856 109.04 24.242V27.9131C109.04 28.9738 109.086 30.2692 109.217 31.3316C108.458 31.2489 107.692 31.2489 106.933 31.3316C107.064 28.9953 107.109 25.7694 107.109 23.0953C107.109 20.6981 107.086 17.0682 106.932 15.9C107.645 15.9206 108.613 15.9654 109.107 15.9654ZM119.271 26.1304C119.271 28.5286 120.283 30.735 122.561 30.735C124.754 30.735 126.066 28.6549 126.066 25.8115C126.066 23.52 125.162 21.2069 122.733 21.2069C120.411 21.2069 119.271 23.6051 119.271 26.1304ZM128.11 25.8975C128.11 29.1449 125.976 31.5645 122.605 31.5645C119.294 31.5645 117.227 29.1673 117.227 26.1949C117.227 22.6725 119.507 20.381 122.796 20.381C126.066 20.381 128.11 22.7146 128.11 25.8975ZM138.648 22.9045H138.389C137.635 21.6951 136.586 21.2069 135.4 21.2069C132.884 21.2069 131.68 23.606 131.68 25.9396C131.68 28.6352 133.185 30.7359 135.851 30.7359C136.735 30.7359 137.53 30.6105 138.775 29.2712L138.97 29.505L138.712 30.5451C137.676 31.2259 136.521 31.5654 135.186 31.5654C131.83 31.5654 129.637 29.2515 129.637 25.9826C129.637 22.565 132.002 20.3819 135.464 20.3819C136.586 20.3819 137.808 20.5924 139.184 21.3144L138.648 22.9045ZM149.501 22.9045H149.245C148.496 21.6951 147.442 21.2069 146.261 21.2069C143.74 21.2069 142.536 23.606 142.536 25.9396C142.536 28.6352 144.049 30.7359 146.71 30.7359C147.587 30.7359 148.387 30.6105 149.632 29.2712L149.822 29.505L149.569 30.5451C148.536 31.2259 147.374 31.5654 146.043 31.5654C142.69 31.5654 140.497 29.2515 140.497 25.9826C140.497 22.565 142.862 20.3819 146.324 20.3819C147.442 20.3819 148.668 20.5924 150.044 21.3144L149.501 22.9045ZM152.688 31.2689C152.556 31.2689 152.17 31.3092 151.998 31.3316C152.17 29.7173 152.193 26.8525 152.193 25.9602C152.193 24.8762 152.17 22.1843 151.998 20.5924C152.365 20.613 152.834 20.6551 153.093 20.6551C153.329 20.6551 153.779 20.613 154.106 20.5924C153.934 22.1843 153.915 24.8565 153.915 25.9602C153.915 26.8525 153.933 28.103 153.956 28.6979C155.136 27.278 159.352 21.9935 160.365 20.5924C160.597 20.6327 160.747 20.6551 161.005 20.6551C161.132 20.6551 161.583 20.613 161.827 20.5924C161.651 22.1843 161.628 24.8565 161.628 25.9602C161.628 26.8525 161.651 29.7173 161.827 31.3307C161.499 31.2891 161.168 31.2682 160.837 31.268C160.469 31.268 160.042 31.2886 159.716 31.3307C159.888 29.7182 159.911 26.8516 159.911 25.9602C159.911 24.9908 159.897 24.0214 159.869 23.0523C158.403 24.5179 154.533 29.5265 153.31 31.3307C153.106 31.2871 152.897 31.2661 152.688 31.268V31.2689ZM164.865 31.2689C164.635 31.2806 164.406 31.3016 164.178 31.3316C164.347 29.7173 164.369 26.8525 164.369 25.9602C164.369 24.8762 164.347 22.1843 164.179 20.5924C164.542 20.613 165.011 20.6551 165.269 20.6551C165.506 20.6551 165.96 20.613 166.282 20.5924C166.11 22.1843 166.09 24.8565 166.09 25.9602C166.09 26.8525 166.109 28.103 166.132 28.6979C167.314 27.278 171.524 21.9935 172.537 20.5924C172.773 20.6327 172.923 20.6551 173.183 20.6551C173.309 20.6551 173.763 20.613 174 20.5924C173.831 22.1843 173.808 24.8565 173.808 25.9602C173.808 26.8525 173.831 29.7173 174 31.3307C173.672 31.2888 173.341 31.2679 173.009 31.268C172.646 31.268 172.215 31.2886 171.896 31.3307C172.068 29.7182 172.087 26.8516 172.087 25.9602C172.087 24.8574 172.069 23.5002 172.046 23.0523C170.583 24.5179 166.709 29.5265 165.483 31.3307C165.28 31.2869 165.073 31.2659 164.865 31.268V31.2689Z" fill="#595959"/>
</svg>
