<svg width="171" height="50" viewBox="0 0 171 50" fill="none" xmlns="http://www.w3.org/2000/svg">
<path d="M72.6098 30.277V9.10977H64.9077V11.6101C64.9077 15.998 64.7053 19.1589 64.5006 20.8933C64.2458 24.107 63.7867 27.9826 60.8783 29.7695C59.5523 30.5318 58.2251 30.6851 56.7966 30.7893L56.0842 27.7288C56.5965 27.6284 57.8697 27.4225 58.6322 27.0142C59.7046 26.454 60.5198 24.9257 60.9308 22.2685C61.132 20.9459 61.4396 18.4982 61.4396 11.4077V6.0001H76.2317V30.277H72.6098Z" fill="#33BBFF"/>
<path d="M120.16 30.2769V18.8525H109.65V30.2769H106.187V6H109.65V15.8924H120.16V6H123.628V30.2769H120.16Z" fill="#33BBFF"/>
<path d="M146.121 30.2769V11.1013H146.068L136.277 30.2769H132.147V6H135.612V25.2284H135.716L145.508 6H149.642V30.2769H146.121Z" fill="#33BBFF"/>
<path d="M163.875 8.95644V30.2769H160.403V8.95644H153.773V6H170.505V8.95644H163.875Z" fill="#33BBFF"/>
<path d="M86.3556 21.1468L90.4494 7.19389H90.5216L94.7246 21.1468H86.3556ZM87.8874 6.04428L80.1915 30.2769H83.5649L85.5197 24.0467H95.6311L97.5153 30.2769H101.25L93.3613 6.04428H87.8874Z" fill="#33BBFF"/>
<path d="M28.8784 31.3189C28.5587 30.1656 28.1702 29.0407 27.7073 27.9545C28.2766 27.1134 28.9146 26.3237 29.6077 25.586C30.0437 26.4857 30.4368 27.4104 30.7821 28.3581C30.0456 29.269 29.4066 30.2613 28.8784 31.3189ZM23.098 31.0335C22.676 29.8965 22.1582 28.807 21.5604 27.7691C22.0177 26.8447 22.5313 25.9533 23.098 25.0995C23.6642 25.9533 24.1778 26.8447 24.6352 27.769C24.0373 28.807 23.5196 29.8965 23.098 31.0335ZM17.3169 31.3188C16.7888 30.2611 16.1497 29.269 15.4133 28.3579C15.7588 27.4103 16.1516 26.4857 16.5876 25.586C17.2808 26.3237 17.9188 27.1134 18.4879 27.9545C18.0252 29.0407 17.6366 30.1656 17.3169 31.3188ZM19.4808 20.816C20.1514 21.4478 20.7868 22.1158 21.3823 22.8192C20.829 23.5919 20.3159 24.3944 19.8451 25.2247C19.2575 24.4742 18.6235 23.7618 17.9438 23.0952C18.4214 22.3106 18.9354 21.5509 19.4808 20.816ZM23.0977 16.7758C23.7584 17.3927 24.3923 18.0375 24.995 18.7113C24.3303 19.3288 23.6977 19.9797 23.0977 20.6605C22.4976 19.9797 21.8654 19.3288 21.2004 18.7113C21.803 18.0375 22.4369 17.3925 23.0977 16.7758ZM28.2517 23.0952C27.5719 23.7621 26.9381 24.4742 26.3506 25.225C25.8797 24.3945 25.3662 23.5922 24.8134 22.8192C25.4089 22.1158 26.044 21.4478 26.7146 20.8163C27.26 21.5511 27.7742 22.3106 28.2517 23.0952ZM43.4286 27.7307C39.8238 27.7331 36.6323 29.4959 34.6624 32.2042C34.4454 31.112 34.176 30.0387 33.8525 28.9885C36.3039 26.538 39.689 25.0219 43.4286 25.02L46.1568 25.0008L46.1622 22.3114L43.4286 22.3091C39.3907 22.3106 35.6997 23.787 32.8569 26.2243C32.5008 25.3575 32.1061 24.5115 31.6794 23.6845C34.9109 21.1294 38.9899 19.5996 43.4286 19.5983L46.1347 19.6001L46.1622 16.8926L43.4286 16.8874C38.5028 16.889 33.9631 18.5351 30.3225 21.3036C29.8402 20.5353 29.3319 19.7849 28.7891 19.0618C32.8665 15.9964 37.935 14.1782 43.4286 14.1768L46.1622 14.1816V11.4711L43.4286 11.4658C37.282 11.4672 31.6158 13.5174 27.0692 16.9665C26.465 16.2875 25.8313 15.6362 25.1728 15.0098C30.2178 11.0943 36.5486 8.75639 43.4286 8.75503L46.1622 8.76V6.04949L43.4286 6.04433C35.7331 6.04572 28.6669 8.72543 23.0977 13.1936C17.5286 8.72543 10.4623 6.04572 2.7665 6.04433L0.0332283 6.04949V8.76L2.7665 8.75503C9.64692 8.75639 15.9777 11.0943 21.0224 15.01C20.3641 15.6362 19.7304 16.2875 19.1264 16.9665C14.5797 13.5174 8.91334 11.4672 2.7665 11.4658L0.0332283 11.4711V14.1816L2.7665 14.1768C8.2605 14.1782 13.3291 15.9964 17.4065 19.0618C16.8634 19.7849 16.3553 20.5353 15.873 21.3036C12.2326 18.5351 7.69261 16.889 2.7665 16.8874L0.0332283 16.8926L0.0606887 19.6001L2.7665 19.5983C7.20543 19.5996 11.2848 21.1294 14.516 23.6845C14.0893 24.5118 13.6947 25.3576 13.3388 26.2243C10.4958 23.787 6.80471 22.3106 2.7665 22.3091L0.0332283 22.3114L0.0385379 25.0008L2.7665 25.02C6.5063 25.0219 9.89166 26.538 12.3429 28.9888C12.0196 30.0387 11.7501 31.112 11.5333 32.2042C9.56318 29.4959 6.3714 27.7331 2.7665 27.7307L0 27.7406V30.4453L2.7665 30.4415C7.25503 30.4453 10.8924 34.0842 10.8924 38.5738L10.9012 43.9803L13.6143 44L13.6114 42.5474L13.6164 38.5738C13.6164 36.1983 13.9023 33.8912 14.4271 31.6762C15.6245 33.6973 16.3142 36.0543 16.3142 38.5738L16.2876 43.9803H16.3227H19.0159H19.0403L19.0303 40.4779L19.038 38.5738C19.038 35.968 19.4509 33.4596 20.2072 31.1051C21.1898 33.3977 21.7357 35.9216 21.7357 38.5738L21.7336 43.9803H21.7684H24.4269H24.4617L24.4595 38.5738C24.4595 35.9216 25.0056 33.3975 25.9881 31.1048C26.7446 33.4594 27.1574 35.968 27.1574 38.5738L27.1652 40.4558L27.1553 43.9803H27.1796H29.8728H29.9077L29.8813 38.5738C29.8813 36.0546 30.571 33.6973 31.7683 31.6764C32.2929 33.8912 32.5789 36.1986 32.5789 38.5738L32.5841 42.5662L32.5814 44L35.2942 43.9803L35.3028 38.5738C35.3028 34.0842 38.9406 30.4453 43.4286 30.4415L46.1953 30.4453V27.7406L43.4286 27.7307Z" fill="#33BBFF"/>
</svg>
