<svg width="81" height="30" viewBox="0 0 81 30" fill="none" xmlns="http://www.w3.org/2000/svg">
<path d="M29.71 5H22.8041L29.9705 15.0206L22.8049 25.0412H29.7091L36.8764 15.0206L29.71 5ZM28.9417 23.3494H25.9906L31.9471 15.0206L25.9906 6.69098H28.9417L34.899 15.0206L28.9417 23.3494ZM34.5307 8.97735L37.9837 13.8056L44.2799 5H37.3749L34.5307 8.97735ZM34.5299 21.0647L37.3757 25.0412H44.2808L37.9845 16.2365L34.5315 21.0647H34.5299Z" fill="#566775"/>
<path d="M24.9546 19.3103L28.0225 15.0206L24.9546 10.731H18.5848L21.6536 15.0206L18.5856 19.3103H24.9554H24.9546ZM23.4757 15.0206L21.5217 12.2883H24.2439L26.1938 15.0139L26.1988 15.0206L26.1938 15.0273L24.2448 17.7529H21.5225L23.4757 15.0206Z" fill="#566775"/>
<path d="M56.3309 5H45.1788V10.9088H50.8663V25.0412H56.3309V10.9088H62.0184V5H56.3309ZM12.2853 12.6132H5.46458V5H0V25.0412H5.46458V17.4272H12.2853V25.0412H17.7499V5H12.2853V12.6132ZM74.7263 14.7384L80.7136 5H75.2498L70.6337 12.5071H68.8834V5H63.418V25.0412H68.8834V17.3212H70.8341L75.5354 25.0412H81L74.7263 14.7384Z" fill="#00672D"/>
</svg>
