<svg width="105" height="30" viewBox="0 0 105 30" fill="none" xmlns="http://www.w3.org/2000/svg">
<path d="M82.6926 22.5481L82.8809 25.6283C82.3763 25.8806 81.0885 26.0049 80.4257 26.0049C77.1045 26.0049 74.751 23.9226 74.6568 20.2662H78.155C78.209 20.9567 78.5281 21.5994 79.0454 22.06C79.5628 22.5204 80.2382 22.7628 80.9303 22.7364C81.522 22.7235 82.1115 22.6604 82.6926 22.5481ZM35.1482 25.7866H38.6351V6.30713H35.1482V25.7866ZM65.9206 13.4692C67.585 13.4692 68.967 14.2863 69.5958 15.5103L72.5481 13.8458C71.4184 11.5864 68.9068 10.1066 65.9206 10.1066C64.8623 10.0845 63.8104 10.2767 62.8282 10.6716C61.846 11.0664 60.9538 11.6559 60.2053 12.4044C59.4568 13.1529 58.8673 14.0452 58.4725 15.0273C58.0776 16.0095 57.8854 17.0614 57.9075 18.1198C57.9075 22.6761 61.3981 26.0991 65.9508 26.0991C68.7712 26.0991 71.2 24.8113 72.5368 22.7702L69.6146 20.9779C69.1947 21.5487 68.641 22.0075 68.0021 22.3141C67.3632 22.6207 66.6588 22.7657 65.9508 22.7364C65.3445 22.7436 64.7432 22.6288 64.1823 22.3988C63.6215 22.1687 63.1127 21.8281 62.6861 21.3975C62.2596 20.9667 61.9241 20.4545 61.6995 19.8915C61.4751 19.3284 61.3662 18.7258 61.3792 18.1198C61.3792 15.4838 63.296 13.4692 65.9356 13.4692M33.1599 17.4306C33.1681 16.4615 32.9822 15.5005 32.6133 14.6042C32.2442 13.708 31.6997 12.8947 31.0116 12.212C30.3235 11.5295 29.5057 10.9917 28.6063 10.63C27.7071 10.2684 26.7446 10.0904 25.7755 10.1066C24.7341 10.0954 23.7008 10.2924 22.7363 10.686C21.7718 11.0793 20.8958 11.6614 20.1593 12.398C19.4226 13.1345 18.8406 14.0106 18.4472 14.9751C18.0537 15.9395 17.8567 16.9728 17.8678 18.0143C17.8487 19.0713 18.041 20.1217 18.4337 21.1034C18.8262 22.085 19.4109 22.9783 20.1536 23.7308C20.8962 24.4833 21.7819 25.0798 22.7582 25.4852C23.7347 25.8906 24.7823 26.0967 25.8396 26.0916C29.014 26.0916 31.5896 24.8338 32.7194 22.7628L29.9252 20.9703C29.2022 22.1639 27.6319 22.9172 25.9035 22.9172C23.422 22.9172 21.7238 21.4109 21.3471 18.9294H33.0206C33.1061 18.4319 33.1476 17.9278 33.1448 17.4232M21.4639 16.2671C21.9986 14.2562 23.4747 12.9985 25.5797 12.9985C27.6847 12.9985 29.2888 14.3504 29.4771 16.2671H21.4639ZM55.9229 17.4306C55.9311 16.4615 55.7452 15.5005 55.3763 14.6042C55.0074 13.708 54.4627 12.8947 53.7746 12.212C53.0864 11.5295 52.2687 10.9917 51.3695 10.63C50.4703 10.2684 49.5077 10.0904 48.5386 10.1066C47.497 10.0954 46.4637 10.2924 45.4994 10.686C44.5349 11.0793 43.6587 11.6614 42.9223 12.398C42.1858 13.1345 41.6037 14.0106 41.2102 14.9751C40.8168 15.9395 40.6198 16.9728 40.6308 18.0143C40.6112 19.0715 40.8033 20.122 41.1956 21.104C41.588 22.0858 42.1727 22.9793 42.9156 23.732C43.6583 24.4845 44.544 25.0809 45.5208 25.4862C46.4974 25.8915 47.5452 26.0972 48.6026 26.0916C51.7771 26.0916 54.3526 24.8338 55.4823 22.7628L52.6846 20.9703C51.9653 22.1639 50.3913 22.9172 48.6667 22.9172C46.1813 22.9172 44.4869 21.4109 44.1103 18.9294H55.7836C55.8702 18.432 55.9131 17.928 55.9116 17.4232M44.2383 16.2633C44.773 14.2525 46.2491 12.9948 48.3541 12.9948C50.459 12.9948 52.0632 14.3466 52.2515 16.2633H44.2383ZM99.5248 17.4306C99.5325 16.4618 99.3462 15.5012 98.977 14.6054C98.608 13.7096 98.0633 12.8966 97.3752 12.2146C96.687 11.5324 95.8694 10.9948 94.9705 10.6335C94.0714 10.2721 93.1092 10.0943 92.1406 10.1103C91.0991 10.0997 90.0661 10.297 89.1019 10.6907C88.1376 11.0844 87.2617 11.6665 86.5254 12.4029C85.7889 13.1393 85.2068 14.0152 84.8131 14.9795C84.4195 15.9437 84.2222 16.9767 84.2327 18.0181C84.2142 19.0749 84.4068 20.1246 84.7996 21.1059C85.1924 22.0871 85.7773 22.9801 86.5199 23.7321C87.2626 24.4842 88.148 25.0804 89.1242 25.4855C90.1002 25.8907 91.1476 26.0967 92.2045 26.0916C95.3752 26.0916 97.9546 24.8338 99.0843 22.7628L96.2864 20.9703C95.5634 22.1639 93.9931 22.9172 92.2647 22.9172C89.7832 22.9172 88.0887 21.4109 87.7122 18.9294H99.3855C99.4722 18.432 99.515 17.928 99.5135 17.4232M87.8402 16.2633C88.375 14.2525 89.851 12.9948 91.956 12.9948C94.0609 12.9948 95.6613 14.3466 95.8534 16.2633H87.8402ZM101.513 25.7827H105V6.30713H101.513V25.7827ZM11.583 22.1791C10.6752 22.7249 9.62944 22.9982 8.57048 22.9661C7.39863 22.9928 6.24906 22.6431 5.29067 21.9681C4.36077 21.2882 3.7113 20.2918 3.46436 19.1666L0 19.69C0.182481 20.9259 0.681954 22.0935 1.44976 23.079C2.22268 24.0555 3.23065 24.8199 4.3794 25.3008C5.64737 25.8381 7.01274 26.1073 8.38981 26.0916C9.73787 26.1055 11.076 25.8613 12.3324 25.3723C13.4756 24.9368 14.4745 24.1908 15.2168 23.2183C15.8571 22.3618 16.2281 21.3342 16.2824 20.2662H12.8219C12.7863 20.6616 12.6549 21.0425 12.439 21.3758C12.2232 21.7092 11.9294 21.9849 11.583 22.1791Z" fill="#00223A"/>
<path d="M78.1327 18.9369H74.6458V13.7518V6.30714H78.1327V10.4228H82.7229V13.7518H78.1327V18.9369ZM15.4392 16.8018C14.9221 16.1046 14.2421 15.5447 13.4585 15.1713C12.6305 14.7948 11.7728 14.4875 10.8941 14.2525L7.26404 13.2132C6.49803 13.0429 5.76525 12.7478 5.09506 12.3396C4.83186 12.172 4.61765 11.9378 4.47413 11.6607C4.33064 11.3836 4.26295 11.0734 4.27792 10.7618C4.27611 10.2469 4.46682 9.74999 4.81263 9.36847C5.20164 8.94498 5.69122 8.62635 6.23604 8.44227C6.84483 8.22154 7.49055 8.12053 8.1377 8.14471C9.17041 8.14575 10.1758 8.47698 11.0071 9.0899C11.8226 9.68442 12.3856 10.5632 12.5848 11.5525L16.1585 10.9614C15.9009 9.7884 15.3766 8.69043 14.6259 7.7531C13.8972 6.86517 12.959 6.1729 11.8958 5.73842C10.7205 5.25826 9.46367 5.00892 8.19422 5.00417C6.89952 4.9659 5.61064 5.19137 4.40594 5.66693C3.3547 6.08167 2.44128 6.78374 1.77004 7.69288C1.10283 8.63288 0.758025 9.76378 0.787202 10.9162C0.787202 12.4752 1.219 13.635 2.08258 14.3957C3.01158 15.1908 4.11036 15.7627 5.29463 16.0676L10.5438 17.619C11.1892 17.7874 11.7838 18.1106 12.2761 18.5603C12.382 18.6757 12.4755 18.802 12.5547 18.9369H16.2488C16.1768 18.1652 15.8969 17.4273 15.4392 16.8018Z" fill="#E83A50"/>
</svg>
