<svg width="131" height="30" viewBox="0 0 131 30" fill="none" xmlns="http://www.w3.org/2000/svg">
<path d="M34.7468 23.4104C34.4952 23.3799 33.9538 23.2426 33.5497 23.1054C31.064 22.3048 29.1426 20.2461 28.4106 17.608C28.1666 16.7311 28.0751 15.0232 28.22 14.0396C28.6775 10.9058 30.9725 8.32101 34.0148 7.49753C34.6705 7.32217 34.884 7.29929 36.0811 7.30692C37.2019 7.30692 37.5146 7.32979 38.0254 7.46704C39.2911 7.81015 41.0372 8.86999 41.4032 9.53334C41.67 10.0061 41.7082 10.5703 41.5023 11.0354C41.2812 11.5234 41.0829 11.7369 40.6178 11.9504C39.9316 12.2783 39.2911 12.1563 38.5363 11.5692C37.8729 11.0583 37.3773 10.8448 36.653 10.7457C34.1825 10.4254 32.0781 12.1334 31.735 14.741C31.5444 16.1745 31.979 17.5851 32.9321 18.622C33.8242 19.5828 34.7315 19.9869 35.9972 19.9869C36.9046 19.9869 37.6975 19.7353 38.5058 19.1939C39.2454 18.7059 39.5427 18.5915 40.0155 18.6297C41.0982 18.7212 41.7997 19.781 41.4947 20.8866C41.2354 21.8702 39.2682 23.0368 37.3087 23.3799C36.6225 23.5019 35.4864 23.5171 34.7468 23.4104Z" fill="#E54724"/>
<path d="M48.6225 23.4153C45.4124 22.9121 42.9649 20.7085 42.1872 17.6129C41.7068 15.699 41.8898 13.3887 42.6599 11.7342C44.0247 8.7834 46.9298 7.10595 50.4143 7.2737C52.8389 7.39569 54.8671 8.37166 56.2548 10.1101C57.6807 11.8867 58.2906 14.2961 57.9323 16.7055C57.4138 20.129 55.1416 22.5842 51.8325 23.3085C51.192 23.4534 49.2706 23.5144 48.6225 23.4153ZM51.2682 19.8622C52.0002 19.641 52.6712 19.2369 53.1897 18.688C55.439 16.2938 54.5698 12.0239 51.6114 10.987C49.8653 10.3693 48.0201 10.7658 46.7925 12.0087C44.6195 14.197 45.2218 18.2305 47.9134 19.5572C48.897 20.0452 50.2237 20.1672 51.2682 19.8622Z" fill="#E54724"/>
<path d="M109.205 23.4472C107.237 23.0812 105.911 22.4255 104.698 21.2132C103.707 20.2143 102.975 18.9257 102.594 17.5075C102.411 16.8137 102.388 16.6231 102.388 15.3726C102.388 14.1298 102.411 13.9315 102.594 13.2377C103.028 11.5984 104.05 9.99716 105.316 8.98307C106.109 8.34259 107.375 7.70211 108.328 7.46574C109.296 7.22175 111.309 7.22175 112.216 7.47337C113.314 7.77073 114.656 8.50271 115.342 9.18894C115.678 9.53205 115.838 9.93616 115.838 10.4623C115.83 11.6212 114.496 12.4752 113.436 11.9872C113.269 11.911 112.864 11.6594 112.529 11.4154C111.766 10.874 111.317 10.7368 110.272 10.7291C109.632 10.7291 109.365 10.7596 108.961 10.8969C107.565 11.3772 106.421 12.643 106.04 14.1527C105.895 14.7398 105.895 16.0055 106.04 16.5926C106.444 18.1785 107.779 19.5738 109.205 19.9017C109.395 19.9475 109.837 19.9856 110.196 19.9856C111.202 19.9856 111.835 19.7721 112.887 19.0859C113.566 18.6436 113.993 18.5369 114.542 18.6818C115.952 19.0554 116.212 20.9463 114.976 21.8689C113.535 22.944 112.216 23.4091 110.424 23.4548C109.86 23.4701 109.311 23.4701 109.205 23.4472Z" fill="#E54724"/>
<path d="M60.9014 23.2706C60.5507 23.1868 60.2381 22.9961 59.9712 22.714C59.4756 22.1955 59.4908 22.4624 59.4908 15.3714C59.4908 8.28037 59.4756 8.54724 59.9712 8.02876C60.3601 7.62464 60.7565 7.44928 61.2827 7.44928C61.8469 7.4569 62.2357 7.63989 62.6551 8.105C62.8229 8.288 64.3173 10.2476 65.9719 12.4587L68.9837 16.477L69.0218 12.6112C69.0523 9.86632 69.0828 8.67686 69.1514 8.53962C69.3954 7.99063 69.9825 7.5484 70.6001 7.44165C71.3473 7.31965 72.2852 7.87626 72.5368 8.59299C72.6283 8.83698 72.6435 10.0569 72.6435 15.3714C72.6435 20.6858 72.6283 21.9058 72.5368 22.1498C72.4834 22.3175 72.2852 22.592 72.1022 22.775C71.3702 23.507 70.1807 23.4841 69.5098 22.714C69.3878 22.5768 67.9162 20.6325 66.2387 18.406L63.1888 14.3497L63.1507 18.1392L63.1126 21.9287L62.9296 22.2947C62.7085 22.7445 62.312 23.08 61.824 23.2249C61.4199 23.3469 61.2598 23.3545 60.9014 23.2706Z" fill="#E54724"/>
<path d="M76.3488 23.2492C76.021 23.1577 75.6321 22.8985 75.4262 22.6316C75.0298 22.136 75.045 22.38 75.045 15.3576C75.045 9.18916 75.0526 8.8003 75.1899 8.51056C75.4949 7.83958 76.1048 7.44309 76.8368 7.45072C77.4087 7.45834 77.8128 7.65659 78.2169 8.1217C78.3846 8.30469 79.8562 10.249 81.4879 12.4297C83.1272 14.6104 84.4844 16.3945 84.5226 16.3945C84.5531 16.4022 84.5759 14.7324 84.5759 12.6889C84.5759 10.3024 84.6064 8.8613 84.6598 8.6783C84.7589 8.32757 85.1859 7.82433 85.5595 7.63371C86.4593 7.18385 87.5801 7.54984 87.9995 8.43431C88.1596 8.77743 88.1596 8.80792 88.1596 15.3728C88.1596 21.9377 88.1596 21.9682 87.9995 22.3114C87.6868 22.9747 86.8557 23.4169 86.1543 23.3026C85.3613 23.173 85.3994 23.2111 81.9454 18.6134C80.1841 16.2649 78.7201 14.3435 78.6896 14.3435C78.6515 14.3435 78.6286 16.0514 78.6286 18.1406V21.9377L78.4304 22.3342C78.2016 22.7993 77.8662 23.0815 77.3629 23.234C76.9588 23.3559 76.7224 23.3559 76.3488 23.2492Z" fill="#E54724"/>
<path d="M91.5674 23.2194C91.3234 23.1432 91.0794 22.9907 90.8659 22.7696C90.2635 22.1749 90.2864 22.4798 90.3093 15.1753L90.3322 8.74005L90.4999 8.41981C90.721 8.00807 91.1556 7.65733 91.6207 7.52009C92.1697 7.35234 100.305 7.35234 100.847 7.51246C101.807 7.8022 102.303 8.73242 102.029 9.73127C101.914 10.1354 101.335 10.7149 100.931 10.8292C100.732 10.8826 99.4971 10.9131 97.2936 10.9131H93.9539V12.2474V13.5818H96.3405C98.9939 13.5818 99.0701 13.597 99.5734 14.1231C100.504 15.1067 100 16.7232 98.6736 17.0053C98.4525 17.051 97.3774 17.0891 96.127 17.0891H93.9539V18.4616V19.8341H97.2936C99.4971 19.8341 100.732 19.8646 100.931 19.9179C101.335 20.0323 101.914 20.6118 102.029 21.0159C102.227 21.7326 101.998 22.5256 101.48 22.9221C100.931 23.3338 100.854 23.3414 96.2108 23.3338C92.6577 23.3338 91.8724 23.3109 91.5674 23.2194Z" fill="#E54724"/>
<path d="M122.879 23.234C122.406 23.0815 122.04 22.7689 121.819 22.3267L121.628 21.9378V16.4251V10.9124H119.897C117.923 10.9124 117.77 10.8743 117.267 10.3177C116.512 9.47899 116.756 8.15229 117.762 7.61093L118.083 7.44318L123.222 7.42031C129.017 7.39744 128.902 7.38981 129.466 7.93879C129.84 8.29716 130.061 8.92239 129.985 9.40275C129.878 10.0585 129.367 10.6761 128.795 10.8362C128.651 10.8819 127.781 10.9124 126.874 10.9124H125.212V16.4251C125.212 21.6023 125.197 21.9455 125.067 22.2352C124.693 23.051 123.702 23.5085 122.879 23.234Z" fill="#E54724"/>
<path d="M9.95133 23.3853C6.94718 22.8135 4.40814 20.5947 3.42455 17.6973C3.02043 16.5078 2.98231 16.058 3.00518 12.9166L3.02806 10.6825C3.02806 8.98495 4.6012 7.42188 6.31677 7.42188H9.06168C9.59541 7.42188 10.2054 7.87936 10.2054 8.37497L10.2334 11.8872C10.2716 15.204 10.2792 15.4632 10.4164 15.6843C10.6071 16.0046 10.9578 16.1952 11.3467 16.1952C11.5983 16.1952 11.766 16.1342 12.0863 15.9131C12.742 15.4632 13.3596 15.4632 13.9086 15.9283C14.2059 16.1799 14.3508 16.5231 14.3508 16.9729C14.3508 17.4228 14.2136 17.682 13.7713 18.0709C11.6898 19.9008 8.32726 18.8105 7.60291 16.0885C7.51141 15.7682 7.48854 15.0667 7.48854 12.9013V10.0524H6.88862C6.43114 10.0524 5.77297 10.4337 5.77297 11.0055L5.75009 13.1072C5.72722 15.7453 5.77297 16.2104 6.16183 17.1635C6.71081 18.5131 7.82403 19.6797 9.12023 20.2516C9.85984 20.5794 10.4469 20.6938 11.339 20.6938C12.559 20.7014 13.3138 20.4727 14.5414 19.7178C14.9608 19.4586 15.037 19.4433 15.4717 19.4662C15.9978 19.4967 16.257 19.6416 16.5391 20.0609C16.745 20.3659 16.8212 20.7319 16.7526 21.0979C16.623 21.7918 15.0142 22.8135 13.3977 23.2328C12.4446 23.4768 10.8129 23.5455 9.95133 23.3853Z" fill="#E54724"/>
<path d="M17.2031 18.676C17.0429 18.5769 16.7989 18.3557 16.6769 18.1728C16.2271 17.5323 16.4101 16.6097 17.0811 16.1369C17.3632 15.9387 17.4699 15.9082 17.9274 15.9082C18.3849 15.9082 18.4916 15.9387 18.7738 16.1369C19.2007 16.4419 19.4142 16.8613 19.4142 17.395C19.4066 17.8983 19.2389 18.2261 18.8195 18.5692C18.5679 18.7675 18.4535 18.8056 18.0189 18.8285C17.5995 18.8437 17.4547 18.8209 17.2031 18.676Z" fill="#E54724"/>
<path d="M13.1712 14.4502C12.424 14.0385 12.0961 13.2074 12.4011 12.4907C12.5307 12.1933 12.9424 11.7892 13.2322 11.6825C13.9108 11.4232 14.719 11.7053 15.085 12.3306C15.2604 12.6279 15.2832 12.7347 15.2527 13.1617C15.2222 13.703 15.1079 13.9165 14.6275 14.2977C14.3988 14.4884 14.2691 14.5341 13.8727 14.5494C13.5448 14.5646 13.3313 14.5341 13.1712 14.4502Z" fill="#E54724"/>
<path d="M17.6714 14.435C16.6954 13.9699 16.5048 12.7118 17.2978 11.9646C17.5875 11.6978 17.862 11.5986 18.3424 11.5986C19.7911 11.6063 20.34 13.4896 19.1353 14.3207C18.7465 14.5952 18.1136 14.6409 17.6714 14.435Z" fill="#E54724"/>
<path d="M23.287 14.4102C22.189 13.8688 22.189 12.2981 23.287 11.7415C23.7597 11.4975 24.4612 11.5585 24.85 11.8787C25.2923 12.2295 25.4448 12.5497 25.4448 13.0987C25.4448 13.4952 25.4143 13.6172 25.216 13.8917C24.7662 14.5245 23.9656 14.7457 23.287 14.4102Z" fill="#E54724"/>
<path d="M13.3322 10.2252C12.7375 10.0422 12.2953 9.42464 12.2877 8.76892C12.2877 7.83107 13.2255 7.09147 14.1176 7.32021C14.8877 7.52608 15.2994 8.09794 15.2461 8.89854C15.2232 9.29502 15.1774 9.43227 14.9868 9.66864C14.5751 10.1871 13.9346 10.4006 13.3322 10.2252Z" fill="#E54724"/>
<path d="M17.8319 10.2249C17.4812 10.1182 17.1152 9.79794 16.9398 9.42433C16.3908 8.28062 17.4659 6.99966 18.7011 7.32752C19.3721 7.51052 19.9135 8.34924 19.7838 9.02022C19.6161 9.92756 18.7087 10.4842 17.8319 10.2249Z" fill="#E54724"/>
<path d="M17.8263 5.91751C16.919 5.59727 16.5225 4.46881 17.041 3.67584C17.9712 2.27288 20.1595 3.24123 19.7477 4.87292C19.6334 5.34566 19.153 5.82602 18.6803 5.94039C18.238 6.05476 18.1999 6.05476 17.8263 5.91751Z" fill="#E54724"/>
</svg>
