<svg width="104" height="30" viewBox="0 0 104 30" fill="none" xmlns="http://www.w3.org/2000/svg">
<path d="M10.7556 5H11.7447C12.9357 5.0965 14.213 5.1676 15.2326 5.85832C15.8129 6.23669 16.1087 7.00994 15.8611 7.66637C15.5348 8.57167 14.58 9.33095 13.5833 9.14939C13.0208 8.99194 12.551 8.62627 12.1054 8.2644C11.3804 7.67145 10.6807 7.02263 9.81989 6.62649C9.14441 6.29129 8.35084 6.31033 7.62965 6.4665C6.34344 6.77377 5.32768 7.75017 4.67632 8.86497C3.8726 10.2769 3.45487 11.9097 3.49296 13.5337C3.49042 15.4954 4.04147 17.4774 5.15754 19.1C6.28504 20.7405 8.02834 21.9759 9.9875 22.381C11.3753 22.6971 12.8773 22.6222 14.1813 22.0293C14.759 21.7753 15.2986 21.4414 15.8116 21.0757C16.0846 21.2357 16.3627 21.3855 16.6534 21.51C15.3494 22.9879 13.6595 24.1471 11.7638 24.7185C9.77416 25.314 7.57251 25.2797 5.64002 24.49C3.53105 23.6418 1.8322 21.9086 0.910376 19.8454C0.349169 18.6442 0.0837995 17.3263 0 16.0071V15.1208C0.0863414 13.893 0.33774 12.669 0.841811 11.5415C1.72299 9.51508 3.28218 7.81239 5.17276 6.67858C6.85131 5.65138 8.79521 5.10158 10.7556 5Z" fill="black"/>
<path d="M31.4012 5H31.4126C31.5739 5.05587 31.7313 5.11554 31.8913 5.17268C31.7694 6.23161 31.6716 7.29435 31.5447 8.35329C33.3679 7.02772 35.2839 5.68056 37.5249 5.19173C37.9528 5.09142 38.3896 5.04825 38.8251 5H39.6187C40.4529 5.07111 41.3061 5.19554 42.054 5.59422C42.939 6.02592 43.6309 6.7979 44.0233 7.69304C44.5959 8.95893 44.6924 10.3734 44.7026 11.7434C44.7026 14.4809 44.7038 17.2171 44.7026 19.9545C44.6975 20.5259 44.7102 21.0998 44.7648 21.6686C44.8397 22.1334 44.8981 22.6336 45.2041 23.012C45.4872 23.3802 45.9278 23.5833 46.3646 23.7027C46.9334 23.8563 47.5124 23.9744 48.0978 24.0341C48.1092 24.2537 48.1117 24.4734 48.1117 24.6931H37.9414C37.9477 24.4772 37.9122 24.2525 37.9693 24.0404C38.8416 23.8893 39.7888 23.7967 40.5278 23.2634C41.2274 22.7123 41.2629 21.7499 41.3277 20.9348C41.3696 19.0099 41.3429 17.0825 41.3505 15.1563C41.3391 13.8536 41.4026 12.5408 41.1702 11.252C40.9925 10.2718 40.6471 9.27128 39.9221 8.55644C38.9648 7.55465 37.5033 7.24357 36.1638 7.28039C35.4705 7.25373 34.7748 7.36165 34.1196 7.58893C33.241 7.9089 32.4652 8.45867 31.7833 9.08972C31.6868 9.15955 31.7287 9.28779 31.7173 9.38683C31.7249 13.2061 31.7135 17.0254 31.7224 20.8459C31.7643 21.4896 31.7783 22.16 32.0563 22.7543C32.2938 23.2469 32.8042 23.5338 33.3095 23.6824C33.9012 23.8487 34.5068 23.9706 35.1188 24.0366C35.1214 24.255 35.1214 24.4747 35.1214 24.6931C31.7338 24.6931 28.3437 24.6931 24.9549 24.6944C24.9625 24.4747 24.9638 24.255 24.9689 24.0354C25.5783 23.9694 26.1827 23.8424 26.7706 23.6621C27.3229 23.4869 27.8511 23.1301 28.0644 22.5701C28.4009 21.6255 28.3298 20.6072 28.3704 19.6219V10.9308C28.359 10.3556 28.3653 9.75757 28.1088 9.22811C27.7038 8.42312 26.942 7.88349 26.2373 7.35784C26.236 7.21182 26.2348 7.06707 26.2322 6.92233C27.9527 6.27478 29.682 5.65136 31.4012 5Z" fill="black"/>
<path d="M56.1096 5H56.9997C57.5482 5.05841 58.0992 5.11428 58.6312 5.26283C60.0647 5.62216 61.3662 6.51349 62.1686 7.75907C62.8746 8.83324 63.2021 10.1169 63.2631 11.3917C59.0566 11.3853 54.8501 11.3955 50.6448 11.3866C50.5521 12.0964 50.514 12.8138 50.467 13.5286C50.2753 15.5703 50.8327 17.6882 52.0605 19.3388C53.1499 20.8307 54.8196 21.8807 56.6365 22.2121C57.8313 22.4216 59.0934 22.414 60.2438 21.9937C61.483 21.5569 62.4911 20.6389 63.2631 19.5965C63.484 19.7565 63.705 19.9177 63.9233 20.0841C62.7679 22.0318 61.0399 23.6799 58.9233 24.5331C56.0918 25.6885 52.6712 25.1172 50.3058 23.1999C49.0259 22.1854 48.0584 20.8027 47.4667 19.2854C46.8052 17.6259 46.6275 15.795 46.8433 14.0288C47.1671 11.0996 48.7161 8.26565 51.1819 6.60617C52.6268 5.60692 54.365 5.09777 56.1096 5ZM54.4882 6.031C53.263 6.26716 52.2904 7.19405 51.6746 8.23901C51.2594 8.96909 50.9026 9.75758 50.782 10.593C51.7419 10.4902 52.7081 10.5334 53.6693 10.4546C55.4938 10.3886 57.3171 10.3124 59.1404 10.2223C58.8458 8.94243 58.338 7.63464 57.3235 6.75219C56.5616 6.07925 55.4799 5.80499 54.4882 6.031Z" fill="black"/>
<path d="M97.5484 5.00002H98.2899C99.8542 5.10159 101.445 5.52694 102.73 6.44621C102.78 7.73115 102.807 9.0199 102.876 10.3048C102.555 10.3721 102.23 10.4242 101.909 10.4915C101.512 9.19258 101.031 7.83907 100.026 6.87917C98.9577 5.86087 97.1078 5.73263 95.9701 6.70141C95.254 7.31976 94.9353 8.30124 94.9925 9.22939C94.9848 10.221 95.6006 11.0908 96.3307 11.7091C97.5458 12.7223 99.0136 13.3534 100.368 14.152C101.467 14.7996 102.573 15.536 103.286 16.6203C103.899 17.5421 104.104 18.6963 103.951 19.7857C103.813 21.0617 103.169 22.2591 102.226 23.1225C100.828 24.4226 98.9095 25.0613 97.0227 25.1261C95.0674 25.173 93.0676 24.6728 91.4614 23.53C91.3586 22.3797 91.3091 21.2255 91.1999 20.0752C91.144 19.6168 91.1796 19.1496 91.0881 18.6937C91.4322 18.6226 91.7776 18.5426 92.1306 18.5261C92.434 20.0409 93.0676 21.5341 94.1367 22.6704C94.9468 23.5097 96.0996 24.0227 97.2729 23.9986C98.1477 24.0214 99.0352 23.6913 99.6586 23.0729C100.874 21.8655 100.999 19.7108 99.8872 18.3966C99.2549 17.6234 98.3775 17.1028 97.5078 16.6368C96.1314 15.8928 94.6535 15.2884 93.4498 14.2663C92.6473 13.6035 92.0239 12.7033 91.7814 11.6837C91.5173 10.5359 91.5833 9.28271 92.1077 8.21488C92.5991 7.19277 93.4599 6.38397 94.4528 5.85324C95.4026 5.3352 96.4729 5.08001 97.5484 5.00002Z" fill="black"/>
<path d="M61.2095 5.42665C64.2759 5.43174 67.3435 5.43174 70.4111 5.42665C70.4073 5.64377 70.4073 5.86089 70.4098 6.07801C69.8384 6.11483 69.2467 6.13769 68.7109 6.36497C68.3643 6.48813 68.0596 6.75857 67.9643 7.12298C67.892 7.53817 67.9504 7.96733 68.0837 8.36474C68.377 9.27639 68.7541 10.1576 69.0969 11.0502C70.2981 14.133 71.5208 17.2057 72.7105 20.2923C74.0767 17.1244 75.4035 13.9362 76.7558 10.7619C76.8472 10.5639 76.7113 10.3671 76.6504 10.183C76.2225 9.16847 75.9305 8.07145 75.2702 7.17377C74.7115 6.41449 73.7212 6.23165 72.8502 6.07802C72.8527 5.8609 72.8527 5.64505 72.854 5.42793C75.9571 5.42793 79.0628 5.43809 82.1672 5.42285C82.1672 5.63997 82.1672 5.85836 82.1685 6.07675C81.4981 6.12754 80.8074 6.17325 80.189 6.46401C79.7916 6.65447 79.4767 7.0595 79.4983 7.51532C79.5161 8.11716 79.7624 8.68218 79.9681 9.23831C81.3445 12.9242 82.7564 16.5962 84.1175 20.286C84.6838 19.1268 85.1828 17.9358 85.7122 16.7588C86.5909 14.7437 87.4568 12.7198 88.1932 10.6477C88.4878 9.7538 88.7951 8.85485 88.9182 7.91908C88.9982 7.41627 88.8509 6.83729 88.4116 6.54018C87.8428 6.17704 87.1483 6.17704 86.5045 6.08055C86.5071 5.86216 86.5058 5.64504 86.5045 5.42665C88.9576 5.43554 91.4107 5.42411 93.8637 5.43173C93.8612 5.64504 93.8612 5.85835 93.8624 6.07166C93.1235 6.14785 92.3693 6.34465 91.7839 6.8246C90.8748 7.54706 90.4152 8.64662 89.934 9.66873C87.6117 14.8237 85.3161 19.9914 82.9887 25.1426C82.8033 25.1375 82.6192 25.1401 82.4351 25.1528H82.3996C80.6728 20.7316 78.9345 16.3144 77.2141 11.8907C75.3743 16.3029 73.5764 20.7342 71.7506 25.1528H71.7176C71.5144 25.1375 71.3113 25.135 71.1081 25.1375C68.9318 19.7387 66.7606 14.3387 64.5729 8.94374C64.2517 8.19716 63.9216 7.41502 63.307 6.85635C62.7382 6.33197 61.9586 6.13135 61.2057 6.07295C61.2095 5.8571 61.2095 5.6425 61.2095 5.42665Z" fill="black"/>
<path d="M15.9143 10.9281C16.7713 10.2247 17.8214 9.74346 18.9324 9.64442C20.5436 9.46666 22.2184 10.071 23.3548 11.2252C24.3591 12.2346 24.947 13.6491 24.9266 15.0762C24.9393 16.3053 24.5026 17.5306 23.7293 18.4841C22.9078 19.51 21.7016 20.2261 20.404 20.4356C19.1177 20.649 17.7515 20.4115 16.6418 19.7183C15.2388 18.8714 14.2573 17.3592 14.0796 15.7301C13.8739 14.2154 14.3703 12.6435 15.362 11.4881C15.0636 11.9642 14.896 12.5216 14.9722 13.0866C15.0776 14.0706 15.9105 14.9226 16.8907 15.0521C18.0499 15.254 19.2422 14.4033 19.4517 13.2529C19.5444 12.7349 19.4796 12.1775 19.2142 11.7166C18.8156 10.9789 17.9839 10.4901 17.1408 10.5421C16.699 10.5358 16.2939 10.7249 15.9143 10.9281Z" fill="#005DA3"/>
</svg>
