<svg width="123" height="30" viewBox="0 0 123 30" fill="none" xmlns="http://www.w3.org/2000/svg">
<path d="M0 13.6527C0 23.4345 8.12658 26.4801 12.3774 26.7802V29.6308C16.6782 29.5057 25.58 26.6002 25.58 15.9781C25.58 6.00116 17.0533 2.75053 12.7525 2.77554V0C7.57647 0 0 4.72592 0 13.6527Z" fill="#6BBF56"/>
<path d="M11.478 5.77612H14.9287V9.07676H11.478V5.77612Z" fill="white"/>
<path d="M11.478 10.8772H14.9287V24.3798H11.478V10.8772Z" fill="white"/>
<path d="M109.324 20.8718V8.74048H111.646L116.811 17.3017H115.58L120.658 8.74048H122.963L122.998 20.8718H120.364L120.346 12.7785H120.832L116.776 19.5893H115.511L111.369 12.7785H111.958V20.8718H109.324Z" fill="#6BBF56"/>
<path d="M101.057 21.0797C99.3351 21.0797 97.9892 20.6002 97.0186 19.6413C96.0481 18.6823 95.5629 17.3132 95.5629 15.534V8.74048H98.3704V15.43C98.3704 16.5854 98.6073 17.4172 99.081 17.9256C99.5547 18.4339 100.219 18.6881 101.074 18.6881C101.929 18.6881 102.593 18.4339 103.067 17.9256C103.541 17.4172 103.778 16.5854 103.778 15.43V8.74048H106.55V15.534C106.55 17.3132 106.065 18.6823 105.095 19.6413C104.124 20.6002 102.778 21.0797 101.057 21.0797Z" fill="#6BBF56"/>
<path d="M89.9802 20.8718V8.74048H92.7877V20.8718H89.9802Z" fill="#6BBF56"/>
<path d="M79.5205 20.8718V8.74048H82.328V18.5841H88.411V20.8718H79.5205Z" fill="#6BBF56"/>
<path d="M73.8357 20.8718V8.74048H76.6432V20.8718H73.8357Z" fill="#6BBF56"/>
<path d="M65.6339 20.8718V11.0281H61.7519V8.74048H72.3234V11.0281H68.4414V20.8718H65.6339Z" fill="#6BBF56"/>
<path d="M57.4341 20.8718V8.74048H60.2416V20.8718H57.4341Z" fill="#6BBF56"/>
<path d="M53.7322 14.7889C53.2701 14.7889 52.8715 14.6329 52.5364 14.3209C52.2129 13.9974 52.0511 13.5873 52.0511 13.0905C52.0511 12.5937 52.2129 12.1951 52.5364 11.8947C52.8715 11.5827 53.2701 11.4268 53.7322 11.4268C54.2059 11.4268 54.6045 11.5827 54.928 11.8947C55.2515 12.1951 55.4132 12.5937 55.4132 13.0905C55.4132 13.5873 55.2515 13.9974 54.928 14.3209C54.6045 14.6329 54.2059 14.7889 53.7322 14.7889ZM53.7322 21.0105C53.2701 21.0105 52.8715 20.8545 52.5364 20.5425C52.2129 20.219 52.0511 19.8089 52.0511 19.3121C52.0511 18.8153 52.2129 18.4167 52.5364 18.1163C52.8715 17.8043 53.2701 17.6484 53.7322 17.6484C54.2059 17.6484 54.6045 17.8043 54.928 18.1163C55.2515 18.4167 55.4132 18.8153 55.4132 19.3121C55.4132 19.8089 55.2515 20.219 54.928 20.5425C54.6045 20.8545 54.2059 21.0105 53.7322 21.0105Z" fill="#6BBF56"/>
<path d="M46.2655 21.0797C45.3296 21.0797 44.4573 20.9295 43.6486 20.6291C42.8514 20.3171 42.1582 19.8781 41.5689 19.312C40.9797 18.7458 40.5176 18.0815 40.1825 17.319C39.859 16.5564 39.6973 15.7188 39.6973 14.8061C39.6973 13.8933 39.859 13.0557 40.1825 12.2932C40.5176 11.5306 40.9797 10.8663 41.5689 10.3002C42.1697 9.73404 42.8687 9.30078 43.6659 9.00039C44.4631 8.68844 45.3354 8.53247 46.2828 8.53247C47.3342 8.53247 48.2816 8.71733 49.125 9.08704C49.98 9.4452 50.6963 9.97667 51.274 10.6814L49.4716 12.3452C49.0557 11.8715 48.5935 11.5191 48.0852 11.288C47.5768 11.0454 47.0222 10.9241 46.4215 10.9241C45.8553 10.9241 45.3354 11.0165 44.8617 11.2014C44.388 11.3862 43.9779 11.6519 43.6313 11.9985C43.2847 12.3452 43.0131 12.7553 42.8167 13.229C42.6319 13.7027 42.5394 14.2284 42.5394 14.8061C42.5394 15.3838 42.6319 15.9094 42.8167 16.3831C43.0131 16.8568 43.2847 17.267 43.6313 17.6136C43.9779 17.9602 44.388 18.2259 44.8617 18.4108C45.3354 18.5957 45.8553 18.6881 46.4215 18.6881C47.0222 18.6881 47.5768 18.5725 48.0852 18.3415C48.5935 18.0988 49.0557 17.7349 49.4716 17.2497L51.274 18.9134C50.6963 19.6181 49.98 20.1554 49.125 20.5251C48.2816 20.8948 47.3284 21.0797 46.2655 21.0797Z" fill="#6BBF56"/>
<path d="M34.7826 20.8718V9.7803L35.9958 10.9934H32.3564V8.74048H37.5902V20.8718H34.7826Z" fill="#6BBF56"/>
</svg>
