<svg width="158" height="48" viewBox="0 0 158 48" fill="none" xmlns="http://www.w3.org/2000/svg">
<path d="M152.613 34.8815L152.553 23.8982L147.225 32.8388H144.619L139.32 24.1942V34.8815H133.902V14.1582H138.728L146.011 26.1185L153.116 14.1582H157.942L158.001 34.8815H152.613Z" fill="#59A632"/>
<path d="M120.19 35.296C117.112 35.296 114.714 34.4572 112.996 32.7796C111.299 31.102 110.45 28.7237 110.45 25.6448V14.1582H116.312V25.4672C116.312 28.7829 117.625 30.4408 120.25 30.4408C122.855 30.4408 124.157 28.7829 124.157 25.4672V14.1582H129.93V25.6448C129.93 28.7237 129.072 31.102 127.355 32.7796C125.657 34.4572 123.269 35.296 120.19 35.296Z" fill="#59A632"/>
<path d="M100.597 14.1582H106.459V34.8815H100.597V14.1582Z" fill="#59A632"/>
<path d="M82.5278 14.1582H88.3896V30.2336H98.2776V34.8815H82.5278V14.1582Z" fill="#59A632"/>
<path d="M72.4958 14.1582H78.3576V34.8815H72.4958V14.1582Z" fill="#59A632"/>
<path d="M58.1137 18.8061H51.7487V14.1582H70.3108V18.8061H63.9754V34.8815H58.1137V18.8061Z" fill="#59A632"/>
<path d="M43.6716 14.1582H49.5334V34.8815H43.6716V14.1582Z" fill="#59A632"/>
<path d="M37.3886 25.2302C36.4413 25.2302 35.6419 24.9144 34.9906 24.2828C34.3393 23.6512 34.0137 22.8519 34.0137 21.8848C34.0137 20.898 34.3295 20.0987 34.961 19.4868C35.6123 18.875 36.4215 18.5691 37.3886 18.5691C38.3754 18.5691 39.1846 18.875 39.8162 19.4868C40.4478 20.0987 40.7636 20.898 40.7636 21.8848C40.7636 22.8519 40.4379 23.6512 39.7866 24.2828C39.155 24.9144 38.3557 25.2302 37.3886 25.2302ZM37.3886 35.1477C36.4413 35.1477 35.6419 34.832 34.9906 34.2004C34.3393 33.5688 34.0137 32.7695 34.0137 31.8024C34.0137 30.8156 34.3295 30.0163 34.961 29.4044C35.6123 28.7926 36.4215 28.4867 37.3886 28.4867C38.3754 28.4867 39.1846 28.7926 39.8162 29.4044C40.4478 30.0163 40.7636 30.8156 40.7636 31.8024C40.7636 32.7695 40.4379 33.5688 39.7866 34.2004C39.155 34.832 38.3557 35.1477 37.3886 35.1477Z" fill="#59A632"/>
<path d="M24.1367 35.2959C21.9657 35.2959 20.0118 34.842 18.275 33.9341C16.5579 33.0065 15.206 31.7236 14.2191 30.0855C13.2323 28.4473 12.7389 26.5921 12.7389 24.5198C12.7389 22.4474 13.2323 20.5922 14.2191 18.9541C15.206 17.316 16.5579 16.043 18.275 15.1351C20.0118 14.2075 21.9657 13.7437 24.1367 13.7437C26.0314 13.7437 27.7386 14.0792 29.2583 14.7502C30.778 15.4213 32.0412 16.3883 33.0477 17.6515L29.3175 21.0264C27.9755 19.408 26.3472 18.5988 24.4328 18.5988C23.3078 18.5988 22.3012 18.8455 21.4131 19.3389C20.5447 19.8324 19.8638 20.533 19.3704 21.4409C18.8967 22.329 18.6598 23.3553 18.6598 24.5198C18.6598 25.6842 18.8967 26.7204 19.3704 27.6283C19.8638 28.5164 20.5447 29.2072 21.4131 29.7006C22.3012 30.194 23.3078 30.4407 24.4328 30.4407C26.3472 30.4407 27.9755 29.6315 29.3175 28.0131L33.0477 31.3881C32.0412 32.6512 30.778 33.6183 29.2583 34.2893C27.7386 34.9604 26.0314 35.2959 24.1367 35.2959Z" fill="#59A632"/>
<path d="M9.71035 14.1582V34.8815H3.84862V18.6877H0V14.1582H9.71035Z" fill="#59A632"/>
</svg>
