<svg width="140" height="49" viewBox="0 0 140 49" fill="none" xmlns="http://www.w3.org/2000/svg">
<path d="M58.0475 17.997V32.4776H54.7583V20.6863H51.9158V17.997H58.0475ZM68.2115 32.7258C66.7633 32.7258 65.4502 32.4087 64.2726 31.7743C63.1087 31.1261 62.1879 30.2366 61.5113 29.1057C60.8479 27.9611 60.5164 26.6716 60.5164 25.2373C60.5164 23.8031 60.8479 22.5205 61.5113 21.3896C62.1879 20.245 63.1087 19.3555 64.2726 18.721C65.4502 18.0729 66.7699 17.7488 68.2318 17.7488C69.4637 17.7488 70.5733 17.9695 71.5616 18.4107C72.5631 18.852 73.4026 19.4864 74.0792 20.3139L71.9677 22.2998C71.0068 21.1689 69.8155 20.6035 68.3942 20.6035C67.5146 20.6035 66.7293 20.8035 66.039 21.2034C65.3487 21.5896 64.8071 22.1343 64.4147 22.8377C64.0356 23.541 63.8462 24.3409 63.8462 25.2373C63.8462 26.1337 64.0356 26.9336 64.4147 27.6369C64.8071 28.3403 65.3487 28.8919 66.039 29.2919C66.7293 29.678 67.5146 29.8711 68.3942 29.8711C69.8155 29.8711 71.0068 29.2987 71.9677 28.1541L74.0792 30.14C73.4026 30.9813 72.5631 31.6226 71.5616 32.0639C70.5601 32.5052 69.4434 32.7258 68.2115 32.7258ZM76.9578 25.2166C76.403 25.2166 75.936 25.0236 75.5568 24.6374C75.1777 24.2512 74.9883 23.7686 74.9883 23.1893C74.9883 22.5963 75.1777 22.1205 75.5568 21.762C75.936 21.3896 76.403 21.2034 76.9578 21.2034C77.5126 21.2034 77.9796 21.3896 78.3587 21.762C78.7379 22.1205 78.9272 22.5963 78.9272 23.1893C78.9272 23.7686 78.7379 24.2512 78.3587 24.6374C77.9796 25.0236 77.5126 25.2166 76.9578 25.2166ZM76.9578 32.6431C76.403 32.6431 75.936 32.45 75.5568 32.0639C75.1777 31.6777 74.9883 31.195 74.9883 30.6158C74.9883 30.0228 75.1777 29.547 75.5568 29.1884C75.936 28.8161 76.403 28.6299 76.9578 28.6299C77.5126 28.6299 77.9796 28.8161 78.3587 29.1884C78.7379 29.547 78.9272 30.0228 78.9272 30.6158C78.9272 31.195 78.7379 31.6777 78.3587 32.0639C77.9796 32.45 77.5126 32.6431 76.9578 32.6431ZM92.0423 20.7276H87.4943V32.4776H84.2458V20.7276H79.718V17.997H92.0423V20.7276ZM100.691 32.7258C99.2156 32.7258 97.8821 32.4017 96.6908 31.7536C95.5132 31.1054 94.5864 30.2159 93.9092 29.085C93.2463 27.9404 92.9144 26.6578 92.9144 25.2373C92.9144 23.8168 93.2463 22.5412 93.9092 21.4103C94.5864 20.2657 95.5132 19.3692 96.6908 18.721C97.8821 18.0729 99.2156 17.7488 100.691 17.7488C102.166 17.7488 103.493 18.0729 104.67 18.721C105.848 19.3692 106.775 20.2657 107.452 21.4103C108.129 22.5412 108.467 23.8168 108.467 25.2373C108.467 26.6578 108.129 27.9404 107.452 29.085C106.775 30.2159 105.848 31.1054 104.67 31.7536C103.493 32.4017 102.166 32.7258 100.691 32.7258ZM100.691 29.8711C101.53 29.8711 102.288 29.678 102.965 29.2919C103.642 28.8919 104.17 28.3403 104.548 27.6369C104.941 26.9336 105.137 26.1337 105.137 25.2373C105.137 24.3409 104.941 23.541 104.548 22.8377C104.17 22.1343 103.642 21.5896 102.965 21.2034C102.288 20.8035 101.53 20.6035 100.691 20.6035C99.8516 20.6035 99.0938 20.8035 98.4166 21.2034C97.74 21.5896 97.2055 22.1343 96.8127 22.8377C96.434 23.541 96.2442 24.3409 96.2442 25.2373C96.2442 26.1337 96.434 26.9336 96.8127 27.6369C97.2055 28.3403 97.74 28.8919 98.4166 29.2919C99.0938 29.678 99.8516 29.8711 100.691 29.8711ZM111.001 17.997H114.27V27.4301L121.051 17.997H124.137V32.4776H120.889V23.0652L114.107 32.4776H111.001V17.997ZM133.828 17.997C135.087 17.997 136.176 18.2108 137.097 18.6383C138.031 19.0658 138.748 19.6726 139.249 20.4587C139.75 21.2448 140 22.1757 140 23.2514C140 24.3133 139.75 25.2442 139.249 26.0441C138.748 26.8302 138.031 27.437 137.097 27.8645C136.176 28.2782 135.087 28.4851 133.828 28.4851H130.965V32.4776H127.676V17.997H133.828ZM133.645 25.7545C134.633 25.7545 135.384 25.5407 135.899 25.1132C136.413 24.6719 136.671 24.0513 136.671 23.2514C136.671 22.4377 136.413 21.8172 135.899 21.3896C135.384 20.9483 134.633 20.7276 133.645 20.7276H130.965V25.7545H133.645Z" fill="white"/>
<path d="M45.1752 15.1721C44.5177 13.7865 43.7342 12.4743 42.8515 11.2447L40.0056 12.2173C39.2941 11.2997 38.5105 10.4372 37.664 9.63882L38.8978 6.89516C37.745 5.88576 36.4931 4.98652 35.1782 4.20655L32.9987 6.24364C32.008 5.71143 30.9813 5.25263 29.9095 4.86723L29.9366 1.87581C28.4865 1.42617 26.9825 1.10501 25.4334 0.930664L24.2626 3.67433C23.7132 3.62845 23.1548 3.60092 22.5964 3.60092C22.0381 3.60092 21.4797 3.62845 20.9302 3.67433L19.7594 0.939839C18.2104 1.12336 16.6973 1.44453 15.2473 1.90333L15.2743 4.86723C14.2026 5.24345 13.1759 5.71143 12.1852 6.24364L10.0147 4.23408C8.69074 5.02323 7.43887 5.93169 6.28608 6.94104L7.49293 9.62967C6.66434 10.4096 5.90777 11.2538 5.20532 12.1531L3.88138 11.7769L2.36833 11.263C1.47671 12.5018 0.702171 13.8231 0.0357056 15.2179L2.20622 17.1724L2.17019 17.3009C1.81895 18.1359 1.51274 18.9985 1.26056 19.8886H1.37764H10.2218H32.5123L14.5989 14.8142C16.8774 13.1808 19.6604 12.2265 22.6505 12.2265C28.0542 12.2265 32.7375 15.3372 35.0881 19.8886H43.8963C43.6351 18.9618 43.3109 18.0625 42.9326 17.1908L45.1752 15.1721Z" fill="white"/>
<path d="M0 34.6985C0.657461 36.0841 1.44101 37.3963 2.32362 38.6259L5.1696 37.6532C5.88109 38.5708 6.66465 39.4334 7.51121 40.2317L6.2864 42.9662C7.43918 43.9756 8.69105 44.8748 10.006 45.6548L12.1855 43.6177C13.1762 44.1499 14.2029 44.6087 15.2746 44.9941L15.2476 47.9855C16.6976 48.4352 18.2017 48.7564 19.7508 48.9307L20.9216 46.187C21.4709 46.2329 22.0293 46.2604 22.5877 46.2604C23.1461 46.2604 23.7045 46.2329 24.2539 46.187L25.4247 48.9215C26.9738 48.738 28.4869 48.4168 29.9369 47.958L29.9098 44.9941C30.9816 44.6179 32.0083 44.1499 32.999 43.6177L35.1515 45.6273C36.4754 44.8381 37.7273 43.9297 38.8801 42.9203L37.6733 40.2317C38.5019 39.4517 39.2584 38.6075 39.9609 37.7083L41.2848 38.0845L42.7978 38.5983C43.6895 37.3596 44.464 36.0382 45.1305 34.6434L42.96 32.6981L42.9959 32.5696C43.3472 31.7346 43.6534 30.872 43.9056 29.9819H43.7885H34.9444H12.6628L30.5763 35.0563C28.2977 36.6897 25.5148 37.644 22.5247 37.644C17.121 37.644 12.4377 34.5333 10.087 29.9819H1.26988C1.53107 30.9087 1.85529 31.808 2.23356 32.6797L0 34.6985Z" fill="#1ED760"/>
<path d="M37.6377 22.0238C37.1694 21.6475 36.5119 21.4548 35.6473 21.4548H33.729V28.4562H34.4135V22.0972H35.6473C36.3949 22.0972 36.9442 22.2715 37.2775 22.611C37.5477 22.8863 37.6827 23.2442 37.6827 23.6846C37.6827 24.2168 37.5026 24.6298 37.1334 24.905C36.7911 25.162 36.2958 25.2905 35.6383 25.2905H35.0889L37.4216 28.4562H38.2772L36.3498 25.8502C36.9532 25.8502 37.4396 25.6483 37.8088 25.2446C38.1871 24.8408 38.3672 24.3453 38.3672 23.758C38.3672 23.0056 38.1241 22.4275 37.6377 22.0238ZM44.0682 21.464H43.3837V25.7217C43.3837 26.4467 43.2396 26.9972 42.9604 27.3826C42.6812 27.768 42.2669 27.9515 41.7086 27.9515C40.988 27.9515 40.5017 27.6395 40.2405 27.0156C40.1054 26.6852 40.0334 26.254 40.0334 25.7217V21.464H39.3489V25.7217C39.3489 26.6944 39.574 27.4285 40.0153 27.924C40.4207 28.3644 40.9791 28.5847 41.6995 28.5847C42.429 28.5847 42.9964 28.3644 43.4017 27.9148C43.843 27.4285 44.0592 26.6944 44.0592 25.7217V21.464H44.0682Z" fill="white"/>
<path d="M10.4757 26.5956C10.2055 27.036 9.85427 27.3756 9.41298 27.5958C9.0167 27.8068 8.59337 27.9078 8.15207 27.9078C7.33252 27.9078 6.63001 27.6233 6.06263 27.0452C5.49524 26.4671 5.21602 25.7514 5.21602 24.898C5.21602 24.0721 5.48621 23.3656 6.02659 22.7874C6.56697 22.2094 7.26044 21.9249 8.10705 21.9249C8.74651 21.9249 9.29587 22.0992 9.77321 22.4571C10.0344 22.6498 10.2595 22.9067 10.4487 23.2095H11.2683C10.9801 22.6039 10.5568 22.136 9.99838 21.7964C9.43998 21.4661 8.80955 21.2917 8.09806 21.2917C7.08933 21.2917 6.24272 21.6313 5.55829 22.3195C4.8738 23.0077 4.53156 23.8611 4.53156 24.898C4.53156 25.9624 4.88279 26.8341 5.59428 27.5315C6.27876 28.2106 7.13435 28.5409 8.16111 28.5409C8.83656 28.5409 9.44896 28.3665 9.99838 28.027C10.5477 27.6875 10.9801 27.2012 11.3043 26.5956H10.4757ZM15.5643 21.4111H11.7456V22.6682H13.0154V28.4124H14.2853V22.6682H15.5552V21.4111H15.5643ZM22.0848 22.3562C21.3913 21.6496 20.5267 21.2917 19.509 21.2917C18.4823 21.2917 17.6267 21.6496 16.9332 22.3562C16.2397 23.0627 15.8885 23.9345 15.8885 24.953C15.8885 25.9716 16.2397 26.825 16.9332 27.5315C17.6267 28.2381 18.4913 28.5868 19.509 28.5868C20.5357 28.5868 21.3913 28.2381 22.0848 27.5315C22.7783 26.825 23.1295 25.9716 23.1295 24.953C23.1295 23.9253 22.7783 23.0627 22.0848 22.3562ZM21.1841 26.6139C20.7339 27.0819 20.1755 27.3205 19.5 27.3205C18.8425 27.3205 18.2932 27.0911 17.8338 26.6231C17.3835 26.1551 17.1583 25.5862 17.1583 24.9255C17.1583 24.2648 17.3835 23.7051 17.8248 23.2463C18.2751 22.7874 18.8335 22.5581 19.509 22.5581C20.1755 22.5581 20.7339 22.7874 21.1841 23.2555C21.6345 23.7142 21.8596 24.274 21.8596 24.9347C21.8506 25.5862 21.6255 26.1459 21.1841 26.6139ZM25.3361 21.4111H24.0662V28.4216H25.3361V21.4111ZM29.3529 25.8339C29.9112 25.7789 30.3616 25.5403 30.7038 25.1274C31.046 24.7144 31.2172 24.2189 31.2172 23.6409C31.2172 23.1086 31.073 22.659 30.7939 22.2736C30.3616 21.6955 29.641 21.4111 28.6413 21.4111H26.651V28.4216H27.9209L27.9389 25.8339L29.7221 28.4216H31.2892L29.3529 25.8339ZM29.4069 24.6227C29.2178 24.7144 28.9746 24.7512 28.6594 24.7512H27.9028V22.6682H28.6594C28.9656 22.6682 29.2178 22.7141 29.4159 22.8058C29.7671 22.971 29.9383 23.2738 29.9383 23.7051C29.9383 24.1547 29.7671 24.4575 29.4069 24.6227Z" fill="white"/>
<path d="M3.88384 21.4006H2.99222L1.14594 24.0709L1.6683 24.4747L3.19036 22.2357V28.4755H3.88384V21.4006Z" fill="white"/>
</svg>
