<svg width="168" height="48" viewBox="0 0 168 48" fill="none" xmlns="http://www.w3.org/2000/svg">
<path fill-rule="evenodd" clip-rule="evenodd" d="M2.59437 13C1.16154 13 0 14.1643 0 15.6005V33.3995C0 34.8357 1.16154 36 2.59437 36C4.0272 36 5.18874 34.8357 5.18874 33.3995V15.6005C5.18874 14.1643 4.0272 13 2.59437 13ZM30.2677 13C28.8348 13 27.6733 14.1643 27.6733 15.6005V33.3995C27.6733 34.8357 28.8348 36 30.2677 36C31.7005 36 32.862 34.8357 32.862 33.3995V15.6005C32.862 14.1643 31.7005 13 30.2677 13ZM52.9252 15.6005C52.9252 14.1643 54.0867 13 55.5196 13C56.9524 13 58.1139 14.1643 58.1139 15.6005V33.3995C58.1139 34.8357 56.9524 36 55.5196 36C54.0867 36 52.9252 34.8357 52.9252 33.3995V15.6005ZM23.3493 18.201H19.0254V33.3995C19.0254 34.8357 17.8639 36 16.431 36C14.9982 36 13.8367 34.8357 13.8367 33.3995V18.201H9.5127C8.07986 18.201 6.91833 17.0367 6.91833 15.6005C6.91833 14.1643 8.07986 13 9.5127 13H23.3493C24.7822 13 25.9437 14.1643 25.9437 15.6005C25.9437 17.0367 24.7822 18.201 23.3493 18.201ZM38.9156 13C37.4828 13 36.3212 14.1643 36.3212 15.6005V33.3995C36.3212 34.8357 37.4828 36 38.9156 36H48.6012C50.0341 36 51.1956 34.8357 51.1956 33.3995C51.1956 31.9633 50.0341 30.799 48.6012 30.799H41.51V15.6005C41.51 14.1643 40.3484 13 38.9156 13ZM61.5731 15.6005C61.5731 14.1643 62.7346 13 64.1675 13C65.6003 13 66.7618 14.1643 66.7618 15.6005V27.8312C66.7618 28.9535 67.1075 29.6623 67.546 30.0304C68.0557 30.4584 69.0784 31.2613 70.9705 31.2613C72.8626 31.2613 73.8852 30.4584 74.395 30.0304C74.8335 29.6623 75.1791 28.9535 75.1791 27.8312V15.6005C75.1791 14.1643 76.3407 13 77.7735 13C79.2063 13 80.3679 14.1643 80.3679 15.6005V27.8312C80.3679 30.185 79.5605 32.3726 77.7217 33.9163C75.9542 35.4002 73.5753 36 70.9705 36C68.3657 36 65.9868 35.4002 64.2193 33.9163C62.3805 32.3726 61.5731 30.185 61.5731 27.8312V15.6005ZM86.3926 36C84.9757 36 83.827 34.8487 83.827 33.4284V17.1776C83.827 14.8704 85.693 13 87.9948 13C89.721 13 91.2686 14.0666 91.8865 15.6823L96.2953 27.2103C96.371 27.4082 96.6503 27.4082 96.726 27.2103L101.135 15.6823C101.753 14.0666 103.3 13 105.026 13C107.328 13 109.194 14.8704 109.194 17.1776V33.4284C109.194 34.8487 108.046 36 106.629 36C105.212 36 104.063 34.8487 104.063 33.4284V21.1462C104.063 21.0184 103.887 20.9851 103.84 21.1042L98.7898 34.091C98.4237 35.0325 97.5188 35.6524 96.5106 35.6524C95.5025 35.6524 94.5976 35.0325 94.2315 34.091L89.1809 21.1042C89.1346 20.9851 88.9581 21.0184 88.9581 21.1462V33.4284C88.9581 34.8487 87.8095 36 86.3926 36ZM159.41 17.2764C160.588 17.2764 161.543 16.3191 161.543 15.1382C161.543 13.9573 160.588 13 159.41 13C158.232 13 157.277 13.9573 157.277 15.1382C157.277 16.3191 158.232 17.2764 159.41 17.2764ZM168 15.1382C168 16.3191 167.045 17.2764 165.867 17.2764C164.689 17.2764 163.734 16.3191 163.734 15.1382C163.734 13.9573 164.689 13 165.867 13C167.045 13 168 13.9573 168 15.1382ZM152.953 17.2764C154.131 17.2764 155.086 16.3191 155.086 15.1382C155.086 13.9573 154.131 13 152.953 13C152.894 13 152.837 13.0023 152.78 13.0069V13H115.536C113.944 13 112.653 14.2936 112.653 15.8894V33.1106C112.653 34.7064 113.944 36 115.536 36H149.897C151.489 36 152.78 34.7064 152.78 33.1106V32.7631C152.761 32.7636 152.741 32.7638 152.722 32.7638C151.544 32.7638 150.589 31.8065 150.589 30.6256C150.589 29.9511 150.901 29.3495 151.387 28.9576C151.777 29.3793 152.334 29.6432 152.953 29.6432C154.131 29.6432 155.086 28.6859 155.086 27.505C155.086 26.3241 154.131 25.3668 152.953 25.3668C152.334 25.3668 151.777 25.6308 151.387 26.0524C150.901 25.6605 150.589 25.059 150.589 24.3844C150.589 23.7099 150.901 23.1083 151.387 22.7164C151.777 23.1381 152.334 23.402 152.953 23.402C154.131 23.402 155.086 22.4447 155.086 21.2638C155.086 20.0829 154.131 19.1256 152.953 19.1256C152.302 19.1256 151.72 19.4175 151.328 19.8776C150.876 19.4856 150.589 18.9057 150.589 18.2588C150.589 17.5843 150.901 16.9827 151.387 16.5908C151.777 17.0124 152.334 17.2764 152.953 17.2764ZM161.543 21.2638C161.543 22.4447 160.588 23.402 159.41 23.402C158.232 23.402 157.277 22.4447 157.277 21.2638C157.277 20.0829 158.232 19.1256 159.41 19.1256C160.588 19.1256 161.543 20.0829 161.543 21.2638ZM137.559 22.7199C137.559 21.4511 137.985 20.2719 138.956 19.4398C139.888 18.6399 141.143 18.3166 142.518 18.3166C143.892 18.3166 145.147 18.6399 146.079 19.4398C147.05 20.2719 147.476 21.4511 147.476 22.7199V26.2801C147.476 27.5489 147.05 28.7281 146.079 29.5602C145.147 30.3601 143.892 30.6834 142.518 30.6834C141.143 30.6834 139.888 30.3601 138.956 29.5602C137.985 28.7281 137.559 27.5489 137.559 26.2801V22.7199ZM144.738 22.7199V26.2801C144.738 26.8851 144.556 27.2671 144.324 27.4655C144.055 27.6962 143.516 28.1291 142.518 28.1291C141.519 28.1291 140.98 27.6962 140.711 27.4655C140.479 27.2671 140.297 26.8851 140.297 26.2801V22.7199C140.297 22.1149 140.479 21.7329 140.711 21.5345C140.98 21.3038 141.519 20.871 142.518 20.871C143.516 20.871 144.055 21.3038 144.324 21.5345C144.556 21.7329 144.738 22.1149 144.738 22.7199ZM117.957 19.6123C117.957 18.8329 118.575 18.201 119.336 18.201H122.369C124.461 18.201 126.244 19.849 126.259 22.2154L126.259 22.2311L126.259 22.2468C126.244 24.6133 124.461 26.2613 122.369 26.2613H120.715V29.2721C120.715 30.0515 120.097 30.6834 119.336 30.6834C118.575 30.6834 117.957 30.0515 117.957 29.2721V19.6123ZM120.715 23.5013H122.369C123.02 23.5013 123.557 23.0372 123.564 22.2311C123.557 21.425 123.02 20.9609 122.369 20.9609H120.715V23.5013ZM127.643 19.6112C127.643 18.8324 128.267 18.201 129.036 18.201C129.057 18.201 129.078 18.2015 129.098 18.2024V18.201H132.102C134.217 18.201 136.019 19.8477 136.034 22.2123L136.034 22.2279L136.034 22.2436C136.024 23.7508 135.289 24.9663 134.209 25.6497L135.873 28.5679C136.258 29.2424 136.03 30.1048 135.363 30.4942C134.697 30.8837 133.845 30.6526 133.46 29.9781L131.336 26.2549H130.43V29.2633C130.43 30.0422 129.806 30.6735 129.036 30.6735C128.267 30.6735 127.643 30.0422 127.643 29.2633V19.6112ZM132.102 20.9588C132.76 20.9588 133.303 21.4225 133.309 22.2279C133.303 23.0334 132.76 23.4971 132.102 23.4971H130.43V20.9588H132.102Z" fill="#4CC000"/>
</svg>
