<svg width="201" height="48" viewBox="0 0 201 48" fill="none" xmlns="http://www.w3.org/2000/svg">
<path d="M8.63128 24.464H8.60832C7.54981 24.2745 6.52316 23.9373 5.55843 23.4623C5.26728 23.2991 5.02626 23.0593 4.86143 22.7691C4.69659 22.4788 4.61421 22.149 4.62317 21.8153C4.6198 21.5522 4.67186 21.2913 4.77595 21.0496C4.88005 20.8079 5.03384 20.5908 5.22734 20.4124C5.81649 19.9177 6.57439 19.6704 7.34196 19.7225C8.35937 19.7317 9.36795 19.9123 10.3254 20.2565C11.052 20.5174 11.8441 20.5323 12.58 20.2992C13.3159 20.066 13.9549 19.5976 14.3988 18.966L14.5546 18.7244C12.4719 17.3281 10.0041 16.6194 7.49784 16.6979C5.70751 16.6113 3.9434 17.1547 2.51217 18.2338C1.89816 18.7069 1.4047 19.3184 1.07206 20.0186C0.73942 20.7187 0.577029 21.4876 0.598136 22.2624C0.570182 23.0191 0.742785 23.7697 1.09845 24.4381C1.45411 25.1066 1.98018 25.6691 2.62334 26.0687C4.13419 26.8909 5.76544 27.4691 7.45676 27.7822C8.4839 27.9714 9.48008 28.3011 10.4172 28.7622C10.7107 28.9246 10.9546 29.1635 11.1231 29.4535C11.2916 29.7435 11.3784 30.0738 11.3742 30.4091C11.3777 30.8748 11.2115 31.3259 10.9066 31.6779C10.5747 32.0032 10.1754 32.2515 9.73689 32.4054C9.2984 32.5593 8.83145 32.615 8.36907 32.5685C6.99991 32.5684 5.64444 32.2961 4.3815 31.7673C3.66633 31.4584 2.8725 31.3807 2.111 31.545C1.3754 31.6956 0.714775 32.0966 0.241671 32.6796L0 32.9914C1.12127 33.8412 2.37843 34.4949 3.71811 34.9248C5.15886 35.3748 6.66032 35.6001 8.16969 35.593C10.0519 35.6975 11.9133 35.1556 13.4454 34.0572C14.0753 33.5719 14.5797 32.9426 14.9161 32.222C15.2525 31.5014 15.4112 30.7107 15.3787 29.9161C15.4014 29.2016 15.244 28.4928 14.9212 27.8549C14.5983 27.2171 14.1204 26.6706 13.5312 26.2657C12.0292 25.3551 10.3654 24.7433 8.63128 24.464Z" fill="white"/>
<path d="M23.4436 17.0349H22.9989V35.2666H26.9865V20.5935C26.9939 20.1269 26.9071 19.6635 26.7313 19.2312C26.5554 18.7989 26.2941 18.4066 25.963 18.0777C25.6367 17.7408 25.2447 17.4745 24.8114 17.2951C24.378 17.1158 23.9125 17.0272 23.4436 17.0349Z" fill="white"/>
<path d="M45.1579 25.36L40.0381 17.0344H35.4307V35.2661H39.2817V22.6219L45.1144 31.5262L50.9689 22.5554V35.2661H54.8864V17.0344H50.3007L45.1579 25.36Z" fill="white"/>
<path d="M78.4381 23.2673C78.4801 22.4015 78.3234 21.5375 77.9799 20.7416C77.6364 19.9457 77.1152 19.239 76.4564 18.6756C74.8928 17.4947 72.959 16.9106 71.0031 17.0286H63.301V35.2603H63.7022C64.6462 35.2577 65.5508 34.8816 66.2183 34.2141C66.8858 33.5466 67.2619 32.642 67.2644 31.698V29.6052H70.7143C72.7386 29.7189 74.7389 29.1203 76.3682 27.9135C77.0489 27.3505 77.5901 26.6375 77.9492 25.8303C78.3083 25.0232 78.4756 24.1439 78.4381 23.2613M73.4512 21.0126C73.7961 21.3164 74.0674 21.6947 74.2447 22.1188C74.422 22.5429 74.5007 23.0017 74.4747 23.4607C74.497 23.9085 74.4139 24.3553 74.2322 24.7651C74.0505 25.175 73.7751 25.5365 73.4282 25.8206C72.6026 26.398 71.6065 26.6803 70.6007 26.6217H67.2632V20.122H70.5802C71.6142 20.065 72.6339 20.3839 73.4512 21.0198V21.0126Z" fill="white"/>
<path d="M89.4323 17.0344H85.4701V35.2661H98.9602C98.9354 34.8207 98.8223 34.3846 98.6273 33.9834C98.4322 33.5821 98.1593 33.2238 97.8243 32.9291C97.1798 32.3063 96.3159 31.9625 95.4197 31.9721H89.4323V17.0344Z" fill="white"/>
<path d="M120.24 20.1955V17.0344H105.881V35.2661H120.373V32.105H109.777V27.6752H115.698C116.516 27.6748 117.303 27.3649 117.902 26.8076C118.553 26.2579 119 25.5055 119.171 24.6712H109.777V20.2003L120.24 20.1955Z" fill="white"/>
<path d="M165.079 17.0344H161.117V35.2661H165.012V23.0001L174.558 35.2661H178.214V17.0344H174.318V28.8993L165.079 17.0344Z" fill="white"/>
<path d="M200.844 17.0347H186.486V35.2663H201V32.1053H190.404V27.6754H196.303C197.121 27.6751 197.908 27.3651 198.507 26.8078C199.157 26.2581 199.604 25.5057 199.776 24.6715H190.404V20.2006H200.844V17.0347Z" fill="white"/>
<path d="M154.843 25.7932C154.794 24.6585 154.606 23.5341 154.284 22.4449C153.614 20.2743 152.461 18.2837 150.912 16.6218L149.869 15.6032L147.467 13.9042L146.909 13.5889L144.822 12.6911L143.314 12.3286L142.468 12.1292H142.153L142.008 12.0808L140.678 12.0083C139.866 11.9771 139.052 12.0338 138.252 12.1775L137.648 12.3225C135.128 12.7097 132.784 13.8519 130.927 15.5984L131.389 15.3071C130.216 16.2765 129.201 17.4225 128.38 18.7039C127.794 19.6542 127.308 20.6624 126.93 21.7127C126.573 22.7791 126.313 23.8755 126.153 24.9885C126.023 26.1089 126.023 27.2405 126.153 28.361C126.217 28.94 126.314 29.515 126.444 30.0829C126.67 30.5663 126.993 31.2296 127.411 32.0731C127.799 32.898 128.155 33.6016 128.479 34.1841C128.718 34.6778 129.096 35.0911 129.566 35.3731C129.987 35.5834 130.861 36.1255 132.187 36.9996L132.308 37.0962C133.694 38.0872 135.287 38.7508 136.966 39.0368V38.9643L136.165 38.7456L136.966 38.7951V38.6248C136.423 38.5089 135.888 38.3551 135.365 38.1644L135.849 38.2611L135.315 38.0906L135.751 38.2115L134.634 37.6291C134.91 37.7101 135.177 37.8156 135.434 37.9445C135.896 38.2175 136.427 38.3521 136.963 38.3323V38.1632C136.332 37.9852 135.709 37.791 135.095 37.5807C134.508 37.3535 133.953 37.0518 133.444 36.6829L134.705 37.2871L132.466 35.8601L133.049 36.4183C132.956 36.3401 132.859 36.2672 132.758 36.1996C131.85 35.5667 131.061 34.7779 130.428 33.8699L132.466 35.8601L133.583 36.515C132.281 35.6493 131.153 34.5461 130.259 33.2633C129.817 32.6409 129.428 31.9834 129.094 31.2973L129.215 31.6852C129.004 31.2647 128.818 30.8442 128.656 30.4237L130.259 33.2633C130.081 32.7292 129.926 32.2519 129.796 31.8314C130.202 32.6431 130.707 33.4014 131.3 34.0886L131.059 33.7491C131.511 34.1696 131.973 34.6062 132.442 35.0589C133.054 35.6605 133.759 36.1602 134.529 36.5391L132.758 35.2777L134.65 36.3941C133.354 35.4693 132.187 34.3758 131.181 33.1425L132.079 34.3073L130.526 32.4875L130.672 32.85C130.511 32.6084 130.35 32.374 130.189 32.1468C129.968 31.8319 129.773 31.4993 129.606 31.1523C129.315 30.0688 129.259 29.511 129.437 29.4788C129.462 29.4688 129.485 29.4524 129.501 29.4312C129.518 29.41 129.53 29.3847 129.534 29.3579C129.598 29.5681 129.671 29.7864 129.752 30.0128L129.511 29.0908C129.85 30.2381 130.331 31.3386 130.943 32.3667C131.52 33.4119 132.33 34.3103 133.31 34.9919C134.29 35.6736 135.415 36.1204 136.595 36.2975L136.112 36.1525L135.967 36.1041L135.943 36.0799C135.99 36.064 136.038 36.0559 136.088 36.0558L135.675 35.8141L136.257 35.9591L135.505 35.4988L136.767 35.7405L135.893 35.4492L136.86 35.6909L136.836 35.6425L136.691 35.57L136.836 35.5942C136.803 35.5436 136.786 35.4842 136.788 35.4238L136.279 35.2051L136.618 35.2777C136.296 35.1486 135.98 35.003 135.672 34.8414C134.365 34.1142 133.231 33.1125 132.348 31.9051L132.93 32.751L132.129 31.7842L132.784 32.7304C132.687 32.6168 132.59 32.496 132.493 32.3679C132.787 32.7922 133.11 33.1959 133.46 33.5763V33.6005C132.914 33.0819 132.427 32.5039 132.01 31.8773C131.702 31.4407 131.403 31.0041 131.112 30.5675L131.743 31.8966L131.67 31.6055L132.787 33.2307L132.062 32.7473C131.884 32.4726 131.714 32.206 131.552 31.9474C130.423 30.2198 129.801 28.2105 129.756 26.1473C129.792 26.9824 129.913 27.8117 130.119 28.622L129.9 27.3846L130.239 28.7139L129.998 26.2875L130.094 26.7007V26.482L130.457 28.4722L130.384 27.6723L130.676 28.7597C130.696 28.8182 130.72 28.8751 130.748 28.9301C130.331 27.564 130.208 26.1253 130.386 24.7082H130.458C130.465 24.381 130.515 24.0561 130.604 23.7414C130.618 23.6809 130.643 23.6232 130.677 23.5711C130.071 26.1824 130.516 28.927 131.914 31.2139C131.208 29.9467 130.756 28.5535 130.585 27.1128C130.383 25.7462 130.5 24.3515 130.925 23.037C131.188 22.5649 131.497 22.1197 131.847 21.7078C132.304 20.8717 132.875 20.1038 133.546 19.4264C134.441 18.5181 135.511 17.8005 136.691 17.3168C137.871 16.8331 139.137 16.5935 140.413 16.6122C140.867 16.6133 141.322 16.6456 141.772 16.7089C143.849 16.9628 145.776 17.9221 147.231 19.4264C148.152 20.3146 148.881 21.3822 149.373 22.563C149.866 23.7439 150.111 25.013 150.094 26.2923C150.114 27.565 149.87 28.828 149.377 30.0017C148.884 31.1753 148.154 32.234 147.231 33.111C145.965 34.4504 144.322 35.3729 142.519 35.7562L141.815 35.9978L142.689 35.8528C142.548 35.8994 142.409 35.956 142.276 36.022H142.373C142.297 36.0364 142.224 36.0608 142.155 36.0945C141.922 36.1945 141.696 36.3079 141.476 36.434H141.573L141.84 36.4582L141.524 36.5065H141.669C141.595 36.5257 141.522 36.5499 141.451 36.579V36.5548H141.306L141.16 36.6032C141.147 36.6022 141.134 36.6039 141.122 36.608C141.109 36.6122 141.098 36.6187 141.088 36.6273L141.813 36.5548C141.635 36.5871 141.457 36.6112 141.279 36.6273L141.861 36.6757L141.473 36.8703L141.329 37.0406L142.053 36.9923C141.23 37.1658 140.443 37.4776 139.724 37.9142L139.579 37.8901L140.908 38.2526L140.763 38.2768L141.054 38.3009L141.709 38.4701L141.175 38.6151L141.951 38.5426L142.096 38.5922C141.774 38.7049 141.466 38.802 141.174 38.8833C140.901 38.8778 140.63 38.8285 140.373 38.7372C140.026 38.6876 139.673 38.7383 139.354 38.8833L139.33 38.9317L140.203 39.0283L139.479 39.0767L140.547 39.1492L140.11 39.1975C140.145 39.1933 140.179 39.202 140.207 39.2217H140.183L139.407 39.3909H139.578L139.553 39.415C139.544 39.4156 139.535 39.4181 139.527 39.4222C139.519 39.4264 139.511 39.4322 139.505 39.4392C139.496 39.4386 139.487 39.4361 139.479 39.432C139.47 39.4278 139.463 39.422 139.457 39.415C139.441 39.4476 139.424 39.4634 139.408 39.4634L140.375 39.5117L139.477 39.7305L142.631 39.658L142.364 39.7546C143.248 39.6148 144.117 39.3956 144.961 39.0996C144.282 39.3744 143.585 39.6013 142.874 39.7788C143.085 39.7788 143.296 39.7627 143.505 39.7305C145.193 39.6112 146.833 39.1103 148.299 38.2655C149.766 37.4207 151.022 36.2541 151.973 34.8535C152.035 34.7768 152.091 34.6961 152.142 34.6118C152.712 33.875 153.198 33.0775 153.592 32.2338C154.543 30.2216 154.969 28.0012 154.829 25.7799L154.843 25.7932ZM132.326 33.4361L131.866 32.9261L132.06 33.3624C131.786 33.0063 131.527 32.6502 131.283 32.2942C131.139 32.1028 131.009 31.9008 130.896 31.69C130.798 31.4797 130.709 31.2695 130.629 31.0593L132.326 33.4361ZM129.414 25.6966C129.42 25.6896 129.428 25.6838 129.436 25.6796C129.444 25.6755 129.453 25.673 129.462 25.6724H129.487C129.454 26.2386 129.462 26.8063 129.511 27.3714C129.431 26.8169 129.399 26.2566 129.414 25.6966Z" fill="url(#paint0_linear_3501_3)"/>
<defs>
<linearGradient id="paint0_linear_3501_3" x1="128.964" y1="24.5282" x2="148.498" y2="26.974" gradientUnits="userSpaceOnUse">
<stop offset="0.12" stop-color="#EA5540"/>
<stop offset="0.254" stop-color="#E45144"/>
<stop offset="0.433" stop-color="#D34750"/>
<stop offset="0.637" stop-color="#B73663"/>
<stop offset="0.859" stop-color="#901F7E"/>
<stop offset="0.883" stop-color="#8C1D82"/>
</linearGradient>
</defs>
</svg>
