<svg width="105" height="37" viewBox="0 0 105 37" fill="none" xmlns="http://www.w3.org/2000/svg">
<path fill-rule="evenodd" clip-rule="evenodd" d="M2.59994 12.6895C1.16403 12.6895 0 13.8535 0 15.2894V34.351C0 35.7869 1.16403 36.951 2.59994 36.951H5.93845C7.37436 36.951 8.53839 35.7869 8.53839 34.351V15.2894C8.53839 13.8535 7.37435 12.6895 5.93845 12.6895H2.59994ZM38.4261 12.6895C36.9902 12.6895 35.8262 13.8535 35.8262 15.2894V34.351C35.8262 35.7869 36.9902 36.951 38.4261 36.951H41.7646C43.2005 36.951 44.3646 35.7869 44.3646 34.351V15.2894C44.3646 13.8535 43.2005 12.6895 41.7646 12.6895H38.4261ZM46.9668 15.2894C46.9668 13.8535 48.1308 12.6895 49.5667 12.6895H52.9052C54.3412 12.6895 55.5052 13.8535 55.5052 15.2894V29.7002H62.902C64.3379 29.7002 65.502 30.8642 65.502 32.3001V34.3999C65.502 35.8358 64.3379 36.9998 62.902 36.9998H50.9999C50.8274 36.9998 50.6589 36.983 50.4958 36.951H49.5667C48.1308 36.951 46.9668 35.7869 46.9668 34.351V15.2894ZM31.3454 12.6895C32.7813 12.6895 33.9453 13.8535 33.9453 15.2894V17.3891C33.9453 18.825 32.7813 19.9891 31.3454 19.9891L26.3958 19.9891V34.351C26.3958 35.7869 25.2318 36.951 23.7959 36.951H20.4574C19.0215 36.951 17.8574 35.7869 17.8574 34.351V19.9891L12.9779 19.9891C11.542 19.9891 10.378 18.825 10.378 17.3891V15.2894C10.378 13.8535 11.542 12.6895 12.9779 12.6895H20.4574H23.7959H31.3454Z" fill="#E53316"/>
<path fill-rule="evenodd" clip-rule="evenodd" d="M91.4422 0.00555634L91.4478 0H61.6133V19.3011H98.0479V6.61127L91.4422 0.00555634ZM77.125 14.037L78.7606 4.59289H77.0267L75.3912 14.037H77.125ZM69.8764 10.8476L71.5606 10.8521C72.1673 10.8521 72.7371 10.7496 73.2699 10.5446C73.8069 10.3356 74.2516 10.0179 74.6042 9.59163C74.9567 9.16533 75.1596 8.62631 75.2129 7.97457C75.2621 7.37611 75.1637 6.86579 74.9177 6.44359C74.6759 6.01729 74.3316 5.68937 73.8848 5.45983C73.438 5.22619 72.9297 5.10322 72.36 5.09092L69.0705 5.08477L67.5211 14.037H69.3226L69.8764 10.8476ZM70.1261 9.409L70.6261 6.52967L72.3046 6.53582C72.5834 6.54811 72.8108 6.61985 72.9871 6.75102C73.1634 6.88218 73.2863 7.05434 73.356 7.26749C73.4257 7.48064 73.44 7.72043 73.3991 7.98687C73.354 8.30249 73.2494 8.56483 73.0855 8.77387C72.9215 8.98292 72.7125 9.14279 72.4583 9.25346C72.2042 9.36003 71.9255 9.41332 71.6221 9.41332L70.1261 9.409ZM81.927 13.9202C82.1474 13.8045 82.3438 13.66 82.516 13.4869L82.4558 14.037H84.079L85.2349 7.38431H83.5011L82.6888 12.072C82.5696 12.2708 82.4161 12.4339 82.2283 12.5614C81.9988 12.713 81.7098 12.7827 81.3614 12.7704C81.1974 12.7663 81.0662 12.7356 80.9679 12.6782C80.8695 12.6167 80.7937 12.5368 80.7404 12.4384C80.6871 12.34 80.6543 12.2293 80.642 12.1064C80.6297 11.9793 80.6297 11.8461 80.642 11.7067L81.3675 7.38431H79.6398L78.9204 11.6821C78.8876 12.0182 78.8958 12.3339 78.945 12.629C78.9983 12.9241 79.0987 13.1865 79.2463 13.416C79.3938 13.6414 79.5926 13.8218 79.8427 13.9571C80.0927 14.0882 80.4002 14.1579 80.765 14.1661C81.2118 14.1743 81.5991 14.0923 81.927 13.9202ZM89.09 11.7067C89.2212 11.8133 89.2704 11.965 89.2376 12.1617C89.2048 12.3462 89.1269 12.4958 89.004 12.6105C88.881 12.7212 88.7355 12.8011 88.5674 12.8503C88.4035 12.8995 88.2375 12.9221 88.0694 12.918C87.8562 12.918 87.6718 12.8811 87.516 12.8073C87.3644 12.7294 87.2475 12.6167 87.1656 12.4691C87.0836 12.3216 87.0405 12.1412 87.0364 11.9281L85.4132 11.9219C85.4173 12.4015 85.5403 12.8073 85.7822 13.1393C86.024 13.4672 86.3396 13.7173 86.729 13.8894C87.1225 14.0616 87.5427 14.1518 87.9895 14.16C88.3092 14.1641 88.6351 14.1272 88.9671 14.0493C89.3032 13.9755 89.6147 13.8566 89.9016 13.6927C90.1927 13.5246 90.4304 13.3094 90.6149 13.0471C90.7993 12.7807 90.8977 12.4609 90.91 12.0879C90.9264 11.6493 90.826 11.2989 90.6087 11.0365C90.3915 10.7701 90.1107 10.5631 89.7664 10.4155C89.4221 10.268 89.0695 10.147 88.7088 10.0528C88.6105 10.0323 88.4998 10.0056 88.3768 9.97283C88.2538 9.93594 88.137 9.89085 88.0264 9.83757C87.9157 9.78018 87.8276 9.7064 87.762 9.61622C87.6964 9.52604 87.6759 9.41127 87.7005 9.2719C87.7292 9.10384 87.7989 8.96243 87.9095 8.84766C88.0202 8.73288 88.1514 8.64681 88.303 8.58942C88.4588 8.52793 88.6146 8.49719 88.7703 8.49719C88.9671 8.49719 89.129 8.53408 89.2561 8.60786C89.3831 8.68165 89.4774 8.78617 89.5389 8.92144C89.6004 9.05671 89.6291 9.21452 89.625 9.39487L91.3404 9.40102C91.3404 8.92964 91.2215 8.53613 90.9838 8.22051C90.7501 7.90489 90.4427 7.66714 90.0615 7.50728C89.6844 7.34742 89.2745 7.26544 88.8318 7.26134C88.5162 7.25314 88.1985 7.29208 87.8788 7.37816C87.5591 7.46424 87.2639 7.59541 86.9934 7.77167C86.7229 7.94383 86.5015 8.16312 86.3294 8.42956C86.1613 8.69189 86.0711 9.00137 86.0588 9.35798C86.0465 9.65721 86.0998 9.9175 86.2187 10.1388C86.3376 10.3561 86.4974 10.5405 86.6983 10.6922C86.8991 10.8439 87.1225 10.9709 87.3685 11.0734C87.6185 11.1718 87.8665 11.2538 88.1124 11.3194C88.2518 11.3521 88.4158 11.3972 88.6043 11.4546C88.797 11.512 88.9589 11.596 89.09 11.7067Z" fill="#E53316"/>
<path d="M64.9219 22.5648V20.8212H99.5892V8.10303L101.333 9.94921V22.5648H64.9219Z" fill="#E53316"/>
<path d="M68.5156 26.1537V24.4101H103.183V11.6919L104.927 13.5381V26.1537H68.5156Z" fill="#E53316"/>
</svg>
