<svg width="175" height="48" viewBox="0 0 175 48" fill="none" xmlns="http://www.w3.org/2000/svg">
<path d="M9.5784 36.0919C5.43891 35.3039 1.9403 32.2466 0.58499 28.2542C0.0281555 26.6152 -0.024376 25.9953 0.00714295 21.6667L0.0386619 18.5883C0.0386619 16.2493 2.20633 14.0955 4.57025 14.0955H8.35252C9.08796 14.0955 9.92847 14.7258 9.92847 15.4087L9.96713 20.2483C10.0197 24.8186 10.0302 25.1758 10.2193 25.4805C10.4819 25.9218 10.9652 26.1844 11.5011 26.1844C11.8478 26.1844 12.0789 26.1004 12.5202 25.7957C13.4237 25.1758 14.2747 25.1758 15.0312 25.8167C15.4409 26.1634 15.6405 26.6362 15.6405 27.2561C15.6405 27.8759 15.4514 28.2331 14.8421 28.769C11.9738 31.2905 7.34055 29.7881 6.34245 26.0373C6.21638 25.5961 6.18486 24.6295 6.18486 21.6457V17.7201H5.35822C4.72784 17.7201 3.82094 18.2455 3.82094 19.0334L3.78942 21.9294C3.7579 25.5645 3.82094 26.2054 4.35676 27.5187C5.11321 29.3783 6.64713 30.9858 8.43321 31.7738C9.45232 32.2255 10.2613 32.3831 11.4905 32.3831C13.1716 32.3936 14.2117 32.0785 15.9032 31.0383C16.481 30.6811 16.5861 30.6601 17.185 30.6916C17.9099 30.7336 18.2671 30.9333 18.6559 31.5111C18.9395 31.9314 19.0446 32.4357 18.95 32.94C18.7714 33.896 16.5546 35.3039 14.3273 35.8817C13.014 36.2179 10.7656 36.3125 9.5784 36.0919Z" fill="#E53316"/>
<path d="M43.745 36.1203C43.3983 36.0782 42.6524 35.8891 42.0956 35.7C38.6705 34.5968 36.0229 31.7601 35.0143 28.125C34.6781 26.9167 34.552 24.5633 34.7516 23.208C35.382 18.8899 38.5444 15.3283 42.7364 14.1936C43.64 13.9519 43.9342 13.9204 45.5837 13.9309C47.1281 13.9309 47.5588 13.9624 48.2628 14.1516C50.0068 14.6243 52.4128 16.0847 52.9171 16.9988C53.2848 17.6502 53.3373 18.4276 53.0536 19.0685C52.749 19.7409 52.4758 20.0351 51.8349 20.3293C50.8893 20.781 50.0068 20.6129 48.9667 19.804C48.0526 19.1 47.3697 18.8059 46.3716 18.6693C42.9676 18.228 40.0678 20.5814 39.5951 24.1746C39.3324 26.1498 39.9313 28.0934 41.2445 29.5223C42.4738 30.8461 43.724 31.4029 45.4681 31.4029C46.7183 31.4029 47.811 31.0562 48.9247 30.3103C49.9438 29.6379 50.3535 29.4803 51.0049 29.5328C52.4968 29.6589 53.4634 31.1193 53.0431 32.6427C52.6859 33.998 49.9753 35.6055 47.2752 36.0782C46.3296 36.2463 44.7642 36.2673 43.745 36.1203Z" fill="#E53316"/>
<path d="M62.8643 36.1303C58.4411 35.4368 55.0686 32.4005 53.997 28.135C53.3351 25.4979 53.5872 22.3145 54.6483 20.0346C56.529 15.9686 60.5319 13.6573 65.3333 13.8884C68.6743 14.0565 71.469 15.4013 73.3811 17.7967C75.3458 20.2447 76.1863 23.5647 75.6925 26.8847C74.9781 31.602 71.8472 34.9851 67.2874 35.9832C66.4049 36.1828 63.7573 36.2668 62.8643 36.1303ZM66.51 31.2343C67.5186 30.9296 68.4431 30.3728 69.1576 29.6163C72.2569 26.3174 71.0592 20.4338 66.9828 19.005C64.5768 18.154 62.0343 18.7003 60.3428 20.4128C57.3485 23.4281 58.1785 28.986 61.8872 30.8141C63.2425 31.4865 65.0706 31.6546 66.51 31.2343Z" fill="#E53316"/>
<path d="M146.343 36.1776C143.633 35.6733 141.805 34.7698 140.134 33.0993C138.768 31.7229 137.76 29.9474 137.234 27.9932C136.982 27.0371 136.951 26.7745 136.951 25.0514C136.951 23.3389 136.982 23.0657 137.234 22.1097C137.833 19.8508 139.241 17.6445 140.985 16.2471C142.078 15.3646 143.822 14.4821 145.135 14.1564C146.469 13.8202 149.243 13.8202 150.493 14.1669C152.006 14.5766 153.855 15.5852 154.801 16.5308C155.263 17.0036 155.484 17.5604 155.484 18.2854C155.473 19.8823 153.635 21.059 152.174 20.3866C151.943 20.2816 151.386 19.9348 150.924 19.5986C149.873 18.8527 149.254 18.6636 147.814 18.6531C146.932 18.6531 146.564 18.6951 146.007 18.8842C144.084 19.5461 142.509 21.2902 141.983 23.3704C141.784 24.1794 141.784 25.9234 141.983 26.7324C142.54 28.9177 144.379 30.8404 146.343 31.2922C146.606 31.3552 147.215 31.4077 147.709 31.4077C149.096 31.4077 149.968 31.1136 151.418 30.168C152.353 29.5586 152.941 29.4115 153.698 29.6112C155.641 30.126 155.999 32.7315 154.297 34.0028C152.311 35.4842 150.493 36.1251 148.024 36.1881C147.247 36.2091 146.49 36.2091 146.343 36.1776Z" fill="#E53316"/>
<path d="M79.781 35.93C79.2977 35.8144 78.867 35.5518 78.4992 35.1631C77.8163 34.4486 77.8374 34.8163 77.8374 25.0455C77.8374 15.2746 77.8163 15.6423 78.4992 14.9279C79.0351 14.3711 79.5814 14.1294 80.3063 14.1294C81.0838 14.1399 81.6196 14.3921 82.1975 15.033C82.4286 15.2851 84.4878 17.9852 86.7677 21.0321L90.9177 26.5689L90.9702 21.2422C91.0123 17.4599 91.0543 15.8209 91.1489 15.6318C91.4851 14.8754 92.294 14.266 93.1451 14.1189C94.1747 13.9508 95.4669 14.7178 95.8137 15.7054C95.9397 16.0416 95.9607 17.7226 95.9607 25.0455C95.9607 32.3684 95.9397 34.0494 95.8137 34.3856C95.7401 34.6167 95.4669 34.995 95.2148 35.2471C94.2062 36.2557 92.5672 36.2242 91.6426 35.1631C91.4745 34.9739 89.4468 32.2948 87.1354 29.227L82.9329 23.6376L82.8804 28.8593L82.8279 34.0809L82.5757 34.5852C82.271 35.2051 81.7247 35.6674 81.0523 35.867C80.4954 36.0351 80.2748 36.0456 79.781 35.93Z" fill="#E53316"/>
<path d="M101.066 35.9017C100.614 35.7756 100.078 35.4184 99.7945 35.0507C99.2481 34.3678 99.2692 34.704 99.2692 25.0277C99.2692 16.5281 99.2797 15.9923 99.4688 15.593C99.889 14.6685 100.73 14.1221 101.738 14.1326C102.526 14.1432 103.083 14.4163 103.64 15.0572C103.871 15.3094 105.899 17.9885 108.147 20.9933C110.406 23.9981 112.276 26.4565 112.329 26.4565C112.371 26.4671 112.402 24.1662 112.402 21.3505C112.402 18.062 112.444 16.0763 112.518 15.8242C112.654 15.3409 113.243 14.6475 113.757 14.3848C114.997 13.7649 116.542 14.2692 117.119 15.488C117.34 15.9607 117.34 16.0028 117.34 25.0487C117.34 34.0946 117.34 34.1367 117.119 34.6094C116.689 35.5235 115.543 36.1329 114.577 35.9753C113.484 35.7967 113.537 35.8492 108.777 29.5139C106.35 26.2779 104.333 23.6304 104.291 23.6304C104.239 23.6304 104.207 25.9838 104.207 28.8625V34.0946L103.934 34.641C103.619 35.2818 103.156 35.6706 102.463 35.8807C101.906 36.0488 101.581 36.0488 101.066 35.9017Z" fill="#E53316"/>
<path d="M122.04 35.8602C121.703 35.7551 121.367 35.545 121.073 35.2403C120.243 34.4208 120.274 34.8411 120.306 24.776L120.338 15.9087L120.569 15.4674C120.873 14.9001 121.472 14.4168 122.113 14.2277C122.87 13.9965 134.08 13.9965 134.826 14.2172C136.15 14.6164 136.832 15.8982 136.454 17.2745C136.297 17.8313 135.498 18.6298 134.941 18.7874C134.668 18.861 132.966 18.903 129.93 18.903H125.328V20.7416V22.5802H128.617C132.273 22.5802 132.378 22.6012 133.071 23.3261C134.353 24.6815 133.66 26.9088 131.831 27.2975C131.527 27.3606 130.045 27.4131 128.322 27.4131H125.328V29.3042V31.1954H129.93C132.966 31.1954 134.668 31.2374 134.941 31.3109C135.498 31.4685 136.297 32.267 136.454 32.8238C136.727 33.8114 136.412 34.9041 135.698 35.4504C134.941 36.0178 134.836 36.0283 128.438 36.0178C123.542 36.0178 122.46 35.9862 122.04 35.8602Z" fill="#E53316"/>
<path d="M165.189 35.8771C164.538 35.667 164.034 35.2362 163.729 34.6269L163.466 34.0911V26.495V18.8989H161.081C158.36 18.8989 158.15 18.8464 157.457 18.0794C156.417 16.9237 156.753 15.0956 158.14 14.3497L158.581 14.1186L165.662 14.087C173.647 14.0555 173.489 14.045 174.267 14.8015C174.782 15.2953 175.086 16.1568 174.981 16.8187C174.834 17.7222 174.13 18.5732 173.342 18.7939C173.143 18.8569 171.945 18.8989 170.695 18.8989H168.404V26.495C168.404 33.6288 168.383 34.1016 168.205 34.5008C167.69 35.625 166.324 36.2554 165.189 35.8771Z" fill="#E53316"/>
<path d="M19.579 29.6016C19.3584 29.4651 19.0222 29.1604 18.8541 28.9082C18.2342 28.0257 18.4863 26.7544 19.4109 26.103C19.7996 25.8299 19.9467 25.7878 20.5771 25.7878C21.2075 25.7878 21.3546 25.8299 21.7433 26.103C22.3317 26.5233 22.6258 27.1011 22.6258 27.8366C22.6153 28.53 22.3842 28.9818 21.8063 29.4545C21.4596 29.7277 21.302 29.7802 20.7032 29.8118C20.1253 29.8328 19.9257 29.8013 19.579 29.6016Z" fill="#E53316"/>
<path d="M14.0145 23.7808C12.9849 23.2135 12.5332 22.0683 12.9534 21.0807C13.132 20.671 13.6994 20.1141 14.0986 19.967C15.0337 19.6098 16.1473 19.9986 16.6516 20.8601C16.8933 21.2698 16.9248 21.4169 16.8828 22.0053C16.8407 22.7512 16.6831 23.0454 16.0213 23.5707C15.7061 23.8334 15.5275 23.8964 14.9811 23.9174C14.5294 23.9384 14.2352 23.8964 14.0145 23.7808Z" fill="#E53316"/>
<path d="M20.2132 23.7575C18.8684 23.1166 18.6058 21.383 19.6984 20.3534C20.0977 19.9857 20.4759 19.8491 21.1378 19.8491C23.134 19.8596 23.8905 22.4547 22.2305 23.5999C21.6946 23.9781 20.8226 24.0411 20.2132 23.7575Z" fill="#E53316"/>
<path d="M27.9539 23.7228C26.441 22.9768 26.441 20.8125 27.9539 20.0455C28.6053 19.7093 29.5719 19.7934 30.1077 20.2347C30.7171 20.718 30.9272 21.1592 30.9272 21.9157C30.9272 22.462 30.8852 22.6301 30.612 23.0083C29.9921 23.8804 28.889 24.185 27.9539 23.7228Z" fill="#E53316"/>
<path d="M14.2445 17.9566C13.425 17.7045 12.8157 16.8535 12.8052 15.9499C12.8052 14.6576 14.0975 13.6385 15.3267 13.9537C16.3878 14.2374 16.9552 15.0254 16.8816 16.1285C16.8501 16.6749 16.7871 16.864 16.5244 17.1897C15.9571 17.9041 15.0745 18.1983 14.2445 17.9566Z" fill="#E53316"/>
<path d="M20.4405 17.9553C19.9572 17.8083 19.4529 17.367 19.2113 16.8522C18.4548 15.2762 19.9362 13.5112 21.6382 13.9629C22.5628 14.2151 23.3087 15.3708 23.1301 16.2953C22.899 17.5456 21.6487 18.3126 20.4405 17.9553Z" fill="#E53316"/>
<path d="M20.4347 12.0201C19.1845 11.5788 18.6381 10.0239 19.3526 8.93125C20.6343 6.99809 23.6497 8.33239 23.0823 10.5807C22.9247 11.2321 22.2628 11.894 21.6114 12.0516C21.0021 12.2092 20.9495 12.2092 20.4347 12.0201Z" fill="#E53316"/>
</svg>
