<svg width="229" height="46" viewBox="0 0 229 46" fill="none" xmlns="http://www.w3.org/2000/svg">
<path d="M103.273 33.7399H101.422L103.11 31.261C102.897 31.1712 102.697 31.0479 102.51 30.8908C102.323 30.73 102.171 30.5281 102.055 30.2851C101.94 30.0421 101.882 29.7505 101.882 29.4102C101.882 28.7858 102.117 28.3072 102.588 27.9745C103.063 27.638 103.674 27.4697 104.422 27.4697H107.339V33.7399H105.628V31.4068H104.686L103.273 33.7399ZM103.559 29.4214C103.559 29.6832 103.661 29.8888 103.867 30.0383C104.076 30.1842 104.346 30.2571 104.675 30.2571H105.628V28.6755H104.456C104.149 28.6755 103.923 28.7503 103.777 28.8999C103.631 29.0457 103.559 29.2195 103.559 29.4214Z" fill="white"/>
<path d="M95.6956 27.4697V29.9486C95.6956 30.0757 95.69 30.2365 95.6788 30.4309C95.6713 30.6216 95.6601 30.816 95.6451 31.0142C95.6302 31.2124 95.6152 31.39 95.6003 31.547C95.5853 31.704 95.5741 31.8106 95.5666 31.8667L98.4605 27.4697H100.519V33.7399H98.8643V31.2385C98.8643 31.0329 98.8718 30.8067 98.8867 30.5599C98.9017 30.3094 98.9185 30.0739 98.9372 29.8533C98.9559 29.6327 98.969 29.4663 98.9765 29.3541L96.0938 33.7399H94.0411V27.4697H95.6956Z" fill="white"/>
<path d="M92.9755 35.9888H91.4388V33.7399H86.1333V27.4697H87.8438V32.4555H90.3452V27.4697H92.0613V32.4892H92.9755V35.9888Z" fill="white"/>
<path d="M81.7588 27.3408C82.6 27.3408 83.245 27.524 83.6937 27.8904C84.1423 28.2569 84.3667 28.8139 84.3667 29.5617V33.7399H83.1721L82.8412 32.8875H82.7963C82.6169 33.1118 82.4337 33.295 82.2467 33.4371C82.0598 33.5792 81.8448 33.6839 81.6018 33.7512C81.3587 33.8185 81.0634 33.8521 80.7156 33.8521C80.3455 33.8521 80.0127 33.7811 79.7173 33.639C79.4257 33.4969 79.1958 33.2801 79.0275 32.9884C78.8593 32.6931 78.7751 32.3192 78.7751 31.8668C78.7751 31.2012 79.0088 30.7114 79.4762 30.3974C79.9436 30.0796 80.6446 29.9038 81.5793 29.8702L82.6673 29.8365V29.5617C82.6673 29.2327 82.5813 28.9915 82.4094 28.8382C82.2374 28.685 81.9981 28.6083 81.6915 28.6083C81.3886 28.6083 81.0914 28.6513 80.7998 28.7373C80.5081 28.8233 80.2165 28.9317 79.9249 29.0626L79.3584 27.9073C79.6912 27.7315 80.0632 27.5932 80.4745 27.4922C80.8895 27.3913 81.3176 27.3408 81.7588 27.3408ZM82.6673 30.8348L82.0056 30.8573C81.4522 30.8722 81.0671 30.9713 80.8502 31.1545C80.6371 31.3377 80.5306 31.5789 80.5306 31.878C80.5306 32.1397 80.6072 32.3266 80.7605 32.4388C80.9138 32.5472 81.1138 32.6014 81.3606 32.6014C81.727 32.6014 82.0355 32.493 82.286 32.2762C82.5402 32.0593 82.6673 31.7509 82.6673 31.3508V30.8348Z" fill="white"/>
<path d="M77.39 27.4697V33.7399H75.7916V30.6609C75.7916 30.358 75.7972 30.0608 75.8084 29.7691C75.8196 29.4775 75.8364 29.2083 75.8589 28.9615H75.8252L74.0922 33.7399H72.8079L71.0469 28.9503H71.002C71.032 29.2008 71.0525 29.47 71.0637 29.7579C71.075 30.0458 71.0806 30.3618 71.0806 30.7057V33.7399H69.4878V27.4697H71.9106L73.4697 31.7209L75.0569 27.4697H77.39Z" fill="white"/>
<path d="M65.7078 27.3521C66.4144 27.3521 66.9846 27.6269 67.4183 28.1765C67.8557 28.7261 68.0745 29.5318 68.0745 30.5937C68.0745 31.3041 67.9717 31.9023 67.766 32.3883C67.5604 32.8707 67.2762 33.2352 66.9135 33.482C66.5509 33.7287 66.134 33.8521 65.6629 33.8521C65.36 33.8521 65.1002 33.8147 64.8833 33.74C64.6665 33.6614 64.4814 33.5624 64.3281 33.4427C64.1748 33.3193 64.0421 33.1885 63.9299 33.0501H63.8402C63.8701 33.1997 63.8925 33.353 63.9075 33.51C63.9224 33.667 63.9299 33.8203 63.9299 33.9699V36.4993H62.2194V27.4698H63.6102L63.8514 28.283H63.9299C64.0421 28.1148 64.1785 27.9596 64.3393 27.8175C64.5001 27.6755 64.6926 27.5633 64.917 27.481C65.145 27.395 65.4086 27.3521 65.7078 27.3521ZM65.1581 28.7205C64.859 28.7205 64.6216 28.7822 64.4459 28.9056C64.2701 29.0289 64.1412 29.214 64.0589 29.4608C63.9804 29.7076 63.9374 30.0198 63.9299 30.3974V30.5825C63.9299 30.9863 63.9673 31.3284 64.0421 31.6088C64.1206 31.8892 64.2496 32.1023 64.429 32.2481C64.6123 32.394 64.8628 32.4669 65.1806 32.4669C65.4423 32.4669 65.6573 32.394 65.8255 32.2481C65.9938 32.1023 66.119 31.8892 66.2013 31.6088C66.2873 31.3246 66.3303 30.9788 66.3303 30.5712C66.3303 29.9581 66.2349 29.4963 66.0443 29.186C65.8536 28.8757 65.5582 28.7205 65.1581 28.7205Z" fill="white"/>
<path d="M60.806 30.5937C60.806 31.1171 60.735 31.5807 60.5929 31.9845C60.4546 32.3883 60.2508 32.7305 59.9816 33.0109C59.7161 33.2876 59.3946 33.4969 59.0169 33.639C58.6431 33.7811 58.2206 33.8521 57.7495 33.8521C57.3083 33.8521 56.9026 33.7811 56.5324 33.639C56.166 33.4969 55.8464 33.2876 55.5734 33.0109C55.3042 32.7305 55.0948 32.3883 54.9453 31.9845C54.7995 31.5807 54.7266 31.1171 54.7266 30.5937C54.7266 29.8982 54.8499 29.3094 55.0967 28.827C55.3435 28.3447 55.6949 27.9783 56.1511 27.7278C56.6072 27.4773 57.1512 27.3521 57.7831 27.3521C58.3701 27.3521 58.8898 27.4773 59.3422 27.7278C59.7984 27.9783 60.1554 28.3447 60.4134 28.827C60.6751 29.3094 60.806 29.8982 60.806 30.5937ZM56.4708 30.5937C56.4708 31.005 56.5156 31.3508 56.6054 31.6312C56.6951 31.9116 56.8353 32.1229 57.026 32.265C57.2167 32.407 57.4653 32.4781 57.7719 32.4781C58.0747 32.4781 58.3196 32.407 58.5066 32.265C58.6973 32.1229 58.8356 31.9116 58.9216 31.6312C59.0113 31.3508 59.0562 31.005 59.0562 30.5937C59.0562 30.1787 59.0113 29.8347 58.9216 29.5617C58.8356 29.2851 58.6973 29.0776 58.5066 28.9392C58.3159 28.8009 58.0673 28.7317 57.7607 28.7317C57.3083 28.7317 56.9792 28.8869 56.7736 29.1972C56.5717 29.5075 56.4708 29.973 56.4708 30.5937Z" fill="white"/>
<path d="M50.3352 25.0134V27.4362C51.0606 27.4961 51.6719 27.6662 52.1691 27.9466C52.6664 28.2233 53.044 28.5897 53.302 29.0458C53.56 29.4982 53.689 30.0179 53.689 30.6049C53.689 31.1882 53.5638 31.7079 53.3132 32.1641C53.0665 32.6202 52.6945 32.9885 52.1972 33.2689C51.7036 33.5493 51.083 33.7213 50.3352 33.7849V36.4993H48.7481V33.7849C48.0264 33.7176 47.4151 33.5437 46.9141 33.2633C46.4131 32.9791 46.0299 32.6109 45.7644 32.1585C45.5027 31.7023 45.3718 31.1845 45.3718 30.6049C45.3718 30.0067 45.4933 29.4795 45.7364 29.0234C45.9794 28.5635 46.3495 28.1971 46.8468 27.9242C47.3478 27.6475 47.9816 27.4848 48.7481 27.4362V25.0134H50.3352ZM48.7481 28.7205C48.4153 28.7654 48.1274 28.8738 47.8844 29.0458C47.6451 29.2178 47.46 29.4384 47.3291 29.7076C47.1983 29.9731 47.1328 30.2722 47.1328 30.6049C47.1328 30.9452 47.1945 31.2499 47.3179 31.5191C47.445 31.7846 47.6283 32.0014 47.8675 32.1697C48.1106 32.3379 48.4041 32.4445 48.7481 32.4894V28.7205ZM50.3352 28.743V32.4894C50.6755 32.4445 50.9633 32.3379 51.1989 32.1697C51.4382 32.0014 51.6195 31.7846 51.7429 31.5191C51.87 31.2499 51.9336 30.9452 51.9336 30.6049C51.9336 30.1039 51.7896 29.6852 51.5017 29.3487C51.2176 29.0084 50.8287 28.8065 50.3352 28.743Z" fill="white"/>
<path d="M42.3883 33.8521C41.7676 33.8521 41.2385 33.74 40.8011 33.5156C40.3636 33.2876 40.0309 32.9361 39.8028 32.4613C39.5747 31.9864 39.4607 31.3788 39.4607 30.6385C39.4607 29.8721 39.5897 29.2477 39.8477 28.7654C40.1094 28.2793 40.4702 27.9222 40.9301 27.6942C41.3937 27.4661 41.9302 27.3521 42.5397 27.3521C42.9734 27.3521 43.3473 27.395 43.6613 27.481C43.9792 27.5633 44.2558 27.6624 44.4914 27.7783L43.9866 29.1019C43.7174 28.9934 43.4669 28.9056 43.2351 28.8383C43.0033 28.7672 42.7715 28.7317 42.5397 28.7317C42.2406 28.7317 41.9919 28.8027 41.7938 28.9448C41.5956 29.0832 41.4479 29.2925 41.3507 29.573C41.2535 29.8534 41.2049 30.2048 41.2049 30.6273C41.2049 31.0423 41.2572 31.3863 41.3619 31.6593C41.4666 31.9322 41.618 32.136 41.8162 32.2706C42.0144 32.4014 42.2555 32.4669 42.5397 32.4669C42.8949 32.4669 43.2108 32.4201 43.4875 32.3267C43.7642 32.2294 44.0334 32.0948 44.2951 31.9229V33.3866C44.0334 33.5511 43.7586 33.6689 43.4707 33.74C43.1865 33.8147 42.8257 33.8521 42.3883 33.8521Z" fill="white"/>
<path d="M33.9477 27.4697V29.8813H36.3369V27.4697H38.0474V33.7399H36.3369V31.1544H33.9477V33.7399H32.2372V27.4697H33.9477Z" fill="white"/>
<path d="M27.8627 27.3408C28.7039 27.3408 29.3489 27.524 29.7975 27.8904C30.2462 28.2569 30.4705 28.8139 30.4705 29.5617V33.7399H29.276L28.9451 32.8875H28.9002C28.7207 33.1118 28.5375 33.295 28.3506 33.4371C28.1636 33.5792 27.9487 33.6839 27.7056 33.7512C27.4626 33.8185 27.1672 33.8521 26.8195 33.8521C26.4494 33.8521 26.1166 33.7811 25.8212 33.639C25.5296 33.4969 25.2997 33.2801 25.1314 32.9884C24.9632 32.6931 24.879 32.3192 24.879 31.8668C24.879 31.2012 25.1127 30.7114 25.5801 30.3974C26.0474 30.0796 26.7485 29.9038 27.6832 29.8702L28.7712 29.8365V29.5617C28.7712 29.2327 28.6852 28.9915 28.5132 28.8382C28.3412 28.685 28.102 28.6083 27.7954 28.6083C27.4925 28.6083 27.1953 28.6513 26.9036 28.7373C26.612 28.8233 26.3204 28.9317 26.0287 29.0626L25.4623 27.9073C25.7951 27.7315 26.1671 27.5932 26.5784 27.4922C26.9934 27.3913 27.4215 27.3408 27.8627 27.3408ZM28.7712 30.8348L28.1094 30.8573C27.5561 30.8722 27.171 30.9713 26.9541 31.1545C26.741 31.3377 26.6344 31.5789 26.6344 31.878C26.6344 32.1397 26.7111 32.3266 26.8644 32.4388C27.0177 32.5472 27.2177 32.6014 27.4645 32.6014C27.8309 32.6014 28.1393 32.493 28.3899 32.2762C28.6441 32.0593 28.7712 31.7509 28.7712 31.3508V30.8348Z" fill="white"/>
<path d="M21.514 27.3521C22.2207 27.3521 22.7909 27.6269 23.2246 28.1765C23.662 28.7261 23.8807 29.5318 23.8807 30.5937C23.8807 31.3041 23.7779 31.9023 23.5723 32.3883C23.3667 32.8707 23.0825 33.2352 22.7198 33.482C22.3571 33.7287 21.9403 33.8521 21.4692 33.8521C21.1663 33.8521 20.9065 33.8147 20.6896 33.74C20.4727 33.6614 20.2877 33.5624 20.1344 33.4427C19.9811 33.3193 19.8483 33.1885 19.7362 33.0501H19.6464C19.6764 33.1997 19.6988 33.353 19.7137 33.51C19.7287 33.667 19.7362 33.8203 19.7362 33.9699V36.4993H18.0256V27.4698H19.4165L19.6577 28.283H19.7362C19.8483 28.1148 19.9848 27.9596 20.1456 27.8175C20.3064 27.6755 20.4989 27.5633 20.7232 27.481C20.9513 27.395 21.2149 27.3521 21.514 27.3521ZM20.9644 28.7205C20.6653 28.7205 20.4279 28.7822 20.2521 28.9056C20.0764 29.0289 19.9474 29.214 19.8652 29.4608C19.7867 29.7076 19.7437 30.0198 19.7362 30.3974V30.5825C19.7362 30.9863 19.7736 31.3284 19.8483 31.6088C19.9269 31.8892 20.0559 32.1023 20.2353 32.2481C20.4185 32.394 20.669 32.4669 20.9868 32.4669C21.2486 32.4669 21.4636 32.394 21.6318 32.2481C21.8001 32.1023 21.9253 31.8892 22.0076 31.6088C22.0936 31.3246 22.1366 30.9788 22.1366 30.5712C22.1366 29.9581 22.0412 29.4963 21.8505 29.186C21.6598 28.8757 21.3645 28.7205 20.9644 28.7205Z" fill="white"/>
<path d="M16.8534 28.754H14.8008V33.7399H13.0902V28.754H11.032V27.4697H16.8534V28.754Z" fill="white"/>
<path d="M67.7717 19.3827H65.9209L67.609 16.9038C67.3959 16.8141 67.1959 16.6907 67.0089 16.5336C66.822 16.3729 66.6705 16.171 66.5546 15.9279C66.4387 15.6849 66.3808 15.3933 66.3808 15.053C66.3808 14.4286 66.6163 13.9501 67.0874 13.6173C67.5623 13.2808 68.1736 13.1125 68.9214 13.1125H71.8377V19.3827H70.1272V17.0496H69.185L67.7717 19.3827ZM68.0577 15.0643C68.0577 15.326 68.1605 15.5316 68.3661 15.6812C68.5755 15.827 68.8447 15.8999 69.1737 15.8999H70.1272V14.3183H68.955C68.6484 14.3183 68.4222 14.3931 68.2764 14.5427C68.1306 14.6885 68.0577 14.8624 68.0577 15.0643Z" fill="white"/>
<path d="M62.4437 12.9834C63.285 12.9834 63.9299 13.1666 64.3786 13.533C64.8273 13.8994 65.0516 14.4565 65.0516 15.2043V19.3825H63.857L63.5261 18.5301H63.4813C63.3018 18.7544 63.1186 18.9376 62.9316 19.0797C62.7447 19.2217 62.5297 19.3264 62.2867 19.3937C62.0437 19.461 61.7483 19.4947 61.4006 19.4947C61.0304 19.4947 60.6977 19.4236 60.4023 19.2816C60.1107 19.1395 59.8807 18.9226 59.7125 18.631C59.5442 18.3356 59.4601 17.9617 59.4601 17.5093C59.4601 16.8438 59.6938 16.354 60.1611 16.0399C60.6285 15.7221 61.3295 15.5464 62.2643 15.5128L63.3523 15.4791V15.2043C63.3523 14.8753 63.2663 14.6341 63.0943 14.4808C62.9223 14.3275 62.683 14.2509 62.3764 14.2509C62.0736 14.2509 61.7763 14.2939 61.4847 14.3799C61.1931 14.4659 60.9014 14.5743 60.6098 14.7052L60.0434 13.5498C60.3761 13.3741 60.7481 13.2358 61.1594 13.1348C61.5744 13.0339 62.0025 12.9834 62.4437 12.9834ZM63.3523 16.4774L62.6905 16.4998C62.1371 16.5148 61.752 16.6139 61.5352 16.7971C61.3221 16.9803 61.2155 17.2214 61.2155 17.5206C61.2155 17.7823 61.2921 17.9692 61.4454 18.0814C61.5987 18.1898 61.7988 18.244 62.0455 18.244C62.4119 18.244 62.7204 18.1356 62.9709 17.9187C63.2252 17.7019 63.3523 17.3934 63.3523 16.9934V16.4774Z" fill="white"/>
<path d="M58.2094 14.7558C58.2094 15.0923 58.1028 15.3802 57.8897 15.6195C57.6803 15.855 57.37 16.0065 56.9587 16.0738V16.1186C57.3924 16.171 57.742 16.3224 58.0075 16.5729C58.2729 16.8197 58.4057 17.1319 58.4057 17.5095C58.4057 17.8684 58.3122 18.19 58.1252 18.4741C57.9383 18.7545 57.641 18.977 57.2335 19.1415C56.826 19.3023 56.2932 19.3827 55.6351 19.3827H52.6515V13.1125H55.6351C56.1249 13.1125 56.5642 13.1649 56.9531 13.2696C57.3419 13.3705 57.6485 13.5407 57.8729 13.7799C58.0972 14.0192 58.2094 14.3445 58.2094 14.7558ZM56.6334 17.4198C56.6334 17.173 56.5362 16.9954 56.3418 16.887C56.1511 16.7748 55.8669 16.7187 55.4893 16.7187H54.362V18.1993H55.523C55.8445 18.1993 56.11 18.1395 56.3193 18.0199C56.5287 17.9002 56.6334 17.7002 56.6334 17.4198ZM56.4764 14.8904C56.4764 14.696 56.3997 14.552 56.2464 14.4586C56.0931 14.3651 55.8669 14.3183 55.5678 14.3183H54.362V15.5578H55.3715C55.7342 15.5578 56.009 15.5054 56.196 15.4008C56.3829 15.2961 56.4764 15.1259 56.4764 14.8904Z" fill="white"/>
<path d="M51.2383 16.2363C51.2383 16.7597 51.1672 17.2233 51.0251 17.6271C50.8868 18.0309 50.683 18.373 50.4138 18.6535C50.1484 18.9301 49.8268 19.1395 49.4492 19.2816C49.0753 19.4237 48.6528 19.4947 48.1817 19.4947C47.7405 19.4947 47.3349 19.4237 46.9647 19.2816C46.5983 19.1395 46.2786 18.9301 46.0057 18.6535C45.7365 18.373 45.5271 18.0309 45.3775 17.6271C45.2317 17.2233 45.1588 16.7597 45.1588 16.2363C45.1588 15.5408 45.2822 14.9519 45.529 14.4696C45.7757 13.9873 46.1272 13.6209 46.5833 13.3704C47.0395 13.1199 47.5835 12.9946 48.2154 12.9946C48.8024 12.9946 49.3221 13.1199 49.7745 13.3704C50.2306 13.6209 50.5877 13.9873 50.8457 14.4696C51.1074 14.9519 51.2383 15.5408 51.2383 16.2363ZM46.903 16.2363C46.903 16.6475 46.9479 16.9934 47.0376 17.2738C47.1273 17.5542 47.2676 17.7655 47.4582 17.9075C47.6489 18.0496 47.8976 18.1207 48.2041 18.1207C48.507 18.1207 48.7519 18.0496 48.9388 17.9075C49.1295 17.7655 49.2679 17.5542 49.3539 17.2738C49.4436 16.9934 49.4885 16.6475 49.4885 16.2363C49.4885 15.8212 49.4436 15.4773 49.3539 15.2043C49.2679 14.9276 49.1295 14.7201 48.9388 14.5818C48.7482 14.4435 48.4995 14.3743 48.1929 14.3743C47.7405 14.3743 47.4115 14.5294 47.2059 14.8398C47.004 15.1501 46.903 15.6156 46.903 16.2363Z" fill="white"/>
<path d="M41.7601 12.9946C42.4668 12.9946 43.037 13.2694 43.4707 13.8191C43.9081 14.3687 44.1268 15.1744 44.1268 16.2363C44.1268 16.9466 44.024 17.5449 43.8184 18.0309C43.6127 18.5132 43.3286 18.8778 42.9659 19.1246C42.6032 19.3713 42.1864 19.4947 41.7153 19.4947C41.4124 19.4947 41.1525 19.4573 40.9357 19.3825C40.7188 19.304 40.5338 19.2049 40.3805 19.0853C40.2272 18.9619 40.0944 18.831 39.9823 18.6927H39.8925C39.9225 18.8423 39.9449 18.9956 39.9598 19.1526C39.9748 19.3096 39.9823 19.4629 39.9823 19.6125V22.1418H38.2717V13.1124H39.6626L39.9038 13.9256H39.9823C40.0944 13.7574 40.2309 13.6022 40.3917 13.4601C40.5525 13.318 40.745 13.2059 40.9693 13.1236C41.1974 13.0376 41.461 12.9946 41.7601 12.9946ZM41.2105 14.3631C40.9114 14.3631 40.674 14.4248 40.4982 14.5481C40.3225 14.6715 40.1935 14.8566 40.1113 15.1034C40.0327 15.3501 39.9898 15.6623 39.9823 16.04V16.225C39.9823 16.6288 40.0197 16.9709 40.0944 17.2514C40.173 17.5318 40.3019 17.7449 40.4814 17.8907C40.6646 18.0365 40.9151 18.1094 41.2329 18.1094C41.4947 18.1094 41.7096 18.0365 41.8779 17.8907C42.0461 17.7449 42.1714 17.5318 42.2537 17.2514C42.3396 16.9672 42.3826 16.6214 42.3826 16.2138C42.3826 15.6006 42.2873 15.1389 42.0966 14.8286C41.9059 14.5182 41.6106 14.3631 41.2105 14.3631Z" fill="white"/>
<path d="M33.499 10.656V13.0788C34.2244 13.1386 34.8357 13.3088 35.333 13.5892C35.8302 13.8658 36.2079 14.2323 36.4658 14.6884C36.7238 15.1408 36.8528 15.6605 36.8528 16.2475C36.8528 16.8308 36.7276 17.3505 36.4771 17.8066C36.2303 18.2628 35.8583 18.6311 35.361 18.9115C34.8675 19.1919 34.2468 19.3639 33.499 19.4275V22.1419H31.9119V19.4275C31.1903 19.3602 30.579 19.1863 30.0779 18.9059C29.5769 18.6217 29.1937 18.2534 28.9282 17.801C28.6665 17.3449 28.5356 16.8271 28.5356 16.2475C28.5356 15.6493 28.6572 15.1221 28.9002 14.666C29.1432 14.2061 29.5134 13.8397 30.0106 13.5667C30.5117 13.2901 31.1454 13.1274 31.9119 13.0788V10.656H33.499ZM31.9119 14.3631C31.5791 14.408 31.2912 14.5164 31.0482 14.6884C30.8089 14.8604 30.6238 15.081 30.493 15.3502C30.3621 15.6157 30.2967 15.9148 30.2967 16.2475C30.2967 16.5878 30.3584 16.8925 30.4817 17.1617C30.6089 17.4271 30.7921 17.644 31.0314 17.8123C31.2744 17.9805 31.5679 18.0871 31.9119 18.1319V14.3631ZM33.499 14.3856V18.1319C33.8393 18.0871 34.1272 17.9805 34.3627 17.8123C34.602 17.644 34.7833 17.4271 34.9067 17.1617C35.0338 16.8925 35.0974 16.5878 35.0974 16.2475C35.0974 15.7465 34.9535 15.3278 34.6656 14.9913C34.3814 14.651 33.9926 14.4491 33.499 14.3856Z" fill="white"/>
<path d="M22.2935 13.1125V15.5914C22.2935 15.7186 22.2879 15.8793 22.2767 16.0738C22.2692 16.2644 22.258 16.4589 22.243 16.657C22.2281 16.8552 22.2131 17.0328 22.1982 17.1898C22.1832 17.3469 22.172 17.4534 22.1645 17.5095L25.0584 13.1125H27.1167V19.3827H25.4622V16.8814C25.4622 16.6757 25.4697 16.4495 25.4846 16.2027C25.4996 15.9522 25.5164 15.7167 25.5351 15.4961C25.5538 15.2755 25.5669 15.1091 25.5744 14.997L22.6917 19.3827H20.639V13.1125H22.2935Z" fill="white"/>
<path d="M19.5118 18.0029V21.7717H17.8349V19.3825H11.8003V11.1831H13.5389V17.9356H16.5562V11.1831H18.2891V18.0029H19.5118Z" fill="white"/>
<path d="M214.867 27.3406C215.708 27.3406 216.353 27.5238 216.802 27.8902C217.251 28.2566 217.475 28.8137 217.475 29.5615V33.7397H216.28L215.949 32.8872H215.905C215.725 33.1116 215.542 33.2948 215.355 33.4368C215.168 33.5789 214.953 33.6836 214.71 33.7509C214.467 33.8182 214.172 33.8519 213.824 33.8519C213.454 33.8519 213.121 33.7808 212.826 33.6387C212.534 33.4967 212.304 33.2798 212.136 32.9882C211.968 32.6928 211.883 32.3189 211.883 31.8665C211.883 31.201 212.117 30.7112 212.584 30.3971C213.052 30.0793 213.753 29.9036 214.688 29.8699L215.776 29.8363V29.5615C215.776 29.2325 215.69 28.9913 215.518 28.838C215.346 28.6847 215.106 28.6081 214.8 28.6081C214.497 28.6081 214.2 28.6511 213.908 28.7371C213.616 28.823 213.325 28.9315 213.033 29.0623L212.467 27.907C212.799 27.7313 213.171 27.593 213.583 27.492C213.998 27.3911 214.426 27.3406 214.867 27.3406ZM215.776 30.8346L215.114 30.857C214.56 30.872 214.175 30.971 213.959 31.1543C213.745 31.3375 213.639 31.5786 213.639 31.8777C213.639 32.1395 213.715 32.3264 213.869 32.4386C214.022 32.547 214.222 32.6012 214.469 32.6012C214.835 32.6012 215.144 32.4928 215.394 32.2759C215.648 32.0591 215.776 31.7506 215.776 31.3505V30.8346Z" fill="white"/>
<path d="M206.942 30.5375L204.923 27.4697H206.864L208.081 29.4663L209.309 27.4697H211.25L209.208 30.5375L211.345 33.7399H209.399L208.081 31.5919L206.757 33.7399H204.817L206.942 30.5375Z" fill="white"/>
<path d="M201.458 27.3518C202.037 27.3518 202.536 27.464 202.955 27.6883C203.374 27.9089 203.697 28.2304 203.925 28.6529C204.153 29.0754 204.267 29.5914 204.267 30.2008V31.0309H200.224C200.242 31.5132 200.386 31.8927 200.656 32.1694C200.928 32.4423 201.306 32.5788 201.788 32.5788C202.188 32.5788 202.555 32.5377 202.888 32.4554C203.22 32.3731 203.563 32.2498 203.914 32.0853V33.4088C203.604 33.5621 203.278 33.6743 202.938 33.7453C202.602 33.8164 202.192 33.8519 201.71 33.8519C201.082 33.8519 200.525 33.736 200.039 33.5042C199.556 33.2724 199.177 32.919 198.9 32.4442C198.627 31.9693 198.491 31.3711 198.491 30.6495C198.491 29.9167 198.614 29.3073 198.861 28.8212C199.111 28.3314 199.459 27.965 199.904 27.722C200.349 27.4752 200.867 27.3518 201.458 27.3518ZM201.469 28.5688C201.136 28.5688 200.859 28.6754 200.639 28.8885C200.422 29.1016 200.297 29.4362 200.263 29.8924H202.663C202.66 29.6381 202.613 29.4119 202.523 29.2138C202.437 29.0156 202.306 28.8586 202.131 28.7427C201.959 28.6268 201.738 28.5688 201.469 28.5688Z" fill="white"/>
<path d="M197.077 27.4697V33.7399H195.361V28.754H193.09V33.7399H191.379V27.4697H197.077Z" fill="white"/>
<path d="M188.014 33.8519C187.394 33.8519 186.865 33.7397 186.427 33.5154C185.99 33.2873 185.657 32.9359 185.429 32.461C185.201 31.9862 185.087 31.3786 185.087 30.6383C185.087 29.8718 185.216 29.2474 185.474 28.7651C185.735 28.2791 186.096 27.922 186.556 27.6939C187.02 27.4658 187.556 27.3518 188.166 27.3518C188.599 27.3518 188.973 27.3948 189.287 27.4808C189.605 27.5631 189.882 27.6621 190.117 27.778L189.613 29.1016C189.344 28.9932 189.093 28.9053 188.861 28.838C188.629 28.767 188.398 28.7315 188.166 28.7315C187.867 28.7315 187.618 28.8025 187.42 28.9446C187.222 29.0829 187.074 29.2923 186.977 29.5727C186.88 29.8531 186.831 30.2046 186.831 30.6271C186.831 31.0421 186.883 31.3861 186.988 31.659C187.093 31.932 187.244 32.1357 187.442 32.2703C187.64 32.4012 187.882 32.4666 188.166 32.4666C188.521 32.4666 188.837 32.4199 189.114 32.3264C189.39 32.2292 189.659 32.0946 189.921 31.9226V33.3864C189.659 33.5509 189.385 33.6687 189.097 33.7397C188.813 33.8145 188.452 33.8519 188.014 33.8519Z" fill="white"/>
<path d="M178.031 27.4697H179.905L181.088 30.9974C181.125 31.1095 181.157 31.2236 181.183 31.3395C181.21 31.4554 181.232 31.575 181.251 31.6984C181.269 31.8218 181.284 31.9508 181.296 32.0854H181.329C181.352 31.8835 181.382 31.6947 181.419 31.519C181.46 31.3432 181.511 31.1694 181.57 30.9974L182.731 27.4697H184.565L181.912 34.5419C181.752 34.9756 181.542 35.3364 181.284 35.6243C181.026 35.9159 180.729 36.1346 180.393 36.2804C180.06 36.4263 179.693 36.4992 179.293 36.4992C179.099 36.4992 178.931 36.4879 178.789 36.4655C178.647 36.4468 178.525 36.4263 178.424 36.4038V35.0466C178.503 35.0653 178.602 35.0821 178.721 35.0971C178.841 35.112 178.966 35.1195 179.097 35.1195C179.336 35.1195 179.542 35.069 179.714 34.9681C179.886 34.8671 180.03 34.7307 180.146 34.5587C180.262 34.3904 180.353 34.2054 180.421 34.0035L180.522 33.695L178.031 27.4697Z" fill="white"/>
<path d="M198.317 14.3966H196.264V19.3824H194.554V14.3966H192.495V13.1123H198.317V14.3966Z" fill="white"/>
<path d="M188.928 12.9946C189.508 12.9946 190.007 13.1068 190.426 13.3311C190.845 13.5517 191.168 13.8733 191.396 14.2958C191.624 14.7183 191.738 15.2342 191.738 15.8437V16.6737H187.695C187.713 17.156 187.857 17.5355 188.126 17.8122C188.399 18.0851 188.777 18.2216 189.259 18.2216C189.659 18.2216 190.026 18.1805 190.359 18.0982C190.691 18.016 191.033 17.8926 191.385 17.7281V19.0516C191.075 19.2049 190.749 19.3171 190.409 19.3881C190.073 19.4592 189.663 19.4947 189.181 19.4947C188.553 19.4947 187.996 19.3788 187.51 19.147C187.027 18.9152 186.648 18.5618 186.371 18.087C186.098 17.6122 185.962 17.0139 185.962 16.2923C185.962 15.5595 186.085 14.9501 186.332 14.464C186.582 13.9742 186.93 13.6078 187.375 13.3648C187.82 13.118 188.338 12.9946 188.928 12.9946ZM188.94 14.2116C188.607 14.2116 188.33 14.3182 188.11 14.5313C187.893 14.7444 187.768 15.0791 187.734 15.5352H190.134C190.131 15.281 190.084 15.0548 189.994 14.8566C189.908 14.6584 189.777 14.5014 189.601 14.3855C189.429 14.2696 189.209 14.2116 188.94 14.2116Z" fill="white"/>
<path d="M184.543 19.3824H182.832V14.3966H181.256C181.178 15.3164 181.084 16.0997 180.976 16.7465C180.867 17.3933 180.729 17.9205 180.561 18.3281C180.393 18.7319 180.183 19.0272 179.933 19.2142C179.682 19.4011 179.374 19.4946 179.007 19.4946C178.805 19.4946 178.624 19.4796 178.463 19.4497C178.306 19.4198 178.162 19.375 178.031 19.3151V17.9467C178.114 17.9803 178.202 18.0084 178.295 18.0308C178.389 18.0495 178.484 18.0589 178.581 18.0589C178.69 18.0589 178.792 18.0159 178.89 17.9299C178.987 17.8439 179.078 17.6962 179.164 17.4868C179.25 17.2737 179.331 16.9802 179.406 16.6063C179.484 16.2324 179.555 15.7594 179.619 15.1874C179.682 14.6153 179.742 13.9236 179.798 13.1123H184.543V19.3824Z" fill="white"/>
<path fill-rule="evenodd" clip-rule="evenodd" d="M225.411 1.43574H3.58934C2.39994 1.43574 1.43574 2.39994 1.43574 3.58934V41.6364C1.43574 42.8258 2.39994 43.79 3.58934 43.79H225.411C226.6 43.79 227.564 42.8258 227.564 41.6364V3.58934C227.564 2.39994 226.6 1.43574 225.411 1.43574ZM3.58934 0C1.607 0 0 1.607 0 3.58934V41.6364C0 43.6187 1.60701 45.2257 3.58934 45.2257H225.411C227.393 45.2257 229 43.6187 229 41.6364V3.58934C229 1.607 227.393 0 225.411 0H3.58934Z" fill="white"/>
<path d="M130.652 12.2039H144.051V16.6701H130.652V12.2039Z" fill="white"/>
<path d="M157.45 12.2039H166.383V16.6701H157.45V12.2039Z" fill="white"/>
<path d="M157.45 30.0691H166.383V34.5354H157.45V30.0691Z" fill="white"/>
<path d="M130.652 30.0691H148.517V34.5354H130.652V30.0691Z" fill="white"/>
<path d="M152.982 30.0691L152.982 16.6702L157.448 16.6702L157.448 30.0691L152.982 30.0691Z" fill="white"/>
<path d="M166.387 30.0691L166.387 16.6702L170.853 16.6702L170.853 30.0691L166.387 30.0691Z" fill="white"/>
<path d="M144.049 16.6699H148.515V21.1362H144.049V16.6699Z" fill="white"/>
<path d="M130.652 25.6028H135.118V30.0691H130.652V25.6028Z" fill="white"/>
<path d="M135.118 21.136H144.05V25.6023H135.118V21.136Z" fill="white"/>
<path d="M119.884 1.43579L119.884 45.2258L118.448 45.2258L118.448 1.43579L119.884 1.43579Z" fill="white"/>
</svg>
