<svg width="201" height="50" viewBox="0 0 201 50" fill="none" xmlns="http://www.w3.org/2000/svg">
<path d="M86.9849 14.5846C86.0679 13.3619 84.8453 12.4013 83.2732 11.7463C81.7012 11.0476 79.7362 10.6982 77.3782 10.6982C76.7668 10.6982 76.0681 10.6982 75.2821 10.7419C75.2821 10.7419 75.0638 10.7419 74.6708 10.7856C74.1031 10.7856 73.5791 10.8292 73.0551 10.8729C72.3128 10.9166 71.6578 10.9602 71.0901 11.0039C70.6971 11.0476 70.3477 11.0912 70.1294 11.0912C68.339 11.2659 66.4177 11.4406 65.195 11.7463V16.5933C65.195 16.5933 67.3784 16.244 69.9111 16.0256V37.9903C70.2604 38.0339 70.6971 38.0776 71.3521 38.1213C71.9634 38.1649 72.6184 38.2086 73.2734 38.2523C73.9285 38.2959 74.5835 38.3396 75.2385 38.3396C75.8935 38.3833 76.4175 38.3833 76.8105 38.3833C79.3869 38.3833 81.5266 37.9903 83.1422 37.1606C84.8016 36.3746 86.0679 35.2829 87.0286 33.9729C87.9456 32.6629 88.6006 31.1345 88.95 29.4751C89.2556 27.7721 89.4303 26.0254 89.4303 24.2787C89.4303 22.3137 89.2556 20.5234 88.9063 18.9077C88.557 17.2047 87.902 15.8073 86.9849 14.5846ZM83.7099 27.6411C83.5789 28.7765 83.3169 29.7808 82.8802 30.6542C82.4436 31.5712 81.7885 32.2698 80.9152 32.8375C80.0419 33.4052 78.8628 33.6672 77.3782 33.6672C77.2472 33.6672 77.0725 33.6672 76.8978 33.6672C76.6795 33.6672 76.4611 33.6235 76.2865 33.6235C76.0681 33.6235 75.8498 33.5799 75.6315 33.5799C75.4131 33.5799 75.2821 33.5362 75.1511 33.5362V15.5016C75.3695 15.458 75.7188 15.458 76.1991 15.4143C76.6795 15.3706 77.1162 15.3706 77.6402 15.3706C79.0812 15.3706 80.2602 15.6326 81.0899 16.2003C81.9195 16.768 82.5746 17.4667 83.0112 18.34C83.4479 19.2133 83.7099 20.174 83.7972 21.222C83.9282 22.2701 83.9719 23.2744 83.9719 24.2351C83.9282 25.3704 83.8409 26.5058 83.7099 27.6411Z" fill="#1D1D1B"/>
<path d="M109.125 19.912C108.251 19.3007 107.291 18.864 106.286 18.602C105.238 18.34 104.234 18.209 103.273 18.209C101.832 18.209 100.479 18.4273 99.2123 18.864C97.946 19.3007 96.8543 19.912 95.9373 20.7854C95.0203 21.615 94.2779 22.7067 93.7102 23.9731C93.1862 25.2394 92.9242 26.7241 92.9242 28.4271C92.9242 29.9991 93.1426 31.4402 93.6229 32.6628C94.1033 33.8855 94.8019 34.9772 95.6753 35.8505C96.5923 36.7239 97.684 37.4226 98.9503 37.8592C100.26 38.3396 101.701 38.5579 103.361 38.5579C104.321 38.5579 105.195 38.4706 106.068 38.3396C106.898 38.1649 107.684 37.9902 108.382 37.7282C109.081 37.4662 109.692 37.2042 110.216 36.8986C110.74 36.5929 111.177 36.2872 111.483 35.9815L109.823 32.7065C109.212 33.2305 108.426 33.6672 107.422 34.0165C106.417 34.3659 105.195 34.5405 103.623 34.5405C102.837 34.5405 102.138 34.4532 101.439 34.2785C100.741 34.1039 100.173 33.8418 99.649 33.4925C99.125 33.1432 98.6883 32.6628 98.3826 32.0952C98.077 31.5275 97.9023 30.8288 97.8586 30.0428H111.701C111.963 28.7765 112.094 27.5538 112.094 26.4621C112.094 24.8464 111.832 23.5364 111.264 22.4884C110.697 21.353 109.998 20.5233 109.125 19.912ZM97.9896 26.3311C98.0333 25.6761 98.208 25.1084 98.5136 24.5844C98.8193 24.0604 99.2123 23.6237 99.6927 23.2744C100.173 22.925 100.697 22.663 101.265 22.4884C101.832 22.3137 102.487 22.2264 103.142 22.2264C104.583 22.2264 105.631 22.6194 106.33 23.3617C107.029 24.1041 107.378 25.1084 107.378 26.3748L97.9896 26.3311Z" fill="#1D1D1B"/>
<path d="M131.177 27.6842C130.26 27.2475 129.255 26.8545 128.163 26.5925C127.072 26.3305 126.067 26.0685 125.15 25.8065C124.233 25.5445 123.447 25.2825 122.836 25.0205C122.225 24.7585 121.875 24.3655 121.875 23.9288C121.875 23.3612 122.225 22.9245 122.88 22.6188C123.535 22.3568 124.408 22.1821 125.5 22.1821C126.067 22.1821 126.679 22.2258 127.29 22.3568C127.901 22.4878 128.469 22.6625 129.037 22.8372C129.605 23.0555 130.129 23.2738 130.609 23.4922C131.089 23.7542 131.57 23.9725 131.919 24.1908L134.015 20.7848C133.666 20.5228 133.229 20.2608 132.749 19.9114C132.268 19.6058 131.657 19.3001 130.958 19.0381C130.26 18.7761 129.43 18.5578 128.469 18.3831C127.508 18.2084 126.417 18.1211 125.15 18.1211C123.971 18.1211 122.88 18.2521 121.875 18.5141C120.871 18.7761 119.998 19.1691 119.255 19.6494C118.513 20.1298 117.945 20.7411 117.509 21.4835C117.072 22.1821 116.854 23.0118 116.854 23.9725C116.854 25.1078 117.159 26.0685 117.814 26.8109C118.426 27.5532 119.212 28.1209 120.129 28.6012C121.046 29.0816 122.05 29.4309 123.142 29.6929C124.233 29.9549 125.238 30.2169 126.155 30.4789C127.072 30.7409 127.858 31.0029 128.469 31.3086C129.081 31.6143 129.43 32.0073 129.43 32.5313C129.43 33.1863 129.124 33.6666 128.557 33.9723C127.989 34.2343 127.246 34.409 126.46 34.409C125.674 34.409 124.932 34.3216 124.146 34.1033C123.36 33.9286 122.618 33.6666 121.919 33.4046C121.22 33.1426 120.609 32.7933 120.041 32.4439C119.474 32.0946 119.037 31.7889 118.731 31.4833L116.417 35.1076C117.378 35.981 118.688 36.7233 120.26 37.3783C121.875 38.0333 123.753 38.339 125.98 38.339C128.775 38.339 130.871 37.7713 132.312 36.6797C133.753 35.588 134.452 34.0596 134.452 32.0946C134.452 30.9593 134.146 30.0422 133.491 29.3436C132.836 28.7322 132.094 28.1646 131.177 27.6842Z" fill="#1D1D1B"/>
<path d="M156.241 19.8683C155.674 19.3007 154.931 18.864 154.102 18.602C153.272 18.34 152.399 18.209 151.438 18.209C149.91 18.209 148.6 18.5147 147.464 19.126C146.373 19.7373 145.499 20.436 144.932 21.2657H144.757L144.189 18.733H137.464V22.9687H140.215V37.9466H145.194V25.5014C145.456 24.6717 146.023 24.0167 146.766 23.449C147.552 22.8814 148.425 22.6194 149.342 22.6194C150.434 22.6194 151.307 22.9687 152.006 23.6674C152.704 24.3661 153.054 25.5014 153.054 27.0298V37.9466H158.032V25.9818C158.032 24.4971 157.857 23.2307 157.508 22.2264C157.289 21.222 156.809 20.436 156.241 19.8683Z" fill="#1D1D1B"/>
<path d="M179.952 20.8289C179.079 19.9555 178.031 19.2569 176.764 18.7765C175.498 18.2962 174.057 18.0342 172.441 18.0342C170.913 18.0342 169.516 18.2525 168.293 18.6892C167.07 19.1259 165.979 19.7809 165.105 20.6542C164.188 21.5276 163.533 22.5756 163.053 23.8419C162.573 25.1083 162.311 26.5493 162.311 28.1213C162.311 29.6497 162.529 31.0033 162.966 32.2697C163.402 33.536 164.057 34.5841 164.931 35.4574C165.804 36.3307 166.852 37.0294 168.118 37.5098C169.385 37.9901 170.826 38.2521 172.441 38.2521C173.97 38.2521 175.367 38.0338 176.59 37.5971C177.812 37.1604 178.904 36.5054 179.777 35.6321C180.694 34.7587 181.349 33.7107 181.83 32.4444C182.31 31.178 182.572 29.737 182.572 28.165C182.572 26.6366 182.354 25.2829 181.917 24.0166C181.48 22.7502 180.825 21.7022 179.952 20.8289ZM176.066 32.6627C175.149 33.6234 173.926 34.1037 172.441 34.1037C171.655 34.1037 170.957 33.9727 170.345 33.667C169.734 33.3614 169.21 32.9684 168.773 32.4007C168.337 31.8767 167.987 31.2217 167.769 30.523C167.551 29.8243 167.42 29.0383 167.42 28.165C167.42 27.117 167.551 26.1999 167.813 25.4576C168.075 24.7153 168.424 24.1039 168.861 23.6236C169.297 23.1432 169.821 22.7939 170.433 22.5756C171.044 22.3572 171.699 22.2699 172.441 22.2699C174.057 22.2699 175.28 22.7939 176.153 23.8856C177.026 24.9773 177.463 26.4183 177.463 28.165C177.463 30.2173 177.026 31.702 176.066 32.6627Z" fill="#1D1D1B"/>
<path d="M199.166 33.0998C198.642 33.4055 198.162 33.6238 197.638 33.7985C197.114 33.9731 196.459 34.0605 195.673 34.0605C194.581 34.0605 193.839 33.6675 193.315 32.9251C192.834 32.1391 192.572 30.7854 192.572 28.8204V11.0479H184.406V15.2836H187.594V31.3968C187.594 33.6675 188.205 35.3705 189.384 36.6368C190.607 37.8595 192.397 38.4709 194.799 38.4709C195.498 38.4709 196.153 38.4272 196.721 38.3399C197.288 38.2525 197.812 38.1215 198.293 37.9469C198.773 37.7722 199.253 37.5975 199.69 37.3355C200.127 37.0735 200.563 36.8115 201 36.5495L199.166 33.0998Z" fill="#1D1D1B"/>
<path d="M8.82078 25.3705L5.15273 29.0385C4.80339 29.3879 4.27939 29.3879 3.93005 29.0385L0.262003 25.3705C-0.0873344 25.0212 -0.0873344 24.4972 0.262003 24.1478L3.93005 20.4798C4.27939 20.1304 4.80339 20.1304 5.15273 20.4798L8.82078 24.1478C9.12645 24.4972 9.12645 25.0212 8.82078 25.3705Z" fill="#1ED760"/>
<path d="M39.4314 24.148L20.4362 5.15273C20.0869 4.80339 20.0869 4.27939 20.4362 3.93005L24.1043 0.262003C24.4536 -0.0873344 24.9776 -0.0873344 25.3269 0.262003L49.2566 24.148C49.6059 24.4973 49.6059 25.0213 49.2566 25.3707L25.3269 49.3003C24.9776 49.6496 24.4536 49.6496 24.1043 49.3003L20.4362 45.6322C20.0869 45.2829 20.0869 44.7589 20.4362 44.4096L39.4314 25.4143C39.7808 25.0213 39.7808 24.4973 39.4314 24.148Z" fill="#1ED760"/>
<path d="M19.2139 24.148L10.3058 15.2836C9.95643 14.9343 9.95643 14.4102 10.3058 14.0609L13.9738 10.3929C14.3232 10.0435 14.8472 10.0435 15.1965 10.3929L28.9953 24.1917C29.3447 24.541 29.3447 25.065 28.9953 25.4144L15.1965 39.2132C14.8472 39.5626 14.3232 39.5626 13.9738 39.2132L10.3058 35.5452C9.95643 35.1958 9.95643 34.6718 10.3058 34.3225L19.1702 25.4581C19.5632 25.0214 19.5632 24.4974 19.2139 24.148Z" fill="#1ED760"/>
</svg>
